<svg width="19" height="19" viewBox="0 0 19 19" fill="none" xmlns="http://www.w3.org/2000/svg">
<path d="M18.0135 7.14619C18.0306 7.1054 18.0383 7.0615 18.0373 7.01761C18.3306 5.37651 18.263 3.68169 17.7409 2.02716C17.5064 1.28407 16.9234 0.700544 16.1803 0.466617C14.6167 -0.0260248 12.8387 -0.147378 11.0298 0.192927C11.0066 0.194476 10.9838 0.199124 10.9616 0.205837C10.5454 0.286911 10.1282 0.392256 9.71093 0.522904C9.58441 0.562666 9.45789 0.604494 9.33241 0.648904C9.3226 0.652002 9.31227 0.655617 9.30297 0.659232C5.49249 2.00651 2.10184 5.32435 0.692595 9.24327C0.664709 9.28562 0.647668 9.33416 0.643021 9.38425C0.46693 9.89238 0.324405 10.4103 0.21906 10.9355C0.20615 10.9686 0.199437 11.0042 0.198404 11.0393C-0.12331 12.7155 -0.0685723 14.4594 0.471577 16.1738C0.706021 16.9169 1.28903 17.5004 2.03212 17.7344C3.6913 18.2564 5.38766 18.3236 7.02825 18.0308C7.06956 18.0313 7.11087 18.0241 7.1496 18.0086C7.66445 17.911 8.17362 17.7777 8.67452 17.612C8.72564 17.6078 8.77522 17.5913 8.81911 17.5634C12.7917 16.1955 16.1963 12.7873 17.5663 8.8188C17.5984 8.7718 17.6164 8.71707 17.6195 8.66078C17.7837 8.16349 17.9159 7.65742 18.0135 7.14619ZM10.1499 1.0424C10.4287 0.962356 10.7076 0.894192 10.9864 0.837388C13.4367 2.54769 15.6985 4.79349 17.3928 7.10075C17.3412 7.37031 17.2772 7.64658 17.1997 7.92801C15.3835 5.329 12.863 2.83171 10.1499 1.0424ZM15.9929 1.0615C16.5413 1.2345 16.972 1.66517 17.145 2.21358C17.3975 3.01658 17.712 4.44803 17.5219 6.23372C15.9572 4.20635 13.9924 2.26316 11.8638 0.697445C13.3221 0.526002 14.7417 0.666462 15.9929 1.0615ZM7.10623 17.3843C4.79897 15.6889 2.55368 13.4287 0.844931 10.9794C0.902251 10.7026 0.970415 10.4248 1.05097 10.147C2.84338 12.8642 5.33912 15.3796 7.92781 17.1891C7.65567 17.2644 7.38147 17.33 7.10623 17.3843ZM2.22009 17.1379C1.67168 16.9649 1.24101 16.5343 1.06801 15.9859C0.659545 14.6902 0.527864 13.2892 0.70189 11.8531C2.26915 13.9848 4.21751 15.9533 6.24488 17.5175C4.90638 17.6683 3.54826 17.5567 2.22009 17.1379ZM12.2361 15.0166C11.1305 15.8516 9.93194 16.5095 8.68588 16.95C7.34893 16.0581 6.05175 14.9861 4.82686 13.7617C3.43879 12.3731 2.25263 10.8999 1.30091 9.38064C1.7574 8.13302 2.45144 6.89006 3.40161 5.69615C4.9353 3.76897 7.0644 2.14593 9.38405 1.29337C12.3497 3.15136 15.0995 5.896 16.9611 8.68712C16.0956 11.1317 14.3575 13.4106 12.2361 15.0166ZM13.1088 7.01245C13.3061 7.20971 13.1646 7.54588 12.8878 7.54588C12.8077 7.54588 12.7277 7.51542 12.6668 7.45448L11.9304 6.7181L11.2426 7.40542L11.9795 8.14232C12.1013 8.26419 12.1013 8.46197 11.9795 8.58435C11.856 8.70674 11.6583 8.70519 11.5374 8.58435L10.8005 7.84746L10.1127 8.5353L10.8491 9.27168C10.9709 9.39355 10.9709 9.59132 10.8491 9.71371C10.7272 9.83558 10.5289 9.83558 10.407 9.71371L9.67065 8.97733L8.98332 9.66465L9.7197 10.401C9.91697 10.5983 9.77548 10.9345 9.49869 10.9345C9.41865 10.9345 9.3386 10.904 9.27767 10.8431L8.54077 10.1067L7.85294 10.7945L8.58983 11.5314C8.7117 11.6533 8.7117 11.8511 8.58983 11.9735C8.46796 12.0953 8.26967 12.0953 8.1478 11.9735L7.41142 11.2371L6.72409 11.9244L7.46099 12.6608C7.58286 12.7826 7.58286 12.9804 7.46099 13.1028C7.33912 13.2247 7.14083 13.2247 7.01896 13.1028L6.28206 12.3659L5.80181 12.8467C5.67994 12.9686 5.48165 12.9686 5.35978 12.8467C5.23791 12.7248 5.23791 12.527 5.35978 12.4046L5.84003 11.9244L5.10365 11.188C4.98178 11.0662 4.98178 10.8684 5.10365 10.746C5.22551 10.6241 5.42329 10.6241 5.54568 10.746L6.28206 11.4824L6.96938 10.795L6.233 10.0576C6.11113 9.93576 6.11113 9.73746 6.233 9.6156C6.35487 9.49373 6.55265 9.49373 6.67504 9.6156L7.41142 10.3525L8.09926 9.66465L7.36288 8.92776C7.24101 8.80589 7.24101 8.60811 7.36288 8.48572C7.48475 8.36385 7.68252 8.36385 7.80491 8.48572L8.54181 9.2221L9.22913 8.53478L8.49223 7.7984C8.37036 7.67653 8.37036 7.47875 8.49223 7.35637C8.6141 7.2345 8.81188 7.2345 8.93427 7.35637L9.67116 8.09274L10.359 7.40542L9.62262 6.66904C9.50075 6.54717 9.50075 6.34939 9.62262 6.22701C9.74449 6.10514 9.94279 6.10514 10.0647 6.22701L10.801 6.96339L11.4884 6.27607L10.7515 5.53917C10.6296 5.4173 10.6296 5.21952 10.7515 5.09714C10.8733 4.97527 11.0711 4.97527 11.1935 5.09714L11.9299 5.83351L12.4101 5.35327C12.532 5.2314 12.7303 5.2314 12.8522 5.35327C12.974 5.47514 12.974 5.67292 12.8522 5.7953L12.3714 6.27555L13.1088 7.01245Z" fill="#88B6FF"/>
</svg>
