<svg width="20" height="20" viewBox="0 0 20 20" fill="none" xmlns="http://www.w3.org/2000/svg">
<path d="M19.9956 9.70742C19.9985 9.66468 19.9972 9.62178 19.9916 9.57931C19.988 9.39127 19.9741 9.19499 19.9504 8.99507C19.9493 8.93428 19.9437 8.87368 19.9338 8.81371C19.9182 8.65985 19.896 8.49971 19.869 8.35351C19.8173 8.02443 19.7455 7.69883 19.6538 7.37857C18.233 2.12707 12.8691 -1.02017 7.59173 0.301159C7.53816 0.314481 7.4846 0.328195 7.43447 0.344956L7.4301 0.346596C7.40123 0.35316 7.37489 0.363787 7.34645 0.370819L7.3461 0.370859L7.3459 0.370976C7.19998 0.406998 7.05699 0.445403 6.91669 0.495216L6.91294 0.496662C6.83675 0.51604 6.76463 0.539951 6.68993 0.566674C6.6105 0.595312 6.53119 0.623989 6.46919 0.650009C6.39789 0.675717 6.32658 0.701932 6.26603 0.727835C3.74441 1.737 1.74312 3.73043 0.723998 6.24802C0.694031 6.31491 0.667933 6.38344 0.645859 6.4533C0.614916 6.52526 0.588232 6.59836 0.557796 6.68252C0.535019 6.75073 0.512203 6.8191 0.499505 6.86892C0.441135 7.03324 0.391166 7.20042 0.349752 7.36982C0.330374 7.42761 0.313926 7.48832 0.294742 7.56095C0.186286 7.99673 0.107874 8.43939 0.0600527 8.88591L0.0598574 8.88638V8.88806C-0.476643 13.7828 2.64355 18.3352 7.40224 19.6008C7.71898 19.69 8.04087 19.7596 8.36612 19.8093C8.51849 19.837 8.67395 19.856 8.81769 19.873C8.88488 19.8835 8.95267 19.8898 9.02069 19.8915C9.21639 19.9159 9.41326 19.9296 9.61044 19.9325C9.64853 19.9382 9.68725 19.9389 9.72554 19.9343C9.83622 19.9384 9.94718 19.9404 10.0585 19.9404C10.615 19.9398 11.1705 19.8904 11.7184 19.7927C11.8236 19.7761 11.9346 19.7542 12.0465 19.7315C12.0581 19.7305 12.0697 19.7288 12.0811 19.7264L12.085 19.7243C12.2429 19.6916 12.4068 19.6541 12.5828 19.6083C12.8654 19.5356 13.1442 19.4484 13.418 19.3473C13.6985 19.2486 13.9732 19.1344 14.2409 19.005C16.3592 18.0218 18.064 16.3245 19.0563 14.2105C19.1874 13.9419 19.3032 13.6661 19.4032 13.3844C19.5049 13.1108 19.5926 12.8322 19.6659 12.5498C19.7486 12.2341 19.8092 11.9522 19.8502 11.6936C19.9 11.4117 19.9346 11.1311 19.9597 10.8523L19.9609 10.8488C19.9612 10.847 19.9604 10.8453 19.9606 10.8435C19.9956 10.4659 20.0073 10.0865 19.9956 9.70742ZM9.71792 19.2667L9.67053 19.2648L9.66338 19.2666L9.65588 19.2664C9.46616 19.2648 9.27675 19.2519 9.08855 19.2278L9.04429 19.2249C8.99877 19.2243 8.95337 19.2201 8.90852 19.2124C8.76639 19.1955 8.62461 19.1787 8.47552 19.1517C8.17238 19.1054 7.8724 19.0406 7.57723 18.9574C3.2805 17.8157 0.39265 13.7927 0.685241 9.35654C1.13848 9.45449 1.58544 9.57064 2.02344 9.70996L1.67424 10.1198C1.59595 10.2103 1.57219 10.3359 1.61204 10.4488C1.65186 10.5616 1.74914 10.6445 1.86693 10.6659C1.98469 10.6872 2.1049 10.6438 2.18183 10.5521L2.69821 9.94618C2.95404 10.0416 3.20654 10.1439 3.45573 10.253L3.07082 10.6191C2.98412 10.701 2.94787 10.8231 2.97572 10.9391C3.00358 11.0551 3.09133 11.1474 3.2058 11.1811C3.32027 11.2148 3.44401 11.1847 3.53023 11.1022L4.10666 10.5541C4.35128 10.6758 4.5937 10.8013 4.8307 10.9361L4.4075 11.2616C4.31311 11.3342 4.26462 11.4516 4.28025 11.5697C4.29591 11.6877 4.37335 11.7884 4.48341 11.8339C4.59347 11.8794 4.71943 11.8626 4.81382 11.7901L5.44213 11.3069C5.67225 11.4529 5.89682 11.6065 6.11831 11.7648L5.66975 12.0404C5.56731 12.1023 5.50589 12.2144 5.50886 12.3341C5.51183 12.4538 5.57872 12.5626 5.68413 12.6194C5.78954 12.6761 5.91725 12.672 6.01876 12.6086L6.6904 12.196C6.90442 12.3651 7.11375 12.5396 7.3184 12.7197L6.84343 12.9467C6.67727 13.0262 6.60699 13.2253 6.68641 13.3914C6.76584 13.5575 6.96494 13.6278 7.13106 13.5484L7.84826 13.2055C8.0438 13.3958 8.23419 13.5915 8.41941 13.7923L7.91616 13.971C7.74265 14.0327 7.65197 14.2233 7.71366 14.3968C7.77535 14.5703 7.96601 14.661 8.13952 14.5993L8.88719 14.3337C9.06175 14.5431 9.22952 14.758 9.39248 14.9771L8.87613 15.1017C8.69712 15.1449 8.58702 15.325 8.63015 15.504C8.67333 15.683 8.8534 15.7931 9.03241 15.75L9.80708 15.5631C9.95918 15.7899 10.1065 16.0201 10.246 16.2558L9.71237 16.3266C9.5384 16.3496 9.41209 16.5037 9.4235 16.6788C9.4349 16.8539 9.58016 16.9902 9.75566 16.9904C9.77047 16.9904 9.78528 16.9894 9.79993 16.9875L10.5997 16.8813C10.7266 17.1221 10.8439 17.3686 10.9576 17.6173L10.4161 17.6321C10.2338 17.6371 10.0893 17.7876 10.0918 17.9699C10.0942 18.1521 10.2427 18.2987 10.425 18.2987L10.4343 18.2986L11.236 18.2767C11.2885 18.4084 11.3461 18.5375 11.3949 18.6712C11.4519 18.8325 11.5045 18.9895 11.5543 19.1434C10.9483 19.2487 10.3327 19.29 9.71792 19.2667ZM19.1926 11.5834C19.1542 11.8258 19.098 12.0866 19.021 12.3809C18.9529 12.6426 18.8716 12.9007 18.7774 13.1542C18.6847 13.4161 18.577 13.6725 18.4551 13.9222C17.5286 15.8985 15.935 17.485 13.9547 18.4028C13.7057 18.5231 13.4503 18.6293 13.1894 18.721C12.9356 18.8148 12.6772 18.8955 12.4152 18.963C12.3437 18.9816 12.2795 18.9952 12.2116 19.0114C12.1532 18.8282 12.0913 18.6409 12.0225 18.4459C11.9743 18.3137 11.917 18.1861 11.8653 18.0556L12.5122 17.5423C12.6557 17.4277 12.6795 17.2185 12.5653 17.0746C12.4511 16.9306 12.242 16.9063 12.0977 17.0201L11.5996 17.4152C11.4742 17.1368 11.3428 16.8617 11.2015 16.5927L11.7876 16.0181C11.8729 15.9348 11.9072 15.8122 11.8775 15.6967C11.8478 15.5812 11.7587 15.4904 11.6438 15.4585C11.5289 15.4266 11.4057 15.4585 11.3207 15.5422L10.8619 15.992C10.7082 15.729 10.5469 15.4714 10.3779 15.2193L10.9077 14.5783C11.025 14.4363 11.0051 14.2261 10.8631 14.1088C10.7211 13.9915 10.5109 14.0114 10.3936 14.1534L9.98117 14.6524C9.80098 14.4071 9.61411 14.1674 9.42068 13.9333L9.88209 13.2378C9.94812 13.1386 9.95613 13.0116 9.90303 12.9048C9.84998 12.798 9.74394 12.7277 9.62494 12.7204C9.50593 12.7131 9.39208 12.7698 9.32629 12.8693L8.96978 13.4067C8.76529 13.1817 8.55295 12.9643 8.3358 12.7519L8.72189 12.0124C8.77701 11.9068 8.77162 11.7798 8.70774 11.6793C8.64387 11.5788 8.53123 11.5199 8.41218 11.525C8.29314 11.53 8.18589 11.5982 8.13077 11.7037L7.82818 12.2832C7.60161 12.0805 7.36927 11.8848 7.13118 11.696L7.44002 10.9147C7.48425 10.8038 7.46581 10.6777 7.39173 10.5841C7.31766 10.4905 7.19912 10.4437 7.08105 10.4613C6.96299 10.479 6.86332 10.5584 6.8198 10.6695L6.5803 11.2754C6.33385 11.097 6.0831 10.9249 5.8263 10.7612L6.05044 9.95719C6.09834 9.78036 5.99461 9.59807 5.81814 9.54884C5.6417 9.49965 5.45858 9.60201 5.4081 9.7781L5.23413 10.4021C4.9708 10.2504 4.70216 10.1077 4.42973 9.97149L4.56827 9.15006C4.59894 8.96854 4.47661 8.79652 4.29509 8.76589C4.11358 8.73522 3.94156 8.85755 3.91092 9.03906L3.80305 9.67839C3.52527 9.55482 3.24366 9.43937 2.95818 9.33204L3.01006 8.50217C3.01753 8.38328 2.96095 8.26947 2.86176 8.2036C2.76252 8.13773 2.6357 8.12976 2.529 8.18278C2.42234 8.23576 2.35202 8.34164 2.3446 8.46052L2.30478 9.09837C1.7963 8.93514 1.2796 8.79875 0.756777 8.68982C0.801746 8.36379 0.863553 8.04029 0.942005 7.72067C0.954546 7.67363 0.966931 7.62659 0.989865 7.55415C1.02471 7.4096 1.06914 7.26129 1.13606 7.06563C1.15216 7.00671 1.17107 6.95069 1.18927 6.89634C1.21287 6.83121 1.23631 6.76612 1.26499 6.70115L1.28175 6.6538C1.29808 6.60149 1.31781 6.55034 1.34086 6.50061C2.29283 4.14812 4.16335 2.28584 6.52002 1.34427C6.57682 1.32001 6.6364 1.29868 6.70997 1.27168C6.77655 1.24402 6.84574 1.21925 6.91509 1.19452C6.97553 1.17186 7.03729 1.15283 7.1 1.13756L7.20111 1.112L7.21428 1.09817C7.22455 1.09474 7.23561 1.09282 7.24596 1.0895C7.43049 1.61092 7.64326 2.12191 7.88334 2.6202L7.2589 2.74803C7.09133 2.7823 6.97689 2.93783 6.99405 3.10802C7.01116 3.27821 7.15431 3.4078 7.32531 3.40799C7.34786 3.40803 7.37032 3.40577 7.3924 3.40116L8.20645 3.23464C8.35221 3.5027 8.50568 3.76556 8.66688 4.02322L8.04958 4.21872C7.89288 4.26842 7.79575 4.42493 7.82083 4.58742C7.84587 4.74991 7.98563 4.86989 8.15003 4.87005C8.18422 4.87005 8.21824 4.86473 8.25079 4.85426L9.04484 4.60285C9.21756 4.85383 9.39619 5.09997 9.58306 5.33974L8.98955 5.59857C8.87914 5.64538 8.80237 5.7479 8.78854 5.86706C8.77471 5.98618 8.82593 6.10359 8.92267 6.17446C9.0194 6.24533 9.14677 6.25881 9.2562 6.2097L10.0192 5.87698C10.2171 6.10866 10.4227 6.33304 10.6336 6.55241L10.0688 6.87278C9.96433 6.93111 9.89909 7.04098 9.89791 7.16069C9.89674 7.28035 9.95984 7.39151 10.0632 7.45183C10.1666 7.51219 10.2943 7.51251 10.398 7.45265L11.1271 7.03895C11.3474 7.24851 11.5737 7.45136 11.8058 7.64757L11.2752 8.02697C11.1776 8.09601 11.1245 8.21192 11.1359 8.33089C11.1473 8.44986 11.2215 8.55359 11.3303 8.60285C11.4392 8.65212 11.5661 8.63934 11.663 8.56941L12.3409 8.08471C12.5816 8.27022 12.8264 8.45025 13.0778 8.62141L12.5957 9.04899C12.5053 9.12767 12.464 9.24887 12.4877 9.36639C12.5113 9.48391 12.5963 9.5797 12.7102 9.61721C12.8241 9.65472 12.9493 9.62823 13.0382 9.54778L13.6614 8.99511C13.92 9.15471 14.1835 9.3063 14.4521 9.44992L14.0157 9.92707C13.892 10.0631 13.9017 10.2736 14.0374 10.3976C14.1732 10.5217 14.3837 10.5124 14.508 10.377L15.069 9.76333C15.3426 9.89499 15.6202 10.0188 15.9018 10.1348L15.5199 10.6521C15.4106 10.8003 15.4421 11.009 15.5902 11.1183C15.7384 11.2276 15.9471 11.1962 16.0564 11.048L16.5439 10.3877C16.83 10.4899 17.1207 10.5814 17.414 10.6668L17.0914 11.2157C16.9988 11.3744 17.052 11.5781 17.2105 11.6713C17.3689 11.7644 17.5728 11.7118 17.6664 11.5536L18.0854 10.8403C18.2218 10.8733 18.356 10.9122 18.4937 10.9415C18.7358 10.9936 18.9954 11.0393 19.2668 11.0825C19.2466 11.2484 19.2222 11.4154 19.1926 11.5834ZM19.3213 10.4158C19.0805 10.3767 18.8493 10.3356 18.6332 10.2892C18.4926 10.2593 18.3553 10.2198 18.2161 10.1858L18.1263 9.39034C18.1137 9.27133 18.0383 9.16827 17.9287 9.12017C17.8191 9.07211 17.6922 9.08645 17.5961 9.15775C17.5 9.22906 17.4495 9.34638 17.4638 9.46519L17.5243 10.002C17.2623 9.92422 17.0019 9.84264 16.746 9.75063L16.7398 8.94471C16.7384 8.76155 16.5896 8.61383 16.4064 8.61375H16.4038C16.2198 8.6152 16.0717 8.76554 16.073 8.94959L16.0771 9.48719C15.8243 9.38194 15.5759 9.26824 15.3302 9.14939L15.4074 8.35656C15.4249 8.17356 15.2909 8.01095 15.108 7.99306C14.925 7.9752 14.7621 8.10882 14.7439 8.29174L14.6923 8.82094C14.4525 8.69013 14.2162 8.55413 13.9845 8.41047L14.1438 7.63241C14.1808 7.45206 14.0645 7.2759 13.8842 7.23894C13.7038 7.20198 13.5277 7.31825 13.4907 7.4986L13.3832 8.02334C13.1582 7.86827 12.9388 7.70551 12.7229 7.53833L12.9629 6.78003C13.0185 6.60445 12.9212 6.41708 12.7456 6.36148C12.57 6.30593 12.3826 6.40321 12.3271 6.57882L12.168 7.08157C11.9607 6.90435 11.7586 6.72139 11.5618 6.53268L11.8774 5.809C11.9488 5.64073 11.8713 5.44636 11.7038 5.37326C11.5363 5.30016 11.3411 5.37557 11.2663 5.54235L11.0551 6.02666C10.8676 5.82932 10.6839 5.62854 10.5073 5.42093L10.8994 4.72971C10.9902 4.5696 10.934 4.36617 10.7739 4.27537C10.6137 4.18458 10.4103 4.24076 10.3195 4.40086L10.0561 4.86516C9.88971 4.64915 9.73144 4.42669 9.577 4.20122L10.0397 3.55415C10.1097 3.4573 10.1224 3.33036 10.0731 3.22152C10.0239 3.11267 9.92011 3.03848 9.80118 3.02711C9.68221 3.01574 9.56629 3.06887 9.49726 3.16639L9.18806 3.59877C9.04538 3.36705 8.90899 3.13127 8.77885 2.89142L9.30746 2.2953C9.42744 2.15734 9.41392 1.94844 9.27714 1.82713C9.14036 1.70578 8.93138 1.71727 8.8087 1.85284L8.45067 2.25658C8.24251 1.8226 8.05884 1.37486 7.89331 0.917947C11.0307 0.176957 14.328 1.11568 16.6046 3.39807C17.7605 4.54702 18.591 5.98204 19.0113 7.55669C19.0968 7.85546 19.1637 8.15918 19.2119 8.46619C19.2369 8.60277 19.2565 8.74471 19.2727 8.89986C19.2795 8.93834 19.2832 8.97733 19.2836 9.0164L19.2861 9.0566C19.3089 9.24152 19.3219 9.42753 19.3251 9.61385L19.3233 9.64038L19.3295 9.67081L19.3277 9.69199L19.3284 9.71301C19.337 9.94391 19.3325 10.1789 19.3213 10.4158Z" fill="#88B6FF"/>
</svg>
