<?xml version="1.0" encoding="iso-8859-1"?>
<!-- Uploaded to: SVG Repo, www.svgrepo.com, Generator: SVG Repo Mixer Tools -->
<svg fill="#000000" height="800px" width="800px" version="1.1" id="Layer_1" xmlns="http://www.w3.org/2000/svg" xmlns:xlink="http://www.w3.org/1999/xlink" 
	 viewBox="0 0 463.129 463.129" xml:space="preserve">
<g>
	<g>
		<path d="M455.364,172.397L455.364,172.397c-15.8-59.7-53.9-109.8-107.4-140.8c-53.5-31.1-115.9-39.6-175.6-23.8
			s-109.8,53.9-140.8,107.4c-31.1,53.5-39.6,115.9-23.8,175.6c15.8,59.7,53.9,109.8,107.4,140.8c35.9,20.9,75.8,31.5,116.2,31.5
			c19.8,0,39.7-2.6,59.4-7.8c59.7-15.8,109.8-53.9,140.8-107.4C462.664,294.497,471.164,232.097,455.364,172.397z M348.464,49.597
			c44.4,28.3,75,70.6,89.6,117.7c-31.1,4.4-68.8,16.2-102.9,32.1c-42.7,20-74.7,44.5-90.3,69.1c-27.7-10.3-55.2-22.4-73.7-34.8
			c2.9-6.4,5.8-12.4,8.9-17.6C216.064,153.997,326.264,66.696,348.464,49.597z M176.264,22.297L176.264,22.297
			c18.4-4.9,37-7.3,55.5-7.3c35.6,0,70.8,8.9,102.9,26.3c-30.6,23.9-131.8,105.6-167.5,167.2c-2.9,5-5.7,10.5-8.4,16.5
			c-8.1-5.9-16.6-12.8-25.3-20.3c10-22.5,15-48.6,14.4-76.1c-0.6-29.1-7.3-59.2-19.3-87.5
			C143.464,33.097,159.464,26.697,176.264,22.297z M115.564,48.697c20.8,49.9,22.9,103.8,6.1,145.5c-36.3-32.7-70.9-70.2-75.1-74.9
			C64.064,90.396,87.664,66.397,115.564,48.697z M38.864,133.197c10.9,11.8,42.9,45.7,76.1,75.3c0,0.1-0.1,0.1-0.1,0.2
			c-9.6,16.8-22.3,30.4-35.8,38.3c-0.1,0-0.1,0.1-0.2,0.1c-14.4,8.9-30.1,13.6-61,18.4
			C10.964,221.497,17.364,175.197,38.864,133.197z M109.564,410.397c-46.3-31.6-76.9-78.7-88.8-130.3v0
			c32.7-5.1,49.7-10.3,65.9-20.3c15-8.8,29.1-23.4,39.8-41.3c9,7.6,17.8,14.7,26.3,20.7
			C129.864,296.997,114.664,380.297,109.564,410.397z M123.364,418.997c3.5-21.4,18.9-110.8,42.1-171.2
			c19.1,12.3,45.9,24.1,72.9,34.2c-15.6,41.5,7,88.7,27.1,130.8c5,10.4,9.7,20.3,13.8,29.9
			C226.064,454.797,170.964,446.497,123.364,418.997z M293.964,438.897L293.964,438.897c-4.5-10.6-9.6-21.3-15-32.5
			c-19.7-41.2-40-83.7-26.6-119.2c34.6,12.3,67.5,21.7,82.3,25.7c45.5,12.1,73.6,26.9,81.5,31.4
			C388.364,390.197,345.264,423.497,293.964,438.897z M423.664,331.197L423.664,331.197c-8.8-5-37.7-20.2-85-32.8
			c-14.4-3.9-45.9-12.9-79.2-24.6c14.7-21.3,43.6-42.7,82.1-60.8c32.9-15.4,70.7-27.1,100.5-31.1
			C453.664,230.797,448.364,283.697,423.664,331.197z"/>
	</g>
</g>
</svg>