<svg width="30" height="30" viewBox="0 0 30 30" fill="none" xmlns="http://www.w3.org/2000/svg">
<path d="M26.3329 22.2435H24.5769V19.9291C24.5769 19.6058 24.3148 19.3438 23.9916 19.3438C23.6684 19.3438 23.4062 19.6058 23.4062 19.9291V22.8289C23.4062 23.1521 23.6684 23.4142 23.9916 23.4142H26.3329C26.6561 23.4142 26.9182 23.1521 26.9182 22.8289C26.9182 22.5056 26.6561 22.2435 26.3329 22.2435Z" fill="#88B6FF"/>
<path d="M4.12438 9.32689H12.2845C12.6077 9.32689 12.8698 9.06484 12.8698 8.74157C12.8698 8.4183 12.6077 8.15625 12.2845 8.15625H4.12438C3.80117 8.15625 3.53906 8.4183 3.53906 8.74157C3.53906 9.06484 3.80111 9.32689 4.12438 9.32689Z" fill="#88B6FF"/>
<path d="M14.3197 18.6875H4.12438C3.80117 18.6875 3.53906 18.9495 3.53906 19.2728C3.53906 19.5961 3.80117 19.8581 4.12438 19.8581H14.3198C14.643 19.8581 14.9051 19.5961 14.9051 19.2728C14.9051 18.9495 14.643 18.6875 14.3197 18.6875Z" fill="#88B6FF"/>
<path d="M14.3197 22.1992H4.12438C3.80117 22.1992 3.53906 22.4613 3.53906 22.7845C3.53906 23.1078 3.80117 23.3699 4.12438 23.3699H14.3198C14.643 23.3699 14.9051 23.1078 14.9051 22.7845C14.9051 22.4613 14.643 22.1992 14.3197 22.1992Z" fill="#88B6FF"/>
<path d="M17.6109 15.1797H4.12438C3.80117 15.1797 3.53906 15.4417 3.53906 15.765C3.53906 16.0883 3.80117 16.3503 4.12438 16.3503H17.6109C17.9341 16.3503 18.1962 16.0883 18.1962 15.765C18.1962 15.4417 17.9341 15.1797 17.6109 15.1797Z" fill="#88B6FF"/>
<path d="M28.1713 18.6204C26.4264 16.8755 23.853 16.4519 21.7054 17.3491V7.00277C21.7054 6.57467 21.5387 6.1722 21.2361 5.86953L15.8365 0.46931C15.7107 0.343583 15.5644 0.240801 15.4057 0.163538C15.4003 0.160612 15.3947 0.158095 15.3892 0.155285C15.3885 0.154934 15.3878 0.154583 15.3871 0.15429C15.3699 0.145569 15.3521 0.137726 15.3339 0.130761C15.1354 0.045772 14.9203 0 14.7027 0H1.69392C0.759921 0 0 0.759863 0 1.69392V28.3061C0 29.2401 0.759863 30 1.69386 30H20.0115C20.9058 30 21.6487 29.3008 21.7026 28.4081C21.7033 28.3963 21.7037 28.3846 21.7037 28.3728V28.2515C22.4334 28.5566 23.2122 28.7095 23.9911 28.7095C25.505 28.7095 27.0188 28.1333 28.1713 26.9809C29.2879 25.8642 29.9028 24.3797 29.9028 22.8006C29.9028 21.2215 29.2879 19.737 28.1713 18.6204ZM19.7071 5.99602H15.8394C15.7676 5.99602 15.7094 5.93801 15.7094 5.86666V1.99787L19.7071 5.99602ZM20.533 28.3519C20.5094 28.6208 20.283 28.8294 20.0115 28.8294H1.69392C1.40535 28.8294 1.1707 28.5946 1.1707 28.3061V1.69392C1.1707 1.40535 1.40541 1.17064 1.69392 1.17064H14.5388V5.86666C14.5388 6.58351 15.1222 7.16666 15.8394 7.16666H20.5348V18.0044C20.2813 18.1873 20.039 18.3924 19.8109 18.6204C18.6944 19.7371 18.0794 21.2216 18.0794 22.8007C18.0794 24.3798 18.6944 25.8643 19.8109 26.9809C20.0384 27.2084 20.2802 27.4131 20.5331 27.5957V28.3519H20.533ZM27.3435 26.1531C25.495 28.0017 22.4872 28.0017 20.6386 26.1531C19.7431 25.2576 19.25 24.067 19.25 22.8007C19.25 21.5343 19.7431 20.3437 20.6386 19.4483C21.5629 18.524 22.777 18.0618 23.991 18.0618C25.2051 18.0618 26.4192 18.524 27.3435 19.4483C28.2389 20.3437 28.7321 21.5343 28.7321 22.8007C28.7321 24.067 28.239 25.2576 27.3435 26.1531Z" fill="#88B6FF"/>
<path d="M4.06579 12.8777H14.6257C14.9489 12.8777 15.211 12.6156 15.211 12.2924C15.211 11.9691 14.9489 11.707 14.6257 11.707H4.06579C3.74257 11.707 3.48047 11.9691 3.48047 12.2924C3.48047 12.6156 3.74252 12.8777 4.06579 12.8777Z" fill="#88B6FF"/>
<path d="M17.5387 12.8783C17.8622 12.8783 18.1244 12.6161 18.1244 12.2926C18.1244 11.9692 17.8622 11.707 17.5387 11.707C17.2153 11.707 16.9531 11.9692 16.9531 12.2926C16.9531 12.6161 17.2153 12.8783 17.5387 12.8783Z" fill="#88B6FF"/>
</svg>
