<svg width="30" height="27" viewBox="0 0 30 27" fill="none" xmlns="http://www.w3.org/2000/svg">
<path d="M7.66374 6.33702H11.8995C11.9892 6.33701 12.0756 6.30269 12.1408 6.24108C12.2061 6.17948 12.2453 6.09525 12.2505 6.00565C12.279 5.54528 12.4355 5.10202 12.7024 4.72583C12.9694 4.34964 13.336 4.05547 13.7611 3.87648C13.8123 3.85513 13.8576 3.82201 13.8935 3.77981C13.9294 3.73761 13.9548 3.68753 13.9677 3.63365C13.9805 3.57976 13.9805 3.5236 13.9675 3.46974C13.9545 3.41588 13.929 3.36585 13.893 3.32373C13.6938 3.09041 13.4813 2.86064 13.2614 2.64078C12.1101 1.4895 10.7903 0.63687 9.54511 0.240032C8.22083 -0.182083 7.12128 -0.0442417 6.44889 0.628157C5.34465 1.73306 5.71966 3.97055 7.38215 6.19585C7.41488 6.23966 7.45737 6.27523 7.50625 6.29973C7.55513 6.32424 7.60906 6.337 7.66374 6.33702ZM6.94611 1.12526C7.42318 0.648184 8.27039 0.571708 9.33154 0.90994C10.4717 1.27335 11.6908 2.06462 12.7641 3.13796C12.8652 3.23898 12.9643 3.34195 13.0615 3.44687C12.6739 3.68518 12.3416 4.0036 12.0871 4.38079C11.8325 4.75798 11.6615 5.18523 11.5855 5.63389H7.8419C6.52557 3.8043 6.14625 1.9256 6.94611 1.12526Z" fill="#00BF9E"/>
<path d="M15.6538 3.87716C16.0789 4.05595 16.4456 4.34998 16.7125 4.72608C16.9794 5.10218 17.1358 5.54538 17.1642 6.00567C17.1694 6.09527 17.2086 6.1795 17.2739 6.24111C17.3391 6.30272 17.4255 6.33704 17.5152 6.33704H21.751C21.8057 6.33704 21.8596 6.32428 21.9085 6.29977C21.9574 6.27527 21.9999 6.23969 22.0326 6.19588C23.6954 3.9702 24.0704 1.73268 22.9658 0.628098C22.2935 -0.0442415 21.1939 -0.182089 19.8696 0.240055C18.6245 0.636923 17.3046 1.48952 16.1534 2.64083C15.932 2.86227 15.7193 3.09235 15.5214 3.32475C15.4855 3.36691 15.4601 3.41695 15.4472 3.4708C15.4343 3.52465 15.4343 3.58078 15.4472 3.63463C15.4601 3.68848 15.4855 3.73851 15.5214 3.78066C15.5574 3.82281 15.6027 3.85589 15.6538 3.87719L15.6538 3.87716ZM16.6506 3.13799C18.7729 1.01562 21.4372 0.0939168 22.4686 1.12529C23.2687 1.92538 22.8894 3.80407 21.5729 5.63392H17.8292C17.7533 5.18524 17.5823 4.75799 17.3277 4.38083C17.0731 4.00367 16.7408 3.68533 16.353 3.44716C16.4498 3.34267 16.5489 3.23961 16.6506 3.13799Z" fill="#00BF9E"/>
<path d="M26.7584 12.4375H2.65234C2.5591 12.4375 2.46968 12.4745 2.40375 12.5405C2.33782 12.6064 2.30078 12.6958 2.30078 12.7891V23.6327C2.30177 24.4974 2.6457 25.3263 3.25712 25.9377C3.86854 26.5492 4.69751 26.8931 5.56217 26.894H23.8485C24.7132 26.8931 25.5422 26.5492 26.1536 25.9377C26.765 25.3263 27.1089 24.4974 27.1099 23.6327V12.7891C27.1099 12.6958 27.0729 12.6064 27.0069 12.5405C26.941 12.4745 26.8516 12.4375 26.7584 12.4375ZM26.4068 23.6327C26.406 24.3109 26.1362 24.9612 25.6566 25.4408C25.177 25.9204 24.5268 26.1902 23.8485 26.1909H5.56217C4.88392 26.1902 4.23367 25.9204 3.75407 25.4408C3.27446 24.9612 3.00468 24.311 3.00391 23.6327V13.1406H26.4068V23.6327Z" fill="#00BF9E"/>
<path d="M0.351563 9.06641C0.258322 9.06641 0.168901 9.10345 0.10297 9.16938C0.0370395 9.23531 0 9.32473 0 9.41797V9.94531C0.000310802 10.0386 0.0376484 10.1279 0.103799 10.1936C0.169949 10.2593 0.259494 10.296 0.352734 10.2957C0.445975 10.2954 0.535272 10.2581 0.600983 10.1919C0.666694 10.1258 0.703436 10.0362 0.703125 9.94297V9.41797C0.703125 9.32473 0.666086 9.23531 0.600155 9.16938C0.534224 9.10345 0.444803 9.06641 0.351563 9.06641Z" fill="#00BF9E"/>
<path d="M5.97921 21.9582H7.0294C7.36706 21.9584 7.69636 21.8531 7.9713 21.6571C8.24623 21.4611 8.45308 21.1841 8.56295 20.8648C8.67282 20.5455 8.68022 20.1999 8.58413 19.8762C8.48803 19.5525 8.29324 19.2669 8.02695 19.0592C8.21739 18.8794 8.34946 18.6466 8.40604 18.3909C8.46261 18.1352 8.4411 17.8684 8.34428 17.625C8.24746 17.3817 8.07979 17.173 7.86301 17.026C7.64622 16.8791 7.3903 16.8006 7.12839 16.8008H5.97921C5.79106 16.801 5.61068 16.8758 5.47763 17.0089C5.34459 17.1419 5.26975 17.3223 5.26953 17.5104V21.2485C5.26974 21.4367 5.34458 21.6171 5.47763 21.7501C5.61067 21.8832 5.79105 21.958 5.97921 21.9582ZM5.97266 17.5104C5.97266 17.5087 5.97336 17.507 5.97458 17.5058C5.97581 17.5046 5.97747 17.5039 5.97921 17.5039H7.12839C7.28864 17.5044 7.44214 17.5684 7.55528 17.6819C7.66841 17.7954 7.73194 17.9491 7.73194 18.1093C7.73194 18.2696 7.66841 18.4233 7.55528 18.5368C7.44214 18.6502 7.28864 18.7143 7.12839 18.7148H5.97266V17.5104ZM5.97266 19.4179H7.0294C7.15023 19.4176 7.26993 19.4411 7.38165 19.4871C7.49336 19.5332 7.5949 19.6008 7.68045 19.6861C7.766 19.7714 7.83387 19.8728 7.88018 19.9844C7.92649 20.096 7.95032 20.2156 7.95032 20.3365C7.95032 20.4573 7.92649 20.5769 7.88018 20.6885C7.83387 20.8001 7.766 20.9015 7.68045 20.9868C7.5949 21.0722 7.49336 21.1398 7.38165 21.1858C7.26993 21.2318 7.15023 21.2554 7.0294 21.2551H5.97921C5.97747 21.2551 5.97581 21.2544 5.97458 21.2532C5.97335 21.2519 5.97266 21.2503 5.97266 21.2485V19.4179Z" fill="#00BF9E"/>
<path d="M14.2149 21.9582C14.3081 21.9582 14.3975 21.9212 14.4634 21.8552C14.5294 21.7893 14.5664 21.6999 14.5664 21.6066V18.2084L16.6119 21.7449C16.6571 21.823 16.7268 21.884 16.8102 21.9185C16.8936 21.9529 16.986 21.9589 17.0731 21.9356C17.1603 21.9122 17.2373 21.8607 17.2922 21.7891C17.3471 21.7175 17.3769 21.6298 17.3769 21.5396V17.1523C17.3769 17.0591 17.3399 16.9697 17.2739 16.9038C17.208 16.8378 17.1186 16.8008 17.0253 16.8008C16.9321 16.8008 16.8427 16.8378 16.7767 16.9038C16.7108 16.9697 16.6738 17.0591 16.6738 17.1523V20.4474L14.693 17.023C14.644 16.9383 14.5685 16.8721 14.478 16.8346C14.3876 16.7972 14.2873 16.7907 14.1927 16.8161C14.0982 16.8414 14.0147 16.8973 13.9551 16.975C13.8955 17.0526 13.8633 17.1478 13.8633 17.2457V21.6066C13.8633 21.6528 13.8724 21.6985 13.89 21.7412C13.9077 21.7838 13.9336 21.8226 13.9662 21.8552C13.9989 21.8879 14.0377 21.9138 14.0803 21.9314C14.123 21.9491 14.1687 21.9582 14.2149 21.9582Z" fill="#00BF9E"/>
<path d="M11.2125 21.9582C12.4906 21.9582 13.5305 20.8014 13.5305 19.3795C13.5305 17.9576 12.4906 16.8008 11.2125 16.8008C9.93437 16.8008 8.89453 17.9576 8.89453 19.3795C8.89453 20.8014 9.93437 21.9582 11.2125 21.9582ZM11.2125 17.5039C12.1029 17.5039 12.8273 18.3453 12.8273 19.3795C12.8273 20.4137 12.1029 21.2551 11.2125 21.2551C10.3221 21.2551 9.59766 20.4137 9.59766 19.3795C9.59766 18.3453 10.3221 17.5039 11.2125 17.5039Z" fill="#00BF9E"/>
<path d="M22.6311 21.2535C22.503 21.2456 22.3789 21.2055 22.2704 21.1369C22.1619 21.0682 22.0725 20.9733 22.0105 20.8608C21.9881 20.8204 21.958 20.7849 21.9218 20.7562C21.8857 20.7275 21.8442 20.7061 21.7998 20.6934C21.7554 20.6807 21.709 20.6769 21.6631 20.6822C21.6173 20.6874 21.5729 20.7017 21.5325 20.7241C21.4921 20.7465 21.4566 20.7766 21.4279 20.8128C21.3991 20.8489 21.3778 20.8904 21.3651 20.9347C21.3524 20.9791 21.3486 21.0256 21.3538 21.0715C21.3591 21.1173 21.3733 21.1617 21.3957 21.2021C21.5147 21.4178 21.6863 21.5999 21.8945 21.7316C22.1028 21.8633 22.3409 21.9402 22.5868 21.9552C22.6181 21.9572 22.6492 21.9582 22.6802 21.9582C23.0541 21.9579 23.4138 21.8148 23.6858 21.5582C23.9577 21.3016 24.1215 20.9509 24.1436 20.5776C24.1657 20.2044 24.0444 19.8367 23.8046 19.5499C23.5648 19.263 23.2244 19.0785 22.8532 19.0341L22.8519 19.034L22.8503 19.0338L22.8471 19.0335C22.8224 19.0307 22.7974 19.0283 22.7714 19.0266C22.754 19.0255 22.7368 19.0251 22.7197 19.0247C22.5986 19.0087 22.483 18.9639 22.3828 18.8941C22.2826 18.8242 22.2006 18.7313 22.1437 18.6232C22.0869 18.515 22.0568 18.3948 22.056 18.2727C22.0551 18.1505 22.0837 18.0299 22.1391 17.9211C22.1945 17.8122 22.2753 17.7182 22.3746 17.647C22.4739 17.5758 22.5888 17.5295 22.7097 17.5119C22.8306 17.4943 22.9539 17.506 23.0694 17.5459C23.1848 17.5859 23.289 17.653 23.3732 17.7415C23.4374 17.8091 23.5259 17.8483 23.6191 17.8506C23.6653 17.8518 23.7112 17.8438 23.7543 17.8272C23.7974 17.8106 23.8368 17.7857 23.8702 17.7539C23.9036 17.7221 23.9305 17.684 23.9492 17.6418C23.9679 17.5996 23.9782 17.5541 23.9793 17.5079C23.9805 17.4618 23.9725 17.4159 23.9559 17.3728C23.9393 17.3297 23.9144 17.2903 23.8826 17.2569C23.7204 17.0863 23.5195 16.9573 23.2969 16.8807C23.0744 16.804 22.8366 16.7821 22.6038 16.8167C22.371 16.8513 22.1499 16.9414 21.9593 17.0795C21.7686 17.2175 21.6139 17.3994 21.5083 17.6097C21.4028 17.8201 21.3493 18.0528 21.3526 18.2881C21.3559 18.5235 21.4157 18.7546 21.5271 18.962C21.6385 19.1693 21.7981 19.3469 21.9925 19.4795C22.1869 19.6122 22.4104 19.6962 22.6441 19.7243C22.6464 19.7246 22.6488 19.7247 22.651 19.725C22.652 19.7251 22.6531 19.7253 22.6541 19.7254C22.6577 19.7257 22.6614 19.726 22.6651 19.7263H22.6651C22.6857 19.7285 22.7062 19.7307 22.7273 19.732C22.7447 19.7331 22.7619 19.7333 22.779 19.7338C22.9754 19.7597 23.154 19.8609 23.2772 20.016C23.4004 20.1711 23.4585 20.368 23.4393 20.5651C23.4202 20.7623 23.3251 20.9443 23.1744 21.0727C23.0236 21.2011 22.8288 21.266 22.6311 21.2535V21.2535Z" fill="#00BF9E"/>
<path d="M19.3766 21.9582C19.7881 21.9577 20.1825 21.7941 20.4735 21.5031C20.7644 21.2122 20.928 20.8178 20.9285 20.4063V17.1523C20.9285 17.0591 20.8915 16.9697 20.8255 16.9038C20.7596 16.8378 20.6702 16.8008 20.5769 16.8008C20.4837 16.8008 20.3943 16.8378 20.3283 16.9038C20.2624 16.9697 20.2254 17.0591 20.2254 17.1523V20.4063C20.2253 20.6307 20.1363 20.8459 19.9779 21.0049C19.8196 21.1639 19.6047 21.2537 19.3803 21.2546C19.1559 21.2556 18.9403 21.1677 18.7805 21.0101C18.6208 20.8524 18.53 20.638 18.528 20.4136C18.5064 17.8245 18.5233 17.325 18.5309 17.2295C18.5489 17.1493 18.5383 17.0654 18.5008 16.9922C18.4634 16.9191 18.4015 16.8613 18.3259 16.8291C18.2504 16.7968 18.1659 16.792 18.0871 16.8156C18.0084 16.8391 17.9404 16.8895 17.8949 16.9579C17.8141 17.0798 17.7972 17.1051 17.8248 20.4195C17.8294 20.8284 17.9948 21.2191 18.2852 21.507C18.5756 21.795 18.9677 21.9571 19.3766 21.9582Z" fill="#00BF9E"/>
<path d="M26.2148 5.63281H3.19631C2.44976 5.63248 1.72664 5.89352 1.15244 6.37062C0.578233 6.84773 0.18917 7.5108 0.0527563 8.24478C0.0443468 8.29018 0.0449611 8.33679 0.0545641 8.38194C0.0641671 8.4271 0.0825707 8.46993 0.108724 8.50797C0.134878 8.54602 0.168269 8.57854 0.206991 8.60368C0.245713 8.62883 0.289009 8.64609 0.334405 8.6545C0.379801 8.66291 0.426409 8.6623 0.471567 8.6527C0.516726 8.64309 0.559551 8.62469 0.597597 8.59854C0.635644 8.57238 0.668166 8.53899 0.693308 8.50027C0.718449 8.46155 0.735718 8.41825 0.744127 8.37286C0.850609 7.80038 1.15414 7.28325 1.60206 6.91119C2.04998 6.53912 2.61402 6.33561 3.19631 6.33595H26.2149C26.8763 6.3367 27.5105 6.5998 27.9782 7.06753C28.4459 7.53525 28.709 8.16941 28.7098 8.83087V9.94122C28.709 10.6027 28.4459 11.2368 27.9782 11.7046C27.5105 12.1723 26.8763 12.4354 26.2149 12.4361H3.19631C2.70601 12.4367 2.22645 12.2925 1.81771 12.0217C1.40897 11.7509 1.08922 11.3655 0.89851 10.9139C0.880774 10.8709 0.854715 10.832 0.821838 10.7992C0.788961 10.7664 0.749918 10.7405 0.706961 10.7229C0.664004 10.7053 0.617984 10.6963 0.571559 10.6966C0.525133 10.6969 0.479221 10.7063 0.436473 10.7244C0.393725 10.7426 0.354987 10.769 0.322496 10.8021C0.290005 10.8353 0.264403 10.8745 0.24717 10.9177C0.229937 10.9608 0.221412 11.0069 0.222089 11.0533C0.222766 11.0997 0.232631 11.1455 0.251114 11.1881C0.495541 11.7671 0.905379 12.261 1.42928 12.6081C1.95319 12.9552 2.56787 13.14 3.19631 13.1393H26.2149C27.0627 13.1383 27.8756 12.8011 28.4752 12.2016C29.0747 11.602 29.412 10.7891 29.4129 9.94125V8.83089C29.412 7.983 29.0747 7.17011 28.4752 6.57056C27.8756 5.97101 27.0627 5.63376 26.2148 5.63281Z" fill="#00BF9E"/>
<path d="M14.7068 2.98438C13.8995 2.98463 13.1227 3.29333 12.5355 3.84734C11.9482 4.40135 11.5947 5.1588 11.5475 5.96476C11.5447 6.01255 11.5517 6.0604 11.5681 6.10538C11.5845 6.15035 11.6099 6.19151 11.6428 6.22632C11.6757 6.26112 11.7153 6.28885 11.7592 6.3078C11.8032 6.32676 11.8506 6.33653 11.8984 6.33652H17.5146C17.5625 6.33652 17.6099 6.32675 17.6538 6.3078C17.6978 6.28884 17.7374 6.26112 17.7703 6.22631C17.8031 6.19151 17.8285 6.15036 17.8449 6.10539C17.8613 6.06042 17.8684 6.01257 17.8656 5.96479C17.8184 5.15889 17.4651 4.40147 16.8779 3.84745C16.2908 3.29344 15.5141 2.98469 14.7068 2.98438ZM12.2993 5.6334C12.4174 5.08259 12.7208 4.58894 13.1589 4.23482C13.5969 3.88069 14.1432 3.68751 14.7065 3.68751C15.2699 3.68751 15.8161 3.88069 16.2542 4.23482C16.6923 4.58894 16.9957 5.08259 17.1138 5.6334H12.2993Z" fill="#00BF9E"/>
</svg>
