<svg width="30" height="30" viewBox="0 0 30 30" fill="none" xmlns="http://www.w3.org/2000/svg">
<path d="M26.7188 3.75H24.375V2.8125C24.375 2.31522 24.1775 1.83831 23.8258 1.48667C23.4742 1.13504 22.9973 0.9375 22.5 0.9375C22.0027 0.9375 21.5258 1.13504 21.1742 1.48667C20.8225 1.83831 20.625 2.31522 20.625 2.8125V3.75H16.875V2.8125C16.875 2.31522 16.6775 1.83831 16.3258 1.48667C15.9742 1.13504 15.4973 0.9375 15 0.9375C14.5027 0.9375 14.0258 1.13504 13.6742 1.48667C13.3225 1.83831 13.125 2.31522 13.125 2.8125V3.75H9.375V2.8125C9.375 2.31522 9.17746 1.83831 8.82582 1.48667C8.47419 1.13504 7.99728 0.9375 7.5 0.9375C7.00272 0.9375 6.52581 1.13504 6.17417 1.48667C5.82254 1.83831 5.625 2.31522 5.625 2.8125V3.75H3.28125C2.65965 3.75 2.06351 3.99693 1.62397 4.43647C1.18443 4.87601 0.9375 5.47215 0.9375 6.09375V24.8438C0.9375 25.4654 1.18443 26.0615 1.62397 26.501C2.06351 26.9406 2.65965 27.1875 3.28125 27.1875H16.4062C16.5306 27.1875 16.6498 27.1381 16.7377 27.0502C16.8256 26.9623 16.875 26.8431 16.875 26.7188C16.875 26.5944 16.8256 26.4752 16.7377 26.3873C16.6498 26.2994 16.5306 26.25 16.4062 26.25H3.28125C2.90863 26.2489 2.55159 26.1004 2.28811 25.8369C2.02463 25.5734 1.87611 25.2164 1.875 24.8438V10.3125H28.125V18.2812C28.125 18.4056 28.1744 18.5248 28.2623 18.6127C28.3502 18.7006 28.4694 18.75 28.5938 18.75C28.7181 18.75 28.8373 18.7006 28.9252 18.6127C29.0131 18.5248 29.0625 18.4056 29.0625 18.2812V6.09375C29.0625 5.47215 28.8156 4.87601 28.376 4.43647C27.9365 3.99693 27.3404 3.75 26.7188 3.75ZM21.5625 2.8125C21.5625 2.56386 21.6613 2.3254 21.8371 2.14959C22.0129 1.97377 22.2514 1.875 22.5 1.875C22.7486 1.875 22.9871 1.97377 23.1629 2.14959C23.3387 2.3254 23.4375 2.56386 23.4375 2.8125V5.625C23.4375 5.87364 23.3387 6.1121 23.1629 6.28791C22.9871 6.46373 22.7486 6.5625 22.5 6.5625C22.2514 6.5625 22.0129 6.46373 21.8371 6.28791C21.6613 6.1121 21.5625 5.87364 21.5625 5.625V2.8125ZM14.0625 2.8125C14.0625 2.56386 14.1613 2.3254 14.3371 2.14959C14.5129 1.97377 14.7514 1.875 15 1.875C15.2486 1.875 15.4871 1.97377 15.6629 2.14959C15.8387 2.3254 15.9375 2.56386 15.9375 2.8125V5.625C15.9375 5.87364 15.8387 6.1121 15.6629 6.28791C15.4871 6.46373 15.2486 6.5625 15 6.5625C14.7514 6.5625 14.5129 6.46373 14.3371 6.28791C14.1613 6.1121 14.0625 5.87364 14.0625 5.625V2.8125ZM6.5625 2.8125C6.5625 2.56386 6.66127 2.3254 6.83709 2.14959C7.0129 1.97377 7.25136 1.875 7.5 1.875C7.74864 1.875 7.9871 1.97377 8.16291 2.14959C8.33873 2.3254 8.4375 2.56386 8.4375 2.8125V5.625C8.4375 5.87364 8.33873 6.1121 8.16291 6.28791C7.9871 6.46373 7.74864 6.5625 7.5 6.5625C7.25136 6.5625 7.0129 6.46373 6.83709 6.28791C6.66127 6.1121 6.5625 5.87364 6.5625 5.625V2.8125ZM28.125 9.375H1.875V6.09375C1.87611 5.72113 2.02463 5.36409 2.28811 5.10061C2.55159 4.83713 2.90863 4.68861 3.28125 4.6875H5.625V5.625C5.625 6.12228 5.82254 6.59919 6.17417 6.95083C6.52581 7.30246 7.00272 7.5 7.5 7.5C7.99728 7.5 8.47419 7.30246 8.82582 6.95083C9.17746 6.59919 9.375 6.12228 9.375 5.625V4.6875H13.125V5.625C13.125 6.12228 13.3225 6.59919 13.6742 6.95083C14.0258 7.30246 14.5027 7.5 15 7.5C15.4973 7.5 15.9742 7.30246 16.3258 6.95083C16.6775 6.59919 16.875 6.12228 16.875 5.625V4.6875H20.625V5.625C20.625 6.12228 20.8225 6.59919 21.1742 6.95083C21.5258 7.30246 22.0027 7.5 22.5 7.5C22.9973 7.5 23.4742 7.30246 23.8258 6.95083C24.1775 6.59919 24.375 6.12228 24.375 5.625V4.6875H26.7188C27.0914 4.68861 27.4484 4.83713 27.7119 5.10061C27.9754 5.36409 28.1239 5.72113 28.125 6.09375V9.375Z" fill="#8A92AB"/>
<path d="M14.0625 13.5938C14.0625 13.3451 13.9637 13.1067 13.7879 12.9308C13.6121 12.755 13.3736 12.6562 13.125 12.6562H11.25C11.0014 12.6562 10.7629 12.755 10.5871 12.9308C10.4113 13.1067 10.3125 13.3451 10.3125 13.5938V15C10.3125 15.2486 10.4113 15.4871 10.5871 15.6629C10.7629 15.8387 11.0014 15.9375 11.25 15.9375H13.125C13.3736 15.9375 13.6121 15.8387 13.7879 15.6629C13.9637 15.4871 14.0625 15.2486 14.0625 15V13.5938ZM11.25 15V13.5938H13.125V15H11.25Z" fill="#8A92AB"/>
<path d="M8.4375 13.5938C8.4375 13.3451 8.33873 13.1067 8.16291 12.9308C7.9871 12.755 7.74864 12.6562 7.5 12.6562H5.625C5.37636 12.6562 5.1379 12.755 4.96209 12.9308C4.78627 13.1067 4.6875 13.3451 4.6875 13.5938V15C4.6875 15.2486 4.78627 15.4871 4.96209 15.6629C5.1379 15.8387 5.37636 15.9375 5.625 15.9375H7.5C7.74864 15.9375 7.9871 15.8387 8.16291 15.6629C8.33873 15.4871 8.4375 15.2486 8.4375 15V13.5938ZM5.625 15V13.5938H7.5V15H5.625Z" fill="#8A92AB"/>
<path d="M24.375 15.9375C24.6236 15.9375 24.8621 15.8387 25.0379 15.6629C25.2137 15.4871 25.3125 15.2486 25.3125 15V13.5938C25.3125 13.3451 25.2137 13.1067 25.0379 12.9308C24.8621 12.755 24.6236 12.6562 24.375 12.6562H22.5C22.2514 12.6562 22.0129 12.755 21.8371 12.9308C21.6613 13.1067 21.5625 13.3451 21.5625 13.5938V15C21.5625 15.2486 21.6613 15.4871 21.8371 15.6629C22.0129 15.8387 22.2514 15.9375 22.5 15.9375H24.375ZM22.5 13.5938H24.375V15H22.5V13.5938Z" fill="#8A92AB"/>
<path d="M14.0625 17.8125C14.0625 17.5639 13.9637 17.3254 13.7879 17.1496C13.6121 16.9738 13.3736 16.875 13.125 16.875H11.25C11.0014 16.875 10.7629 16.9738 10.5871 17.1496C10.4113 17.3254 10.3125 17.5639 10.3125 17.8125V19.2188C10.3125 19.4674 10.4113 19.7058 10.5871 19.8817C10.7629 20.0575 11.0014 20.1562 11.25 20.1562H13.125C13.3736 20.1562 13.6121 20.0575 13.7879 19.8817C13.9637 19.7058 14.0625 19.4674 14.0625 19.2188V17.8125ZM11.25 19.2188V17.8125H13.125V19.2188H11.25Z" fill="#8A92AB"/>
<path d="M8.4375 17.8125C8.4375 17.5639 8.33873 17.3254 8.16291 17.1496C7.9871 16.9738 7.74864 16.875 7.5 16.875H5.625C5.37636 16.875 5.1379 16.9738 4.96209 17.1496C4.78627 17.3254 4.6875 17.5639 4.6875 17.8125V19.2188C4.6875 19.4674 4.78627 19.7058 4.96209 19.8817C5.1379 20.0575 5.37636 20.1562 5.625 20.1562H7.5C7.74864 20.1562 7.9871 20.0575 8.16291 19.8817C8.33873 19.7058 8.4375 19.4674 8.4375 19.2188V17.8125ZM5.625 19.2188V17.8125H7.5V19.2188H5.625Z" fill="#8A92AB"/>
<path d="M13.125 21.0938H11.25C11.0014 21.0938 10.7629 21.1925 10.5871 21.3683C10.4113 21.5442 10.3125 21.7826 10.3125 22.0312V23.4375C10.3125 23.6861 10.4113 23.9246 10.5871 24.1004C10.7629 24.2762 11.0014 24.375 11.25 24.375H13.125C13.3736 24.375 13.6121 24.2762 13.7879 24.1004C13.9637 23.9246 14.0625 23.6861 14.0625 23.4375V22.0312C14.0625 21.7826 13.9637 21.5442 13.7879 21.3683C13.6121 21.1925 13.3736 21.0938 13.125 21.0938ZM11.25 23.4375V22.0312H13.125V23.4375H11.25Z" fill="#8A92AB"/>
<path d="M16.875 15.9375H18.75C18.9986 15.9375 19.2371 15.8387 19.4129 15.6629C19.5887 15.4871 19.6875 15.2486 19.6875 15V13.5938C19.6875 13.3451 19.5887 13.1067 19.4129 12.9308C19.2371 12.755 18.9986 12.6562 18.75 12.6562H16.875C16.6264 12.6562 16.3879 12.755 16.2121 12.9308C16.0363 13.1067 15.9375 13.3451 15.9375 13.5938V15C15.9375 15.2486 16.0363 15.4871 16.2121 15.6629C16.3879 15.8387 16.6264 15.9375 16.875 15.9375ZM16.875 13.5938H18.75V15H16.875V13.5938Z" fill="#8A92AB"/>
<path d="M15.9375 19.2188C15.9375 19.4674 16.0363 19.7058 16.2121 19.8817C16.3879 20.0575 16.6264 20.1562 16.875 20.1562C16.9993 20.1562 17.1185 20.1069 17.2065 20.019C17.2944 19.931 17.3438 19.8118 17.3438 19.6875C17.3438 19.5632 17.2944 19.444 17.2065 19.356C17.1185 19.2681 16.9993 19.2188 16.875 19.2188V17.8125H18.75C18.8743 17.8125 18.9935 17.7631 19.0815 17.6752C19.1694 17.5873 19.2188 17.4681 19.2188 17.3438C19.2188 17.2194 19.1694 17.1002 19.0815 17.0123C18.9935 16.9244 18.8743 16.875 18.75 16.875H16.875C16.6264 16.875 16.3879 16.9738 16.2121 17.1496C16.0363 17.3254 15.9375 17.5639 15.9375 17.8125V19.2188Z" fill="#8A92AB"/>
<path d="M7.5 21.0938H5.625C5.37636 21.0938 5.1379 21.1925 4.96209 21.3683C4.78627 21.5442 4.6875 21.7826 4.6875 22.0312V23.4375C4.6875 23.6861 4.78627 23.9246 4.96209 24.1004C5.1379 24.2762 5.37636 24.375 5.625 24.375H7.5C7.74864 24.375 7.9871 24.2762 8.16291 24.1004C8.33873 23.9246 8.4375 23.6861 8.4375 23.4375V22.0312C8.4375 21.7826 8.33873 21.5442 8.16291 21.3683C7.9871 21.1925 7.74864 21.0938 7.5 21.0938ZM5.625 23.4375V22.0312H7.5V23.4375H5.625Z" fill="#8A92AB"/>
<path d="M22.9688 16.875C21.7635 16.875 20.5854 17.2324 19.5832 17.902C18.5811 18.5716 17.8001 19.5233 17.3389 20.6368C16.8776 21.7503 16.757 22.9755 16.9921 24.1576C17.2272 25.3397 17.8076 26.4255 18.6598 27.2777C19.512 28.1299 20.5978 28.7103 21.7799 28.9454C22.962 29.1805 24.1872 29.0599 25.3007 28.5986C26.4142 28.1374 27.3659 27.3564 28.0355 26.3543C28.7051 25.3521 29.0625 24.174 29.0625 22.9688C29.0606 21.3532 28.418 19.8043 27.2756 18.6619C26.1332 17.5195 24.5843 16.8769 22.9688 16.875ZM22.9688 28.125C21.9489 28.125 20.952 27.8226 20.1041 27.256C19.2562 26.6894 18.5953 25.8841 18.205 24.942C17.8147 23.9998 17.7126 22.963 17.9116 21.9628C18.1105 20.9626 18.6016 20.0438 19.3227 19.3227C20.0438 18.6016 20.9626 18.1105 21.9628 17.9116C22.963 17.7126 23.9998 17.8147 24.942 18.205C25.8841 18.5953 26.6894 19.2562 27.256 20.1041C27.8226 20.952 28.125 21.9489 28.125 22.9688C28.1234 24.3358 27.5796 25.6464 26.613 26.613C25.6464 27.5796 24.3358 28.1234 22.9688 28.125Z" fill="#8A92AB"/>
<path d="M25.6755 21.0027L22.0296 24.6486L20.3725 22.9911C20.2841 22.9057 20.1657 22.8585 20.0428 22.8595C19.9199 22.8606 19.8023 22.9099 19.7154 22.9968C19.6285 23.0837 19.5792 23.2013 19.5781 23.3242C19.5771 23.4471 19.6243 23.5655 19.7097 23.6539L21.6981 25.6428C21.786 25.7307 21.9053 25.7801 22.0296 25.7801C22.1538 25.7801 22.2731 25.7307 22.361 25.6428L26.3383 21.6655C26.4237 21.5771 26.4709 21.4587 26.4699 21.3358C26.4688 21.2129 26.4195 21.0953 26.3326 21.0084C26.2457 20.9215 26.1281 20.8722 26.0052 20.8711C25.8823 20.87 25.7639 20.9173 25.6755 21.0027Z" fill="#8A92AB"/>
</svg>
