<svg width="18" height="18" viewBox="0 0 18 18" fill="none" xmlns="http://www.w3.org/2000/svg">
<path d="M0.666667 7.75008H17.3333C17.5633 7.75008 17.75 7.56341 17.75 7.33341C17.75 7.10341 17.5633 6.91675 17.3333 6.91675H0.666667C0.436667 6.91675 0.25 7.10341 0.25 7.33341C0.25 7.56341 0.436667 7.75008 0.666667 7.75008Z" fill="#88B6FF"/>
<path d="M17.75 2.75C17.75 2.06 17.19 1.5 16.5 1.5H1.5C0.81 1.5 0.25 2.06 0.25 2.75V16.5C0.25 17.19 0.81 17.75 1.5 17.75H16.5C17.19 17.75 17.75 17.19 17.75 16.5V2.75ZM16.9167 2.75V16.5C16.9167 16.73 16.73 16.9167 16.5 16.9167H1.5C1.27 16.9167 1.08333 16.73 1.08333 16.5V2.75C1.08333 2.52 1.27 2.33333 1.5 2.33333H16.5C16.73 2.33333 16.9167 2.52 16.9167 2.75Z" fill="#88B6FF"/>
<path d="M4 0.666667V4C4 4.23 4.18667 4.41667 4.41667 4.41667C4.64667 4.41667 4.83333 4.23 4.83333 4V0.666667C4.83333 0.436667 4.64667 0.25 4.41667 0.25C4.18667 0.25 4 0.436667 4 0.666667Z" fill="#88B6FF"/>
<path d="M8.58331 0.666667V4C8.58331 4.23 8.76998 4.41667 8.99998 4.41667C9.22998 4.41667 9.41665 4.23 9.41665 4V0.666667C9.41665 0.436667 9.22998 0.25 8.99998 0.25C8.76998 0.25 8.58331 0.436667 8.58331 0.666667Z" fill="#88B6FF"/>
<path d="M13.1667 0.666667V4C13.1667 4.23 13.3534 4.41667 13.5834 4.41667C13.8134 4.41667 14 4.23 14 4V0.666667C14 0.436667 13.8134 0.25 13.5834 0.25C13.3534 0.25 13.1667 0.436667 13.1667 0.666667Z" fill="#88B6FF"/>
<path d="M4.41669 3.58325C3.72669 3.58325 3.16669 4.14325 3.16669 4.83325C3.16669 5.52325 3.72669 6.08325 4.41669 6.08325C5.10669 6.08325 5.66669 5.52325 5.66669 4.83325C5.66669 4.14325 5.10669 3.58325 4.41669 3.58325ZM4.41669 4.41659C4.64669 4.41659 4.83335 4.60325 4.83335 4.83325C4.83335 5.06325 4.64669 5.24992 4.41669 5.24992C4.18669 5.24992 4.00002 5.06325 4.00002 4.83325C4.00002 4.60325 4.18669 4.41659 4.41669 4.41659Z" fill="#88B6FF"/>
<path d="M9 3.58325C8.31 3.58325 7.75 4.14325 7.75 4.83325C7.75 5.52325 8.31 6.08325 9 6.08325C9.69 6.08325 10.25 5.52325 10.25 4.83325C10.25 4.14325 9.69 3.58325 9 3.58325ZM9 4.41659C9.23 4.41659 9.41667 4.60325 9.41667 4.83325C9.41667 5.06325 9.23 5.24992 9 5.24992C8.77 5.24992 8.58333 5.06325 8.58333 4.83325C8.58333 4.60325 8.77 4.41659 9 4.41659Z" fill="#88B6FF"/>
<path d="M13.5834 3.58325C12.8934 3.58325 12.3334 4.14325 12.3334 4.83325C12.3334 5.52325 12.8934 6.08325 13.5834 6.08325C14.2734 6.08325 14.8334 5.52325 14.8334 4.83325C14.8334 4.14325 14.2734 3.58325 13.5834 3.58325ZM13.5834 4.41659C13.8134 4.41659 14 4.60325 14 4.83325C14 5.06325 13.8134 5.24992 13.5834 5.24992C13.3534 5.24992 13.1667 5.06325 13.1667 4.83325C13.1667 4.60325 13.3534 4.41659 13.5834 4.41659Z" fill="#88B6FF"/>
<path d="M9.00002 9C7.16044 9 5.66669 10.4938 5.66669 12.3333C5.66669 14.1729 7.16044 15.6667 9.00002 15.6667C10.8396 15.6667 12.3334 14.1729 12.3334 12.3333C12.3334 10.4938 10.8396 9 9.00002 9ZM9.00002 9.83333C10.3796 9.83333 11.5 10.9538 11.5 12.3333C11.5 13.7129 10.3796 14.8333 9.00002 14.8333C7.62044 14.8333 6.50002 13.7129 6.50002 12.3333C6.50002 10.9538 7.62044 9.83333 9.00002 9.83333Z" fill="#88B6FF"/>
<path d="M7.66375 13.0446L8.49708 13.8779C8.58791 13.9688 8.71541 14.0125 8.8425 13.9971C8.97 13.9813 9.08291 13.9079 9.14875 13.7975L10.3987 11.7142C10.5171 11.5171 10.4533 11.2609 10.2558 11.1429C10.0587 11.0246 9.8025 11.0884 9.68458 11.2859L8.70875 12.9113L8.25291 12.4554C8.09041 12.2929 7.82625 12.2929 7.66375 12.4554C7.50125 12.6179 7.50125 12.8821 7.66375 13.0446Z" fill="#88B6FF"/>
</svg>
