<svg width="30" height="30" viewBox="0 0 30 30" fill="none" xmlns="http://www.w3.org/2000/svg">
<path d="M29.636 11.697C29.2604 10.0249 28.5986 8.43042 27.6797 6.98391C26.4873 5.10283 24.8934 3.50895 23.0123 2.31656C21.5655 1.398 19.9707 0.736753 18.2984 0.36211C16.126 -0.120703 13.874 -0.120703 11.7016 0.36211C10.0293 0.736894 8.43448 1.39821 6.98766 2.3168C5.10669 3.50862 3.5128 5.10196 2.32031 6.9825C1.4012 8.4296 0.739256 10.0247 0.363752 11.6974C-0.121251 13.8703 -0.121251 16.1234 0.363752 18.2963C0.738097 19.9697 1.40011 21.5654 2.32031 23.0123C3.51209 24.8919 5.10481 26.4846 6.98438 27.6764C8.43153 28.5968 10.0275 29.2589 11.7012 29.6332C13.8733 30.1184 16.1257 30.1184 18.2979 29.6332C19.9718 29.2593 21.568 28.5977 23.0156 27.6778C24.8952 26.4861 26.488 24.8934 27.6797 23.0138C28.6002 21.5666 29.2625 19.9705 29.637 18.2967C30.1221 16.1237 30.1221 13.8704 29.637 11.6974L29.636 11.697ZM26.7188 17.0958V12.8991L28.9191 12.3C29.2677 14.0813 29.2677 15.9133 28.9191 17.6946L26.7188 17.0958ZM26.7504 7.06992L24.7709 8.20242L21.8027 5.235L22.9364 3.25336C24.4384 4.27176 25.7326 5.56705 26.7497 7.06992H26.7504ZM15 0.818438C15.9052 0.819961 16.8083 0.907543 17.697 1.08L17.0984 3.27938H12.9016L12.303 1.07977C13.1917 0.90749 14.0948 0.819988 15 0.818438ZM7.0725 3.24774L8.20313 5.22305L5.23571 8.19024L3.25781 7.05867C4.27564 5.55748 5.57031 4.26409 7.0725 3.24774ZM1.08164 17.6934C0.73336 15.9123 0.73336 14.0805 1.08164 12.2993L3.28313 12.8984V17.0937L1.08164 17.6934ZM3.25781 22.9362L5.23242 21.8062L8.19985 24.7737L7.07063 26.7464C5.56936 25.7299 4.27538 24.4368 3.25781 22.9362ZM12.3047 28.916L12.9033 26.7145H17.0984L17.6972 28.916C15.9152 29.2556 14.0851 29.2556 12.303 28.916H12.3047ZM22.9388 26.7403L21.8067 24.7615L24.7734 21.795L26.7497 22.9256C25.7332 24.4277 24.4398 25.7223 22.9388 26.7403ZM27.1929 22.2328L24.9096 20.9278C24.8315 20.883 24.7408 20.8651 24.6515 20.877C24.5623 20.8889 24.4794 20.9299 24.4158 20.9937L21.0052 24.4031C20.9414 24.4667 20.9005 24.5495 20.8885 24.6387C20.8766 24.7279 20.8943 24.8186 20.9391 24.8967L22.2471 27.1833C21.0802 27.8817 19.8176 28.4061 18.4992 28.74L17.8073 26.1968C17.7838 26.1099 17.7323 26.0332 17.6608 25.9785C17.5893 25.9238 17.5017 25.8942 17.4117 25.8942H12.5883C12.4982 25.8942 12.4107 25.9238 12.3391 25.9785C12.2676 26.0332 12.216 26.1099 12.1924 26.1968L11.5008 28.74C10.1858 28.407 8.92632 27.8845 7.7618 27.1889L9.0668 24.9089C9.11154 24.8308 9.1293 24.7401 9.11736 24.6509C9.10541 24.5617 9.06441 24.4789 9.0007 24.4153L5.59008 21.0045C5.52647 20.9408 5.44365 20.8998 5.35444 20.8879C5.26522 20.876 5.17457 20.8938 5.09649 20.9386L2.81438 22.2448C2.11605 21.0777 1.5917 19.8151 1.25789 18.4966L3.80086 17.805C3.88771 17.7813 3.96437 17.7298 4.01901 17.6582C4.07365 17.5867 4.10323 17.4992 4.10321 17.4091V12.5857C4.10322 12.4957 4.07363 12.4082 4.01898 12.3367C3.96434 12.2652 3.88769 12.2137 3.80086 12.1901L1.25813 11.4984C1.59284 10.1802 2.11739 8.91764 2.81531 7.75031L5.10047 9.05789C5.17853 9.10274 5.2692 9.12059 5.35844 9.10868C5.44767 9.09678 5.53049 9.05578 5.59406 8.99203L9.00469 5.58141C9.0684 5.51782 9.1094 5.43502 9.12134 5.34581C9.13329 5.25659 9.11552 5.16592 9.07078 5.08781L7.76438 2.80547C8.92848 2.11131 10.187 1.58948 11.5008 1.25625L12.1924 3.79734C12.2161 3.8842 12.2677 3.96085 12.3392 4.01549C12.4107 4.07013 12.4983 4.09972 12.5883 4.09969H17.4117C17.5017 4.09974 17.5892 4.07016 17.6607 4.01552C17.7322 3.96087 17.7838 3.8842 17.8073 3.79734L18.4992 1.25625C19.8164 1.59022 21.078 2.11382 22.2445 2.81063L20.9351 5.09953C20.8903 5.17764 20.8726 5.26831 20.8845 5.35752C20.8965 5.44674 20.9375 5.52954 21.0012 5.59313L24.4118 9.00375C24.4754 9.06745 24.5583 9.10843 24.6475 9.12037C24.7368 9.13232 24.8275 9.11456 24.9056 9.06985L27.1922 7.76203C27.8863 8.92598 28.4082 10.1843 28.7419 11.4977L26.2003 12.1898C26.1135 12.2135 26.0368 12.265 25.9821 12.3365C25.9274 12.408 25.8978 12.4955 25.8977 12.5855V17.4089C25.8978 17.4989 25.9274 17.5865 25.9821 17.658C26.0368 17.7295 26.1134 17.7811 26.2003 17.8048L28.7421 18.4964C28.4095 19.8104 27.8876 21.069 27.1929 22.2328Z" fill="#88B6FF"/>
<path d="M15 5.85938C13.1922 5.85938 11.4249 6.39546 9.92174 7.39985C8.41858 8.40423 7.247 9.8318 6.55517 11.502C5.86334 13.1723 5.68232 15.0101 6.03501 16.7832C6.38771 18.5564 7.25827 20.1851 8.53661 21.4634C9.81495 22.7417 11.4436 23.6123 13.2168 23.965C14.9899 24.3177 16.8277 24.1367 18.498 23.4448C20.1682 22.753 21.5958 21.5814 22.6002 20.0783C23.6045 18.5751 24.1406 16.8078 24.1406 15C24.1379 12.5766 23.174 10.2532 21.4604 8.53962C19.7468 6.82601 17.4234 5.8621 15 5.85938ZM15 23.3203C13.3544 23.3203 11.7458 22.8323 10.3775 21.9181C9.00922 21.0038 7.94278 19.7044 7.31304 18.184C6.68329 16.6637 6.51852 14.9908 6.83956 13.3768C7.16061 11.7628 7.95304 10.2803 9.11665 9.11665C10.2803 7.95303 11.7628 7.1606 13.3768 6.83956C14.9908 6.51852 16.6637 6.68329 18.184 7.31303C19.7044 7.94278 21.0038 9.00921 21.9181 10.3775C22.8323 11.7458 23.3203 13.3544 23.3203 15C23.3178 17.2059 22.4404 19.3208 20.8806 20.8806C19.3208 22.4404 17.2059 23.3178 15 23.3203Z" fill="#88B6FF"/>
<path d="M15.2923 9.63976C15.2543 9.60164 15.2091 9.57141 15.1593 9.55078C15.1096 9.53015 15.0563 9.51953 15.0024 9.51953C14.9486 9.51953 14.8952 9.53015 14.8455 9.55078C14.7957 9.57141 14.7505 9.60164 14.7125 9.63976L11.2323 13.1198C10.8212 13.5303 10.5444 14.056 10.4386 14.6273C10.3328 15.1986 10.4029 15.7885 10.6396 16.3191C10.8763 16.8497 11.2686 17.2959 11.7644 17.5988C12.2602 17.9016 12.8363 18.0468 13.4164 18.0151C13.2762 18.6642 13.0256 19.2844 12.6755 19.8487C12.6367 19.9107 12.6153 19.9821 12.6134 20.0553C12.6115 20.1285 12.6292 20.2008 12.6647 20.2648C12.7002 20.3288 12.7523 20.3822 12.8154 20.4193C12.8785 20.4564 12.9504 20.4759 13.0236 20.4758H16.9812C17.0545 20.4759 17.1264 20.4564 17.1895 20.4193C17.2526 20.3822 17.3046 20.3288 17.3401 20.2648C17.3756 20.2008 17.3934 20.1285 17.3915 20.0553C17.3896 19.9821 17.3681 19.9107 17.3293 19.8487C16.9794 19.2847 16.7288 18.665 16.5884 18.0163C17.1688 18.0482 17.7452 17.9031 18.2413 17.6003C18.7374 17.2974 19.1298 16.8509 19.3666 16.3201C19.6033 15.7893 19.6733 15.1991 19.5673 14.6276C19.4612 14.0561 19.1841 13.5303 18.7726 13.1198L15.2923 9.63976ZM18.1927 16.6007C17.9359 16.856 17.6162 17.039 17.266 17.1313C16.9158 17.2236 16.5475 17.2219 16.1982 17.1264C16.1334 17.1086 16.0651 17.107 15.9995 17.1218C15.9339 17.1365 15.873 17.1672 15.822 17.2111C15.7711 17.255 15.7317 17.3107 15.7074 17.3734C15.6831 17.4361 15.6746 17.5038 15.6826 17.5705C15.7697 18.2937 15.9746 18.9978 16.2891 19.6548H13.7157C14.0304 18.9977 14.2355 18.2935 14.3227 17.5701C14.3307 17.5033 14.3221 17.4356 14.2978 17.373C14.2734 17.3103 14.2341 17.2546 14.1831 17.2107C14.1322 17.1669 14.0713 17.1362 14.0057 17.1214C13.9401 17.1066 13.8719 17.1082 13.8071 17.1259C13.3708 17.2464 12.9068 17.2191 12.4877 17.0482C12.0685 16.8773 11.7177 16.5724 11.49 16.1812C11.2622 15.79 11.1704 15.3344 11.2288 14.8856C11.2872 14.4367 11.4926 14.0198 11.8128 13.6998L15.0024 10.5095L18.1927 13.6998C18.5767 14.0848 18.7923 14.6063 18.7923 15.15C18.7923 15.6937 18.5767 16.2153 18.1927 16.6002V16.6007Z" fill="#88B6FF"/>
</svg>
