<svg width="20" height="20" viewBox="0 0 20 20" fill="none" xmlns="http://www.w3.org/2000/svg">
<path d="M17.0711 2.92891C15.1823 1.04016 12.6711 0 10 0C7.32891 0 4.8177 1.04016 2.92891 2.92891C1.04012 4.81766 0 7.32891 0 10C0 12.6711 1.04016 15.1823 2.92891 17.0711C4.81766 18.9599 7.32891 20 10 20C12.6711 20 15.1823 18.9598 17.0711 17.0711C18.9599 15.1823 20 12.6711 20 10C20 7.32891 18.9598 4.8177 17.0711 2.92891ZM16.6291 16.6291C14.8584 18.3998 12.5041 19.375 10 19.375C7.49586 19.375 5.14156 18.3998 3.37086 16.6291C1.60016 14.8584 0.625 12.5041 0.625 10C0.625 7.49586 1.60016 5.14156 3.37086 3.37086C5.14156 1.60016 7.49586 0.625 10 0.625C12.5041 0.625 14.8584 1.60016 16.6291 3.37086C18.3998 5.14156 19.375 7.49586 19.375 10C19.375 12.5041 18.3998 14.8584 16.6291 16.6291Z" fill="#8A92AB"/>
<path d="M1.875 10C1.875 5.51988 5.51988 1.875 10 1.875C11.6159 1.875 13.1768 2.34809 14.5139 3.24313C14.6573 3.33914 14.8514 3.3007 14.9474 3.15727C15.0434 3.01387 15.005 2.81977 14.8615 2.72375C13.4212 1.75961 11.7402 1.25 10 1.25C7.66277 1.25 5.46547 2.16016 3.81281 3.81281C2.16016 5.46547 1.25 7.66277 1.25 10C1.25 12.1562 2.04117 14.2278 3.47781 15.8331C3.53953 15.9021 3.625 15.9372 3.71078 15.9372C3.78496 15.9372 3.85945 15.911 3.91906 15.8576C4.04766 15.7425 4.05863 15.5449 3.94352 15.4163C2.60965 13.9258 1.875 12.0022 1.875 10Z" fill="#8A92AB"/>
<path d="M17.2767 5.13847C17.1807 4.99503 16.9866 4.95659 16.8432 5.05261C16.6998 5.14862 16.6613 5.34272 16.7573 5.48612C17.6523 6.82315 18.1254 8.38401 18.1254 9.99991C18.1254 14.48 14.4805 18.1249 10.0004 18.1249C8.14169 18.1249 6.32478 17.4812 4.88443 16.3124C4.7504 16.2036 4.55361 16.2241 4.44486 16.3581C4.33611 16.4921 4.35658 16.6889 4.4906 16.7977C6.04197 18.0566 7.99872 18.7499 10.0004 18.7499C12.3376 18.7499 14.5349 17.8398 16.1876 16.1871C17.8402 14.5344 18.7504 12.3371 18.7504 9.99991C18.7504 8.25979 18.2408 6.5787 17.2767 5.13847Z" fill="#8A92AB"/>
<path d="M15.4166 3.94357C15.6267 4.13158 15.8293 4.33279 16.0187 4.54154C16.0804 4.60951 16.1652 4.64404 16.2502 4.64404C16.3251 4.64404 16.4003 4.61724 16.4602 4.56294C16.5879 4.44697 16.5975 4.24931 16.4816 4.1215C16.2777 3.89681 16.0596 3.68025 15.8334 3.47783C15.7048 3.36275 15.5072 3.37368 15.3921 3.50228C15.2771 3.63087 15.288 3.82845 15.4166 3.94357Z" fill="#8A92AB"/>
<path d="M10 4.0625C10.1726 4.0625 10.3125 3.92258 10.3125 3.75V2.8125C10.3125 2.63992 10.1726 2.5 10 2.5C9.82742 2.5 9.6875 2.63992 9.6875 2.8125V3.75C9.6875 3.92258 9.82742 4.0625 10 4.0625Z" fill="#8A92AB"/>
<path d="M9.6875 16.25V17.1875C9.6875 17.3601 9.82742 17.5 10 17.5C10.1726 17.5 10.3125 17.3601 10.3125 17.1875V16.25C10.3125 16.0774 10.1726 15.9375 10 15.9375C9.82742 15.9375 9.6875 16.0774 9.6875 16.25Z" fill="#8A92AB"/>
<path d="M4.0625 10C4.0625 9.82742 3.92258 9.6875 3.75 9.6875H2.8125C2.63992 9.6875 2.5 9.82742 2.5 10C2.5 10.1726 2.63992 10.3125 2.8125 10.3125H3.75C3.92258 10.3125 4.0625 10.1726 4.0625 10Z" fill="#8A92AB"/>
<path d="M15.9375 10C15.9375 10.1726 16.0774 10.3125 16.25 10.3125H17.1875C17.3601 10.3125 17.5 10.1726 17.5 10C17.5 9.82742 17.3601 9.6875 17.1875 9.6875H16.25C16.0774 9.6875 15.9375 9.82742 15.9375 10Z" fill="#8A92AB"/>
<path d="M7.14567 4.43109L6.67692 3.61917C6.59063 3.46968 6.39949 3.41855 6.25004 3.5048C6.10059 3.59109 6.04938 3.78222 6.13567 3.93167L6.60442 4.74359C6.66231 4.84382 6.76735 4.89988 6.87535 4.89988C6.92836 4.89988 6.98211 4.88636 7.03133 4.85796C7.18074 4.77167 7.23195 4.58054 7.14567 4.43109Z" fill="#8A92AB"/>
<path d="M13.3957 15.2564C13.3094 15.1069 13.1182 15.0558 12.9688 15.142C12.8193 15.2283 12.7681 15.4194 12.8544 15.5689L13.3232 16.3808C13.3811 16.481 13.4861 16.5371 13.5941 16.5371C13.6471 16.5371 13.7009 16.5235 13.7501 16.4951C13.8995 16.4089 13.9507 16.2177 13.8645 16.0683L13.3957 15.2564Z" fill="#8A92AB"/>
<path d="M3.7757 13.9063C3.82871 13.9063 3.88246 13.8928 3.93168 13.8644L4.7436 13.3956C4.89305 13.3093 4.94426 13.1182 4.85797 12.9688C4.77168 12.8193 4.58051 12.7682 4.4311 12.8544L3.61918 13.3231C3.46973 13.4094 3.41852 13.6006 3.50481 13.75C3.56266 13.8502 3.6677 13.9063 3.7757 13.9063Z" fill="#8A92AB"/>
<path d="M15.4124 7.18755C15.4654 7.18755 15.5192 7.17403 15.5684 7.14563L16.3803 6.67688C16.5298 6.59059 16.581 6.39946 16.4947 6.25001C16.4084 6.10055 16.2173 6.04942 16.0678 6.13563L15.2559 6.60438C15.1064 6.69067 15.0552 6.8818 15.1415 7.03126C15.1994 7.13149 15.3045 7.18755 15.4124 7.18755Z" fill="#8A92AB"/>
<path d="M13.75 3.50483C13.6006 3.4185 13.4095 3.46972 13.3232 3.61921L12.8544 4.43112C12.7681 4.58057 12.8193 4.77171 12.9688 4.858C13.018 4.88643 13.0717 4.89991 13.1248 4.89991C13.2328 4.89991 13.3378 4.84386 13.3957 4.74362L13.8645 3.93171C13.9507 3.78225 13.8995 3.59112 13.75 3.50483Z" fill="#8A92AB"/>
<path d="M7.03129 15.142C6.88184 15.0557 6.69071 15.1069 6.60442 15.2564L6.13567 16.0683C6.04938 16.2178 6.10059 16.4089 6.25004 16.4952C6.29926 16.5236 6.35297 16.5371 6.40602 16.5371C6.51402 16.5371 6.61906 16.481 6.67695 16.3808L7.1457 15.5689C7.23195 15.4194 7.18074 15.2283 7.03129 15.142Z" fill="#8A92AB"/>
<path d="M15.2559 13.3957L16.0678 13.8644C16.117 13.8929 16.1707 13.9063 16.2238 13.9063C16.3318 13.9063 16.4368 13.8503 16.4947 13.7501C16.581 13.6006 16.5298 13.4095 16.3803 13.3232L15.5684 12.8544C15.419 12.7681 15.2278 12.8194 15.1416 12.9688C15.0552 13.1183 15.1064 13.3094 15.2559 13.3957Z" fill="#8A92AB"/>
<path d="M4.7436 6.60443L3.93168 6.13568C3.78223 6.04936 3.5911 6.1006 3.50481 6.25006C3.41852 6.39951 3.46973 6.59064 3.61918 6.67693L4.4311 7.14568C4.48031 7.17412 4.53403 7.1876 4.58707 7.1876C4.69508 7.1876 4.80012 7.13154 4.85801 7.03131C4.94426 6.88186 4.89305 6.69072 4.7436 6.60443Z" fill="#8A92AB"/>
<path d="M12.1755 14.0801C12.2285 14.0801 12.2822 14.0666 12.3314 14.0382C12.4809 13.9519 12.5321 13.7608 12.4458 13.6113L10.7122 10.6086C10.8525 10.4447 10.9375 10.2321 10.9375 10C10.9375 9.59262 10.6762 9.24523 10.3125 9.11625V5C10.3125 4.82742 10.1726 4.6875 10 4.6875C9.82742 4.6875 9.6875 4.82742 9.6875 5V9.11625C9.32379 9.24523 9.0625 9.59262 9.0625 10C9.0625 10.517 9.48305 10.9375 10 10.9375C10.0585 10.9375 10.1157 10.9318 10.1712 10.9216L11.9046 13.9238C11.9625 14.0241 12.0675 14.0801 12.1755 14.0801ZM9.6875 10C9.6875 9.82769 9.8277 9.6875 10 9.6875C10.1723 9.6875 10.3125 9.82769 10.3125 10C10.3125 10.1723 10.1723 10.3125 10 10.3125C9.8277 10.3125 9.6875 10.1723 9.6875 10Z" fill="#8A92AB"/>
</svg>
