<svg width="14" height="15" viewBox="0 0 14 15" fill="none" xmlns="http://www.w3.org/2000/svg">
<path d="M13.9745 13.1242L11.7548 5.10326C11.699 4.90096 11.554 4.7342 11.356 4.64945L10.4079 4.23665L9.56014 1.17753C9.68563 1.09005 9.74977 0.931488 9.70794 0.775662C9.65216 0.578828 9.44581 0.458541 9.23945 0.513217L8.32756 0.756525C8.12399 0.811201 8.00408 1.01624 8.05985 1.2158C8.10168 1.37163 8.24112 1.47551 8.39449 1.48918L8.70961 2.62917H8.08495C8.0236 2.47335 7.87023 2.36126 7.69176 2.36126H7.32923C7.14797 2.36126 6.9946 2.47335 6.93604 2.62917C6.91373 2.62917 5.46921 2.62917 5.52499 2.62917C5.46364 2.47335 5.31026 2.36126 5.129 2.36126H4.76648C4.58522 2.36126 4.43184 2.47335 4.37049 2.62917H3.66497C3.66218 2.62917 3.65939 2.63191 3.6566 2.63191C3.32476 2.63738 3.05705 2.89982 3.05705 3.22514V11.4949C2.34873 10.806 1.21934 10.8196 0.524968 11.5003C-0.180556 12.192 -0.169401 13.3046 0.524968 13.9854C1.2277 14.6743 2.36268 14.6688 3.05984 13.9854C3.1184 13.928 3.17138 13.8651 3.22158 13.7995C3.34428 14.1822 3.48371 14.3544 3.66218 14.3544C4.13904 14.3544 4.2701 12.9684 4.2701 12.9547V3.22241C4.2701 3.11306 4.23664 3.01191 4.18644 2.92442H4.37049C4.43184 3.08025 4.58522 3.19234 4.76648 3.19234H5.129C5.31026 3.19234 5.46364 3.08025 5.52499 2.92442H5.70904C5.65605 3.01191 5.62538 3.11306 5.62538 3.22241V12.9547C5.62538 12.9684 5.75644 14.3544 6.2333 14.3544C6.71016 14.3544 6.84122 12.9684 6.84122 12.9547V3.22241C6.84122 3.11306 6.80776 3.01191 6.75756 2.92442H6.94161C7.00296 3.08025 7.15634 3.19234 7.3376 3.19234H7.70012C7.88138 3.19234 8.03476 3.08025 8.09611 2.92442H8.28016C8.22717 3.01191 8.1965 3.11306 8.1965 3.22241V12.9547C8.1965 13.0914 8.24948 13.414 8.33593 13.7147C8.467 14.1576 8.612 14.3544 8.80442 14.3544C9.28128 14.3544 9.41234 12.9684 9.41234 12.9547V9.111L10.7593 13.9799C10.8429 14.2833 11.1246 14.4938 11.448 14.4938H11.462C12.2344 14.4802 12.9678 14.2833 13.6427 13.9143C13.9216 13.7585 14.061 13.4331 13.9745 13.1242ZM9.50716 4.36787L8.69566 1.43177L9.2757 1.27868L10.0872 4.21478L9.50716 4.36787ZM8.40843 1.04084L9.32032 0.797532C9.36215 0.786597 9.40676 0.811201 9.41792 0.852208C9.42907 0.893215 9.40398 0.936956 9.36215 0.947891C9.31195 0.96156 8.43632 1.19393 8.45026 1.1912C8.40843 1.20213 8.36382 1.17753 8.35266 1.13652C8.3443 1.09552 8.3666 1.05177 8.40843 1.04084ZM2.85348 11.7054C3.29129 12.1346 3.40841 12.7743 3.1658 13.3183L1.20539 11.3965C1.77149 11.1586 2.42124 11.2816 2.85348 11.7054ZM0.74527 13.7721C0.310244 13.3457 0.193121 12.7087 0.427366 12.1674L2.3822 14.0838C1.82726 14.3134 1.1803 14.1986 0.74527 13.7721ZM2.65548 13.9307L0.580741 11.8995C0.630937 11.8311 0.683921 11.7628 0.742482 11.7054C0.801043 11.648 0.865182 11.5988 0.932109 11.5523L3.00685 13.5862C2.95944 13.6518 2.90925 13.7147 2.85069 13.7721C2.79213 13.8295 2.7252 13.8815 2.65548 13.9307ZM3.97451 12.9547C3.97451 13.2117 3.80161 13.9006 3.67055 14.0428C3.63987 14.0045 3.57294 13.9006 3.49207 13.6327C3.47255 13.5698 3.45861 13.5042 3.44188 13.4386C3.66776 12.9329 3.63429 12.3588 3.3638 11.8831V3.21967C3.3638 3.05565 3.50044 2.92169 3.66776 2.92169C3.83508 2.92169 3.97172 3.05565 3.97172 3.21967L3.97451 12.9547ZM5.13179 2.89435H4.76927C4.70234 2.89435 4.64936 2.84241 4.64936 2.7768C4.64936 2.71119 4.70234 2.65925 4.76927 2.65925H5.13179C5.19872 2.65925 5.2517 2.71119 5.2517 2.7768C5.2517 2.83968 5.19872 2.89435 5.13179 2.89435ZM6.53447 12.952C6.53447 13.2117 6.36158 13.9061 6.23051 14.0428C6.09945 13.9061 5.92655 13.2117 5.92655 12.952V3.21967C5.92655 3.05565 6.06319 2.92169 6.23051 2.92169C6.39783 2.92169 6.53447 3.05565 6.53447 3.21967V12.952ZM7.69454 2.89435H7.33202C7.26509 2.89435 7.21211 2.84241 7.21211 2.7768C7.21211 2.71119 7.26788 2.65925 7.33202 2.65925H7.69454C7.76147 2.65925 7.81446 2.71119 7.81446 2.7768C7.81446 2.83968 7.76147 2.89435 7.69454 2.89435ZM9.09723 12.9547C9.09723 13.2117 8.92433 13.9006 8.79327 14.0428C8.76259 14.0045 8.69566 13.9006 8.61479 13.6327C8.53392 13.3484 8.48652 13.0531 8.48652 12.9547V3.22241C8.48652 3.05838 8.62316 2.92442 8.79048 2.92442L9.09444 4.01794V4.7424L8.63431 5.37117C8.50882 5.5434 8.46978 5.75664 8.52556 5.95894L9.09444 8.01749V12.9547H9.09723ZM13.4865 13.6573C12.8563 14.0045 12.1703 14.1877 11.448 14.1986C11.2556 14.2013 11.0911 14.081 11.0409 13.9033L8.82115 5.88239C8.78769 5.76484 8.81279 5.64182 8.8825 5.54613L9.52389 4.67405L10.2294 4.48542L11.2333 4.9201C11.3449 4.9693 11.4285 5.06499 11.462 5.17981L13.6817 13.2008C13.7319 13.3785 13.6511 13.5671 13.4865 13.6573Z" fill="#8A92AB"/>
<path d="M9.9897 5.96744C9.96739 5.88816 9.88373 5.84169 9.80286 5.86356C9.72199 5.88543 9.67458 5.96744 9.69689 6.04672C11.5904 12.8703 10.4275 8.68484 11.3227 11.9216C11.4872 12.5121 11.4621 13.1273 11.2529 13.7041C11.2251 13.7806 11.2669 13.8654 11.345 13.8927C11.4231 13.9201 11.5095 13.879 11.5374 13.8025C11.7688 13.1683 11.7967 12.4903 11.6155 11.8424C10.5446 7.97132 11.2892 10.6012 9.9897 5.96744Z" fill="#8A92AB"/>
<path d="M12.4185 11.6307C12.4129 11.6143 10.8095 5.81318 10.7927 5.75577C10.7704 5.67649 10.6868 5.63002 10.6059 5.65189C10.525 5.67376 10.4776 5.75577 10.4999 5.83505C12.0002 11.2534 9.65776 2.79507 12.1257 11.7072C12.307 12.3579 12.6779 12.9293 13.2049 13.3585C13.269 13.4104 13.3639 13.4022 13.4168 13.3393C13.4698 13.2764 13.4615 13.1835 13.3973 13.1316C12.9205 12.7406 12.5802 12.2212 12.4185 11.6307Z" fill="#8A92AB"/>
</svg>
