<svg width="10" height="10" viewBox="0 0 10 10" fill="none" xmlns="http://www.w3.org/2000/svg">
<path d="M5.55245 5.00001L9.88559 0.666859C10.0381 0.514301 10.0381 0.266957 9.88559 0.114419C9.73303 -0.03812 9.48569 -0.0381396 9.33315 0.114419L4.99999 4.44757L0.666859 0.114419C0.514301 -0.0381396 0.266957 -0.0381396 0.114419 0.114419C-0.03812 0.266977 -0.0381396 0.51432 0.114419 0.666859L4.44755 4.99999L0.114419 9.33315C-0.0381396 9.48571 -0.0381396 9.73305 0.114419 9.88559C0.190688 9.96186 0.290668 9.99998 0.390649 9.99998C0.490629 9.99998 0.59059 9.96186 0.666879 9.88559L4.99999 5.55245L9.33313 9.88559C9.4094 9.96186 9.50938 9.99998 9.60936 9.99998C9.70934 9.99998 9.8093 9.96186 9.88559 9.88559C10.0381 9.73303 10.0381 9.48569 9.88559 9.33315L5.55245 5.00001Z" fill="#8A92AB"/>
</svg>
