<svg width="20" height="17" viewBox="0 0 20 17" fill="none" xmlns="http://www.w3.org/2000/svg">
<path d="M15.9376 9.4375C15.4631 9.43785 14.9931 9.52886 14.5529 9.70563C14.4402 9.19684 14.3811 8.67765 14.3766 8.15656C14.5031 8.17622 14.6308 8.18667 14.7588 8.18781C14.9618 8.18789 15.1584 8.11666 15.3142 7.98658C15.4701 7.85649 15.5753 7.67581 15.6115 7.47606C15.6477 7.27632 15.6126 7.0702 15.5123 6.89369C15.4121 6.71718 15.253 6.58149 15.0629 6.51031L13.1251 5.78344V5.6875C13.2079 5.6875 13.2874 5.65458 13.346 5.59597C13.4046 5.53737 13.4376 5.45788 13.4376 5.375V4.125C13.4376 4.09812 13.4344 4.07188 13.4335 4.04531C13.5767 4.0964 13.7274 4.12333 13.8794 4.125C14.0865 4.12568 14.2897 4.06835 14.4659 3.95949C14.6421 3.85062 14.7843 3.69459 14.8763 3.50906L14.9672 3.32719C14.9889 3.2838 15.0001 3.23598 15.0001 3.1875V2.94875L15.0807 2.78781L15.1516 2.83031C15.199 2.8588 15.2532 2.87419 15.3085 2.87491C15.3638 2.87564 15.4183 2.86167 15.4664 2.83444C15.5146 2.8072 15.5546 2.76768 15.5825 2.71991C15.6104 2.67213 15.625 2.61781 15.6251 2.5625V2.25C15.6243 1.67007 15.3936 1.1141 14.9835 0.704026C14.5735 0.293951 14.0175 0.0632442 13.4376 0.0625H13.3529C13.1943 0.0628476 13.039 0.1073 12.9042 0.190885C12.7695 0.27447 12.6606 0.393893 12.5899 0.535797C12.5191 0.677701 12.4892 0.836491 12.5036 0.99441C12.5179 1.15233 12.5759 1.30315 12.671 1.43L12.1894 2.1525C11.8963 2.01145 11.5753 1.93798 11.2501 1.9375C9.96566 1.93664 8.70995 2.31732 7.64224 3.03125L6.39224 3.86375C6.06 4.08499 5.78758 4.3849 5.59922 4.73683C5.41085 5.08875 5.31238 5.48177 5.31256 5.88094C5.31258 6.62925 5.5204 7.36286 5.91287 8L6.73818 9.34375L6.15193 10.0766C5.46885 9.61729 4.65363 9.39552 3.83202 9.44547C3.01041 9.49542 2.22806 9.81431 1.60564 10.3529C0.983224 10.8916 0.55532 11.62 0.387931 12.426C0.220543 13.2319 0.322971 14.0705 0.679416 14.8125C1.03586 15.5544 1.62652 16.1585 2.36029 16.5315C3.09405 16.9044 3.93015 17.0257 4.73963 16.8764C5.54911 16.7271 6.28698 16.3156 6.83945 15.7055C7.39191 15.0953 7.72826 14.3203 7.79662 13.5H8.00381L8.12506 15.0866C8.13113 15.1652 8.16672 15.2386 8.22468 15.2921C8.28264 15.3456 8.35868 15.3752 8.43756 15.375H10.6251C10.7079 15.375 10.7874 15.3421 10.846 15.2835C10.9046 15.2249 10.9376 15.1454 10.9376 15.0625V14.75C10.9373 14.4729 10.8451 14.2038 10.6754 13.9848C10.5058 13.7658 10.2682 13.6092 10.0001 13.5397V12.6112L13.8863 9.58844C13.9116 9.72563 13.946 9.86063 13.9782 9.99469C13.2092 10.469 12.6378 11.2055 12.3693 12.0682C12.1009 12.9309 12.1537 13.8616 12.5179 14.6885C12.8821 15.5154 13.5331 16.1826 14.3507 16.5669C15.1684 16.9513 16.0975 17.0269 16.9666 16.7798C17.8356 16.5326 18.5859 15.9795 19.079 15.2224C19.5721 14.4652 19.7746 13.5553 19.6492 12.6606C19.5238 11.7658 19.0789 10.9466 18.3967 10.3542C17.7145 9.76182 16.8411 9.43621 15.9376 9.4375ZM8.48974 6.39L8.69006 6.18938L9.14881 6.53312L8.73568 7.02906L8.48974 6.39ZM9.42162 8.8125H9.55818L9.45943 8.91125L9.42162 8.8125ZM9.18099 8.1875L8.99349 7.69719L9.64974 6.90875L10.0276 7.19219C10.1025 7.24799 10.1657 7.31809 10.2135 7.39846C10.2612 7.47882 10.2926 7.56785 10.3057 7.66039C10.3188 7.75294 10.3135 7.84717 10.29 7.93765C10.2665 8.02812 10.2253 8.11304 10.1688 8.1875H9.18099ZM10.4022 6.6925L9.14568 5.75C9.60289 5.32953 10.1451 5.01226 10.7357 4.81969L10.9544 5.47344C10.9751 5.5356 11.0147 5.5897 11.0677 5.62811C11.1208 5.66652 11.1846 5.6873 11.2501 5.6875V6.9375C11.2501 7.00306 11.2708 7.06695 11.3091 7.12011C11.3475 7.17328 11.4016 7.21303 11.4638 7.23375L13.7501 7.99594V8.11875C13.7501 8.14188 13.7529 8.16438 13.7532 8.1875H10.8629C10.9107 8.05095 10.9359 7.9075 10.9376 7.76281C10.9371 7.55518 10.8885 7.35048 10.7956 7.16477C10.7027 6.97907 10.5681 6.81742 10.4022 6.6925ZM12.7029 6.29281L14.8435 7.09531C14.8976 7.11436 14.9431 7.15204 14.9719 7.20159C15.0007 7.25114 15.0109 7.30934 15.0007 7.36575C14.9905 7.42215 14.9606 7.47309 14.9163 7.50943C14.8719 7.54577 14.8161 7.56514 14.7588 7.56406C14.5382 7.56423 14.319 7.52867 14.1097 7.45875L11.8751 6.71219V5.6875H12.5001V6C12.5 6.06365 12.5194 6.1258 12.5557 6.17813C12.5919 6.23046 12.6433 6.27047 12.7029 6.29281ZM13.1926 1.77469C13.3363 1.82625 13.4788 1.88031 13.6172 1.94438C13.3696 2.07661 13.113 2.19147 12.8494 2.28813L13.1926 1.77469ZM14.4079 2.73531C14.3862 2.7787 14.375 2.82652 14.3751 2.875V3.11375L14.3169 3.22969C14.2766 3.31116 14.2142 3.37968 14.1369 3.42746C14.0595 3.47525 13.9703 3.50038 13.8794 3.5C13.7803 3.50024 13.6822 3.48084 13.5906 3.44292C13.499 3.405 13.4159 3.34931 13.346 3.27906C13.3141 3.24768 13.2757 3.22368 13.2335 3.20875C13.1811 3.09461 13.1189 2.98524 13.0476 2.88188C13.4701 2.72746 13.8759 2.53073 14.2588 2.29469L14.5429 2.46531L14.4079 2.73531ZM13.3529 0.6875H13.4376C13.8085 0.688036 14.1672 0.820282 14.4497 1.06066C14.7322 1.30104 14.9201 1.63394 14.9801 2L14.4176 1.66281C14.0609 1.449 13.682 1.27464 13.2876 1.14281C13.2398 1.12704 13.1984 1.09649 13.1692 1.05559C13.14 1.0147 13.1245 0.965568 13.1251 0.915313C13.1251 0.854918 13.1492 0.797021 13.1919 0.754316C13.2346 0.711611 13.2925 0.687583 13.3529 0.6875ZM7.98849 3.55C8.95388 2.90506 10.0891 2.56136 11.2501 2.5625C11.6643 2.563 12.0614 2.72778 12.3544 3.02069C12.6473 3.31361 12.8121 3.71075 12.8126 4.125V5.0625H11.4754L11.2338 4.33875C11.2089 4.26414 11.1568 4.20165 11.0879 4.16377C11.0189 4.12588 10.9383 4.11539 10.8619 4.13438C9.98907 4.35256 9.19192 4.80385 8.55568 5.44L8.09912 5.89656L6.45724 4.61938C6.5427 4.53106 6.63694 4.45169 6.73849 4.3825L7.98849 3.55ZM5.93756 5.88094C5.93847 5.62347 5.99463 5.36921 6.10224 5.13531L7.86443 6.50562L8.38162 7.84937C7.91836 8.11234 7.41545 8.29831 6.89256 8.4L6.44506 7.67281C6.11327 7.13402 5.93758 6.51369 5.93756 5.88094ZM4.06256 16.3125C3.57608 16.3134 3.09612 16.2007 2.66089 15.9833C2.22566 15.766 1.84718 15.4501 1.55558 15.0607C1.26398 14.6713 1.06732 14.2192 0.981255 13.7404C0.895188 13.2616 0.922093 12.7693 1.05983 12.3027C1.19756 11.8362 1.44232 11.4082 1.77462 11.0529C2.10692 10.6976 2.51758 10.4248 2.97391 10.2562C3.43023 10.0876 3.91961 10.0279 4.40309 10.0817C4.88658 10.1356 5.3508 10.3016 5.75881 10.5666L5.56256 10.8125C5.04656 10.4871 4.43869 10.3384 3.83075 10.389C3.22282 10.4395 2.64783 10.6864 2.19262 11.0926C1.73741 11.4987 1.42671 12.0419 1.30743 12.6401C1.18815 13.2384 1.26678 13.8592 1.53143 14.4088C1.79609 14.9585 2.2324 15.4071 2.77448 15.6869C3.31655 15.9667 3.93495 16.0625 4.53629 15.9599C5.13763 15.8572 5.68924 15.5617 6.10783 15.118C6.52642 14.6742 6.78924 14.1063 6.85662 13.5H7.17162C7.09328 14.2704 6.73203 14.9844 6.15775 15.5039C5.58347 16.0234 4.83695 16.3115 4.06256 16.3125ZM7.17162 12.875H6.85662C6.78616 12.2419 6.50225 11.6516 6.05162 11.2013L6.24724 10.9569C6.771 11.4679 7.09823 12.1469 7.17162 12.875ZM3.78131 13.3231C3.80681 13.3761 3.84673 13.4207 3.89648 13.452C3.94623 13.4833 4.00379 13.4999 4.06256 13.5H6.22506C6.15876 13.9652 5.94465 14.3968 5.61433 14.731C5.28401 15.0652 4.85499 15.2844 4.39059 15.3561C3.9262 15.4279 3.45104 15.3484 3.03525 15.1295C2.61946 14.9106 2.28508 14.5637 2.08147 14.1402C1.87785 13.7167 1.81579 13.239 1.90444 12.7775C1.9931 12.3161 2.22777 11.8953 2.57382 11.5774C2.91987 11.2595 3.35897 11.0613 3.82628 11.012C4.2936 10.9627 4.76437 11.065 5.16912 11.3038L3.81849 12.9913C3.78154 13.0374 3.75843 13.0931 3.75185 13.1518C3.74527 13.2105 3.75548 13.27 3.78131 13.3231ZM4.71256 12.875L5.65631 11.6947C5.96253 12.0204 6.1611 12.4325 6.22506 12.875H4.71256ZM7.79662 12.875C7.71991 11.9576 7.30729 11.1007 6.63787 10.4688L7.08631 9.90812L7.81912 11.0994L7.95599 12.875H7.79662ZM10.3126 14.75H8.72693L8.43756 10.9759C8.43361 10.9265 8.41809 10.8786 8.39224 10.8363L7.24193 8.96688C7.71899 8.85231 8.17865 8.6747 8.60881 8.43875L9.37506 10.4331V13.8125C9.37506 13.8954 9.40798 13.9749 9.46659 14.0335C9.52519 14.0921 9.60468 14.125 9.68756 14.125C9.85332 14.125 10.0123 14.1908 10.1295 14.3081C10.2467 14.4253 10.3126 14.5842 10.3126 14.75ZM10.0001 11.8194V10.375C10.0001 10.3367 9.99313 10.2986 9.97943 10.2628L9.70506 9.54938L10.4419 8.8125H13.7813C13.7832 8.83313 13.7854 8.85344 13.7872 8.875L10.0001 11.8194ZM15.9376 16.3125C15.2725 16.3124 14.6248 16.1 14.0888 15.7062C13.5529 15.3123 13.1567 14.7577 12.9579 14.123C12.7591 13.4883 12.7682 12.8068 12.9837 12.1776C13.1993 11.5484 13.6101 11.0045 14.1563 10.625C14.1904 10.7297 14.2188 10.8356 14.2576 10.9375C13.6884 11.3666 13.3049 11.997 13.1857 12.6997C13.0664 13.4025 13.2204 14.1242 13.6162 14.717C14.0119 15.3098 14.6194 15.7287 15.3141 15.8881C16.0088 16.0474 16.7382 15.935 17.3527 15.5739C17.9672 15.2128 18.4203 14.6303 18.6192 13.9459C18.8181 13.2615 18.7476 12.5269 18.4224 11.8927C18.0971 11.2585 17.5415 10.7727 16.8696 10.5349C16.1977 10.2971 15.4603 10.3253 14.8085 10.6138C14.7735 10.5147 14.7432 10.4141 14.7122 10.3138C15.1386 10.1316 15.6001 10.0466 16.0634 10.0649C16.5267 10.0833 16.9801 10.2044 17.3907 10.4197C17.8013 10.6349 18.1589 10.9388 18.4376 11.3094C18.7162 11.6799 18.9089 12.1078 19.0017 12.5621C19.0945 13.0163 19.085 13.4856 18.974 13.9357C18.863 14.3858 18.6533 14.8056 18.3599 15.1647C18.0666 15.5237 17.697 15.813 17.2781 16.0115C16.8591 16.21 16.4012 16.3129 15.9376 16.3125ZM15.0422 11.1937C15.5479 10.9655 16.1213 10.9371 16.647 11.1143C17.1728 11.2915 17.612 11.6612 17.8762 12.1491C18.1405 12.6369 18.2103 13.2067 18.0716 13.7439C17.9328 14.2811 17.5958 14.7459 17.1284 15.0447C16.6609 15.3436 16.0977 15.4544 15.5518 15.3549C15.006 15.2554 14.5181 14.9529 14.1862 14.5083C13.8543 14.0637 13.7031 13.5099 13.7629 12.9583C13.8226 12.4067 14.089 11.8982 14.5085 11.535C14.8192 12.2051 15.2202 12.8294 15.7004 13.3906L16.1747 12.9844C15.714 12.4444 15.3327 11.8414 15.0422 11.1937Z" fill="#8A92AB"/>
<path d="M7.8125 1.3125H4.0625V1.9375H7.8125V1.3125Z" fill="#8A92AB"/>
<path d="M5.3125 2.5625H2.1875V3.1875H5.3125V2.5625Z" fill="#8A92AB"/>
<path d="M4.375 7.25H0.3125V7.875H4.375V7.25Z" fill="#8A92AB"/>
<path d="M2.1875 6H0.3125V6.625H2.1875V6Z" fill="#8A92AB"/>
</svg>
