<svg width="20" height="20" viewBox="0 0 20 20" fill="none" xmlns="http://www.w3.org/2000/svg">
<path d="M17.0839 7.3004L16.6916 7.69294C16.6388 7.74532 16.5864 7.79106 16.5342 7.83321C16.9858 8.84474 17.2394 9.96368 17.2394 11.1412C17.2394 15.6301 13.5872 19.282 9.09813 19.282C4.60875 19.282 0.956602 15.6301 0.956602 11.1412C0.956602 6.65278 4.60879 3.00114 9.09813 3.00114C10.0332 3.00114 10.9309 3.16169 11.768 3.45294V3.45267C11.8478 3.32595 11.9409 3.19974 12.0684 3.07134L12.2699 2.86958C11.2848 2.49161 10.2161 2.28247 9.09836 2.28247C4.20578 2.28278 0.238281 6.24907 0.238281 11.1409C0.238281 16.0336 4.20578 19.9999 9.09817 19.9999C13.9913 19.9999 17.9578 16.0335 17.9578 11.1409C17.9578 9.76524 17.6441 8.4622 17.0839 7.3004Z" fill="#8A92AB"/>
<path d="M14.528 8.3824H13.7227C14.1324 9.13146 14.3656 9.98986 14.3656 10.9018C14.3656 13.8063 12.0024 16.1693 9.09785 16.1693C6.19309 16.1693 3.82992 13.8063 3.82992 10.9018C3.82988 7.99768 6.19305 5.63479 9.09785 5.63479C9.91434 5.63479 10.6884 5.8215 11.3788 6.15475V5.36783C10.6757 5.07775 9.90551 4.9165 9.09785 4.9165C5.79152 4.9165 3.11133 7.59646 3.11133 10.9019C3.11133 14.2072 5.79148 16.8877 9.09785 16.8877C12.4035 16.8877 15.0841 14.2072 15.0841 10.9019C15.0842 10.0015 14.8839 9.14838 14.528 8.3824Z" fill="#8A92AB"/>
<path d="M19.7058 2.96071C19.6498 2.85207 19.5593 2.77613 19.4698 2.73035C19.3795 2.68414 19.2873 2.66246 19.193 2.65274L17.4831 2.48219C17.4483 2.47957 17.3936 2.45551 17.3507 2.41172C17.3069 2.36883 17.2828 2.31406 17.2804 2.2793L17.1092 0.568752C17.0958 0.443713 17.0627 0.319377 16.9756 0.203635C16.9322 0.146447 16.8729 0.0931271 16.8012 0.0559787C16.7297 0.0188303 16.6473 -0.00023224 16.5697 2.13527e-06C16.4699 0.000275573 16.3813 0.0283225 16.3068 0.0666818C16.2322 0.105744 16.1689 0.155744 16.1117 0.212658L12.6606 3.66379C12.5203 3.80598 12.4205 3.97699 12.3438 4.15988C12.269 4.34352 12.2183 4.53528 12.2168 4.73508V6.70598C12.2173 6.84102 12.2521 6.9668 12.309 7.07969L10.824 8.60899C10.3429 8.24649 9.7468 8.02856 9.09797 8.02856C7.51074 8.02856 6.22461 9.31516 6.22461 10.9016C6.22461 12.4881 7.51074 13.7747 9.09797 13.7747C10.6845 13.7747 11.9713 12.4881 11.9713 10.9016C11.9713 10.2229 11.7344 9.6 11.3404 9.10821L12.8786 7.52457C12.9357 7.53672 12.9943 7.54387 13.0553 7.5441H15.0273C15.2271 7.5427 15.4189 7.49219 15.6023 7.41739C15.7854 7.34043 15.9564 7.24067 16.0988 7.10039L19.5493 3.6502C19.6062 3.59301 19.6559 3.52969 19.695 3.45492C19.7334 3.38035 19.7617 3.2918 19.7617 3.19223C19.7625 3.11481 19.7434 3.03219 19.7058 2.96071ZM9.09797 13.0567C7.90949 13.0567 6.9427 12.0902 6.9427 10.9019C6.9427 9.71391 7.90945 8.74711 9.09797 8.74711C9.55125 8.74711 9.97184 8.8886 10.3193 9.12864L8.84023 10.652C8.70207 10.7942 8.70543 11.0216 8.84766 11.1598C8.98984 11.2979 9.21754 11.2946 9.3557 11.1523L10.8338 9.63039C11.096 9.98723 11.253 10.4259 11.253 10.9018C11.253 12.0902 10.2862 13.0567 9.09797 13.0567ZM12.9357 6.43524V4.73539C12.9343 4.67203 12.9602 4.54793 13.0081 4.43504C13.0536 4.32168 13.1231 4.21567 13.1691 4.17184L16.423 0.918166L16.5662 2.35125C16.5762 2.4477 16.6038 2.53703 16.6405 2.62063L12.9357 6.43524ZM15.5911 6.59289C15.5468 6.63864 15.4412 6.70793 15.3279 6.75391C15.215 6.8018 15.0909 6.82774 15.0275 6.82633H13.557L17.1508 3.12559C17.2323 3.16039 17.3182 3.1868 17.4118 3.1968L18.8442 3.33969L15.5911 6.59289Z" fill="#8A92AB"/>
</svg>
