<svg width="27" height="30" viewBox="0 0 27 30" fill="none" xmlns="http://www.w3.org/2000/svg">
<path d="M23.0696 13.7711L24.508 12.3328H16.6273C15.6693 12.3328 14.8899 13.1121 14.8899 14.0702V15.6974C14.8899 16.0218 14.627 16.2847 14.3026 16.2847C13.9782 16.2847 13.7153 16.0218 13.7153 15.6974V14.0702C13.7153 12.4645 15.0216 11.1582 16.6273 11.1582H24.508L23.0696 9.71988C22.8403 9.49055 22.8403 9.11871 23.0696 8.88938C23.299 8.66004 23.6708 8.66004 23.9002 8.88938L26.3408 11.33C26.3546 11.3438 26.3677 11.3583 26.38 11.3734C26.3853 11.3798 26.3898 11.3865 26.3947 11.3931C26.4013 11.4018 26.4081 11.4104 26.4142 11.4196C26.4196 11.4277 26.4243 11.4361 26.4293 11.4444C26.4342 11.4525 26.4392 11.4605 26.4437 11.4688C26.4483 11.4773 26.4521 11.4862 26.4563 11.4949C26.4604 11.5035 26.4647 11.512 26.4684 11.5209C26.4719 11.5294 26.4747 11.538 26.4778 11.5466C26.4812 11.5561 26.4848 11.5654 26.4878 11.5751C26.4904 11.5838 26.4923 11.5926 26.4945 11.6013C26.497 11.6111 26.4997 11.6208 26.5017 11.6309C26.5037 11.6409 26.5049 11.6512 26.5063 11.6614C26.5076 11.6702 26.5093 11.6788 26.5102 11.6877C26.512 11.7064 26.513 11.7252 26.513 11.7439C26.513 11.7445 26.513 11.745 26.513 11.7456C26.513 11.7461 26.513 11.7466 26.513 11.7472C26.5129 11.766 26.512 11.7848 26.5102 11.8035C26.5093 11.8124 26.5076 11.821 26.5063 11.8298C26.5049 11.84 26.5037 11.8502 26.5017 11.8603C26.4997 11.8703 26.497 11.88 26.4945 11.8898C26.4923 11.8986 26.4904 11.9074 26.4878 11.916C26.4848 11.9257 26.4812 11.9351 26.4778 11.9446C26.4747 11.9531 26.4719 11.9618 26.4684 11.9702C26.4647 11.9791 26.4604 11.9876 26.4563 11.9962C26.4522 12.005 26.4483 12.0138 26.4437 12.0224C26.4393 12.0308 26.4342 12.0387 26.4293 12.0468C26.4243 12.0551 26.4196 12.0635 26.4142 12.0716C26.4081 12.0807 26.4013 12.0893 26.3947 12.0981C26.3898 12.1046 26.3852 12.1114 26.38 12.1178C26.3677 12.1328 26.3546 12.1474 26.3408 12.1611L23.9002 14.6016C23.7855 14.7162 23.6352 14.7736 23.4849 14.7736C23.3346 14.7736 23.1843 14.7162 23.0696 14.6016C22.8403 14.3723 22.8403 14.0004 23.0696 13.7711ZM26.978 22.6713C26.978 26.7124 23.6903 29.9999 19.6492 29.9999C15.6081 29.9999 12.3206 26.7123 12.3206 22.6713C12.3206 18.6302 15.6082 15.3426 19.6492 15.3426C23.6903 15.3426 26.978 18.6302 26.978 22.6713ZM25.8035 22.6713C25.8035 19.2779 23.0427 16.5171 19.6493 16.5171C16.2559 16.5171 13.4951 19.2779 13.4951 22.6713C13.4951 26.0647 16.2559 28.8254 19.6493 28.8254C23.0427 28.8254 25.8035 26.0647 25.8035 22.6713ZM22.9038 22.084H20.2365V17.7895C20.2365 17.4652 19.9736 17.2022 19.6492 17.2022C19.3249 17.2022 19.062 17.4652 19.062 17.7895V22.6713C19.062 22.9956 19.3249 23.2586 19.6492 23.2586H22.9038C23.2281 23.2586 23.4911 22.9956 23.4911 22.6713C23.4911 22.347 23.2281 22.084 22.9038 22.084ZM4.0742 8.60115C3.74988 8.60115 3.48691 8.86406 3.48691 9.18844V9.65338C3.48691 10.6181 4.27178 11.4029 5.23646 11.4029H5.57906V11.978C5.57906 12.3023 5.84197 12.5653 6.16635 12.5653C6.49072 12.5653 6.75363 12.3024 6.75363 11.978V11.4029H7.09623C8.06098 11.4029 8.84578 10.6181 8.84578 9.65338V8.72355C8.84578 7.75881 8.06092 6.97395 7.09623 6.97395H5.23652C4.91947 6.97395 4.66148 6.71596 4.66148 6.39885V5.46896C4.66148 5.15191 4.91947 4.89393 5.23652 4.89393H7.09623C7.41334 4.89393 7.67127 5.15191 7.67127 5.46896V5.93391C7.67127 6.25828 7.93418 6.52119 8.25855 6.52119C8.58293 6.52119 8.84584 6.25828 8.84584 5.93391V5.46896C8.84584 4.50428 8.06098 3.71941 7.09629 3.71941H6.75369V3.14432C6.75369 2.82 6.49078 2.55703 6.16641 2.55703C5.84209 2.55703 5.57912 2.81994 5.57912 3.14432V3.71941H5.23652C4.27184 3.71941 3.48697 4.50428 3.48697 5.46896V6.39879C3.48697 7.36354 4.27184 8.1484 5.23652 8.1484H7.09623C7.41334 8.1484 7.67127 8.40639 7.67127 8.7235V9.65332C7.67127 9.97037 7.41328 10.2284 7.09623 10.2284H5.23652C4.91947 10.2284 4.66148 9.97037 4.66148 9.65332V9.18838C4.66148 8.86406 4.39857 8.60115 4.0742 8.60115ZM14.8898 29.4127C14.8898 29.7371 14.6269 30 14.3026 30H1.51711C0.680566 30 0 29.3194 0 28.4829V3.14432C0 1.41053 1.41053 0 3.14438 0H22.2064C23.9402 0 25.3508 1.41053 25.3508 3.14432V6.63129C25.3508 7.21143 24.8787 7.68346 24.2986 7.68346H20.2366V9.88576C20.2366 10.2101 19.9737 10.473 19.6493 10.473C19.3249 10.473 19.062 10.2101 19.062 9.88576V7.09623V3.14432C19.062 2.39906 19.3232 1.71398 19.758 1.17451H3.14438C2.05816 1.17451 1.17451 2.05816 1.17451 3.14432V28.4828C1.17451 28.6717 1.3282 28.8254 1.51711 28.8254H14.3026C14.6269 28.8255 14.8898 29.0884 14.8898 29.4127ZM22.2064 1.17451C21.1202 1.17451 20.2365 2.05816 20.2365 3.14432V6.50895H24.1762V3.14432C24.1762 2.05816 23.2925 1.17451 22.2064 1.17451ZM10.5832 6.52113H17.0922C17.4165 6.52113 17.6795 6.25822 17.6795 5.93385C17.6795 5.60953 17.4166 5.34656 17.0922 5.34656H10.5832C10.2589 5.34656 9.99592 5.60947 9.99592 5.93385C9.99592 6.25822 10.2589 6.52113 10.5832 6.52113ZM17.6794 9.65332C17.6794 9.329 17.4165 9.06604 17.0921 9.06604H10.5832C10.2589 9.06604 9.99592 9.32895 9.99592 9.65332C9.99592 9.9777 10.2588 10.2406 10.5832 10.2406H17.0921C17.4165 10.2406 17.6794 9.9777 17.6794 9.65332ZM11.7455 13.4829H3.60932C3.285 13.4829 3.02203 13.7458 3.02203 14.0702C3.02203 14.3946 3.28494 14.6575 3.60932 14.6575H11.7455C12.0698 14.6575 12.3328 14.3946 12.3328 14.0702C12.3328 13.7458 12.0698 13.4829 11.7455 13.4829ZM12.3328 17.7895C12.3328 17.4652 12.0698 17.2022 11.7455 17.2022H3.60932C3.285 17.2022 3.02203 17.4652 3.02203 17.7895C3.02203 18.1139 3.28494 18.3768 3.60932 18.3768H11.7455C12.0698 18.3768 12.3328 18.1139 12.3328 17.7895ZM10.5832 20.9217H3.60932C3.285 20.9217 3.02203 21.1846 3.02203 21.509C3.02203 21.8334 3.28494 22.0963 3.60932 22.0963H10.5832C10.9075 22.0963 11.1705 21.8334 11.1705 21.509C11.1705 21.1846 10.9075 20.9217 10.5832 20.9217ZM10.5832 24.6411H3.60932C3.285 24.6411 3.02203 24.904 3.02203 25.2284C3.02203 25.5527 3.28494 25.8156 3.60932 25.8156H10.5832C10.9075 25.8156 11.1705 25.5527 11.1705 25.2284C11.1705 24.904 10.9075 24.6411 10.5832 24.6411Z" fill="#88B6FF"/>
</svg>
