<svg width="26" height="30" viewBox="0 0 26 30" fill="none" xmlns="http://www.w3.org/2000/svg">
<path d="M18.9844 0H1.75781C0.788554 0 0 0.788555 0 1.75781V7.73438C0 8.05799 0.262383 8.32031 0.585938 8.32031C0.909492 8.32031 1.17188 8.05799 1.17188 7.73438V1.75781C1.17188 1.43473 1.43473 1.17188 1.75781 1.17188H18.9844C19.3075 1.17188 19.5703 1.43473 19.5703 1.75781V23.5547C19.5703 23.8778 19.3075 24.1406 18.9844 24.1406H1.75781C1.43473 24.1406 1.17188 23.8778 1.17188 23.5547V12.6758C1.17188 12.3521 0.909492 12.0898 0.585938 12.0898C0.262383 12.0898 0 12.3521 0 12.6758V23.5547C0 24.5239 0.788554 25.3125 1.75781 25.3125H18.9844C19.9536 25.3125 20.7422 24.5239 20.7422 23.5547V1.75781C20.7422 0.788555 19.9536 0 18.9844 0Z" fill="#88B6FF"/>
<path d="M1.00014 9.94453C0.891211 9.83555 0.740039 9.77344 0.585938 9.77344C0.431836 9.77344 0.280664 9.83555 0.17168 9.94453C0.0626367 10.0541 0 10.2053 0 10.3588C0 10.5135 0.0626953 10.6641 0.17168 10.7736C0.280664 10.8826 0.431836 10.9453 0.585938 10.9453C0.73998 10.9453 0.891152 10.8826 1.00014 10.7736C1.10918 10.6646 1.17188 10.5135 1.17188 10.3588C1.17188 10.2047 1.10912 10.0541 1.00014 9.94453Z" fill="#88B6FF"/>
<path d="M3.34785 26.6561C3.23887 26.5471 3.08834 26.4844 2.93359 26.4844C2.77949 26.4844 2.62832 26.5471 2.51939 26.6561C2.41035 26.765 2.34766 26.9162 2.34766 27.0703C2.34766 27.225 2.41041 27.3756 2.51939 27.4846C2.62832 27.5941 2.77949 27.6562 2.93359 27.6562C3.08834 27.6562 3.23887 27.5941 3.34785 27.4846C3.45689 27.3756 3.51953 27.225 3.51953 27.0703C3.51953 26.9162 3.45684 26.765 3.34785 26.6561Z" fill="#88B6FF"/>
<path d="M22.5039 2.34375C22.1804 2.34375 21.918 2.60607 21.918 2.92969V25.8984C21.918 26.2215 21.6551 26.4844 21.332 26.4844H5.27734C4.95379 26.4844 4.69141 26.7467 4.69141 27.0703C4.69141 27.3939 4.95379 27.6562 5.27734 27.6562H21.332C22.3013 27.6562 23.0898 26.8677 23.0898 25.8984V2.92969C23.0898 2.60607 22.8275 2.34375 22.5039 2.34375Z" fill="#88B6FF"/>
<path d="M24.8516 4.6875C24.528 4.6875 24.2656 4.94982 24.2656 5.27344V28.2422C24.2656 28.5653 24.0028 28.8281 23.6797 28.8281H5.28125C4.9577 28.8281 4.69531 29.0904 4.69531 29.4141C4.69531 29.7377 4.9577 30 5.28125 30H23.6797C24.6489 30 25.4375 29.2114 25.4375 28.2422V5.27344C25.4375 4.94982 25.1751 4.6875 24.8516 4.6875Z" fill="#88B6FF"/>
<path d="M9.49219 4.33594H3.86719C3.54363 4.33594 3.28125 4.59826 3.28125 4.92188V10.5469C3.28125 10.8705 3.54363 11.1328 3.86719 11.1328H9.49219C9.81574 11.1328 10.0781 10.8705 10.0781 10.5469V4.92188C10.0781 4.59826 9.81574 4.33594 9.49219 4.33594ZM8.90625 9.96094H4.45312V5.50781H8.90625V9.96094Z" fill="#88B6FF"/>
<path d="M7.6069 13.7888C7.37803 13.56 7.00713 13.56 6.77821 13.7888L5.22061 15.3464L4.49639 14.6221C4.26758 14.3933 3.89668 14.3933 3.6677 14.6221C3.43889 14.8509 3.43889 15.2219 3.6677 15.4507L4.80629 16.5893C4.91622 16.6992 5.06522 16.7609 5.22061 16.7609C5.37606 16.7609 5.525 16.6992 5.63498 16.5893L7.6069 14.6174C7.83571 14.3886 7.83571 14.0176 7.6069 13.7888Z" fill="#88B6FF"/>
<path d="M17.2071 14.5898H10.3711C10.0475 14.5898 9.78516 14.8522 9.78516 15.1758C9.78516 15.4994 10.0475 15.7617 10.3711 15.7617H17.2071C17.5306 15.7617 17.793 15.4994 17.793 15.1758C17.793 14.8522 17.5306 14.5898 17.2071 14.5898Z" fill="#88B6FF"/>
<path d="M16.875 4.33594H12.7734C12.4499 4.33594 12.1875 4.59826 12.1875 4.92188C12.1875 5.24549 12.4499 5.50781 12.7734 5.50781H16.875C17.1986 5.50781 17.4609 5.24549 17.4609 4.92188C17.4609 4.59826 17.1986 4.33594 16.875 4.33594Z" fill="#88B6FF"/>
<path d="M16.875 7.14844H12.7734C12.4499 7.14844 12.1875 7.41076 12.1875 7.73438C12.1875 8.05799 12.4499 8.32031 12.7734 8.32031H16.875C17.1986 8.32031 17.4609 8.05799 17.4609 7.73438C17.4609 7.41076 17.1986 7.14844 16.875 7.14844Z" fill="#88B6FF"/>
<path d="M16.875 9.96094H12.7734C12.4499 9.96094 12.1875 10.2233 12.1875 10.5469C12.1875 10.8705 12.4499 11.1328 12.7734 11.1328H16.875C17.1986 11.1328 17.4609 10.8705 17.4609 10.5469C17.4609 10.2233 17.1986 9.96094 16.875 9.96094Z" fill="#88B6FF"/>
<path d="M7.6069 18.2653C7.37803 18.0366 7.00713 18.0365 6.77821 18.2653L5.22061 19.8229L4.49639 19.0987C4.26758 18.8698 3.89668 18.8699 3.6677 19.0987C3.43889 19.3275 3.43889 19.6985 3.6677 19.9273L4.80629 21.0659C4.91622 21.1757 5.06522 21.2375 5.22061 21.2375C5.37606 21.2375 5.525 21.1757 5.63498 21.0659L7.6069 19.094C7.83571 18.8652 7.83571 18.4941 7.6069 18.2653Z" fill="#88B6FF"/>
<path d="M17.2071 19.043H10.3711C10.0475 19.043 9.78516 19.3053 9.78516 19.6289C9.78516 19.9525 10.0475 20.2148 10.3711 20.2148H17.2071C17.5306 20.2148 17.793 19.9525 17.793 19.6289C17.793 19.3053 17.5306 19.043 17.2071 19.043Z" fill="#88B6FF"/>
</svg>
