<svg width="20" height="19" viewBox="0 0 20 19" fill="none" xmlns="http://www.w3.org/2000/svg">
<path d="M19.2032 7.3486C19.1036 7.02988 18.8247 6.79083 18.4861 6.75099L13.1673 5.9741L10.7968 1.1733C10.6375 0.874496 10.3387 0.675293 10 0.675293C9.66137 0.675293 9.36256 0.854576 9.2032 1.1733L6.83268 5.9741L1.51396 6.75099C1.17531 6.79083 0.896427 7.02988 0.796825 7.3486C0.697224 7.66733 0.796825 8.02589 1.03587 8.26494L4.88049 12.01L3.96416 17.3287C3.90439 17.6673 4.04384 17.9861 4.3028 18.1853C4.46216 18.3048 4.64145 18.3645 4.82073 18.3645C4.96017 18.3645 5.09961 18.3247 5.21914 18.2649L10.0996 15.7948L14.761 18.2251C15.0598 18.3845 15.4183 18.3645 15.6972 18.1653C15.9761 17.9661 16.0956 17.6275 16.0558 17.3088L15.1395 12.01L18.9642 8.26494C19.2231 8.02589 19.3028 7.68725 19.2032 7.3486ZM18.5657 7.82669L14.4821 11.7908L15.4383 17.3884C15.4582 17.488 15.4183 17.6076 15.3187 17.6673C15.2391 17.7271 15.1195 17.747 15.0199 17.6872L10.0996 15.0976L4.96017 17.7271C4.86057 17.7669 4.76097 17.7669 4.66137 17.7072C4.58169 17.6275 4.54184 17.5279 4.56176 17.4283L5.51794 11.8108L1.4542 7.82669C1.37451 7.74701 1.35459 7.6474 1.37451 7.52788C1.41435 7.42828 1.49404 7.3486 1.61356 7.32868L7.23109 6.51195L9.74105 1.43227C9.78089 1.33266 9.88049 1.2729 10 1.2729C10.1195 1.2729 10.1992 1.33266 10.259 1.43227L12.7689 6.53187L18.3865 7.3486C18.506 7.36852 18.5857 7.42828 18.6255 7.5478C18.6653 7.66733 18.6255 7.74701 18.5657 7.82669Z" fill="#88B6FF"/>
</svg>
