<svg width="20" height="20" viewBox="0 0 20 20" fill="none" xmlns="http://www.w3.org/2000/svg">
<path d="M4.07042 4.26665C3.90843 4.12426 3.66163 4.14012 3.51921 4.30215C3.05905 4.82563 2.66292 5.40473 2.34179 6.02333C2.24241 6.21481 2.31706 6.45059 2.50851 6.54997C2.56604 6.57981 2.62753 6.59395 2.68812 6.59395C2.82929 6.59395 2.96558 6.51719 3.03511 6.38325C3.32714 5.82067 3.68745 5.29399 4.10597 4.8179C4.24831 4.65583 4.23241 4.40907 4.07042 4.26665Z" fill="#7A8899"/>
<path d="M2.38647 6.82395C2.18381 6.75153 1.95994 6.85841 1.8869 7.06094C1.88666 7.06157 1.88518 7.06571 1.88494 7.06633C1.81295 7.26923 1.91936 7.49044 2.12209 7.56294C2.16518 7.57837 2.20924 7.58567 2.2526 7.58567C2.41315 7.58567 2.56416 7.48544 2.6217 7.32594C2.62193 7.32532 2.62342 7.32118 2.62365 7.32055C2.69561 7.11766 2.58924 6.89645 2.38647 6.82395Z" fill="#7A8899"/>
<path d="M10.9508 18.1909C10.9361 17.9757 10.7497 17.8127 10.5345 17.8278C9.90208 17.8709 9.26493 17.8372 8.64063 17.7274C8.42829 17.6901 8.22567 17.832 8.18829 18.0444C8.1509 18.2568 8.29286 18.4594 8.50528 18.4967C8.99883 18.5836 9.49965 18.6272 10.0007 18.6272C10.1964 18.6272 10.3923 18.6205 10.5877 18.6072C10.8029 18.5925 10.9655 18.4061 10.9508 18.1909Z" fill="#7A8899"/>
<path d="M12.0196 17.9977C11.9783 17.786 11.7732 17.6478 11.5614 17.6892L11.5483 17.6919C11.3373 17.7364 11.2023 17.9436 11.2468 18.1547C11.2856 18.3386 11.4478 18.4647 11.6285 18.4647C11.6552 18.4647 11.6823 18.462 11.7095 18.4562L11.7111 18.4559C11.9228 18.4146 12.0609 18.2095 12.0196 17.9977Z" fill="#7A8899"/>
<path d="M19.5861 7.16992C19.5802 7.15011 19.5743 7.13031 19.5684 7.11054C19.556 7.06984 19.5436 7.0291 19.5307 6.98847C19.5162 6.94242 19.5012 6.89656 19.486 6.85078C19.4802 6.83312 19.4748 6.81539 19.4688 6.79773C19.4658 6.7889 19.4625 6.78023 19.4595 6.77144C19.4387 6.71015 19.4171 6.64914 19.3951 6.58836C19.3874 6.56703 19.3795 6.54578 19.3716 6.52449C19.3522 6.47211 19.3324 6.41996 19.3122 6.36797C19.3048 6.34894 19.2975 6.32984 19.29 6.3109C19.2639 6.2448 19.2371 6.17898 19.2096 6.11355C19.2002 6.09121 19.1904 6.0691 19.1809 6.04683C19.1627 6.00457 19.1444 5.96242 19.1257 5.92047C19.1109 5.88715 19.0959 5.85394 19.0807 5.82086C19.0685 5.79422 19.0561 5.76769 19.0436 5.74117C18.0873 3.7002 16.4812 2.05407 14.4311 1.04012C13.147 0.405087 11.7814 0.0594237 10.367 0.00926756C10.3668 0.00926756 10.3667 0.00926756 10.3665 0.00926756C10.3145 0.00743163 10.2624 0.00606445 10.2104 0.00504882C10.1832 0.00450195 10.156 0.00422851 10.1288 0.00391601C10.0883 0.0034082 10.0478 0.00219727 10.0072 0.00219727C8.17057 0.00219727 6.36885 0.507587 4.7969 1.46376C4.19081 1.83243 3.62929 2.26254 3.11972 2.74606C3.11773 2.7479 3.11554 2.7495 3.11359 2.75137C3.07406 2.78891 3.03519 2.82707 2.99632 2.86524C2.99542 2.8661 2.99452 2.86696 2.99366 2.86782C2.95527 2.90555 2.91726 2.94368 2.87952 2.982C2.87421 2.98743 2.86886 2.99278 2.86355 2.99821C2.45492 3.41489 2.08476 3.86555 1.75554 4.34699C1.75546 4.34711 1.75535 4.34727 1.75527 4.34742C1.72308 4.39445 1.69128 4.44184 1.65988 4.48945C1.65699 4.49383 1.65418 4.49824 1.65128 4.50262C1.56664 4.63149 1.48496 4.76246 1.40613 4.89555C1.39461 4.915 1.38293 4.93438 1.37148 4.95395C1.35371 4.98438 1.33629 5.01504 1.31882 5.0457C1.30203 5.07512 1.28535 5.10461 1.26886 5.13422C1.25394 5.16105 1.23914 5.18793 1.22445 5.21488C1.20468 5.25117 1.18523 5.28766 1.1659 5.32422C1.15425 5.34625 1.1425 5.36816 1.13101 5.39027C1.10152 5.44707 1.07242 5.50414 1.04394 5.56156C1.04269 5.56402 1.0414 5.56648 1.04019 5.56894C1.03871 5.57199 1.03734 5.57504 1.03586 5.57808C0.99777 5.65527 0.960817 5.73285 0.924802 5.81062C0.915974 5.82973 0.907614 5.84902 0.898903 5.8682C0.869607 5.93254 0.840857 5.99699 0.813005 6.06172C0.806052 6.07793 0.799372 6.09418 0.792536 6.11043C0.762576 6.18109 0.733396 6.25195 0.705154 6.32301C0.701521 6.33219 0.697927 6.34136 0.694334 6.35054C-0.122071 8.42199 -0.222305 10.6812 0.41367 12.8289C0.419725 12.8494 0.425819 12.8699 0.43199 12.8904C0.444139 12.9305 0.456404 12.9706 0.4691 13.0107C0.4841 13.0583 0.499607 13.1057 0.515311 13.1531C0.52074 13.1694 0.52574 13.1858 0.531248 13.2022C0.533826 13.2098 0.536678 13.2174 0.539295 13.225C0.560662 13.2878 0.582732 13.3504 0.60531 13.4126C0.612732 13.433 0.620232 13.4533 0.627771 13.4737C0.647615 13.5274 0.667888 13.5808 0.68863 13.634C0.695623 13.652 0.702459 13.67 0.709568 13.6879C0.735974 13.7547 0.763005 13.8212 0.790818 13.8872C0.799568 13.9081 0.808708 13.9287 0.817654 13.9495C0.836443 13.9933 0.855466 14.0371 0.87488 14.0806C0.889294 14.113 0.903903 14.1453 0.91863 14.1775C0.931482 14.2055 0.944607 14.2335 0.957692 14.2613C1.9141 16.301 3.51972 17.9462 5.56885 18.9597C6.90112 19.6186 8.32112 19.9659 9.7924 19.9948C9.81615 19.9953 9.83994 19.9955 9.86373 19.9958C9.90674 19.9964 9.94963 19.9977 9.99275 19.9977C11.8294 19.9977 13.6311 19.4923 15.203 18.5361C15.8092 18.1674 16.3707 17.7372 16.8804 17.2536C16.8823 17.2518 16.8845 17.2502 16.8864 17.2484C16.9247 17.212 16.9624 17.1749 17.0002 17.1379C17.0024 17.1357 17.0047 17.1336 17.0069 17.1313C17.0448 17.0942 17.0822 17.0566 17.1194 17.0188C17.1253 17.0128 17.1312 17.0069 17.1371 17.0009C17.586 16.5434 17.9882 16.0449 18.3408 15.5097C18.3431 15.5062 18.3454 15.5027 18.3477 15.4992C18.4333 15.3688 18.516 15.2362 18.5957 15.1015C18.6066 15.0832 18.6176 15.065 18.6283 15.0467C18.6464 15.0156 18.6641 14.9844 18.682 14.9532C18.6984 14.9244 18.7147 14.8954 18.7309 14.8664C18.746 14.8392 18.761 14.812 18.7759 14.7846C18.7955 14.7488 18.8147 14.7127 18.8338 14.6766C18.8457 14.6542 18.8576 14.6319 18.8693 14.6095C18.8987 14.5528 18.9277 14.4959 18.9561 14.4385C18.9574 14.436 18.9587 14.4336 18.9599 14.4311C18.9614 14.4281 18.9627 14.4251 18.9642 14.4221C19.0024 14.3448 19.0394 14.2671 19.0754 14.1892C19.0841 14.1705 19.0923 14.1516 19.1008 14.1328C19.1303 14.068 19.1593 14.0031 19.1873 13.9379C19.1941 13.9221 19.2006 13.9062 19.2073 13.8903C19.2375 13.8193 19.2668 13.748 19.2952 13.6765C19.2987 13.6677 19.3022 13.6587 19.3057 13.6498C20.1222 11.5778 20.2224 9.318 19.5861 7.16992ZM18.2658 5.92578C18.2684 5.93101 18.271 5.93617 18.2736 5.9414C18.2913 5.97754 18.3085 6.01387 18.3257 6.05023C18.3383 6.0768 18.3507 6.10344 18.363 6.13012C18.3763 6.15906 18.3898 6.18797 18.4029 6.21711C18.4273 6.27156 18.4512 6.32636 18.4746 6.3814C18.4834 6.40207 18.492 6.42285 18.5006 6.44355C18.5196 6.48937 18.5384 6.53535 18.5568 6.58156C18.5636 6.59859 18.5705 6.61558 18.5772 6.63261C18.6009 6.69324 18.624 6.75414 18.6465 6.81539C18.6529 6.83265 18.659 6.85008 18.6652 6.86738C18.6818 6.91312 18.6979 6.9591 18.7137 7.00519C18.7218 7.02882 18.73 7.05242 18.7379 7.07609C18.7537 7.12343 18.769 7.17089 18.7841 7.21839C18.7991 7.26589 18.8137 7.31355 18.828 7.36136C18.8328 7.37714 18.8375 7.39296 18.8421 7.40878C18.8701 7.50425 18.8967 7.60023 18.9217 7.69687L17.8174 9.60956L14.2469 9.60948L12.4617 6.51742L14.247 3.42528L16.4594 3.42532C17.2018 4.15426 17.8105 4.99918 18.2658 5.92578ZM13.5704 9.99995L11.7852 13.0921H8.21475L6.42956 9.99991L8.21475 6.90789H11.7852L13.5704 9.99995ZM14.0848 1.7404C14.6068 1.99856 15.0971 2.30165 15.5527 2.64403L14.2468 2.64399L13.5951 1.51528C13.7597 1.58532 13.923 1.66036 14.0848 1.7404ZM7.53362 1.12231C8.34076 0.897781 9.17229 0.784032 10.0076 0.784032C10.0454 0.784032 10.0831 0.78454 10.1208 0.784969C10.1421 0.785243 10.1635 0.785477 10.1849 0.785868C10.9564 0.800789 11.7219 0.912938 12.4651 1.12012L13.5704 3.03461L11.7852 6.12668L8.21479 6.12664L6.42956 3.03461L7.53362 1.12231ZM6.41151 1.50348L5.75303 2.64399H4.43538C5.04311 2.18309 5.70655 1.79985 6.41151 1.50348ZM1.14668 7.4423C1.15054 7.42902 1.15472 7.41585 1.15863 7.40257C1.17609 7.34328 1.19386 7.28398 1.21257 7.22492C1.22429 7.18796 1.23679 7.15125 1.24898 7.11441C1.26086 7.07847 1.27238 7.04246 1.28472 7.00656C1.30621 6.94425 1.32863 6.88222 1.35144 6.82039C1.3555 6.80945 1.35918 6.7984 1.36328 6.78746C1.47394 6.49078 1.59984 6.19941 1.7405 5.91512C1.76761 5.86031 1.79531 5.8059 1.82339 5.7518C1.83093 5.7373 1.83867 5.72297 1.84625 5.70851C1.86734 5.6684 1.88859 5.6284 1.91023 5.58863C1.91871 5.57305 1.9273 5.55754 1.93589 5.54199C1.95808 5.50176 1.9805 5.46168 2.00328 5.42184C2.01035 5.40941 2.01746 5.39699 2.02457 5.38461C2.05249 5.33621 2.08074 5.28805 2.10953 5.24023C2.11117 5.23746 2.11281 5.23465 2.11449 5.23191C2.51324 4.57047 2.99077 3.96528 3.54062 3.4252H5.75319L7.53834 6.5173L5.75315 9.60933L2.18269 9.60929L1.07777 7.69554C1.09949 7.61097 1.12226 7.52652 1.14668 7.4423ZM0.857615 11.1231C0.765349 10.3817 0.762576 9.62581 0.854841 8.87195L1.50609 9.99991L0.857615 11.1231ZM1.08121 12.2983L2.18269 10.3905L5.75315 10.3905L7.53834 13.4826L5.75303 16.5747L3.54386 16.5746C2.33738 15.3882 1.49554 13.9016 1.08121 12.2983ZM5.91506 18.2595C5.39022 17.9999 4.90136 17.6962 4.44995 17.3558H5.75307L6.40475 18.4846C6.24018 18.4145 6.07694 18.3395 5.91506 18.2595ZM12.4663 18.8776C11.6592 19.1021 10.8276 19.2159 9.99224 19.2159C9.95346 19.2159 9.91467 19.2154 9.87588 19.2149C9.85611 19.2147 9.83631 19.2144 9.81654 19.2141C9.04455 19.1993 8.27854 19.0872 7.53483 18.8798L6.42948 16.9653L8.21467 13.8732H11.7851L13.5704 16.9653L12.4663 18.8776ZM13.5884 18.4964L14.2469 17.3558H15.5646C14.9568 17.8167 14.2934 18.2 13.5884 18.4964ZM18.3702 13.8525C18.3673 13.8587 18.3646 13.865 18.3617 13.8712C18.3286 13.9428 18.2945 14.014 18.2595 14.0847C18.2325 14.1393 18.205 14.1933 18.1771 14.2471C18.1688 14.2631 18.1602 14.2789 18.1519 14.2948C18.1316 14.3333 18.1112 14.3718 18.0904 14.4099C18.0814 14.4266 18.0722 14.4432 18.063 14.4598C18.0414 14.4988 18.0197 14.5378 17.9976 14.5764C17.99 14.5898 17.9823 14.6032 17.9747 14.6165C17.9476 14.6635 17.9201 14.7102 17.8923 14.7566C17.8898 14.7607 17.8873 14.7649 17.8848 14.7691C17.4862 15.43 17.0089 16.0349 16.4594 16.5746H14.2468L12.4617 13.4825L14.2469 10.3905L17.8173 10.3905L18.9228 12.3053C18.7855 12.8346 18.6 13.3533 18.3702 13.8525ZM19.1485 11.134L18.4938 9.99995L19.1471 8.86835C19.2421 9.62351 19.2422 10.3835 19.1485 11.134Z" fill="#88B6FF"/>
</svg>
