<svg width="20" height="15" viewBox="0 0 20 15" fill="none" xmlns="http://www.w3.org/2000/svg">
<path d="M18.7495 4.44779C17.8211 -0.328659 15.4426 -0.542722 12.001 1.42251C11.754 1.56361 11.5143 1.68595 11.2815 1.78978C10.8455 -0.38819 7.85539 -0.235378 7.74332 1.74083C7.25024 1.48771 6.78461 1.18388 6.3241 0.907435C2.8395 -1.18346 1.05735 0.461302 0.513128 4.58454C0.250628 6.56876 -0.0207393 8.62048 0.00125291 10.67C0.0118779 11.6738 0.132425 13.1019 1.05164 13.9108C1.72809 14.506 2.82469 14.674 3.87555 14.2155C4.94422 13.7493 5.72809 12.8251 6.46782 11.9482C6.95559 11.3701 7.45977 10.7722 8.04688 10.3149C9.6741 9.04673 10.5934 9.72849 11.6988 11.2548C12.5121 12.3764 13.3825 13.2736 14.8155 13.8803C16.6079 14.6393 17.9558 14.1489 18.5889 13.1951C19.0711 12.4686 19.0883 11.4943 19.1008 10.7829C19.1405 8.50869 19.1414 6.46216 18.7495 4.44779ZM8.13442 1.91591C8.06868 0.208138 10.6301 0.102474 10.9091 1.94122C9.7457 2.37341 8.94211 2.27451 8.13274 1.92638C8.13278 1.92275 8.13457 1.91958 8.13442 1.91591ZM18.7057 10.776C18.6907 11.6352 18.6467 12.3938 18.2598 12.9767C17.7374 13.7637 16.5948 14.2046 14.9693 13.5166C13.6225 12.9464 12.8007 12.1028 12.0187 11.0231C10.7302 9.24478 9.57098 8.62626 7.80418 10.0033C7.18446 10.4861 6.6666 11.1 6.1659 11.6936C5.46731 12.5222 4.71035 13.4204 3.71754 13.8535C2.85114 14.2314 1.90703 14.1374 1.31239 13.6143C0.511761 12.9096 0.406058 11.594 0.396214 10.6657C0.374417 8.64439 0.644065 6.60685 0.904651 4.63634C1.38832 0.978372 2.75086 -0.775651 6.12078 1.24618C8.30797 2.55947 9.45442 3.33208 12.197 1.76552C15.3212 -0.017956 17.4672 -0.0773311 18.3618 4.52325C18.7464 6.4999 18.7451 8.52451 18.7057 10.776ZM2.18981 4.05345C2.19059 3.94478 2.27871 3.8572 2.38731 3.8572H2.38867L4.06438 3.86794C4.05508 3.31298 4.04262 2.75798 4.02289 2.20704C4.01883 2.09806 4.1041 2.00654 4.21305 2.00259C4.31934 1.99958 4.41364 2.0838 4.4175 2.19294C4.43746 2.74943 4.45016 3.30997 4.4595 3.87048L5.88625 3.87966C5.99524 3.88033 6.08317 3.96935 6.08243 4.07841C6.08164 4.18708 5.99352 4.27466 5.88492 4.27466C5.88453 4.27466 5.88414 4.27466 5.88356 4.27466L4.46543 4.26556C4.47235 4.83408 4.47559 5.40275 4.47153 5.96755C4.47075 6.07615 4.38242 6.16361 4.27403 6.16361C4.27364 6.16361 4.27305 6.16361 4.27266 6.16361C4.16348 6.16282 4.07575 6.07372 4.07649 5.96466C4.08059 5.40001 4.07739 4.83146 4.07039 4.26302L2.3859 4.2522C2.27696 4.25154 2.18903 4.16251 2.18981 4.05345ZM15.4311 3.42025C15.7682 3.16681 15.9355 2.71122 15.8375 2.31236C15.6816 1.6772 14.7955 1.26646 14.2258 1.659C14.2256 1.659 14.2256 1.659 14.2256 1.65908C13.9025 1.88216 13.568 2.51697 13.7091 2.9799C13.9008 3.60853 14.829 3.87298 15.4311 3.42025ZM14.4499 1.98419C14.7829 1.7545 15.3616 2.03099 15.454 2.40658C15.5152 2.65626 15.4083 2.94326 15.1938 3.10451C14.7985 3.40189 14.1935 3.21513 14.0869 2.86466C14.0046 2.59529 14.2472 2.12443 14.4499 1.98419ZM14.405 6.94611C14.792 7.10661 15.2481 7.04997 15.5671 6.81005C16.2015 6.33333 16.1684 5.3106 15.2768 4.97185C14.7469 4.77083 14.2692 4.93532 13.9674 5.54333C13.6343 6.21634 13.8656 6.72216 14.405 6.94611ZM14.3213 5.71872C14.505 5.3488 14.7424 5.19122 15.1366 5.34107C15.7157 5.56103 15.7405 6.18536 15.3298 6.49427C15.1207 6.65165 14.8098 6.68658 14.5562 6.58115C14.1577 6.41587 14.1299 6.10544 14.3213 5.71872ZM15.6889 4.86451C15.9412 5.20005 16.3955 5.36931 16.7968 5.27099C17.4325 5.11458 17.8427 4.2281 17.4501 3.65904C17.2217 3.32814 16.5851 3.004 16.1293 3.14243C15.503 3.33345 15.2347 4.26017 15.6889 4.86451ZM16.2447 3.52025C16.512 3.43845 16.9844 3.67939 17.1249 3.88333C17.3542 4.21568 17.0787 4.79493 16.7025 4.88736C16.4532 4.94868 16.1658 4.84165 16.0047 4.62716C15.7072 4.2313 15.8943 3.62693 16.2447 3.52025ZM14.0603 3.79509C13.832 3.464 13.1946 3.1399 12.7395 3.27837C12.1127 3.46962 11.8454 4.39689 12.2991 5.00048C12.554 5.33966 13.0103 5.50439 13.407 5.40697C14.0437 5.2504 14.4524 4.36322 14.0603 3.79509ZM13.3129 5.02333C13.0624 5.08486 12.7764 4.97771 12.6149 4.76314C12.3171 4.36673 12.5052 3.76283 12.8547 3.65622C13.1245 3.57474 13.5953 3.81638 13.7351 4.01931V4.01939C13.9643 4.35154 13.6894 4.93083 13.3129 5.02333ZM6.68418 6.54529C5.95719 6.76716 5.64903 7.84798 6.17614 8.54927C6.46735 8.93642 6.99442 9.13716 7.46379 9.02212C8.19973 8.84122 8.67918 7.80919 8.2243 7.14958C7.96067 6.76712 7.21375 6.38411 6.68418 6.54529ZM6.79934 6.92314C6.89274 6.89478 6.95934 6.90005 7.0077 6.90306L6.31532 7.86579C6.25629 7.40892 6.50606 7.01271 6.79934 6.92314ZM6.49188 8.31193C6.44618 8.25111 6.40977 8.18388 6.38074 8.11322L7.22203 6.94353C7.36242 6.98654 7.45379 7.03474 7.53985 7.08142C7.19442 7.4974 6.85688 7.92439 6.53117 8.35661C6.51813 8.34169 6.50387 8.32786 6.49188 8.31193ZM6.67672 8.49146C7.00973 8.04896 7.35532 7.61169 7.70903 7.18646C7.78957 7.24552 7.85309 7.30697 7.89914 7.3738V7.37388C7.90207 7.37818 7.90324 7.38353 7.9061 7.3879L6.96114 8.62646C6.86008 8.59829 6.76293 8.55353 6.67672 8.49146ZM7.36965 8.63849C7.30957 8.65325 7.24766 8.65798 7.18555 8.65779L7.9886 7.60525C8.07473 8.04783 7.74785 8.54544 7.36965 8.63849ZM11.0715 6.54529C10.3445 6.76716 10.0364 7.84798 10.5635 8.54927C10.8547 8.93642 11.3818 9.13716 11.8511 9.02212C12.5871 8.84122 13.0665 7.80919 12.6116 7.14958C12.348 6.76712 11.6011 6.38411 11.0715 6.54529ZM11.1867 6.92314C11.2382 6.90751 11.2932 6.89962 11.3518 6.89962C11.3591 6.89962 11.3672 6.90118 11.3746 6.90142L10.6994 7.84025C10.6531 7.39357 10.8993 7.01091 11.1867 6.92314ZM10.8792 8.31193C10.8295 8.24575 10.7896 8.17255 10.7596 8.09493L11.5919 6.93755C11.7094 6.97165 11.8014 7.01443 11.9085 7.0713C11.5652 7.48626 11.229 7.91134 10.9055 8.34193C10.897 8.33165 10.8873 8.32263 10.8792 8.31193ZM11.0487 8.47986C11.3807 8.0374 11.7261 7.60052 12.0791 7.17478C12.166 7.23622 12.2343 7.30013 12.2832 7.36986L11.3288 8.62072C11.2288 8.59029 11.1332 8.54349 11.0487 8.47986ZM11.757 8.63849C11.6891 8.65517 11.619 8.66013 11.5488 8.65783L12.3712 7.58005C12.4753 8.02372 12.1446 8.54314 11.757 8.63849ZM6.65141 10.0718C6.66723 10.1241 6.63754 10.1791 6.58524 10.1948C5.98192 10.3757 5.52731 10.8736 5.12594 11.3847L4.99055 11.5583C4.62719 12.0265 4.25164 12.5105 3.72934 12.814C3.13168 13.1617 2.26407 13.1956 1.78844 12.6611C1.4511 12.2821 1.40539 11.7432 1.40617 11.2173C1.40735 10.4281 1.45727 9.59693 1.5684 8.52232C1.57399 8.46794 1.62258 8.42927 1.6768 8.43415C1.73098 8.43974 1.77035 8.48833 1.76477 8.54255C1.65465 9.61033 1.60489 10.4353 1.60371 11.2176C1.60293 11.7043 1.64266 12.2001 1.93586 12.5297C2.35442 13 3.12129 12.9392 3.63028 12.6433C4.11922 12.359 4.48278 11.8903 4.83457 11.4371L4.97055 11.2625C5.39219 10.7259 5.87262 10.2022 6.5286 10.0055C6.58137 9.99025 6.63598 10.0198 6.65141 10.0718ZM1.65551 7.72697C1.67942 7.51779 1.7043 7.30872 1.72899 7.09974L1.74055 7.00349C1.74692 6.94939 1.7984 6.91013 1.85012 6.91697C1.9043 6.92341 1.94309 6.97251 1.93653 7.02661L1.92516 7.12294C1.90047 7.33161 1.87578 7.5404 1.85188 7.74931C1.8461 7.79974 1.80328 7.83689 1.75391 7.83689C1.75004 7.83689 1.74637 7.83669 1.74254 7.83622C1.68832 7.83005 1.64934 7.78115 1.65551 7.72697ZM17.8827 10.7515C17.8918 11.2209 17.8816 11.6739 17.6594 12.0568C17.0534 13.1016 14.976 13.2328 13.8865 11.8275C13.8532 11.7843 13.8611 11.7224 13.9041 11.689C13.9473 11.6555 14.0092 11.6631 14.0427 11.7065C15.0279 12.9774 16.9426 12.8985 17.4885 11.9577C17.685 11.6188 17.6937 11.1956 17.6852 10.7554C17.6679 9.86447 17.6266 8.96372 17.5625 8.07833C17.5587 8.02396 17.5996 7.97658 17.6539 7.97275C17.7091 7.96841 17.7556 8.00958 17.7597 8.06407C17.8237 8.95298 17.8652 9.85716 17.8827 10.7515ZM17.6218 6.48986C17.6474 6.73779 17.6711 6.98583 17.6931 7.23396C17.6979 7.28833 17.6578 7.33626 17.6034 7.34111C17.6005 7.34138 17.5977 7.3415 17.5946 7.3415C17.544 7.3415 17.501 7.30282 17.4964 7.25154C17.4744 7.00419 17.4507 6.75708 17.4254 6.51013C17.4198 6.45583 17.4592 6.40732 17.5136 6.40173C17.5641 6.39747 17.6162 6.43544 17.6218 6.48986ZM8.61969 1.67392C8.56684 1.66072 8.53481 1.60701 8.54793 1.55415C8.64516 1.16646 9.02094 0.912903 9.41664 0.967513C9.47067 0.974935 9.50844 1.02478 9.50094 1.0788C9.4936 1.1331 9.44368 1.17111 9.38965 1.1631C9.09352 1.12216 8.81219 1.31243 8.73965 1.60216C8.72625 1.65497 8.67289 1.68724 8.61969 1.67392Z" fill="#88B6FF"/>
</svg>
