<svg width="18" height="17" viewBox="0 0 18 17" fill="none" xmlns="http://www.w3.org/2000/svg">
<path d="M16.2904 3.5013H12.3281C12.5908 3.15255 12.7487 2.72047 12.7487 2.2513C12.7487 1.10255 11.8141 0.167969 10.6654 0.167969C9.98349 0.167969 9.37912 0.498802 8.9987 1.00672C8.61849 0.498802 8.01391 0.167969 7.33203 0.167969C6.18328 0.167969 5.2487 1.10255 5.2487 2.2513C5.2487 2.72047 5.40662 3.15255 5.66932 3.5013H1.70703C1.01766 3.5013 0.457031 4.06193 0.457031 4.7513V6.41797C0.457031 6.96109 0.805573 7.42297 1.29036 7.59505V15.5846C1.29036 16.274 1.85099 16.8346 2.54036 16.8346H15.457C16.1464 16.8346 16.707 16.274 16.707 15.5846V7.59505C17.1918 7.42297 17.5404 6.96109 17.5404 6.41797V4.7513C17.5404 4.06193 16.9797 3.5013 16.2904 3.5013ZM7.7487 6.83464V4.33464H10.2487V6.83464H7.7487ZM10.2487 7.66797V16.0013H7.7487V7.66797H10.2487ZM10.6654 1.0013C11.3547 1.0013 11.9154 1.56193 11.9154 2.2513C11.9154 2.94068 11.3547 3.5013 10.6654 3.5013H9.41537V2.2513C9.41537 1.56193 9.97599 1.0013 10.6654 1.0013ZM6.08203 2.2513C6.08203 1.56193 6.64266 1.0013 7.33203 1.0013C8.02141 1.0013 8.58203 1.56193 8.58203 2.2513V3.5013H7.33203C6.64266 3.5013 6.08203 2.94068 6.08203 2.2513ZM1.29036 4.7513C1.29036 4.52151 1.47724 4.33464 1.70703 4.33464H6.91536V6.83464H1.70703C1.47724 6.83464 1.29036 6.64776 1.29036 6.41797V4.7513ZM2.1237 15.5846V7.66797H6.91536V16.0013H2.54036C2.31057 16.0013 2.1237 15.8144 2.1237 15.5846ZM15.457 16.0013H11.082V7.66797H15.8737V15.5846C15.8737 15.8144 15.6868 16.0013 15.457 16.0013ZM16.707 6.41797C16.707 6.64776 16.5202 6.83464 16.2904 6.83464H11.082V4.33464H16.2904C16.5202 4.33464 16.707 4.52151 16.707 4.7513V6.41797Z" fill="#1877F2"/>
</svg>
