<svg width="10" height="15" viewBox="0 0 10 15" fill="none" xmlns="http://www.w3.org/2000/svg">
<path d="M9.29707 3.84395C8.7989 1.87718 7.0289 0.499754 4.99999 0.5C2.9749 0.499481 1.20708 1.87177 0.705392 3.83372C0.2037 5.79568 1.09575 7.84814 2.87248 8.81981C2.87218 8.82768 2.86997 8.8349 2.86997 8.84288C2.86997 9.27518 3.28086 9.93969 3.94353 10.2588C4.08617 10.3505 4.34645 11.2092 4.31172 13.8009C4.3074 14.0495 4.43771 14.281 4.65241 14.4063C4.86714 14.5317 5.13278 14.5312 5.34713 14.4052C5.56144 14.2792 5.69101 14.0473 5.68592 13.7988C5.63956 11.2078 5.89439 10.3503 6.03451 10.2593C6.69967 9.93903 7.11136 9.27477 7.11136 8.84291C7.11136 8.83853 7.1101 8.83468 7.11002 8.83033C8.89435 7.86465 9.79523 5.81072 9.29707 3.84395ZM5.83285 9.8385C5.64729 9.92689 5.15413 10.1618 5.21942 13.8094C5.2212 13.8674 5.19927 13.9235 5.1587 13.965C5.07014 14.0506 4.92967 14.0509 4.84087 13.9654C4.79956 13.9237 4.77697 13.867 4.77831 13.8083C4.82717 10.163 4.33245 9.92727 4.14708 9.83899C3.81011 9.67654 3.54166 9.39988 3.38946 9.05818C4.41608 9.46509 5.55871 9.4681 6.58747 9.06663C6.43392 9.40423 6.16692 9.67736 5.83285 9.8385ZM4.99999 8.8989C2.80955 8.8989 1.03383 7.12318 1.03383 4.93274C1.03383 2.7423 2.80955 0.966615 4.99999 0.966615C7.19043 0.966615 8.96614 2.7423 8.96614 4.93274C8.96371 7.12217 7.18944 8.89647 4.99999 8.8989Z" fill="#8A92AB"/>
<path d="M2.28899 6.35115C2.2021 6.31457 2.10173 6.33395 2.03472 6.40025C1.9445 6.49225 1.9445 6.63953 2.03472 6.73153C2.0461 6.74214 2.05859 6.75152 2.07196 6.75945C2.08388 6.76869 2.09728 6.77582 2.1116 6.78053C2.12486 6.78722 2.13903 6.79195 2.15365 6.79455C2.1691 6.79723 2.18471 6.79882 2.20038 6.79923C2.23097 6.80002 2.26132 6.79362 2.28901 6.78055C2.31726 6.76869 2.34331 6.75212 2.36603 6.73156C2.45625 6.63956 2.45625 6.49228 2.36603 6.40028C2.34331 6.37961 2.31726 6.36299 2.28899 6.35115Z" fill="#8A92AB"/>
<path d="M3.29921 6.86679C3.28748 6.85747 3.27586 6.84812 3.26424 6.83877C3.25123 6.82991 3.23709 6.82283 3.22219 6.81769C3.20896 6.81096 3.1948 6.80629 3.18017 6.8038C3.10337 6.78844 3.02392 6.81203 2.96793 6.86679C2.92528 6.91149 2.90111 6.97066 2.90026 7.03245C2.90062 7.04809 2.90217 7.06364 2.90494 7.07903C2.90742 7.09366 2.91213 7.10782 2.91882 7.12106C2.92396 7.13593 2.93105 7.15009 2.9399 7.16311C2.94923 7.17472 2.95858 7.18634 2.96793 7.19807C3.01266 7.24067 3.07182 7.26481 3.13358 7.26574C3.14919 7.2653 3.16478 7.26374 3.18017 7.26107C3.1948 7.25847 3.20896 7.25374 3.22222 7.24704C3.23709 7.24193 3.25125 7.23482 3.26427 7.22596C3.28967 7.20997 3.31116 7.18848 3.32715 7.16308C3.33601 7.15006 3.34309 7.13593 3.34823 7.12103C3.35493 7.10777 3.35966 7.09361 3.36226 7.07898C3.36493 7.06359 3.36649 7.048 3.36693 7.03239C3.36597 6.97066 3.3418 6.91152 3.29921 6.86679Z" fill="#8A92AB"/>
<path d="M4.23244 7.1001C4.21013 7.079 4.18399 7.06232 4.15542 7.051C4.09858 7.02776 4.03488 7.02776 3.97806 7.051C3.94982 7.06286 3.92382 7.07946 3.90116 7.1001C3.81093 7.1921 3.81093 7.33938 3.90116 7.43138C3.92385 7.45194 3.94985 7.46851 3.97806 7.48038C4.03458 7.50528 4.09893 7.50528 4.15542 7.48038C4.18366 7.46851 4.20972 7.45194 4.23244 7.43138C4.32263 7.33938 4.32263 7.1921 4.23244 7.1001Z" fill="#8A92AB"/>
<path d="M3.73086 7.77203C3.71785 7.76317 3.70371 7.75609 3.68881 7.75095C3.67558 7.74423 3.66142 7.73955 3.64676 7.73706C3.56993 7.72137 3.49035 7.74499 3.43452 7.80005C3.3919 7.84476 3.36773 7.90392 3.36685 7.96568C3.36721 7.98132 3.36879 7.99688 3.37153 8.01227C3.37402 8.0269 3.37872 8.04106 3.38542 8.05432C3.39053 8.06919 3.39764 8.08335 3.40649 8.09637C3.41582 8.10799 3.42517 8.11961 3.43452 8.13133C3.47925 8.17393 3.53841 8.19807 3.60015 8.199C3.61576 8.19856 3.63134 8.19701 3.64673 8.19433C3.66136 8.19173 3.67552 8.187 3.68878 8.18033C3.70366 8.17519 3.71782 8.16811 3.73083 8.15925C3.74245 8.15004 3.75407 8.14069 3.7658 8.13133C3.77512 8.11961 3.78447 8.10799 3.79371 8.09637C3.80257 8.08335 3.80965 8.06922 3.81479 8.05432C3.82149 8.04106 3.82622 8.0269 3.82882 8.01227C3.8315 7.99688 3.83306 7.98129 3.83349 7.96568C3.83259 7.90392 3.80842 7.84478 3.76583 7.80003C3.75475 7.79002 3.74305 7.78067 3.73086 7.77203Z" fill="#8A92AB"/>
<path d="M4.69902 8.03333C4.68729 8.02401 4.67568 8.01466 4.66406 8.00531C4.65104 7.99645 4.63691 7.98937 4.62201 7.98423C4.60877 7.9775 4.59461 7.97283 4.57996 7.97034C4.50313 7.95465 4.42354 7.97827 4.36772 8.03333C4.3471 8.05597 4.33048 8.082 4.31861 8.11024C4.30666 8.13832 4.30035 8.16847 4.30005 8.19898C4.30092 8.26075 4.32509 8.31991 4.36772 8.36464C4.37876 8.3747 4.39044 8.38402 4.40268 8.39255C4.41567 8.40138 4.42978 8.40846 4.4446 8.41363C4.45786 8.42033 4.47202 8.42506 4.48665 8.42766C4.50209 8.43023 4.5177 8.43179 4.53337 8.43233C4.54898 8.4319 4.56456 8.43034 4.57996 8.42766C4.59458 8.42506 4.60875 8.42033 4.62201 8.41363C4.63688 8.40849 4.65104 8.40141 4.66406 8.39255C4.67628 8.38397 4.68795 8.37465 4.69902 8.36464C4.74159 8.31988 4.76573 8.26075 4.76669 8.19898C4.76634 8.16847 4.75999 8.13832 4.74802 8.11024C4.73615 8.08202 4.71958 8.05602 4.69902 8.03333Z" fill="#8A92AB"/>
<path d="M5.63225 8.03331C5.60956 8.01269 5.58353 7.99607 5.55523 7.9842C5.46835 7.94762 5.36798 7.96701 5.30094 8.03331C5.28033 8.05595 5.26371 8.08197 5.25184 8.11022C5.23989 8.13829 5.2336 8.16845 5.23328 8.19896C5.23328 8.32782 5.33772 8.43226 5.46657 8.43226C5.59542 8.43226 5.69986 8.32782 5.69986 8.19896C5.69951 8.16845 5.69317 8.13829 5.68119 8.11022C5.66935 8.082 5.65278 8.056 5.63225 8.03331Z" fill="#8A92AB"/>
<path d="M6.53049 7.77203C6.51747 7.76317 6.50334 7.75609 6.48844 7.75095C6.47521 7.74423 6.46104 7.73955 6.44639 7.73706C6.36956 7.72137 6.28998 7.74499 6.23415 7.80005C6.19152 7.84476 6.16736 7.90392 6.16648 7.96568C6.16684 7.98132 6.16839 7.99688 6.17116 8.01227C6.17364 8.0269 6.17835 8.04106 6.18504 8.05432C6.19018 8.06919 6.19727 8.08335 6.20612 8.09637C6.21545 8.10799 6.2248 8.11961 6.23415 8.13133C6.27888 8.17393 6.33804 8.19807 6.3998 8.199C6.41541 8.19856 6.431 8.19701 6.44639 8.19433C6.46102 8.19173 6.47518 8.187 6.48844 8.18033C6.50331 8.17519 6.51747 8.16811 6.53049 8.15925C6.54211 8.15004 6.55373 8.14069 6.56546 8.13133C6.57478 8.11961 6.58413 8.10799 6.59337 8.09637C6.60223 8.08335 6.60931 8.06922 6.61445 8.05432C6.62115 8.04106 6.62588 8.0269 6.62847 8.01227C6.63115 7.99688 6.63271 7.98129 6.63315 7.96568C6.63225 7.90392 6.60808 7.84478 6.56548 7.80003C6.55438 7.79002 6.54268 7.78067 6.53049 7.77203Z" fill="#8A92AB"/>
<path d="M5.16564 7.10013C5.10645 7.04094 5.02021 7.01781 4.93937 7.03949C4.85853 7.06114 4.7954 7.1243 4.77372 7.20514C4.75206 7.28599 4.77517 7.37225 4.83436 7.43141C4.8454 7.44147 4.85708 7.4508 4.86932 7.45933C4.88231 7.46816 4.89642 7.47524 4.91124 7.4804C4.9245 7.4871 4.93866 7.49183 4.95329 7.49443C4.96873 7.497 4.98434 7.49856 5.00001 7.49908C5.01562 7.49864 5.03121 7.49708 5.0466 7.4944C5.06123 7.49181 5.07539 7.48708 5.08862 7.48038C5.10349 7.47527 5.11766 7.46816 5.13067 7.4593C5.14289 7.45071 5.15456 7.44139 5.16564 7.43138C5.25586 7.33941 5.25586 7.1921 5.16564 7.10013Z" fill="#8A92AB"/>
<path d="M6.09885 7.10019C6.08712 7.09084 6.0755 7.08149 6.06388 7.07214C6.05086 7.06328 6.03673 7.0562 6.02183 7.05106C6.0086 7.04434 5.99443 7.03966 5.97978 7.03717C5.90301 7.02266 5.82397 7.04611 5.76754 7.10017C5.75821 7.11179 5.74886 7.12341 5.73951 7.13743C5.73027 7.14935 5.72314 7.16275 5.71843 7.17707C5.71171 7.19031 5.70703 7.20447 5.70455 7.21912C5.70192 7.23457 5.70036 7.25018 5.69987 7.26585C5.69927 7.32791 5.72366 7.38759 5.76754 7.43147C5.81142 7.47536 5.8711 7.49974 5.93316 7.49914C5.94878 7.4987 5.96436 7.49715 5.97975 7.49447C5.99438 7.49187 6.00854 7.48714 6.0218 7.48044C6.03667 7.47533 6.05084 7.46822 6.06385 7.45936C6.07607 7.45078 6.08775 7.44145 6.09882 7.43145C6.18907 7.33947 6.18907 7.19217 6.09885 7.10019Z" fill="#8A92AB"/>
<path d="M6.99708 6.8388C6.98406 6.82995 6.96993 6.82286 6.95503 6.81772C6.9418 6.811 6.92763 6.80632 6.91298 6.80383C6.83615 6.78814 6.75657 6.81176 6.70074 6.86683C6.65811 6.91153 6.63395 6.97069 6.63307 7.03245C6.63343 7.04809 6.63501 7.06365 6.63775 7.07904C6.64023 7.09367 6.64494 7.10783 6.65164 7.12106C6.65675 7.13594 6.66386 7.1501 6.67271 7.16311C6.68204 7.17473 6.69139 7.18635 6.70074 7.19808C6.74547 7.24068 6.80463 7.26482 6.86637 7.26575C6.88198 7.26531 6.89756 7.26375 6.91295 7.26107C6.92758 7.25847 6.94174 7.25374 6.955 7.24705C6.96988 7.24193 6.98404 7.23483 6.99705 7.22597C7.02245 7.20997 7.04394 7.18848 7.05993 7.16308C7.06879 7.15007 7.07587 7.13594 7.08101 7.12104C7.08771 7.10778 7.09244 7.09361 7.09504 7.07899C7.09772 7.06359 7.09928 7.04801 7.09971 7.0324C7.09881 6.97064 7.07464 6.9115 7.03205 6.86674C7.02032 6.85748 7.0087 6.84815 6.99708 6.8388Z" fill="#8A92AB"/>
<path d="M7.88826 6.35113C7.83191 6.32549 7.76722 6.32551 7.71087 6.35113C7.68263 6.363 7.65663 6.37959 7.63397 6.40024C7.59134 6.44494 7.56717 6.5041 7.5663 6.56589C7.56668 6.58153 7.56824 6.59709 7.57098 6.61248C7.57346 6.6271 7.57817 6.64127 7.58486 6.65453C7.58998 6.6694 7.59708 6.68356 7.60594 6.69658C7.61527 6.7082 7.62462 6.71982 7.63397 6.73154C7.65666 6.7521 7.68266 6.76867 7.71087 6.78054C7.76739 6.80544 7.83175 6.80544 7.88823 6.78054C7.91647 6.76867 7.94253 6.7521 7.96525 6.73154C7.97457 6.71982 7.98392 6.7082 7.99316 6.69658C8.00202 6.68356 8.0091 6.66943 8.01424 6.65453C8.02094 6.64127 8.02567 6.6271 8.02827 6.61248C8.03095 6.59709 8.0325 6.5815 8.03294 6.56589C8.03204 6.50413 8.00787 6.44499 7.96528 6.40024C7.94258 6.37962 7.91655 6.363 7.88826 6.35113Z" fill="#8A92AB"/>
<path d="M1.89939 5.23367C1.83123 5.1695 1.73218 5.15039 1.64502 5.18457C1.61677 5.19643 1.59075 5.21303 1.56811 5.23367C1.52549 5.27837 1.50132 5.33754 1.50044 5.39932C1.50077 5.42981 1.50709 5.45991 1.51901 5.48796C1.54033 5.5465 1.58645 5.59262 1.64499 5.61394C1.67307 5.62592 1.70322 5.63226 1.73374 5.63265C1.7955 5.63172 1.85463 5.60755 1.89939 5.56498C1.91995 5.54226 1.93652 5.51623 1.94838 5.48796C1.96033 5.45991 1.96667 5.42981 1.96706 5.39932C1.96616 5.33756 1.94199 5.27843 1.89939 5.23367Z" fill="#8A92AB"/>
<path d="M2.88158 5.7772C2.86026 5.71867 2.81414 5.67254 2.7556 5.65122C2.69876 5.62798 2.63506 5.62798 2.57824 5.65122C2.51976 5.67265 2.4737 5.71872 2.45226 5.7772C2.44031 5.80528 2.434 5.83544 2.43367 5.86595C2.43454 5.92771 2.45871 5.98687 2.50134 6.0316C2.52403 6.05216 2.55003 6.06873 2.57824 6.0806C2.63476 6.1055 2.69912 6.1055 2.7556 6.0806C2.78384 6.06873 2.8099 6.05216 2.83262 6.0316C2.87519 5.98685 2.89935 5.92771 2.90028 5.86595C2.8999 5.83541 2.89356 5.80528 2.88158 5.7772Z" fill="#8A92AB"/>
<path d="M8.43189 5.23365C8.4092 5.21304 8.38317 5.19641 8.35487 5.18455C8.31231 5.16598 8.26498 5.16112 8.21954 5.17066C8.20491 5.17315 8.19075 5.17785 8.17749 5.18455C8.16265 5.18969 8.14857 5.1968 8.13558 5.20563C8.12333 5.21421 8.11163 5.22356 8.10061 5.23365C8.05799 5.27835 8.03382 5.33752 8.03294 5.3993C8.03327 5.42979 8.03959 5.45989 8.05151 5.48794C8.06337 5.51621 8.07997 5.54227 8.10061 5.56496C8.14534 5.60755 8.2045 5.6317 8.26626 5.63263C8.29675 5.63224 8.32685 5.6259 8.3549 5.61395C8.41349 5.59271 8.45964 5.54656 8.48089 5.48797C8.49286 5.45992 8.4992 5.42982 8.49959 5.39933C8.49863 5.33754 8.47446 5.27841 8.43189 5.23365Z" fill="#8A92AB"/>
<path d="M7.54765 5.7772C7.52633 5.71867 7.4802 5.67254 7.42167 5.65122C7.36483 5.62798 7.30113 5.62798 7.24431 5.65122C7.18583 5.67265 7.13976 5.71872 7.11833 5.7772C7.10638 5.80528 7.10007 5.83544 7.09974 5.86595C7.10061 5.92771 7.12478 5.98687 7.16741 6.0316C7.1901 6.05216 7.2161 6.06873 7.24431 6.0806C7.30083 6.1055 7.36518 6.1055 7.42167 6.0806C7.44991 6.06873 7.47597 6.05216 7.49869 6.0316C7.54125 5.98685 7.56542 5.92771 7.56635 5.86595C7.56597 5.83541 7.55963 5.80528 7.54765 5.7772Z" fill="#8A92AB"/>
<path d="M3.43454 6.26495C3.45724 6.28551 3.48324 6.30207 3.51145 6.31394C3.56796 6.33885 3.63232 6.33885 3.68881 6.31394C3.7474 6.2927 3.79355 6.24655 3.81479 6.18796C3.8397 6.13144 3.8397 6.06709 3.81479 6.0106C3.79347 5.95207 3.74734 5.90594 3.68881 5.88462C3.63197 5.86138 3.56826 5.86138 3.51145 5.88462C3.45297 5.90605 3.4069 5.95212 3.38547 6.0106C3.3607 6.06714 3.3607 6.13144 3.38547 6.18796C3.39731 6.21623 3.41393 6.24225 3.43454 6.26495Z" fill="#8A92AB"/>
<path d="M4.5334 6.56588C4.59546 6.56648 4.65515 6.54209 4.69903 6.49821C4.74291 6.45433 4.7673 6.39464 4.76669 6.33258C4.76628 6.31692 4.76473 6.30131 4.76202 6.28589C4.75942 6.27126 4.75469 6.2571 4.74799 6.24384C4.74329 6.22951 4.73615 6.21611 4.72691 6.20419C4.71899 6.1908 4.70964 6.1783 4.699 6.16693C4.60547 6.08059 4.46128 6.08059 4.36772 6.16693C4.3584 6.17855 4.34905 6.19017 4.3397 6.20419C4.33045 6.21611 4.32332 6.22951 4.31862 6.24384C4.31189 6.25707 4.30721 6.27123 4.30473 6.28589C4.30197 6.30131 4.30041 6.31694 4.30005 6.33261C4.29945 6.39467 4.32384 6.45436 4.36772 6.49824C4.4116 6.54212 4.47134 6.56648 4.5334 6.56588Z" fill="#8A92AB"/>
<path d="M5.46661 6.56588C5.52867 6.56648 5.58835 6.54209 5.63223 6.49821C5.67611 6.45433 5.7005 6.39464 5.6999 6.33258C5.69949 6.31692 5.69793 6.30131 5.69522 6.28589C5.69263 6.27126 5.6879 6.2571 5.6812 6.24384C5.6765 6.22951 5.66936 6.21611 5.66012 6.20419C5.65219 6.1908 5.64284 6.1783 5.6322 6.16693C5.53867 6.08059 5.39448 6.08059 5.30092 6.16693C5.29026 6.1783 5.28088 6.1908 5.2729 6.20419C5.26366 6.21611 5.25652 6.22951 5.25182 6.24384C5.24509 6.25707 5.24042 6.27123 5.23793 6.28589C5.23517 6.30131 5.23361 6.31694 5.23326 6.33261C5.23266 6.39467 5.25704 6.45436 5.30092 6.49824C5.34486 6.54209 5.40454 6.56648 5.46661 6.56588Z" fill="#8A92AB"/>
<path d="M6.23417 6.26498C6.2789 6.30757 6.33807 6.33172 6.39983 6.33265C6.43031 6.33226 6.46041 6.32592 6.48846 6.31397C6.51701 6.30265 6.54312 6.28603 6.56548 6.26498C6.58604 6.24226 6.60261 6.2162 6.61447 6.18796C6.63938 6.13145 6.63938 6.06709 6.61447 6.01061C6.60261 5.98239 6.58604 5.95639 6.56548 5.9337C6.54317 5.91259 6.51703 5.89591 6.48846 5.8846C6.40158 5.84801 6.30121 5.8674 6.2342 5.9337C6.21358 5.95634 6.19696 5.98236 6.1851 6.01061C6.16033 6.06715 6.16033 6.13145 6.1851 6.18796C6.19694 6.21623 6.21353 6.24229 6.23417 6.26498Z" fill="#8A92AB"/>
</svg>
