<svg width="18" height="18" viewBox="0 0 18 18" fill="none" xmlns="http://www.w3.org/2000/svg">
<path d="M9.00001 0.249512C4.17113 0.249524 0.25 4.17002 0.25 8.99828C0.25 13.8265 4.17113 17.7495 9.00001 17.7495C13.8288 17.7495 17.75 13.8265 17.75 8.99828C17.75 4.17001 13.8289 0.249512 9.00001 0.249512ZM9.00001 0.874521C10.2303 0.874521 11.3954 1.14865 12.4399 1.63686L10.3885 3.68822H7.61085L5.56129 1.63686C6.6055 1.14898 7.7702 0.874521 9.00001 0.874521ZM13.0204 1.93776C14.5054 2.78421 15.6955 4.08519 16.4042 5.65235L13.3738 7.40223L11.4554 6.29383L10.8664 4.0917L13.0204 1.93776ZM4.97838 1.93891L7.13294 4.09347L6.54457 6.29379L4.62622 7.40281L1.59523 5.65231C2.30367 4.08554 3.49389 2.78541 4.97838 1.93891ZM7.72191 4.31074H10.2781L10.8237 6.34873L9.00001 7.4022L7.17566 6.34873L7.72191 4.31074ZM1.35656 6.23641L4.31251 7.94174V10.0572L1.35656 11.7619C1.04517 10.8994 0.875004 9.96872 0.875004 8.99824C0.875004 8.02817 1.04541 7.09849 1.35656 6.23641ZM16.6434 6.23702C16.9544 7.0989 17.1244 8.02847 17.1244 8.99828C17.1244 9.96902 16.9538 10.8998 16.6422 11.7626L13.6875 10.0572V7.94174L16.6434 6.23702ZM6.8131 6.86142L8.6875 7.94174V10.0542C8.06272 10.4159 7.43782 10.7775 6.8131 11.1394L4.9375 10.0554V7.94297L6.8131 6.86142ZM11.1857 6.86142L13.0619 7.94297V10.0578L11.1863 11.1394L9.3125 10.0536V7.94665L11.1857 6.86142ZM4.62438 10.5974L6.54457 11.7064L7.13294 13.9055L4.98022 16.0606C3.49507 15.2139 2.30463 13.9129 1.59582 12.3454L4.62438 10.5974ZM13.375 10.5974L16.4036 12.346C15.6949 13.9128 14.5053 15.2134 13.021 16.06L10.8664 13.9073L11.4554 11.7064L13.375 10.5974ZM8.99938 10.5986L10.8237 11.6514L10.2781 13.6857H7.72132L7.17566 11.6514L8.99938 10.5986ZM7.61085 14.3107H10.3885L12.4375 16.3627C11.3936 16.8505 10.2293 17.1244 9.00001 17.1244C7.76972 17.1244 6.60457 16.85 5.56007 16.3615L7.61085 14.3107Z" fill="#88B6FF"/>
</svg>
