<svg width="30" height="27" viewBox="0 0 30 27" fill="none" xmlns="http://www.w3.org/2000/svg">
<path d="M14.9988 7.5L14.9961 14.0589C14.9961 14.3079 15.0949 14.5459 15.2708 14.7217L19.9628 19.4129L21.2885 18.0872L16.8711 13.6706L16.8738 7.5H14.9988Z" fill="#88B6FF"/>
<path d="M16.875 0C10.276 0 4.81454 4.90082 3.89984 11.25H0L4.6875 15.9375L9.37499 11.25H5.79435C6.69125 5.93789 11.3115 1.87502 16.875 1.87502C23.0786 1.87502 28.125 6.9214 28.125 13.125C28.125 19.3287 23.0787 24.375 16.875 24.375C13.3878 24.375 10.1542 22.7967 8.00354 20.0446L6.52588 21.1981C9.0344 24.408 12.8064 26.25 16.875 26.25C24.1122 26.25 30 20.3613 30 13.125C30 5.88874 24.1122 5.44336e-05 16.875 0Z" fill="#88B6FF"/>
</svg>
