<svg width="20" height="19" viewBox="0 0 20 19" fill="none" xmlns="http://www.w3.org/2000/svg">
<path d="M19.8481 8.33404L16.158 5.18275C16.1623 5.1612 16.1666 5.13965 16.1709 5.11378V0.99253C16.1666 0.746807 15.9726 0.548505 15.7269 0.539883H13.6662C13.4291 0.539883 13.2352 0.751118 13.2352 0.99253V2.69966L10.2822 0.182076C10.1227 0.0441258 9.88556 0.0441258 9.72175 0.182076L0.155793 8.32973C-0.0295771 8.48062 -0.0511318 8.7522 0.0997508 8.93757C0.250633 9.12294 0.522222 9.1445 0.707592 8.99362C0.711903 8.98931 0.711903 8.98931 0.716214 8.98499L10.002 1.07875L13.3257 3.91103L15.313 5.60091L19.292 8.98931C19.4731 9.1445 19.7447 9.12294 19.8999 8.94188C20.0507 8.76083 20.0292 8.48924 19.8481 8.33404ZM15.3044 4.45421L14.0973 3.43683V1.40638H15.3044V4.45421Z" fill="white"/>
<path d="M18.0412 10.6518L16.8298 9.61714L10.3764 4.10346C10.2169 3.96551 9.97978 3.96551 9.81596 4.10346L3.3625 9.61714L2.15113 10.6518C1.97007 10.807 1.94852 11.0785 2.10371 11.2596C2.25459 11.4407 2.52187 11.4622 2.69862 11.3113L2.70293 11.307L3.24179 10.8414V18.9244C3.24611 19.1659 3.44441 19.3642 3.68582 19.3685H16.5022C16.7436 19.3642 16.9419 19.1702 16.9462 18.9244V10.8414L17.4851 11.307C17.5627 11.3717 17.6575 11.4105 17.761 11.4105C17.886 11.4105 18.0067 11.3544 18.0886 11.2596C18.2481 11.0742 18.2223 10.8026 18.0412 10.6518ZM11.8205 18.502H8.3718V13.8462H11.8205V18.502ZM12.6827 18.502V13.428C12.6827 13.1909 12.506 12.984 12.2689 12.984H7.92346C7.68636 12.984 7.50962 13.1909 7.50962 13.428V18.502H4.10398V10.1043L10.0962 5.00014L16.0884 10.1043V18.502H12.6827Z" fill="white"/>
</svg>
