<svg width="20" height="16" viewBox="0 0 20 16" fill="none" xmlns="http://www.w3.org/2000/svg">
<path d="M0.00487513 9.47748C0.0373761 9.68248 0.214465 9.82874 0.415721 9.82874C0.437388 9.82874 0.459472 9.82707 0.481556 9.82374C1.58492 9.64873 2.77829 9.54415 4.02833 9.50956L6.33715 10.4371L5.55213 13.7205C5.44962 14.1476 5.68546 14.5776 6.10006 14.721C6.19173 14.7526 6.28507 14.7676 6.37757 14.7676C6.71258 14.7676 7.02884 14.5681 7.16343 14.2422L8.65639 10.6217C8.78431 10.3113 8.81723 9.98624 8.77139 9.67665C9.31891 9.73249 9.64142 9.77957 9.64559 9.7804C9.666 9.78332 9.68642 9.78499 9.70642 9.78499C9.82226 9.78499 9.93435 9.73665 10.0139 9.64957C10.0198 9.64332 10.5898 9.02621 11.5215 8.35161C11.7832 8.31411 12.0044 8.15785 12.1311 7.9391C13.2532 7.23491 14.3632 6.8074 15.432 6.67156C15.6045 6.64948 15.7458 6.52114 15.7854 6.35197C15.7866 6.34613 15.8674 6.01529 16.0904 5.64903L16.0395 6.19821C16.0274 6.32905 16.0779 6.45822 16.1758 6.54614L18.985 9.0733C19.0946 9.17164 19.1588 9.30664 19.1659 9.45331C19.173 9.59831 19.123 9.73707 19.0246 9.84416C18.8834 9.99916 18.6554 10.0621 18.4484 9.98833L15.7762 9.06122C15.6687 9.02371 15.5512 9.03205 15.4503 9.08372C15.3224 9.14914 12.3157 10.7292 11.8694 14.8626C11.8444 15.0914 12.0102 15.2968 12.239 15.3218C12.2544 15.3235 12.2694 15.3243 12.2844 15.3243C12.4944 15.3243 12.6753 15.166 12.6982 14.9522C13.0453 11.7355 15.1037 10.2642 15.682 9.91041L18.1717 10.7742C18.6759 10.9538 19.2788 10.8029 19.6401 10.4063C19.8888 10.1346 20.0159 9.78207 19.9984 9.41331C19.9805 9.04288 19.8188 8.70204 19.5426 8.4537L16.8887 6.06654L17.0254 4.58816C17.04 4.43316 16.9662 4.28315 16.835 4.19898C16.7037 4.11523 16.5366 4.11148 16.4016 4.1894C15.592 4.65775 15.2116 5.45986 15.0587 5.88487C14.077 6.04779 13.0736 6.42364 12.0665 7.00407C11.9273 6.82531 11.7194 6.70281 11.4752 6.68156L9.27849 6.49322C9.27724 6.49322 9.27599 6.49197 9.27557 6.4903L9.09557 4.39524C9.441 4.63691 9.85934 4.78108 10.3119 4.78108C11.4869 4.78108 12.4428 3.82522 12.4428 2.65019C12.4428 1.47515 11.4869 0.519287 10.3119 0.519287C9.13682 0.519287 8.18096 1.47515 8.18096 2.65019C8.18096 2.81102 8.20221 2.96645 8.23638 3.11728C8.08387 3.06603 7.91928 3.04311 7.74928 3.05562C6.01464 3.18229 4.35084 3.99898 2.80413 5.48277C2.22911 6.03446 1.97619 6.82906 2.12702 7.60909C2.21078 8.04285 2.41662 8.43078 2.70746 8.74204C1.89035 8.79829 1.09949 8.88288 0.350719 9.00121C0.124045 9.03663 -0.0309593 9.24997 0.00487513 9.47748ZM9.55392 8.92746C9.32599 8.89829 8.91723 8.85079 8.38013 8.80371C8.23388 8.62829 8.05304 8.47661 7.83803 8.36328L6.00214 7.39825C6.33215 7.02615 6.74675 6.72948 7.25593 6.50114L7.5251 7.66742C7.65636 8.23661 8.17512 8.61579 8.75639 8.57162L10.0398 8.47203C9.82809 8.65954 9.66225 8.81913 9.55392 8.92746ZM10.3131 1.35181C11.0285 1.35181 11.6106 1.93391 11.6106 2.64935C11.6106 3.36479 11.0285 3.94689 10.3131 3.94689C9.59767 3.94689 9.01557 3.36479 9.01557 2.64935C9.01557 1.93391 9.59725 1.35181 10.3131 1.35181ZM3.38164 6.08362C4.80419 4.719 6.25298 4.00023 7.81053 3.88647C7.82053 3.88564 7.83095 3.88522 7.84136 3.88522C8.05054 3.88522 8.22971 4.04231 8.24763 4.24815L8.44638 6.56114C8.48097 6.96782 8.80181 7.28824 9.20807 7.32325L11.4044 7.53034L8.69181 7.74076C8.52639 7.75618 8.37471 7.64451 8.33721 7.48033L7.95928 5.84362C7.93262 5.72903 7.85845 5.63028 7.75553 5.57319C7.65219 5.51569 7.5301 5.50527 7.41802 5.54319C6.3659 5.9032 5.56004 6.49697 5.02336 7.30783C4.95836 7.40616 4.93794 7.527 4.96711 7.64117C4.99628 7.75534 5.07253 7.8516 5.1767 7.9066L7.44927 9.10122C7.88595 9.33122 8.07387 9.84832 7.88553 10.3046L6.36174 13.9155L7.23051 10.2821C7.27843 10.0812 7.17218 9.87541 6.9805 9.79874L4.27084 8.70996C4.26 8.70537 4.25 8.70079 4.23917 8.69704L3.84291 8.53787C3.36914 8.34744 3.04205 7.95118 2.94496 7.45033C2.84788 6.94948 3.01163 6.43864 3.38164 6.08362Z" fill="#88B6FF"/>
</svg>
