<svg width="18" height="18" viewBox="0 0 18 18" fill="none" xmlns="http://www.w3.org/2000/svg">
<path d="M16.6623 13.9031L16.9564 13.165C17.1916 12.5754 16.7533 11.9366 16.1222 11.9366C16.15 11.9363 15.1193 11.9341 11.9826 11.9366L9.93465 7.49583L12.5593 1.18989C12.672 0.918953 12.6108 0.609656 12.4032 0.402117C12.0524 0.0509454 11.4493 0.150281 11.2373 0.610359L8.99942 5.46462C8.77008 4.967 9.82911 7.26481 6.76207 0.610359C6.61196 0.284617 6.23094 0.0975469 5.85196 0.241297C5.43629 0.398445 5.29489 0.858641 5.43954 1.19032C6.91524 4.73399 6.60606 3.99153 8.06422 7.49309L6.01625 11.9352C-0.291558 11.9329 7.32719 11.935 1.87778 11.9352C1.2436 11.9352 0.809067 12.5763 1.04368 13.1651L1.33739 13.9025C1.47422 14.246 1.80153 14.4681 2.17137 14.4681C2.14266 14.4681 3.0854 14.4686 5.90289 14.4681C6.58934 14.4681 7.20317 14.0586 7.46696 13.4248L8.99985 9.74184L10.5337 13.4261C10.7973 14.0584 11.4108 14.467 12.0964 14.467C12.4981 14.467 15.8686 14.467 15.8281 14.467C16.1964 14.467 16.5237 14.246 16.6623 13.9031ZM13.3718 14.0508V12.3527H15.017V14.0508H13.3718ZM12.109 0.696336C12.1969 0.784266 12.2228 0.915281 12.1751 1.03001L10.7996 4.3345L10.2462 3.75427L11.6153 0.7845C11.7041 0.591766 11.9579 0.54493 12.109 0.696336ZM5.81875 1.0079C5.77879 0.891453 5.81114 0.717742 5.97614 0.638523C6.13102 0.565359 6.31129 0.628055 6.38325 0.783992L7.75278 3.7547L7.19977 4.33454C6.87891 3.56196 5.8434 1.08251 5.81875 1.0079ZM7.37442 4.75415L7.94016 4.1611L8.77024 5.96165L8.30106 6.97934L7.37442 4.75415ZM2.98231 14.0519V12.3514H4.62766V14.0519H2.98231ZM1.72403 13.7486L1.43032 13.0112C1.30446 12.695 1.53625 12.3514 1.87778 12.3514H2.56614V14.0519H2.17137C1.97301 14.0519 1.79743 13.9328 1.72403 13.7486ZM7.08274 13.2649C6.88372 13.743 6.42067 14.0519 5.90289 14.0519H5.04383V12.3514H6.14946C6.23059 12.3514 6.30446 12.3041 6.33844 12.2304C7.01145 10.7707 7.72203 9.22934 10.0588 4.16075L10.625 4.75427L7.08274 13.2649ZM10.9179 13.2661L9.2252 9.2004L9.71723 8.01825L11.6604 12.2318C11.6945 12.3055 11.7683 12.3528 11.8494 12.3528H12.9556V14.0508H12.0964C11.5793 14.0508 11.1166 13.7427 10.9179 13.2661ZM15.8281 14.0508H15.4331V12.3527H16.1222C16.4623 12.3527 16.6955 12.6959 16.5698 13.0109L16.2761 13.748C16.2017 13.932 16.0258 14.0508 15.8281 14.0508Z" fill="#88B6FF"/>
<path d="M11.1223 16.9047V15.7533C11.1223 15.1599 10.0545 14.8494 8.9997 14.8494C7.94489 14.8494 6.87692 15.1599 6.87692 15.7533V16.905C6.87692 17.4984 7.94489 17.8089 8.9997 17.8089C10.0545 17.8089 11.1223 17.4983 11.1223 16.9047ZM8.9997 15.2656C10.1256 15.2656 10.7061 15.6074 10.7061 15.7533C10.7061 15.8992 10.1256 16.241 8.9997 16.241C7.87376 16.241 7.29313 15.8992 7.29313 15.7533C7.29313 15.6074 7.87376 15.2656 8.9997 15.2656ZM7.29313 16.9047V16.3118C7.70044 16.5396 8.352 16.6571 8.9997 16.6571C9.64735 16.6571 10.2989 16.5396 10.7061 16.3118V16.905C10.7061 17.0509 10.1256 17.3926 8.9997 17.3926C7.87376 17.3926 7.29313 17.0506 7.29313 16.9047Z" fill="#88B6FF"/>
</svg>
