<svg width="17" height="17" viewBox="0 0 17 17" fill="none" xmlns="http://www.w3.org/2000/svg">
<path d="M4.01217 7.70641C4.01337 7.70761 8.05397 11.9352 8.05517 11.9364C8.09137 11.9742 8.14717 11.9982 8.19977 11.9982C8.25837 11.9982 8.29037 11.9778 8.34437 11.9364L12.3894 7.70441C12.4592 7.64141 12.4584 7.49921 12.3904 7.42881L10.4116 5.33161C10.4098 5.32961 10.3592 5.28901 10.3294 5.27901L9.39577 4.96801C9.38397 4.96421 9.37137 4.96181 9.35857 4.96001C9.35797 4.96001 9.35737 4.95941 9.35677 4.95941L8.22737 4.80281C8.20717 4.79981 8.19217 4.80041 8.17237 4.80281L7.04777 4.95881C7.03297 4.96021 7.01837 4.96321 7.00397 4.96801L6.07037 5.27901C6.04037 5.28901 5.98997 5.32961 5.98817 5.33161L4.00937 7.42881C3.93417 7.50781 3.94437 7.62981 4.01217 7.70641ZM8.81097 10.8692L10.4276 7.05721L11.8952 7.64241L8.81097 10.8692ZM10.1552 5.64301L11.479 7.04601L10.4574 6.63861L9.78317 5.51921L10.1552 5.64301ZM8.39977 5.23061L9.21057 5.34321L9.91457 6.51261L8.39977 6.20561V5.23061ZM8.39977 6.61381L10.04 6.94621L8.39977 10.8142V6.61381ZM7.99977 10.8142L6.35957 6.94621L7.99977 6.61381V10.8142ZM7.18897 5.34321L7.99977 5.23061V6.20541L6.48497 6.51241L7.18897 5.34321ZM6.24437 5.64301L6.61637 5.51901L5.94217 6.63841L4.92057 7.04581L6.24437 5.64301ZM5.97197 7.05721L7.58857 10.8692L4.50457 7.64241L5.97197 7.05721Z" fill="#88B6FF"/>
<path d="M8.4 2.796V0.2C8.4 0.0894 8.3106 0 8.2 0C8.0894 0 8 0.0894 8 0.2V2.796C8 2.9066 8.0894 2.996 8.2 2.996C8.3106 2.996 8.4 2.9066 8.4 2.796Z" fill="#88B6FF"/>
<path d="M8.2 16.4023C8.3106 16.4023 8.4 16.3129 8.4 16.2023V13.6063C8.4 13.4957 8.3106 13.4062 8.2 13.4062C8.0894 13.4062 8 13.4957 8 13.6063V16.2023C8 16.3129 8.0894 16.4023 8.2 16.4023Z" fill="#88B6FF"/>
<path d="M12.1618 4.521L13.9976 2.6852C14.0758 2.607 14.0758 2.4806 13.9976 2.4024C13.9194 2.3242 13.793 2.3242 13.7148 2.4024L11.879 4.2382C11.8008 4.3164 11.8008 4.4428 11.879 4.521C11.918 4.56 11.9692 4.5796 12.0204 4.5796C12.0716 4.5796 12.1228 4.56 12.1618 4.521Z" fill="#88B6FF"/>
<path d="M2.5438 14.0562C2.595 14.0562 2.6462 14.0366 2.6852 13.9976L4.521 12.1618C4.5992 12.0836 4.5992 11.9572 4.521 11.879C4.4428 11.8008 4.3164 11.8008 4.2382 11.879L2.4024 13.7148C2.3242 13.793 2.3242 13.9194 2.4024 13.9976C2.4414 14.0368 2.4926 14.0562 2.5438 14.0562Z" fill="#88B6FF"/>
<path d="M16.2003 8H13.6043C13.4937 8 13.4043 8.0894 13.4043 8.2C13.4043 8.3106 13.4937 8.4 13.6043 8.4H16.2003C16.3109 8.4 16.4003 8.3106 16.4003 8.2C16.4003 8.0894 16.3109 8 16.2003 8Z" fill="#88B6FF"/>
<path d="M0.2 8.4H2.796C2.9066 8.4 2.996 8.3106 2.996 8.2C2.996 8.0894 2.9066 8 2.796 8H0.2C0.0894 8 0 8.0894 0 8.2C0 8.3106 0.0894 8.4 0.2 8.4Z" fill="#88B6FF"/>
<path d="M13.9976 13.7148L12.1618 11.879C12.0836 11.8008 11.9572 11.8008 11.879 11.879C11.8008 11.9572 11.8008 12.0836 11.879 12.1618L13.7148 13.9976C13.7538 14.0366 13.805 14.0562 13.8562 14.0562C13.9074 14.0562 13.9586 14.0366 13.9976 13.9976C14.0758 13.9196 14.0758 13.793 13.9976 13.7148Z" fill="#88B6FF"/>
<path d="M2.6852 2.4024C2.607 2.3242 2.4806 2.3242 2.4024 2.4024C2.3242 2.4806 2.3242 2.607 2.4024 2.6852L4.2382 4.521C4.2772 4.56 4.3284 4.5796 4.3796 4.5796C4.4308 4.5796 4.482 4.56 4.521 4.521C4.5992 4.4428 4.5992 4.3164 4.521 4.2382L2.6852 2.4024Z" fill="#88B6FF"/>
<path d="M14.9966 5.38517C14.9544 5.28317 14.8378 5.23477 14.7352 5.27697L13.1156 5.94716C13.0136 5.98936 12.9652 6.10637 13.0074 6.20857C13.0392 6.28557 13.1136 6.33196 13.1922 6.33196C13.2178 6.33196 13.2436 6.32717 13.2688 6.31677L14.8884 5.64656C14.9904 5.60416 15.0388 5.48717 14.9966 5.38517Z" fill="#88B6FF"/>
<path d="M1.40392 11.0171C1.43572 11.0941 1.51012 11.1405 1.58872 11.1405C1.61432 11.1405 1.64012 11.1357 1.66532 11.1253L3.28492 10.4551C3.38692 10.4129 3.43532 10.2959 3.39312 10.1937C3.35092 10.0917 3.23452 10.0435 3.13172 10.0855L1.51212 10.7557C1.41012 10.7981 1.36172 10.9151 1.40392 11.0171Z" fill="#88B6FF"/>
<path d="M11.1215 14.7351L10.4513 13.1156C10.4091 13.0136 10.2925 12.9654 10.1899 13.0074C10.0879 13.0496 10.0395 13.1665 10.0817 13.2687L10.7519 14.8883C10.7837 14.9653 10.8581 15.0117 10.9367 15.0117C10.9623 15.0117 10.9881 15.0069 11.0133 14.9965C11.1153 14.9543 11.1637 14.8373 11.1215 14.7351Z" fill="#88B6FF"/>
<path d="M6.13196 3.41019C6.15756 3.41019 6.18336 3.40539 6.20856 3.39499C6.31056 3.35279 6.35896 3.23579 6.31676 3.13359L5.64656 1.51399C5.60436 1.41199 5.48777 1.36379 5.38517 1.40579C5.28317 1.44799 5.23477 1.56499 5.27697 1.66719L5.94716 3.28679C5.97896 3.36379 6.05356 3.41019 6.13196 3.41019Z" fill="#88B6FF"/>
<path d="M10.2684 3.41019C10.347 3.41019 10.4214 3.36379 10.4532 3.28679L11.1234 1.66719C11.1656 1.56499 11.1172 1.44799 11.0152 1.40579C10.9128 1.36379 10.796 1.41199 10.7538 1.51399L10.0836 3.13359C10.0414 3.23579 10.0898 3.35279 10.1918 3.39499C10.217 3.40539 10.2428 3.41019 10.2684 3.41019Z" fill="#88B6FF"/>
<path d="M6.20856 13.0074C6.10596 12.9654 5.98936 13.0136 5.94716 13.1156L5.27697 14.7351C5.23477 14.8373 5.28317 14.9543 5.38517 14.9965C5.41037 15.0069 5.43617 15.0117 5.46177 15.0117C5.54037 15.0117 5.61476 14.9653 5.64656 14.8883L6.31676 13.2687C6.35896 13.1665 6.31056 13.0496 6.20856 13.0074Z" fill="#88B6FF"/>
<path d="M14.9966 11.0171C15.0388 10.9149 14.9904 10.7979 14.8884 10.7557L13.2688 10.0855C13.1662 10.0435 13.0498 10.0917 13.0074 10.1937C12.9652 10.2959 13.0136 10.4129 13.1156 10.4551L14.7352 11.1253C14.7604 11.1357 14.7862 11.1405 14.8118 11.1405C14.8904 11.1405 14.9648 11.0941 14.9966 11.0171Z" fill="#88B6FF"/>
<path d="M1.40392 5.38517C1.36172 5.48737 1.41012 5.60436 1.51212 5.64656L3.13172 6.31677C3.15692 6.32717 3.18272 6.33196 3.20832 6.33196C3.28692 6.33196 3.36132 6.28557 3.39312 6.20857C3.43532 6.10637 3.38692 5.98936 3.28492 5.94716L1.66532 5.27697C1.56272 5.23477 1.44592 5.28317 1.40392 5.38517Z" fill="#88B6FF"/>
</svg>
