<svg width="30" height="30" viewBox="0 0 30 30" fill="none" xmlns="http://www.w3.org/2000/svg">
<path d="M15 29.2224C13.2015 29.2224 11.1649 29.0673 9.55188 28.8074C8.71076 28.672 8.03765 28.5171 7.5513 28.3474C7.26514 28.2476 6.5049 27.9823 6.5049 27.398V21.9934C6.5049 21.7515 6.701 21.5554 6.94289 21.5554C7.18478 21.5554 7.38089 21.7515 7.38089 21.9934V27.3101C7.56672 27.4531 8.29834 27.7416 10.0374 27.9957C11.5627 28.2185 13.3715 28.3464 15.0001 28.3464C16.6286 28.3464 18.4374 28.2186 19.9627 27.9957C21.7017 27.7415 22.4334 27.4531 22.6192 27.3101V10.6023C22.6192 8.36699 23.0245 6.86946 23.2444 6.22152C22.7984 6.05473 22.1653 5.89641 21.5035 5.73097C20.7161 5.53404 19.8328 5.31318 19.0898 5.03105C18.753 5.32013 18.3408 5.62602 17.8512 5.95131C16.5779 6.79734 15.2502 7.45696 15.1944 7.48464C15.0719 7.5452 14.9282 7.5452 14.8058 7.48464C14.7825 7.47313 14.2274 7.19772 13.4892 6.77474C13.2793 6.65443 13.2066 6.38679 13.3269 6.17696C13.4471 5.96713 13.7148 5.89443 13.9246 6.01467C14.3853 6.27863 14.778 6.48607 15 6.60071C15.414 6.38679 16.4227 5.84934 17.3723 5.21787C18.8774 4.21691 19.3137 3.58999 19.3533 3.31598C19.1112 3.21378 18.8913 3.10347 18.7 2.982C18.4414 3.28626 17.9366 3.70375 16.9355 4.32588C16.0694 4.8642 15.2385 5.30091 15.2036 5.31925C15.0762 5.38612 14.9241 5.38612 14.7967 5.31925C14.7617 5.30097 13.9309 4.8642 13.0647 4.32588C12.0636 3.70381 11.5588 3.28626 11.3002 2.982C11.109 3.10341 10.8893 3.21361 10.6474 3.31575C10.6859 3.57411 11.0769 4.15343 12.41 5.07059C12.6093 5.20771 12.6597 5.48037 12.5226 5.67969C12.3855 5.87901 12.1127 5.92941 11.9135 5.79229C11.5259 5.52569 11.1919 5.27236 10.9106 5.03105C10.1676 5.31324 9.28424 5.53416 8.49667 5.73108C7.83494 5.89659 7.20184 6.05485 6.75578 6.22164C6.97571 6.86964 7.38101 8.36705 7.38101 10.6025V20.2416C7.38101 20.4835 7.1849 20.6795 6.94301 20.6795C6.70112 20.6795 6.50502 20.4835 6.50502 20.2416V13.0451L4.52884 14.0902C3.97177 14.4118 3.27192 14.2867 2.86067 13.7908L0.300561 10.7034C-0.0922913 10.2297 -0.100934 9.53492 0.279946 9.05143C1.21866 7.85997 3.97323 4.73613 5.21953 4.0764C5.83804 3.74895 6.80566 3.50479 7.8301 3.24625C9.12498 2.91951 10.7366 2.51282 11.1497 1.97204C11.1502 1.97151 11.1506 1.97093 11.151 1.97046C11.7569 1.17909 13.0519 0.777832 15 0.777832C16.9484 0.777832 18.2434 1.17909 18.8492 1.9707C18.8495 1.97116 18.8499 1.97163 18.8502 1.97204C19.2634 2.51287 20.875 2.91957 22.1699 3.24625C23.1944 3.50479 24.1619 3.7489 24.7804 4.07634C26.0268 4.73625 28.7814 7.85997 29.72 9.05143C30.101 9.53492 30.0923 10.2297 29.6994 10.7034L27.1395 13.7907C26.7282 14.2866 26.0283 14.4116 25.4713 14.0902L24.5773 13.6173C24.4607 13.5557 24.3781 13.4448 24.3524 13.3155C24.3267 13.1861 24.3607 13.0521 24.4448 12.9506L27.0028 9.86558C26.2419 8.92763 24.8823 7.38956 24.0186 6.67849C23.8157 7.33654 23.495 8.6806 23.495 10.6023V27.398C23.495 27.9823 22.7348 28.2476 22.4486 28.3474C21.9623 28.5171 21.2891 28.672 20.448 28.8074C18.8351 29.0673 16.7985 29.2224 15 29.2224ZM25.4632 13.0949L25.8887 13.32C25.8945 13.323 25.9003 13.3262 25.906 13.3296C26.0921 13.439 26.3273 13.3978 26.4651 13.2316L29.0251 10.1443C29.156 9.98635 29.1589 9.75473 29.0319 9.59355C28.9339 9.46916 28.8236 9.33286 28.7033 9.18727L25.4632 13.0949ZM1.29668 9.18721C1.17632 9.3328 1.06606 9.46916 0.968064 9.59355C0.841104 9.75473 0.843966 9.98635 0.974897 10.1443L3.53483 13.2316C3.67271 13.3979 3.90788 13.439 4.09406 13.3296C4.09973 13.3262 4.10545 13.323 4.11129 13.32L4.53679 13.0949L1.29668 9.18721ZM2.99709 9.86558L5.32786 12.6766L6.50484 12.0541V10.6024C6.50484 8.68101 6.18429 7.33706 5.98129 6.67855C5.11757 7.38956 3.75797 8.92768 2.99709 9.86558ZM1.87232 8.50908L2.42787 9.17915C3.25165 8.17959 5.06682 6.09374 6.01376 5.59244C6.5275 5.32048 7.34147 5.1169 8.28397 4.8812C8.94476 4.71593 9.62254 4.54645 10.2263 4.34492C10.0183 4.08831 9.88102 3.84613 9.81299 3.61598C9.26672 3.7872 8.66193 3.9398 8.04436 4.09561C7.07254 4.34083 6.15462 4.5725 5.62938 4.85054C4.86248 5.25653 3.11798 7.07503 1.87232 8.50908ZM19.7734 4.3448C20.3772 4.5464 21.0551 4.71587 21.716 4.8812C22.6585 5.1169 23.4725 5.32042 23.9862 5.59244C24.9332 6.09374 26.7484 8.17959 27.5721 9.17915L28.1277 8.50908C26.882 7.07503 25.1375 5.25659 24.3706 4.85054C23.8453 4.5725 22.9274 4.34083 21.9556 4.09561C21.3378 3.93974 20.7329 3.78709 20.1865 3.61586C20.1184 3.84595 19.9812 4.08825 19.7734 4.3448ZM11.9475 2.38971C12.0704 2.5433 12.4487 2.91624 13.5832 3.61668C14.1537 3.96883 14.7112 4.27776 15 4.43444C15.2897 4.27729 15.8495 3.96702 16.4206 3.61434C17.5522 2.91542 17.9298 2.54313 18.0525 2.38971C17.7288 2.07336 16.9345 1.65376 15 1.65376C13.0655 1.65376 12.2712 2.07336 11.9475 2.38971ZM18.1541 2.50376H18.1547H18.1541ZM19.3235 12.814C18.116 12.814 17.1336 11.8316 17.1336 10.6241C17.1336 9.41649 18.116 8.43409 19.3235 8.43409C20.5311 8.43409 21.5135 9.41649 21.5135 10.6241C21.5135 11.8316 20.5311 12.814 19.3235 12.814ZM19.3235 9.31008C18.599 9.31008 18.0096 9.89956 18.0096 10.6241C18.0096 11.3486 18.599 11.9381 19.3235 11.9381C20.0481 11.9381 20.6375 11.3486 20.6375 10.6241C20.6375 9.89956 20.048 9.31008 19.3235 9.31008Z" fill="#8A92AB"/>
</svg>
