<svg width="14" height="20" viewBox="0 0 14 20" fill="none" xmlns="http://www.w3.org/2000/svg">
<path d="M12.645 19.1223H1.0125C0.45375 19.1223 0 18.6686 0 18.1098V8.22734C0 7.66859 0.45375 7.21484 1.0125 7.21484H12.645C13.2038 7.21484 13.6575 7.66859 13.6575 8.22734V18.1098C13.6575 18.6686 13.2038 19.1223 12.645 19.1223ZM1.0125 7.73984C0.74375 7.73984 0.525 7.95859 0.525 8.22734V18.1098C0.525 18.3786 0.74375 18.5973 1.0125 18.5973H12.645C12.9138 18.5973 13.1325 18.3786 13.1325 18.1098V8.22734C13.1325 7.95859 12.9138 7.73984 12.645 7.73984H1.0125Z" fill="#8A92AB"/>
<path d="M11.7937 7.74125C11.6487 7.74125 11.5312 7.62375 11.5312 7.47875V5.22375C11.5312 4.59 11.4062 3.97375 11.1612 3.39375C10.9249 2.83375 10.5862 2.33125 10.1549 1.9C9.72367 1.46875 9.22117 1.13 8.66117 0.89375C8.08117 0.64875 7.46617 0.52375 6.83242 0.52375C6.19867 0.52375 5.58242 0.64875 5.00242 0.89375C4.44242 1.13 3.93992 1.46875 3.50867 1.9C3.07742 2.33125 2.73867 2.83375 2.50242 3.39375C2.25742 3.97375 2.13242 4.59 2.13242 5.22375V7.48C2.13242 7.625 2.01492 7.7425 1.86992 7.7425C1.72492 7.7425 1.60742 7.625 1.60742 7.48V5.22375C1.60742 4.51875 1.74617 3.835 2.01867 3.19C2.28242 2.5675 2.65867 2.00875 3.13742 1.53C3.61617 1.05125 4.17492 0.67375 4.79742 0.41125C5.44242 0.13875 6.12742 0 6.83117 0C7.53617 0 8.21992 0.13875 8.86492 0.41125C9.48742 0.675 10.0462 1.05125 10.5249 1.53C11.0037 2.00875 11.3812 2.5675 11.6437 3.19C11.9162 3.835 12.0549 4.52 12.0549 5.22375V7.48C12.0562 7.62375 11.9387 7.74125 11.7937 7.74125Z" fill="#8A92AB"/>
<path d="M10.3334 7.74219C10.1884 7.74219 10.0709 7.62469 10.0709 7.47969V5.22469C10.0709 3.43844 8.61711 1.98594 6.83211 1.98594C5.04586 1.98594 3.59336 3.43969 3.59336 5.22469V7.48094C3.59336 7.62594 3.47586 7.74344 3.33086 7.74344C3.18586 7.74344 3.06836 7.62594 3.06836 7.48094V5.22469C3.06836 4.21969 3.45961 3.27344 4.17086 2.56344C4.88211 1.85219 5.82711 1.46094 6.83211 1.46094C7.83711 1.46094 8.78336 1.85219 9.49336 2.56344C10.2046 3.27469 10.5959 4.21969 10.5959 5.22469V7.48094C10.5959 7.62469 10.4784 7.74219 10.3334 7.74219Z" fill="#8A92AB"/>
<path d="M7.53121 13.4927C7.43871 13.4927 7.34871 13.444 7.30121 13.3565C7.23121 13.229 7.27746 13.0702 7.40496 13.0002C7.77996 12.794 8.01621 12.4002 8.02246 11.974C8.03121 11.3227 7.51121 10.7815 6.86121 10.7665C6.53746 10.759 6.23121 10.879 5.99996 11.1052C5.76871 11.3315 5.64121 11.634 5.64121 11.9577C5.64121 12.3927 5.87746 12.7927 6.25871 13.0015C6.38621 13.0715 6.43246 13.2315 6.36246 13.3577C6.29246 13.4852 6.13246 13.5315 6.00621 13.4615C5.45746 13.1602 5.11621 12.584 5.11621 11.9577C5.11621 11.4915 5.29996 11.0552 5.63371 10.7302C5.96746 10.4052 6.40746 10.2315 6.87371 10.2427C7.80996 10.2652 8.56121 11.0452 8.54746 11.9827C8.53871 12.5977 8.19746 13.1652 7.65746 13.4615C7.61746 13.4815 7.57496 13.4927 7.53121 13.4927Z" fill="#8A92AB"/>
<path d="M6.83234 16.1025C6.30234 16.1025 5.87109 15.6713 5.87109 15.1413V13.2313C5.87109 13.0862 5.98859 12.9688 6.13359 12.9688C6.27859 12.9688 6.39609 13.0862 6.39609 13.2313V15.1413C6.39609 15.3825 6.59234 15.5775 6.83234 15.5775C7.07234 15.5775 7.26859 15.3813 7.26859 15.1413V13.2313C7.26859 13.0862 7.38609 12.9688 7.53109 12.9688C7.67609 12.9688 7.79359 13.0862 7.79359 13.2313V15.1413C7.79359 15.6713 7.36234 16.1025 6.83234 16.1025Z" fill="#8A92AB"/>
</svg>
