<svg width="18" height="16" viewBox="0 0 18 16" fill="none" xmlns="http://www.w3.org/2000/svg">
<path d="M5.15188 12.8374H3.77692V9.77496C3.77532 9.69314 3.74169 9.6152 3.68326 9.5579C3.62483 9.5006 3.54625 9.4685 3.46441 9.46851C3.38257 9.46851 3.30399 9.50061 3.24556 9.55792C3.18713 9.61522 3.15351 9.69316 3.15192 9.77498V13.1499C3.15192 13.2328 3.18485 13.3123 3.24345 13.3709C3.30205 13.4295 3.38154 13.4624 3.46442 13.4624H5.15188C5.2337 13.4608 5.31164 13.4272 5.36894 13.3688C5.42624 13.3103 5.45834 13.2317 5.45834 13.1499C5.45834 13.0681 5.42624 12.9895 5.36894 12.9311C5.31164 12.8726 5.2337 12.839 5.15188 12.8374Z" fill="#88B6FF"/>
<path d="M6.4928 9.4624C6.40992 9.4624 6.33043 9.49533 6.27183 9.55393C6.21322 9.61254 6.1803 9.69202 6.1803 9.7749V13.1498C6.1803 13.2327 6.21322 13.3122 6.27183 13.3708C6.33043 13.4294 6.40992 13.4623 6.4928 13.4623C6.57568 13.4623 6.65516 13.4294 6.71377 13.3708C6.77237 13.3122 6.8053 13.2327 6.8053 13.1498V9.7749C6.8053 9.69202 6.77237 9.61254 6.71377 9.55393C6.65516 9.49533 6.57568 9.4624 6.4928 9.4624Z" fill="#88B6FF"/>
<path d="M10.9905 9.48363C10.9523 9.46876 10.9115 9.46157 10.8704 9.46248C10.8294 9.46339 10.7889 9.47238 10.7514 9.48893C10.7138 9.50548 10.6799 9.52927 10.6516 9.55894C10.6232 9.58862 10.601 9.62359 10.5861 9.66185L9.56808 12.2859L8.55001 9.66185C8.51992 9.58475 8.46046 9.52274 8.38469 9.48943C8.30892 9.45612 8.22303 9.45423 8.14587 9.48418C8.06871 9.51413 8.00659 9.57347 7.97313 9.64918C7.93968 9.72489 7.93763 9.81077 7.96743 9.88799L9.27679 13.2629C9.30036 13.3209 9.34066 13.3704 9.39255 13.4053C9.44444 13.4403 9.50556 13.4589 9.56809 13.4589C9.63063 13.4589 9.69175 13.4402 9.74363 13.4053C9.79552 13.3704 9.83582 13.3208 9.85939 13.2629L11.1687 9.88799C11.1987 9.81073 11.1968 9.72473 11.1634 9.6489C11.1299 9.57307 11.0678 9.51362 10.9905 9.48363Z" fill="#88B6FF"/>
<path d="M14.5356 12.8373H12.9558V11.7749H14.3308C14.4137 11.7749 14.4931 11.7419 14.5517 11.6833C14.6104 11.6247 14.6433 11.5453 14.6433 11.4624C14.6433 11.3795 14.6104 11.3 14.5517 11.2414C14.4931 11.1828 14.4137 11.1499 14.3308 11.1499H12.9558V10.0874H14.3308C14.4129 10.0862 14.4912 10.0527 14.5488 9.99425C14.6064 9.93578 14.6387 9.85699 14.6387 9.7749C14.6387 9.69282 14.6064 9.61402 14.5488 9.55555C14.4912 9.49708 14.4129 9.46362 14.3308 9.4624H12.6433C12.5604 9.46241 12.4809 9.49533 12.4223 9.55394C12.3637 9.61254 12.3308 9.69202 12.3308 9.7749V13.1498C12.3308 13.2327 12.3637 13.3122 12.4223 13.3708C12.4809 13.4294 12.5604 13.4623 12.6433 13.4623H14.5356C14.6174 13.4607 14.6953 13.4271 14.7526 13.3687C14.8099 13.3103 14.842 13.2317 14.842 13.1498C14.842 13.068 14.8099 12.9894 14.7526 12.931C14.6953 12.8726 14.6174 12.8389 14.5356 12.8373Z" fill="#88B6FF"/>
<path d="M6.77037 4.46346C6.70415 4.51167 6.65951 4.58394 6.64604 4.66473C6.63257 4.74552 6.65136 4.82837 6.69836 4.89544C6.74536 4.96252 6.81682 5.00846 6.89735 5.02338C6.97789 5.0383 7.06106 5.02101 7.12897 4.97523C7.6792 4.59594 8.33171 4.39283 9 4.39284C9.66829 4.39284 10.3208 4.59596 10.871 4.97526C10.9389 5.02278 11.0229 5.0414 11.1044 5.02702C11.186 5.01265 11.2586 4.96645 11.3061 4.8986C11.3537 4.83074 11.3723 4.74678 11.358 4.66518C11.3436 4.58358 11.2974 4.51103 11.2296 4.46346C10.5742 4.01077 9.79653 3.76831 8.99999 3.76831C8.20345 3.76831 7.42577 4.01077 6.77037 4.46346Z" fill="#88B6FF"/>
<path d="M12.0624 3.68183C12.1281 3.68061 12.1917 3.65888 12.2444 3.61969C12.297 3.5805 12.3361 3.52581 12.3561 3.46329C12.3761 3.40077 12.3761 3.33355 12.356 3.27105C12.3359 3.20856 12.2967 3.15392 12.244 3.11481C11.2967 2.44048 10.1628 2.07813 8.99998 2.07812C7.83718 2.07813 6.70328 2.44048 5.75598 3.11481C5.69026 3.16358 5.6463 3.23617 5.63353 3.317C5.62076 3.39783 5.6402 3.48044 5.68767 3.54709C5.73515 3.61374 5.80687 3.65912 5.88743 3.67346C5.968 3.68781 6.05097 3.66999 6.11854 3.62383C6.96093 3.02721 7.96774 2.70679 9.00001 2.7068C10.0323 2.7068 11.0391 3.02724 11.8815 3.62386C11.9342 3.66162 11.9975 3.68189 12.0624 3.68183Z" fill="#88B6FF"/>
<path d="M5.10781 2.2726C6.24232 1.45842 7.60359 1.02051 9.00002 1.02051C10.3965 1.02052 11.7577 1.45844 12.8922 2.27264C12.9595 2.31918 13.0423 2.33752 13.1229 2.32371C13.2035 2.3099 13.2755 2.26505 13.3234 2.19877C13.3713 2.13249 13.3914 2.05007 13.3792 1.96919C13.3671 1.88832 13.3237 1.81542 13.2584 1.76615C12.0172 0.875198 10.5279 0.395988 9 0.395996C7.47215 0.396005 5.98277 0.875231 4.7416 1.7662C4.67624 1.81544 4.6328 1.88835 4.62061 1.96926C4.60843 2.05018 4.62846 2.13265 4.67641 2.19896C4.72436 2.26526 4.7964 2.31012 4.87707 2.32389C4.95773 2.33766 5.04057 2.31925 5.10781 2.2726Z" fill="#88B6FF"/>
<path d="M16.5586 7.31544H10.1718C10.3148 7.10299 10.3973 6.85564 10.4105 6.5999C10.4237 6.34415 10.367 6.08963 10.2466 5.86361C10.1262 5.63759 9.9466 5.44858 9.727 5.31684C9.50739 5.18509 9.25609 5.11557 9 5.11572C8.74522 5.11878 8.49594 5.19027 8.27827 5.32273C8.0606 5.45519 7.88254 5.64373 7.76275 5.86862C7.64296 6.0935 7.58583 6.34646 7.59735 6.60101C7.60887 6.85555 7.68862 7.10231 7.82824 7.31546L1.44141 7.31544C1.12554 7.31581 0.822717 7.44145 0.599366 7.6648C0.376015 7.88815 0.250372 8.19097 0.25 8.50684V14.4181C0.250372 14.734 0.376015 15.0368 0.599366 15.2601C0.822717 15.4835 1.12554 15.6091 1.44141 15.6095H16.5586C16.8745 15.6091 17.1773 15.4835 17.4006 15.2601C17.624 15.0368 17.7496 14.734 17.75 14.4181V8.50685C17.7496 8.19098 17.624 7.88816 17.4006 7.6648C17.1773 7.44145 16.8745 7.31581 16.5586 7.31544ZM8.21266 6.52808C8.215 6.3208 8.29898 6.1228 8.44639 5.97705C8.59379 5.8313 8.79273 5.74956 9.00002 5.74956C9.20732 5.74957 9.40625 5.83132 9.55365 5.97707C9.70105 6.12282 9.78503 6.32083 9.78736 6.52811C9.78514 6.73546 9.7012 6.93357 9.55378 7.07941C9.40636 7.22525 9.20736 7.30705 8.99999 7.30705C8.79262 7.30705 8.59363 7.22524 8.44621 7.0794C8.2988 6.93355 8.21487 6.73544 8.21265 6.52808H8.21266ZM17.125 14.4181C17.1248 14.5683 17.0651 14.7122 16.9589 14.8184C16.8527 14.9246 16.7088 14.9843 16.5586 14.9845H1.44141C1.29123 14.9843 1.14726 14.9246 1.04107 14.8184C0.934886 14.7122 0.87516 14.5683 0.875 14.4181V8.50685C0.87516 8.35668 0.934886 8.2127 1.04107 8.10651C1.14726 8.00033 1.29123 7.9406 1.44141 7.94044H16.5586C16.7088 7.9406 16.8527 8.00033 16.9589 8.10651C17.0651 8.2127 17.1248 8.35667 17.125 8.50684V14.4181Z" fill="#88B6FF"/>
<path d="M1.98255 8.54688C1.8716 8.54829 1.76567 8.59337 1.68771 8.67233C1.60975 8.7513 1.56604 8.85779 1.56604 8.96876C1.56604 9.07972 1.60976 9.18622 1.68772 9.26518C1.76569 9.34414 1.87162 9.38921 1.98257 9.39063C2.09353 9.38921 2.19946 9.34413 2.27742 9.26517C2.35538 9.1862 2.39909 9.07971 2.39909 8.96874C2.39909 8.85778 2.35537 8.75128 2.2774 8.67232C2.19944 8.59336 2.09351 8.54829 1.98255 8.54688Z" fill="#88B6FF"/>
<path d="M1.98255 13.5342C1.87171 13.5358 1.76595 13.5809 1.68814 13.6599C1.61033 13.7388 1.56671 13.8452 1.56671 13.9561C1.56671 14.0669 1.61034 14.1733 1.68815 14.2522C1.76597 14.3312 1.87173 14.3763 1.98256 14.3779C2.0934 14.3763 2.19915 14.3312 2.27697 14.2522C2.35478 14.1733 2.3984 14.0669 2.3984 13.956C2.39839 13.8452 2.35477 13.7388 2.27695 13.6599C2.19914 13.5809 2.09338 13.5358 1.98255 13.5342Z" fill="#88B6FF"/>
<path d="M16.0175 8.54688C15.9065 8.54829 15.8006 8.59337 15.7226 8.67233C15.6447 8.7513 15.6009 8.85779 15.601 8.96876C15.601 9.07972 15.6447 9.18622 15.7226 9.26518C15.8006 9.34414 15.9065 9.38921 16.0175 9.39063C16.1284 9.38921 16.2344 9.34413 16.3123 9.26517C16.3903 9.1862 16.434 9.07971 16.434 8.96874C16.434 8.85778 16.3903 8.75128 16.3123 8.67232C16.2344 8.59336 16.1284 8.54829 16.0175 8.54688Z" fill="#88B6FF"/>
<path d="M16.0175 13.5342C15.9066 13.5358 15.8009 13.5809 15.7231 13.6599C15.6452 13.7388 15.6016 13.8452 15.6016 13.9561C15.6016 14.0669 15.6453 14.1733 15.7231 14.2522C15.8009 14.3312 15.9066 14.3763 16.0175 14.3779C16.1283 14.3763 16.2341 14.3312 16.3119 14.2522C16.3897 14.1733 16.4333 14.0669 16.4333 13.956C16.4333 13.8452 16.3897 13.7388 16.3119 13.6599C16.2341 13.5809 16.1283 13.5358 16.0175 13.5342Z" fill="#88B6FF"/>
</svg>
