<svg width="20" height="20" viewBox="0 0 20 20" fill="none" xmlns="http://www.w3.org/2000/svg">
<path d="M8.125 15H7.1875V14.0625C7.1875 13.9796 7.15458 13.9001 7.09597 13.8415C7.03737 13.7829 6.95788 13.75 6.875 13.75H5.625C5.54212 13.75 5.46263 13.7829 5.40403 13.8415C5.34542 13.9001 5.3125 13.9796 5.3125 14.0625V15H4.375C4.29212 15 4.21263 15.0329 4.15403 15.0915C4.09542 15.1501 4.0625 15.2296 4.0625 15.3125V16.5625C4.0625 16.6454 4.09542 16.7249 4.15403 16.7835C4.21263 16.8421 4.29212 16.875 4.375 16.875H5.3125V17.8125C5.3125 17.8954 5.34542 17.9749 5.40403 18.0335C5.46263 18.0921 5.54212 18.125 5.625 18.125H6.875C6.95788 18.125 7.03737 18.0921 7.09597 18.0335C7.15458 17.9749 7.1875 17.8954 7.1875 17.8125V16.875H8.125C8.20788 16.875 8.28737 16.8421 8.34597 16.7835C8.40458 16.7249 8.4375 16.6454 8.4375 16.5625V15.3125C8.4375 15.2296 8.40458 15.1501 8.34597 15.0915C8.28737 15.0329 8.20788 15 8.125 15ZM7.8125 16.25H6.875C6.79212 16.25 6.71263 16.2829 6.65403 16.3415C6.59542 16.4001 6.5625 16.4796 6.5625 16.5625V17.5H5.9375V16.5625C5.9375 16.4796 5.90458 16.4001 5.84597 16.3415C5.78737 16.2829 5.70788 16.25 5.625 16.25H4.6875V15.625H5.625C5.70788 15.625 5.78737 15.5921 5.84597 15.5335C5.90458 15.4749 5.9375 15.3954 5.9375 15.3125V14.375H6.5625V15.3125C6.5625 15.3954 6.59542 15.4749 6.65403 15.5335C6.71263 15.5921 6.79212 15.625 6.875 15.625H7.8125V16.25Z" fill="#88B6FF"/>
<path d="M12.9041 13.8415L12.2791 14.4665L12.7209 14.9084L13.125 14.5043L13.5291 14.9084L13.9709 14.4665L13.3459 13.8415C13.2873 13.7829 13.2079 13.75 13.125 13.75C13.0421 13.75 12.9627 13.7829 12.9041 13.8415Z" fill="#88B6FF"/>
<path d="M13.125 17.3689L12.7209 16.9648L12.2791 17.4067L12.9041 18.0317C12.9627 18.0903 13.0421 18.1232 13.125 18.1232C13.2079 18.1232 13.2873 18.0903 13.3459 18.0317L13.9709 17.4067L13.5291 16.9648L13.125 17.3689Z" fill="#88B6FF"/>
<path d="M14.1541 15.5317L14.5581 15.9358L14.1541 16.3398L14.5959 16.7817L15.2209 16.1567C15.2795 16.0981 15.3124 16.0186 15.3124 15.9358C15.3124 15.8529 15.2795 15.7734 15.2209 15.7148L14.5959 15.0898L14.1541 15.5317Z" fill="#88B6FF"/>
<path d="M11.654 15.0898L11.029 15.7148C10.9704 15.7734 10.9375 15.8529 10.9375 15.9358C10.9375 16.0186 10.9704 16.0981 11.029 16.1567L11.654 16.7817L12.0959 16.3398L11.6918 15.9358L12.0959 15.5317L11.654 15.0898Z" fill="#88B6FF"/>
<path d="M18.125 0H1.25C0.918479 0 0.600537 0.131696 0.366117 0.366117C0.131696 0.600537 0 0.918479 0 1.25V12.5C0 12.8315 0.131696 13.1495 0.366117 13.3839C0.600537 13.6183 0.918479 13.75 1.25 13.75H3.60031C3.29705 14.0959 3.06631 14.4991 2.92173 14.9358C2.77716 15.3725 2.72171 15.8338 2.75867 16.2923C2.79562 16.7508 2.92423 17.1973 3.13687 17.6052C3.34951 18.0131 3.64186 18.3742 3.99659 18.667C4.35133 18.9599 4.76124 19.1786 5.20203 19.3101C5.64283 19.4417 6.10554 19.4834 6.56276 19.4329C7.01998 19.3823 7.4624 19.2405 7.86382 19.0159C8.26524 18.7912 8.61748 18.4883 8.89969 18.125H10.4753C10.7575 18.4883 11.1098 18.7912 11.5112 19.0159C11.9126 19.2405 12.355 19.3823 12.8122 19.4329C13.2695 19.4834 13.7322 19.4417 14.173 19.3101C14.6138 19.1786 15.0237 18.9599 15.3784 18.667C15.7331 18.3742 16.0255 18.0131 16.2381 17.6052C16.4508 17.1973 16.5794 16.7508 16.6163 16.2923C16.6533 15.8338 16.5978 15.3725 16.4533 14.9358C16.3087 14.4991 16.0779 14.0959 15.7747 13.75H18.125C18.4565 13.75 18.7745 13.6183 19.0089 13.3839C19.2433 13.1495 19.375 12.8315 19.375 12.5V1.25C19.375 0.918479 19.2433 0.600537 19.0089 0.366117C18.7745 0.131696 18.4565 0 18.125 0ZM6.25 18.75C5.69374 18.75 5.14997 18.5851 4.68746 18.276C4.22495 17.967 3.86446 17.5277 3.65159 17.0138C3.43872 16.4999 3.38302 15.9344 3.49154 15.3888C3.60006 14.8432 3.86793 14.3421 4.26126 13.9488C4.6546 13.5554 5.15574 13.2876 5.70131 13.179C6.24688 13.0705 6.81238 13.1262 7.3263 13.3391C7.84021 13.552 8.27947 13.9124 8.58851 14.375C8.89755 14.8375 9.0625 15.3812 9.0625 15.9375C9.06167 16.6832 8.76509 17.3981 8.23782 17.9253C7.71056 18.4526 6.99567 18.7492 6.25 18.75ZM9.30812 17.5C9.68761 16.7627 9.7865 15.9128 9.58642 15.1081C9.38634 14.3034 8.90089 13.5987 8.22031 13.125H11.1562C10.4757 13.5987 9.99022 14.3034 9.79014 15.1081C9.59006 15.9128 9.68895 16.7627 10.0684 17.5H9.30812ZM10 12.5H9.375V11.875H10V12.5ZM13.125 18.75C12.5687 18.75 12.025 18.5851 11.5625 18.276C11.0999 17.967 10.7395 17.5277 10.5266 17.0138C10.3137 16.4999 10.258 15.9344 10.3665 15.3888C10.4751 14.8432 10.7429 14.3421 11.1363 13.9488C11.5296 13.5554 12.0307 13.2876 12.5763 13.179C13.1219 13.0705 13.6874 13.1262 14.2013 13.3391C14.7152 13.552 15.1545 13.9124 15.4635 14.375C15.7725 14.8375 15.9375 15.3812 15.9375 15.9375C15.9367 16.6832 15.6401 17.3981 15.1128 17.9253C14.5856 18.4526 13.8707 18.7492 13.125 18.75ZM18.75 12.5C18.75 12.6658 18.6842 12.8247 18.5669 12.9419C18.4497 13.0592 18.2908 13.125 18.125 13.125H15.0953C14.5189 12.7182 13.8306 12.4998 13.125 12.5H10.625V11.5625C10.625 11.4796 10.5921 11.4001 10.5335 11.3415C10.4749 11.2829 10.3954 11.25 10.3125 11.25H9.0625C8.97962 11.25 8.90013 11.2829 8.84153 11.3415C8.78292 11.4001 8.75 11.4796 8.75 11.5625V12.5H6.25C5.54497 12.5002 4.85727 12.7185 4.28125 13.125H1.25C1.08424 13.125 0.925268 13.0592 0.808058 12.9419C0.690848 12.8247 0.625 12.6658 0.625 12.5V1.25C0.625 1.08424 0.690848 0.925268 0.808058 0.808058C0.925268 0.690848 1.08424 0.625 1.25 0.625H18.125C18.2908 0.625 18.4497 0.690848 18.5669 0.808058C18.6842 0.925268 18.75 1.08424 18.75 1.25V12.5Z" fill="#88B6FF"/>
<path d="M17.8125 1.25H1.5625C1.47962 1.25 1.40013 1.28292 1.34153 1.34153C1.28292 1.40013 1.25 1.47962 1.25 1.5625V11.5625C1.25 11.6454 1.28292 11.7249 1.34153 11.7835C1.40013 11.8421 1.47962 11.875 1.5625 11.875H8.125V11.25H1.875V1.875H17.5V11.25H11.25V11.875H17.8125C17.8954 11.875 17.9749 11.8421 18.0335 11.7835C18.0921 11.7249 18.125 11.6454 18.125 11.5625V1.5625C18.125 1.47962 18.0921 1.40013 18.0335 1.34153C17.9749 1.28292 17.8954 1.25 17.8125 1.25Z" fill="#88B6FF"/>
<path d="M6.5625 5H5.9375V7.8125C5.9375 7.89538 5.97042 7.97487 6.02903 8.03347C6.08763 8.09208 6.16712 8.125 6.25 8.125H7.5V7.5H6.5625V5Z" fill="#88B6FF"/>
<path d="M13.4375 7.5H12.5V6.875H13.4375V6.25H12.5V5.625H13.4375V5H12.1875C12.1046 5 12.0251 5.03292 11.9665 5.09153C11.9079 5.15013 11.875 5.22962 11.875 5.3125V7.8125C11.875 7.89538 11.9079 7.97487 11.9665 8.03347C12.0251 8.09208 12.1046 8.125 12.1875 8.125H13.4375V7.5Z" fill="#88B6FF"/>
<path d="M8.75 5H8.125V8.125H8.75V5Z" fill="#88B6FF"/>
<path d="M10.625 6.78125L10.3125 7.25L10 6.78125V5H9.375V6.875C9.3751 6.93671 9.39336 6.99703 9.4275 7.04844L10.0525 7.98594C10.081 8.02874 10.1197 8.06383 10.1651 8.0881C10.2104 8.11237 10.2611 8.12507 10.3125 8.12507C10.3639 8.12507 10.4146 8.11237 10.4599 8.0881C10.5053 8.06383 10.544 8.02874 10.5725 7.98594L11.1975 7.04844C11.2316 6.99703 11.2499 6.93671 11.25 6.875V5H10.625V6.78125Z" fill="#88B6FF"/>
<path d="M14.6875 8.125V5C14.6875 4.66848 14.5558 4.35054 14.3214 4.11612C14.087 3.8817 13.769 3.75 13.4375 3.75H5.9375C5.60598 3.75 5.28804 3.8817 5.05362 4.11612C4.8192 4.35054 4.6875 4.66848 4.6875 5V8.125C4.6875 8.45652 4.8192 8.77446 5.05362 9.00888C5.28804 9.2433 5.60598 9.375 5.9375 9.375H13.4375C13.769 9.375 14.087 9.2433 14.3214 9.00888C14.5558 8.77446 14.6875 8.45652 14.6875 8.125ZM5.3125 8.125V5C5.3125 4.83424 5.37835 4.67527 5.49556 4.55806C5.61277 4.44085 5.77174 4.375 5.9375 4.375H13.4375C13.6033 4.375 13.7622 4.44085 13.8794 4.55806C13.9967 4.67527 14.0625 4.83424 14.0625 5V8.125C14.0625 8.29076 13.9967 8.44973 13.8794 8.56694C13.7622 8.68415 13.6033 8.75 13.4375 8.75H5.9375C5.77174 8.75 5.61277 8.68415 5.49556 8.56694C5.37835 8.44973 5.3125 8.29076 5.3125 8.125Z" fill="#88B6FF"/>
<path d="M15.8086 8.20313L16.228 8.66625C16.5295 8.40432 16.7713 8.08071 16.937 7.71729C17.1027 7.35387 17.1885 6.9591 17.1885 6.55969C17.1885 6.16027 17.1027 5.76551 16.937 5.40209C16.7713 5.03866 16.5295 4.71505 16.228 4.45312L15.8086 4.91625C16.0454 5.11964 16.2354 5.3718 16.3657 5.65545C16.4959 5.9391 16.5634 6.24755 16.5634 6.55969C16.5634 6.87182 16.4959 7.18028 16.3657 7.46393C16.2354 7.74758 16.0454 7.99973 15.8086 8.20313Z" fill="#88B6FF"/>
<path d="M15.5266 7.73156C15.6898 7.58421 15.8203 7.40425 15.9096 7.2033C15.9989 7.00235 16.0451 6.7849 16.0451 6.565C16.0451 6.3451 15.9989 6.12765 15.9096 5.9267C15.8203 5.72575 15.6898 5.54579 15.5266 5.39844L15.1016 5.85656C15.2018 5.94538 15.282 6.05445 15.337 6.17657C15.3919 6.29869 15.4204 6.43108 15.4204 6.565C15.4204 6.69892 15.3919 6.83131 15.337 6.95343C15.282 7.07555 15.2018 7.18462 15.1016 7.27344L15.5266 7.73156Z" fill="#88B6FF"/>
<path d="M3.56737 4.91625L3.14799 4.45312C2.84645 4.71505 2.60466 5.03866 2.43895 5.40209C2.27325 5.76551 2.1875 6.16027 2.1875 6.55969C2.1875 6.9591 2.27325 7.35387 2.43895 7.71729C2.60466 8.08071 2.84645 8.40432 3.14799 8.66625L3.56737 8.20313C3.3306 7.99973 3.14057 7.74758 3.0103 7.46393C2.88003 7.18028 2.81258 6.87182 2.81258 6.55969C2.81258 6.24755 2.88003 5.9391 3.0103 5.65545C3.14057 5.3718 3.3306 5.11964 3.56737 4.91625Z" fill="#88B6FF"/>
<path d="M3.85053 5.39844C3.6873 5.54579 3.55681 5.72575 3.46749 5.9267C3.37818 6.12765 3.33203 6.3451 3.33203 6.565C3.33203 6.7849 3.37818 7.00235 3.46749 7.2033C3.55681 7.40425 3.6873 7.58421 3.85053 7.73156L4.27616 7.27344C4.17593 7.18462 4.09569 7.07555 4.04073 6.95343C3.98578 6.83131 3.95737 6.69892 3.95737 6.565C3.95737 6.43108 3.98578 6.29869 4.04073 6.17657C4.09569 6.05445 4.17593 5.94538 4.27616 5.85656L3.85053 5.39844Z" fill="#88B6FF"/>
</svg>
