<svg width="30" height="30" viewBox="0 0 30 30" fill="none" xmlns="http://www.w3.org/2000/svg">
<path d="M6.49999 12.9922C6.22401 12.9922 6 13.2162 6 13.4922V16.4922C6 16.7682 6.22401 16.9922 6.49999 16.9922C6.77597 16.9922 6.99998 16.7682 6.99998 16.4922V13.4922C7.00004 13.2162 6.77603 12.9922 6.49999 12.9922Z" fill="#88B6FF"/>
<path d="M6.55414 0.133662L1.82652 2.02523C0.495011 2.51824 0 3.18728 0 4.49377V25.4987C0 26.8053 0.495011 27.4743 1.81404 27.9633L6.56364 29.8634C6.79866 29.9524 7.03462 29.9974 7.26566 29.9974C8.27069 29.9974 9.00019 29.1574 9.00019 27.9998V1.99376C9.00019 0.571718 7.86615 -0.360294 6.55414 0.133662ZM8.00015 27.9998C8.00015 28.5963 7.70513 28.9973 7.26566 28.9973C7.15615 28.9973 7.03814 28.9738 6.92564 28.9318L2.17405 27.0303C1.23055 26.6808 1.00004 26.3798 1.00004 25.4987V4.49377C1.00004 3.61274 1.23055 3.31227 2.18606 2.95823L6.91614 1.0662C7.03814 1.0202 7.15562 0.996708 7.26514 0.996708C7.70466 0.996708 8.00015 1.3972 8.00015 1.99376V27.9998Z" fill="#88B6FF"/>
<path d="M10.4375 2.99223H17.5001C18.3271 2.99223 19.0002 3.66525 19.0002 4.49226V11.9924C19.0002 12.2684 19.2236 12.4924 19.5001 12.4924C19.7767 12.4924 20.0001 12.2684 20.0001 11.9924V4.49226C20.0001 3.11375 18.8786 1.99219 17.5001 1.99219H10.4375C10.1615 1.99219 9.9375 2.2162 9.9375 2.49218C9.9375 2.76816 10.1615 2.99223 10.4375 2.99223Z" fill="#88B6FF"/>
<path d="M19.5002 17.4922C19.2237 17.4922 19.0002 17.7162 19.0002 17.9922V25.4923C19.0002 26.3193 18.3272 26.9924 17.5002 26.9924H10.5C10.224 26.9924 10 27.2164 10 27.4924C10 27.7683 10.224 27.9924 10.5 27.9924H17.5002C18.8787 27.9924 20.0002 26.8708 20.0002 25.4923V17.9921C20.0002 17.7162 19.7767 17.4922 19.5002 17.4922Z" fill="#88B6FF"/>
<path d="M29.9619 14.8019C29.9364 14.7404 29.8999 14.6854 29.8534 14.6389L24.8537 9.63879C24.6582 9.44332 24.3422 9.44332 24.1467 9.63879C23.9512 9.83432 23.9512 10.1503 24.1467 10.3458L28.2933 14.4929H11.5C11.224 14.4929 11 14.7169 11 14.9929C11 15.2688 11.224 15.4928 11.5 15.4928H28.2934L24.1467 19.6395C23.9512 19.835 23.9512 20.151 24.1467 20.3465C24.2442 20.444 24.3723 20.493 24.5002 20.493C24.6283 20.493 24.7562 20.444 24.8537 20.3465L29.8534 15.3469C29.8999 15.3004 29.9364 15.2454 29.9619 15.1839C30.0124 15.0619 30.0124 14.9239 29.9619 14.8019Z" fill="#88B6FF"/>
</svg>
