<svg width="20" height="17" viewBox="0 0 20 17" fill="none" xmlns="http://www.w3.org/2000/svg">
<path d="M17.0508 2.52055C15.1649 0.940469 12.6608 0.0703125 9.99998 0.0703125C7.33912 0.0703125 4.8351 0.940469 2.94916 2.52055C1.04737 4.11395 2.25877e-05 6.23715 2.25877e-05 8.49906C2.25877e-05 9.95859 0.447913 11.3917 1.2969 12.6538L0.015882 16.517C-0.024079 16.6375 0.0129132 16.7704 0.109476 16.8529C0.167288 16.9023 0.239593 16.9278 0.312562 16.9278C0.361429 16.9278 0.410609 16.9164 0.455882 16.893L3.84479 15.143C5.59405 16.2952 7.7717 16.9278 9.99998 16.9278C12.661 16.9278 15.165 16.0577 17.0508 14.4779C18.9526 12.8847 20 10.7614 20 8.49906C20 6.23719 18.9526 4.11395 17.0508 2.52055ZM9.99998 16.3028C7.83006 16.3028 5.71436 15.6707 4.04256 14.5229C3.98955 14.4865 3.92772 14.468 3.86565 14.468C3.81662 14.468 3.76744 14.4796 3.72229 14.5029L0.850452 15.9858L1.93897 12.7031C1.97006 12.6093 1.95494 12.5063 1.89819 12.4254C1.06526 11.2377 0.625023 9.88 0.625023 8.49906C0.625023 4.19605 4.83065 0.695312 10 0.695312C15.1694 0.695312 19.375 4.19605 19.375 8.49906C19.375 12.8021 15.1694 16.3028 9.99998 16.3028ZM9.99998 7.04387C9.19756 7.04387 8.54475 7.69664 8.54475 8.49906C8.54475 9.30207 9.19756 9.95539 9.99998 9.95539C10.803 9.95539 11.4563 9.30207 11.4563 8.49906C11.4563 7.69664 10.803 7.04387 9.99998 7.04387ZM9.99998 9.33035C9.54217 9.33035 9.16975 8.95742 9.16975 8.49902C9.16975 8.04125 9.54217 7.66883 9.99998 7.66883C10.4583 7.66883 10.8313 8.04125 10.8313 8.49902C10.8313 8.95746 10.4584 9.33035 9.99998 9.33035ZM14.4246 7.04387C13.6222 7.04387 12.9694 7.69664 12.9694 8.49906C12.9694 9.30207 13.6222 9.95539 14.4246 9.95539C15.2276 9.95539 15.8809 9.30207 15.8809 8.49906C15.8809 7.69664 15.2276 7.04387 14.4246 7.04387ZM14.4246 9.33035C13.9669 9.33035 13.5944 8.95742 13.5944 8.49902C13.5944 8.04125 13.9669 7.66883 14.4246 7.66883C14.883 7.66883 15.2559 8.04125 15.2559 8.49902C15.2559 8.95746 14.883 9.33035 14.4246 9.33035ZM5.57534 7.04387C4.77233 7.04387 4.11905 7.69664 4.11905 8.49906C4.11905 9.30207 4.77237 9.95539 5.57534 9.95539C6.3783 9.95539 7.03162 9.30207 7.03162 8.49906C7.03162 7.69664 6.37834 7.04387 5.57534 7.04387ZM5.57534 9.33035C5.11698 9.33035 4.74405 8.95742 4.74405 8.49902C4.74405 8.04125 5.11698 7.66883 5.57534 7.66883C6.03369 7.66883 6.40662 8.04129 6.40662 8.49906C6.40662 8.95746 6.03369 9.33035 5.57534 9.33035Z" fill="#1877F2"/>
<path d="M14.4239 7.66797C13.9662 7.66797 13.5938 8.04039 13.5938 8.49816C13.5938 8.95656 13.9662 9.32949 14.4239 9.32949C14.8823 9.32949 15.2552 8.95656 15.2552 8.49816C15.2552 8.04039 14.8823 7.66797 14.4239 7.66797Z" fill="#9BC9FF"/>
<path d="M9.99816 7.66797C9.54039 7.66797 9.16797 8.04039 9.16797 8.49816C9.16797 8.95656 9.54039 9.32949 9.99816 9.32949C10.4565 9.32949 10.8295 8.95656 10.8295 8.49816C10.8295 8.04039 10.4565 7.66797 9.99816 7.66797Z" fill="#9BC9FF"/>
<path d="M5.57348 7.66797C5.11512 7.66797 4.74219 8.04039 4.74219 8.49816C4.74219 8.95656 5.11512 9.32949 5.57348 9.32949C6.03184 9.32949 6.40477 8.95656 6.40477 8.49816C6.40477 8.04039 6.03184 7.66797 5.57348 7.66797Z" fill="#9BC9FF"/>
</svg>
