<svg width="20" height="20" viewBox="0 0 20 20" fill="none" xmlns="http://www.w3.org/2000/svg">
<path d="M19.9598 11.1754L19.4107 11.857C19.1345 12.1999 18.9945 12.6309 19.0164 13.0706L19.06 13.9448C19.1171 15.0914 18.3544 16.1412 17.2463 16.4411L16.4014 16.6698C15.9764 16.7848 15.6098 17.0512 15.369 17.4199L14.8905 18.1527C14.2631 19.1135 13.029 19.515 11.9559 19.1062L11.138 18.7946C10.7265 18.6379 10.2734 18.6379 9.8619 18.7946L9.04399 19.1062C7.97119 19.5149 6.73703 19.1139 6.1094 18.1527L5.63087 17.4199C5.39015 17.0512 5.02351 16.7848 4.59846 16.6698L3.75358 16.4411C2.64551 16.1412 1.88275 15.0913 1.93994 13.9448C1.94911 13.7609 2.1063 13.619 2.28962 13.6284C2.47357 13.6376 2.61525 13.7941 2.60608 13.9781C2.5644 14.8137 3.12029 15.5788 3.92786 15.7974L4.77274 16.0261C5.35589 16.1839 5.85901 16.5494 6.18931 17.0553L6.66783 17.7881C7.12531 18.4886 8.02479 18.7809 8.80656 18.483L9.62447 18.1714C10.189 17.9563 10.8109 17.9563 11.3754 18.1714L12.1933 18.483C12.9753 18.7808 13.8747 18.4886 14.3321 17.7881L14.8106 17.0553C15.141 16.5494 15.644 16.1839 16.2272 16.0261L17.0721 15.7974C17.8796 15.5788 18.4355 14.8137 18.3939 13.9781L18.3503 13.1039C18.3202 12.5005 18.5124 11.9091 18.8913 11.4386L19.4404 10.757C19.9653 10.1055 19.9653 9.15978 19.4404 8.50823L18.8913 7.82662C18.5123 7.3561 18.3202 6.7647 18.3503 6.16133L18.3939 5.28715C18.4355 4.45156 17.8796 3.68642 17.0721 3.46784L16.2272 3.23916C15.644 3.08131 15.1409 2.71583 14.8106 2.20996L14.3321 1.47712C13.8746 0.776593 12.9751 0.484434 12.1933 0.78222L11.3754 1.0938C10.8109 1.30889 10.189 1.30889 9.62447 1.0938L8.80656 0.78222C8.02479 0.484392 7.12526 0.776634 6.66783 1.47716L6.18931 2.21C5.85901 2.71583 5.35589 3.08135 4.77274 3.2392L3.92786 3.46788C3.12025 3.68646 2.5644 4.4516 2.60608 5.28719L2.64964 6.16137C2.67974 6.76474 2.48758 7.35614 2.10859 7.82662L1.5595 8.50823C1.03466 9.15974 1.03466 10.1055 1.5595 10.757L2.10859 11.4386C2.2241 11.582 2.2015 11.792 2.05811 11.9075C1.91476 12.023 1.7048 12.0005 1.58922 11.857L1.04012 11.1754C0.319959 10.2814 0.319959 8.98375 1.04012 8.08981L1.58922 7.4082C1.86545 7.06532 2.00547 6.63431 1.98354 6.19455L1.93998 5.32037C1.88279 4.17387 2.64556 3.12399 3.75362 2.82408L4.5985 2.5954C5.02355 2.48036 5.39019 2.214 5.63092 1.84531L6.10944 1.11248C6.73711 0.151301 7.97131 -0.249693 9.04403 0.158971L9.86194 0.470554C10.2734 0.627325 10.7266 0.627325 11.1381 0.470554L11.956 0.158971C13.0287 -0.249693 14.2629 0.151259 14.8905 1.11248L15.3691 1.84531C15.6098 2.21396 15.9764 2.48036 16.4015 2.5954L17.2464 2.82408C18.3544 3.12399 19.1172 4.17383 19.06 5.32037L19.0164 6.19455C18.9945 6.63431 19.1346 7.06532 19.4108 7.4082L19.9599 8.08977C20.6801 8.98375 20.6801 10.2814 19.9598 11.1754ZM8.16572 10.9665V8.29873C8.16572 8.11457 8.01641 7.96526 7.83226 7.96526C7.6481 7.96526 7.49879 8.11457 7.49879 8.29873V9.96606L6.09823 8.09865C5.90674 7.84329 5.49799 7.97885 5.49799 8.29873V10.9665C5.49799 11.1506 5.6473 11.2999 5.83145 11.2999C6.01561 11.2999 6.16492 11.1506 6.16492 10.9665V9.29913L7.56548 11.1665C7.75672 11.4216 8.16572 11.2865 8.16572 10.9665ZM11.1669 8.63219C11.3511 8.63219 11.5004 8.48288 11.5004 8.29873C11.5004 8.11457 11.3511 7.96526 11.1669 7.96526H9.16612C8.98197 7.96526 8.83266 8.11457 8.83266 8.29873V10.9665C8.83266 11.1506 8.98197 11.2999 9.16612 11.2999H11.1669C11.3511 11.2999 11.5004 11.1506 11.5004 10.9665C11.5004 10.7823 11.3511 10.633 11.1669 10.633H9.49959V9.96606H10.5C10.6841 9.96606 10.8335 9.81675 10.8335 9.63259C10.8335 9.44844 10.6841 9.29913 10.5 9.29913H9.49959V8.63219H11.1669ZM14.5626 11.1587C14.7377 11.4068 15.1282 11.3094 15.166 11.0078L15.4994 8.34008C15.5223 8.15734 15.3926 7.99069 15.2099 7.96784C15.0271 7.94504 14.8605 8.07464 14.8376 8.25738L14.611 10.0707L14.1071 9.3569C13.9745 9.16912 13.6951 9.16862 13.5622 9.3569L13.0583 10.0707L12.8317 8.25738C12.8088 8.07464 12.6428 7.94504 12.4594 7.96784C12.2767 7.99069 12.147 8.15734 12.1699 8.34008L12.5033 11.0078C12.5411 11.3093 12.9314 11.407 13.1067 11.1587L13.8347 10.1275L14.5626 11.1587ZM17.5445 9.63259C17.5445 5.74825 14.3843 2.58811 10.5 2.58811C6.61564 2.58811 3.4555 5.74825 3.4555 9.63259C3.4555 13.5169 6.61564 16.6771 10.5 16.6771C12.7828 16.6771 14.9338 15.5631 16.2542 13.6973C16.3606 13.547 16.3249 13.3389 16.1746 13.2324C16.0243 13.1261 15.8161 13.1617 15.7098 13.312C14.5143 15.0015 12.5667 16.0101 10.5 16.0101C6.98346 16.0101 4.12248 13.1492 4.12248 9.63255C4.12248 6.11594 6.98346 3.255 10.5 3.255C14.0166 3.255 16.8776 6.11598 16.8776 9.63255C16.8776 9.81671 17.0269 9.96602 17.211 9.96602C17.3952 9.96602 17.5445 9.81675 17.5445 9.63259ZM16.4527 11.9266C16.4415 11.9555 16.4302 11.9843 16.4186 12.013C16.3297 12.2334 16.4934 12.4713 16.7277 12.4713C16.8597 12.4713 16.9847 12.3924 17.0371 12.2624C17.05 12.2306 17.0625 12.1986 17.0749 12.1666C17.1412 11.9947 17.0556 11.8017 16.8838 11.7354C16.712 11.6692 16.5189 11.7547 16.4527 11.9266ZM7.99899 13.4675H13.001C13.1851 13.4675 13.3345 13.3181 13.3345 13.134C13.3345 12.9498 13.1851 12.8005 13.001 12.8005H7.99899C7.81483 12.8005 7.66552 12.9498 7.66552 13.134C7.66552 13.3181 7.81479 13.4675 7.99899 13.4675Z" fill="#88B6FF"/>
</svg>
