<svg width="28" height="30" viewBox="0 0 28 30" fill="none" xmlns="http://www.w3.org/2000/svg">
<path d="M26.8744 13.125C26.5294 13.125 26.2494 12.845 26.2494 12.5C26.2494 8.8275 24.8194 5.37375 22.2219 2.7775C21.9781 2.53375 21.9781 2.1375 22.2219 1.89375C22.4656 1.65 22.8619 1.65 23.1056 1.89375C25.9394 4.72625 27.4994 8.4925 27.4994 12.5C27.4994 12.845 27.2194 13.125 26.8744 13.125Z" fill="#88B6FF"/>
<path d="M0.625 13.125C0.28 13.125 0 12.845 0 12.5C0 8.4925 1.56 4.72625 4.39375 1.89375C4.6375 1.65 5.03375 1.65 5.2775 1.89375C5.52125 2.1375 5.52125 2.53375 5.2775 2.7775C2.68 5.37375 1.25 8.8275 1.25 12.5C1.25 12.845 0.97 13.125 0.625 13.125Z" fill="#88B6FF"/>
<path d="M15.625 5.225C15.28 5.225 15 4.945 15 4.6V2.5C15 1.81125 14.4388 1.25 13.75 1.25C13.0612 1.25 12.5 1.81125 12.5 2.5V4.6C12.5 4.945 12.22 5.225 11.875 5.225C11.53 5.225 11.25 4.94625 11.25 4.6V2.5C11.25 1.12125 12.3712 0 13.75 0C15.1288 0 16.25 1.12125 16.25 2.5V4.6C16.25 4.94625 15.97 5.225 15.625 5.225Z" fill="#88B6FF"/>
<path d="M13.75 30.0039C11.3375 30.0039 9.375 28.0414 9.375 25.6289C9.375 25.2839 9.655 25.0039 10 25.0039C10.345 25.0039 10.625 25.2839 10.625 25.6289C10.625 27.3514 12.0275 28.7539 13.75 28.7539C15.4725 28.7539 16.875 27.3514 16.875 25.6289C16.875 25.2839 17.155 25.0039 17.5 25.0039C17.845 25.0039 18.125 25.2839 18.125 25.6289C18.125 28.0414 16.1625 30.0039 13.75 30.0039Z" fill="#88B6FF"/>
<path d="M24.375 26.25H3.125C2.09125 26.25 1.25 25.4088 1.25 24.375C1.25 23.8263 1.48875 23.3075 1.90625 22.95C3.87625 21.285 5 18.8625 5 16.2975V12.5C5 7.675 8.925 3.75 13.75 3.75C18.575 3.75 22.5 7.675 22.5 12.5V16.2975C22.5 18.8638 23.6238 21.285 25.5838 22.9412C26.0113 23.3075 26.25 23.8263 26.25 24.375C26.25 25.4088 25.41 26.25 24.375 26.25ZM13.75 5C9.61375 5 6.25 8.36375 6.25 12.5V16.2975C6.25 19.2325 4.965 22.0013 2.72375 23.8963C2.58 24.0188 2.5 24.1925 2.5 24.375C2.5 24.72 2.78 25 3.125 25H24.375C24.72 25 25 24.72 25 24.375C25 24.1925 24.92 24.0188 24.7813 23.9C22.5363 22.0013 21.25 19.2312 21.25 16.2975V12.5C21.25 8.36375 17.8863 5 13.75 5Z" fill="#88B6FF"/>
</svg>
