<svg width="30" height="30" viewBox="0 0 30 30" fill="none" xmlns="http://www.w3.org/2000/svg">
<path d="M15 22.5C16.8142 22.5 18.3275 23.7882 18.675 25.4999L30 25.5V27L18.6748 27.0009C18.327 28.7121 16.8139 30 15 30C13.1861 30 11.673 28.7121 11.3252 27.0009L0 27V25.5L11.325 25.4999C11.6725 23.7882 13.1858 22.5 15 22.5ZM7.5 0C9.31417 0 10.8275 1.28825 11.175 2.99986L30 3V4.5L11.1748 4.50089C10.827 6.21213 9.3139 7.5 7.5 7.5C5.6861 7.5 4.17299 6.21213 3.82519 4.50089L0 4.5V3L3.82504 2.99986C4.17255 1.28825 5.68583 0 7.5 0Z" fill="#88B6FF"/>
<path d="M22.5 11.25C24.3142 11.25 25.8275 12.5382 26.175 14.2499L30 14.25V15.75L26.1748 15.7509C25.827 17.4621 24.3139 18.75 22.5 18.75C20.6861 18.75 19.173 17.4621 18.8252 15.7509L0 15.75V14.25L18.825 14.2499C19.1725 12.5382 20.6858 11.25 22.5 11.25Z" fill="#88B6FF"/>
</svg>
