<svg width="23" height="16" viewBox="0 0 23 16" fill="none" xmlns="http://www.w3.org/2000/svg">
<path d="M0 5.94067H2.99601V10.0591H0V5.94067Z" fill="#8A92AB"/>
<path d="M13.2593 8.00004C13.2593 7.08427 12.6378 6.30618 11.7811 6.03931V9.96081C12.6378 9.6939 13.2593 8.91581 13.2593 8.00004Z" fill="#8A92AB"/>
<path d="M19.2866 5.94067H22.2581V10.0591H19.2866V5.94067Z" fill="#8A92AB"/>
<path d="M8.99872 8.00008C8.99872 8.91585 9.62025 9.69394 10.4769 9.96081V6.03931C9.62025 6.30622 8.99872 7.08431 8.99872 8.00008Z" fill="#8A92AB"/>
<path d="M17.9824 11.32V4.67993H22.2581V0.5H11.7811V4.73981C13.3641 5.03514 14.5635 6.38471 14.5635 8.00002C14.5635 9.61533 13.3641 10.9649 11.7811 11.2602V15.5H22.2581V11.32H17.9824Z" fill="#8A92AB"/>
<path d="M10.4769 11.2602C8.89392 10.9649 7.69455 9.61529 7.69455 7.99998C7.69455 6.38467 8.89392 5.0351 10.4769 4.73977V0.5H0V4.67997H4.3002V11.32H0V15.5H10.4769V11.2602Z" fill="#8A92AB"/>
</svg>
