<svg width="15" height="19" viewBox="0 0 15 19" fill="none" xmlns="http://www.w3.org/2000/svg">
<path d="M13.2439 7.0036C13.2331 6.98549 13.2211 6.96812 13.2079 6.9516C10.8999 4.1696 10.8999 0.445599 10.8999 0.403599C10.9006 0.329642 10.8808 0.256949 10.8426 0.193597C10.8044 0.130244 10.7494 0.0787131 10.6838 0.0447288C10.6181 0.0107445 10.5442 -0.00436206 10.4705 0.00108746C10.3967 0.00653698 10.3259 0.0323293 10.2659 0.0755985C6.22594 2.9856 4.98394 6.7436 4.62994 8.2756C3.84594 7.4036 3.69994 5.8956 3.69994 5.8776C3.69376 5.80478 3.66775 5.73505 3.62474 5.67597C3.58172 5.61689 3.52334 5.57073 3.45594 5.54249C3.38854 5.51425 3.31469 5.50502 3.24241 5.51579C3.17013 5.52656 3.10218 5.55693 3.04594 5.6036C2.11125 6.37454 1.39266 7.37489 0.960478 8.5068C0.528292 9.63871 0.397304 10.8634 0.580327 12.0611C0.763349 13.2588 1.25411 14.3885 2.00462 15.3397C2.75512 16.2909 3.73967 17.031 4.86194 17.4876C5.19893 17.6247 5.54595 17.7357 5.89994 17.8196C7.3116 18.1501 8.79105 18.0341 10.1339 17.4876C11.4259 16.9664 12.5323 16.0702 13.3104 14.9146C14.0886 13.7589 14.5029 12.3968 14.4999 11.0036C14.4999 9.4136 14.0999 8.1396 13.2439 7.0036ZM8.62194 16.9836C8.47782 17.0423 8.32938 17.0898 8.17794 17.1256C7.95544 17.1761 7.7281 17.2023 7.49994 17.2036C7.27446 17.2017 7.04983 17.1756 6.82994 17.1256C6.67924 17.0895 6.53149 17.042 6.38794 16.9836C5.96524 16.8116 5.58774 16.5448 5.28464 16.2036C4.98154 15.8625 4.76095 15.4562 4.63993 15.0162C4.51891 14.5762 4.5007 14.1143 4.58671 13.6661C4.67272 13.2179 4.86064 12.7955 5.13594 12.4316C5.27468 12.8942 5.57489 13.2917 5.98194 13.5516C6.03942 13.5853 6.10441 13.6042 6.17102 13.6064C6.23763 13.6087 6.30375 13.5942 6.36336 13.5644C6.42297 13.5346 6.47419 13.4904 6.51236 13.4358C6.55054 13.3811 6.57445 13.3178 6.58194 13.2516C6.86208 11.8281 7.60708 10.5379 8.69994 9.5836C8.84306 10.6521 9.26908 11.663 9.93394 12.5116C9.93303 12.5162 9.93303 12.521 9.93394 12.5256C10.3035 13.014 10.4915 13.6157 10.4659 14.2276C10.4683 14.8185 10.294 15.3965 9.96541 15.8876C9.63684 16.3787 9.169 16.7603 8.62194 16.9836ZM10.6219 16.3616C11.0516 15.733 11.281 14.989 11.2799 14.2276C11.3048 13.4519 11.065 12.6909 10.5999 12.0696C10.5923 12.0541 10.5821 12.0399 10.5699 12.0276C9.43394 10.6636 9.43394 8.8276 9.43394 8.8076C9.43434 8.73397 9.41441 8.66167 9.37634 8.59864C9.33828 8.53562 9.28356 8.48432 9.21821 8.45041C9.15286 8.41649 9.07941 8.40127 9.00597 8.40642C8.93252 8.41157 8.86192 8.43689 8.80194 8.4796C7.45744 9.42814 6.45951 10.7898 5.95994 12.3576C5.85337 12.113 5.78588 11.8532 5.75994 11.5876C5.75456 11.5137 5.72874 11.4427 5.68538 11.3826C5.64202 11.3225 5.58281 11.2757 5.51437 11.2472C5.44592 11.2188 5.37093 11.21 5.29775 11.2217C5.22458 11.2334 5.15609 11.2652 5.09994 11.3136C4.37329 11.9147 3.89729 12.7655 3.76521 13.6993C3.63314 14.6331 3.85451 15.5825 4.38594 16.3616C3.57446 15.8893 2.88085 15.2388 2.35745 14.4593C1.83405 13.6798 1.49454 12.7915 1.36453 11.8616C1.23452 10.9318 1.31742 9.98448 1.60695 9.0913C1.89649 8.19812 2.38511 7.38237 3.03594 6.7056C3.22594 7.5156 3.67594 8.7616 4.70594 9.3516C4.76341 9.38535 4.82841 9.4042 4.89502 9.40644C4.96163 9.40868 5.02775 9.39424 5.08736 9.36443C5.14697 9.33463 5.19819 9.2904 5.23636 9.23577C5.27454 9.18113 5.29845 9.11783 5.30594 9.0516C5.30594 9.0056 5.90594 4.5816 10.1459 1.1796C10.2639 2.4896 10.7299 5.1916 12.5719 7.4236L12.5879 7.4476C13.3539 8.4656 13.6999 9.5616 13.6999 11.0036C13.7024 12.0888 13.4188 13.1554 12.8777 14.0961C12.3367 15.0367 11.5572 15.8181 10.6179 16.3616H10.6219Z" fill="#88B6FF"/>
</svg>
