<svg width="30" height="30" viewBox="0 0 30 30" fill="none" xmlns="http://www.w3.org/2000/svg">
<path d="M25.1607 6.84047C25.2402 6.84047 25.3208 6.82022 25.3946 6.77759L28.3116 5.09353C28.5358 4.96404 28.6126 4.67737 28.4832 4.45318C28.3538 4.22899 28.0671 4.1522 27.8429 4.28163L24.9259 5.96569C24.7017 6.09518 24.6248 6.38185 24.7543 6.60604C24.8411 6.75641 24.9987 6.84047 25.1607 6.84047Z" fill="#88B6FF"/>
<path d="M22.5194 4.17512C22.5601 4.18599 22.6009 4.1912 22.641 4.1912C22.848 4.1912 23.0374 4.05307 23.0935 3.84364L23.9653 0.590141C24.0323 0.340087 23.8839 0.0830529 23.6338 0.0160478C23.3839 -0.0508429 23.1268 0.0974725 23.0597 0.347526L22.188 3.60102C22.121 3.85108 22.2694 4.10811 22.5194 4.17512Z" fill="#88B6FF"/>
<path d="M29.5703 10.2941L26.3168 9.4223C26.0667 9.35541 25.8097 9.50372 25.7427 9.75378C25.6756 10.0038 25.824 10.2609 26.0741 10.3279L29.3276 11.1997C29.3683 11.2106 29.4091 11.2158 29.4492 11.2158C29.6562 11.2158 29.8456 11.0776 29.9017 10.8682C29.9687 10.6181 29.8203 10.3611 29.5703 10.2941Z" fill="#88B6FF"/>
<path d="M29.0065 20.6041C28.841 20.3952 28.756 20.1336 28.7672 19.8674L28.7965 19.169C28.8366 18.2131 28.221 17.3663 27.2994 17.1096L26.6269 16.9223C26.3695 16.8506 26.1464 16.6885 25.9989 16.4658L25.6144 15.8857C25.2906 15.3972 24.792 15.0868 24.2483 14.9957L23.28 13.3185C23.5589 12.8569 23.7749 12.3536 23.9184 11.8182C24.3191 10.3226 24.1135 8.76045 23.3393 7.41954C22.5651 6.07858 21.3151 5.11939 19.8194 4.71868C19.2838 4.57516 18.7397 4.50981 18.2003 4.52015L16.2086 1.07053C15.6741 0.144819 14.4862 -0.17367 13.5605 0.360998L12.7119 0.85092C12.0616 1.22637 11.7116 1.92435 11.7459 2.62736C11.7106 2.69652 11.692 2.77496 11.6949 2.85673C11.7602 4.72801 11.4125 6.27759 10.6318 7.59401C9.95628 8.73298 8.94975 9.6988 7.55477 10.5464L2.5739 13.4221C1.71376 13.9187 1.37852 14.9793 1.76398 15.8697L1.7341 15.887C0.0772833 16.8435 -0.492404 18.9697 0.464151 20.6265C1.10608 21.7383 2.27469 22.3605 3.47478 22.3605C4.06295 22.3605 4.65873 22.2111 5.20369 21.8964L5.23398 21.879C5.60758 22.3821 6.19253 22.661 6.79222 22.661C7.12086 22.6609 7.45374 22.5774 7.75824 22.4016L7.77657 22.391L10.543 27.1826C10.8019 27.6311 11.2199 27.9518 11.7201 28.0859C11.8871 28.1306 12.0566 28.1527 12.225 28.1527C12.5609 28.1527 12.8924 28.0646 13.1911 27.8922L13.6154 27.6472C14.0639 27.3883 14.3846 26.9703 14.5186 26.4701C14.6527 25.97 14.5839 25.4476 14.325 24.9992L11.5585 20.2075L12.7391 19.5259C13.6383 19.0336 14.5834 18.7218 15.5603 18.5916C15.5152 18.7765 15.4948 18.9703 15.5031 19.1689L15.5324 19.8674C15.5436 20.1336 15.4586 20.3953 15.2931 20.6041L14.8585 21.1525C14.2648 21.9016 14.2648 22.9481 14.8585 23.6972L15.2931 24.2456C15.4586 24.4544 15.5436 24.7161 15.5324 24.9823L15.5031 25.6807C15.463 26.6366 16.0786 27.4834 17.0002 27.74L17.6728 27.9274C17.9301 27.9991 18.1532 28.1612 18.3008 28.3839L18.6852 28.964C19.2147 29.7628 20.2115 30.0865 21.1094 29.7514L21.7612 29.5081C22.0119 29.4145 22.2878 29.4145 22.5385 29.5081L23.1903 29.7514C23.4274 29.8399 23.6714 29.8825 23.9119 29.8825C24.582 29.8825 25.2248 29.5519 25.6144 28.964L25.9989 28.3839C26.1465 28.1612 26.3695 27.9991 26.6269 27.9274L27.2993 27.7401C28.221 27.4834 28.8366 26.6366 28.7965 25.6808L28.7672 24.9823C28.756 24.7161 28.841 24.4544 29.0065 24.2456L29.4411 23.6972H29.4412C30.0349 22.9481 30.0349 21.9016 29.4411 21.1525L29.0065 20.6041ZM13.6131 26.2275C13.5439 26.4858 13.3782 26.7016 13.1467 26.8354L12.7224 27.0803C12.4908 27.214 12.2211 27.2496 11.9627 27.1803C11.7045 27.1111 11.4886 26.9455 11.3549 26.7139L8.58848 21.9222L10.7466 20.6763L13.5131 25.4679C13.6468 25.6995 13.6823 25.9692 13.6131 26.2275ZM19.5768 5.62419C20.8305 5.96013 21.8784 6.7642 22.5274 7.88829C23.1763 9.01233 23.3487 10.3218 23.0128 11.5756C22.9397 11.8483 22.8438 12.1108 22.7277 12.3619L18.7532 5.47792C19.0287 5.50294 19.3041 5.55112 19.5768 5.62419ZM13.1807 1.66276L14.0293 1.1729C14.1865 1.08209 14.3583 1.03895 14.5281 1.03895C14.8743 1.03895 15.2115 1.2185 15.3967 1.53928L23.2191 15.0882C23.2095 15.0916 23.1999 15.0947 23.1903 15.0982L22.5384 15.3417C22.2878 15.4353 22.0118 15.4352 21.7612 15.3416L21.1094 15.0983C20.6617 14.9311 20.1895 14.9278 19.7629 15.0656L16.4523 9.33148L12.8142 3.03022C12.5383 2.5522 12.7027 1.93878 13.1807 1.66276ZM11.4381 8.0722C12.064 7.01688 12.442 5.83797 12.5802 4.49987L18.9609 15.5514C18.8593 15.6512 18.7667 15.7628 18.6852 15.8857L18.3008 16.4658C18.1532 16.6885 17.9301 16.8506 17.6727 16.9223L17.0003 17.1096C16.6658 17.2028 16.3719 17.3739 16.1348 17.5995C14.9384 17.6616 13.7893 17.9609 12.692 18.4963L8.42464 11.105C9.75796 10.2325 10.7471 9.23749 11.4381 8.0722ZM1.27605 20.1577C0.577962 18.9486 0.993726 17.397 2.20285 16.6989L2.22119 16.6883L4.75328 21.0739L4.73494 21.0845C3.52582 21.7827 1.97417 21.3669 1.27605 20.1577ZM5.92204 21.2233L2.67624 15.6014C2.40026 15.1234 2.56463 14.51 3.04265 14.234L7.62213 11.59L11.869 18.9457L7.28949 21.5897C6.81147 21.8657 6.19804 21.7013 5.92204 21.2233ZM28.7064 23.1149H28.7064L28.2718 23.6633C27.9667 24.0483 27.81 24.5307 27.8305 25.0216L27.8598 25.7201C27.8816 26.2384 27.5477 26.6977 27.0478 26.837L26.3754 27.0242C25.9008 27.1564 25.4896 27.4553 25.2174 27.866L24.8329 28.4461C24.5458 28.8794 24.0051 29.0549 23.5182 28.8731L22.8663 28.6297C22.6353 28.5435 22.3926 28.5004 22.1498 28.5004C21.9071 28.5004 21.6643 28.5435 21.4333 28.6297L20.7814 28.8731C20.2945 29.0552 19.7539 28.8793 19.4667 28.4461L19.0822 27.866C18.81 27.4553 18.3988 27.1564 17.9243 27.0243L17.2518 26.8369C16.7519 26.6977 16.418 26.2384 16.4398 25.72L16.4691 25.0216C16.4897 24.5307 16.333 24.0483 16.0278 23.6633L15.5932 23.1149C15.2712 22.7086 15.2712 22.1411 15.5932 21.7348L16.0278 21.1864C16.333 20.8014 16.4897 20.319 16.4691 19.8281L16.4398 19.1296C16.418 18.6112 16.7519 18.1519 17.2518 18.0128L17.9243 17.8255C18.3989 17.6932 18.8101 17.3943 19.0822 16.9838L19.4667 16.4036C19.7538 15.9703 20.2944 15.7947 20.7814 15.9766L21.4332 16.2199C21.8953 16.3924 22.4043 16.3923 22.8664 16.2199L23.5182 15.9765C24.0051 15.7948 24.5458 15.9703 24.8329 16.4037L25.2174 16.9838C25.4895 17.3943 25.9008 17.6932 26.3754 17.8255L27.0479 18.0128C27.5477 18.1519 27.8816 18.6112 27.8598 19.1297L27.8305 19.8281C27.81 20.319 27.9667 20.8013 28.2718 21.1863L28.7064 21.7347C29.0284 22.1411 29.0284 22.7086 28.7064 23.1149Z" fill="#88B6FF"/>
<path d="M20.8286 21.1059C20.8286 21.1059 20.8286 21.1059 20.8286 21.1059C21.1309 20.8036 21.2973 20.4018 21.2973 19.9744C21.2973 19.547 21.1309 19.1451 20.8286 18.8429C20.2047 18.219 19.1895 18.219 18.5656 18.8429C17.9417 19.4668 17.9417 20.482 18.5656 21.1059C18.8678 21.4082 19.2697 21.5746 19.6971 21.5746C20.1245 21.5746 20.5264 21.4082 20.8286 21.1059ZM19.2285 19.5058C19.3577 19.3766 19.5274 19.312 19.6971 19.312C19.8668 19.312 20.0365 19.3766 20.1657 19.5058C20.2909 19.631 20.3598 19.7974 20.3598 19.9744C20.3598 20.1514 20.2909 20.3178 20.1657 20.443L20.1657 20.443C20.0405 20.5682 19.8741 20.6371 19.6971 20.6371C19.5201 20.6371 19.3537 20.5682 19.2285 20.443C18.9701 20.1846 18.9701 19.7642 19.2285 19.5058Z" fill="#88B6FF"/>
<path d="M23.4687 23.7453C23.1665 24.0475 23 24.4494 23 24.8768C23 25.3043 23.1665 25.7061 23.4687 26.0084C23.7807 26.3203 24.1904 26.4763 24.6002 26.4763C25.01 26.4763 25.4198 26.3203 25.7317 26.0084C26.3557 25.3844 26.3557 24.3692 25.7317 23.7453C25.1078 23.1214 24.0926 23.1214 23.4687 23.7453ZM25.0688 25.3454C24.8105 25.6038 24.3901 25.6039 24.1316 25.3454C24.0065 25.2203 23.9375 25.0538 23.9375 24.8768C23.9375 24.6998 24.0065 24.5334 24.1316 24.4082C24.2608 24.279 24.4305 24.2144 24.6002 24.2144C24.7699 24.2144 24.9396 24.279 25.0688 24.4082C25.3272 24.6666 25.3272 25.0871 25.0688 25.3454Z" fill="#88B6FF"/>
<path d="M24.8294 19.7466C24.6464 19.5636 24.3496 19.5636 24.1665 19.7466L19.4693 24.4438C19.2863 24.6269 19.2863 24.9236 19.4693 25.1067C19.5609 25.1982 19.6808 25.244 19.8008 25.244C19.9208 25.244 20.0407 25.1982 20.1322 25.1067L24.8294 20.4096C25.0125 20.2265 25.0125 19.9297 24.8294 19.7466Z" fill="#88B6FF"/>
</svg>
