<svg width="20" height="20" viewBox="0 0 20 20" fill="none" xmlns="http://www.w3.org/2000/svg">
<path d="M12.0666 3.4647C11.5992 2.99736 11.0648 2.61252 10.4782 2.32088C10.3299 2.24716 10.15 2.30759 10.0763 2.45588C10.0026 2.60416 10.063 2.78408 10.2113 2.85779C10.7397 3.12045 11.2212 3.46728 11.6426 3.88869C13.773 6.01916 13.773 9.48572 11.6426 11.6162C10.6105 12.6483 9.23835 13.2166 7.77886 13.2166C6.31928 13.2166 4.94714 12.6483 3.9151 11.6162C2.88303 10.5842 2.31468 9.21197 2.31468 7.75244C2.31468 6.29291 2.88303 4.92072 3.9151 3.88869C4.53772 3.26607 5.27553 2.81525 6.10796 2.54873C6.90245 2.29439 7.75979 2.22498 8.5871 2.34798C8.75108 2.3724 8.90346 2.25931 8.92776 2.09552C8.95206 1.93173 8.83909 1.77923 8.6753 1.7549C7.75761 1.61845 6.80659 1.69545 5.92511 1.97767C5.01385 2.26939 4.17214 2.78361 3.49104 3.4647C2.34577 4.60998 1.71503 6.13271 1.71503 7.75244C1.71503 9.37217 2.34577 10.8949 3.49104 12.0402C4.63636 13.1855 6.15909 13.8162 7.77882 13.8162C9.39846 13.8162 10.9212 13.1855 12.0666 12.0402C14.4308 9.67588 14.4308 5.82896 12.0666 3.4647Z" fill="#88B6FF"/>
<path d="M19.5219 17.2388L14.2759 11.9929C15.2079 10.558 15.6409 8.83754 15.4977 7.11961C15.3457 5.29594 14.5485 3.57773 13.2531 2.28148C11.783 0.810586 9.83374 0.0003125 7.76424 0C7.76374 0 7.76354 0 7.76303 0C5.69405 0 3.74479 0.809687 2.27467 2.2798C-0.751577 5.30609 -0.751538 10.2302 2.27471 13.2564C3.57092 14.5527 5.28932 15.3504 7.11342 15.5027C8.83202 15.6461 10.5526 15.2133 11.9878 14.281L17.2338 19.5269C17.5492 19.8423 17.9635 20 18.3778 20C18.7921 20 19.2064 19.8423 19.5219 19.5269C20.1526 18.8961 20.1526 17.8696 19.5219 17.2388ZM19.0979 19.1029C18.7008 19.5 18.0548 19.4999 17.6577 19.1029L12.2373 13.6824C12.1793 13.6244 12.1025 13.5946 12.0252 13.5946C11.9656 13.5946 11.9056 13.6123 11.8538 13.6485C10.4928 14.5978 8.82737 15.044 7.16335 14.9052C5.48038 14.7646 3.89483 14.0286 2.69877 12.8325C-0.0937648 10.04 -0.0938038 5.49629 2.6987 2.70379C4.05565 1.34684 5.85409 0.599609 7.76303 0.599609C7.76338 0.599609 7.76381 0.599609 7.76417 0.599609C9.67346 0.599883 11.4722 1.34773 12.829 2.70535C14.0244 3.90145 14.76 5.48684 14.9002 7.16945C15.0386 8.82965 14.5941 10.492 13.6486 11.8513C13.4451 12.103 12.883 12.7764 12.6072 13.0155C12.4821 13.1239 12.4686 13.3133 12.5771 13.4384C12.6364 13.5068 12.7199 13.5418 12.8037 13.5418C12.8733 13.5418 12.9433 13.5177 13 13.4685C13.254 13.2482 13.6627 12.7731 13.9109 12.4759L19.0979 17.6628C19.4949 18.0598 19.4949 18.7059 19.0979 19.1029Z" fill="#88B6FF"/>
</svg>
