<svg width="16" height="16" viewBox="0 0 16 16" fill="none" xmlns="http://www.w3.org/2000/svg">
<path d="M8.45 15.5H7.05C6.57688 15.5 6.1775 15.1456 6.12125 14.675L5.97187 13.5025C5.67375 13.4056 5.38625 13.2863 5.11312 13.1469L4.17938 13.8725C3.80063 14.1656 3.2675 14.1319 2.93875 13.7938L1.95438 12.8094C1.61875 12.4837 1.585 11.9506 1.87812 11.5725L2.60375 10.6381C2.46375 10.365 2.34438 10.0775 2.24813 9.77938L1.07313 9.63C0.604375 9.5725 0.25 9.17313 0.25 8.7V7.3C0.25 6.82688 0.604375 6.4275 1.075 6.37125L2.2475 6.22187C2.34438 5.92375 2.46375 5.63625 2.60313 5.36312L1.87812 4.42938C1.58438 4.05063 1.61875 3.51688 1.9575 3.18813L2.94187 2.20375C3.2675 1.86813 3.80125 1.835 4.17875 2.1275L5.1125 2.85375C5.38563 2.71438 5.67312 2.595 5.97187 2.49813L6.12125 1.32313C6.1775 0.854375 6.57688 0.5 7.05 0.5H8.45C8.92313 0.5 9.3225 0.854375 9.37875 1.325L9.52812 2.4975C9.82687 2.59438 10.1144 2.71375 10.3875 2.85313L11.3213 2.1275C11.7006 1.83438 12.2331 1.86812 12.5619 2.20687L13.5463 3.19125C13.8819 3.51688 13.9156 4.05 13.6225 4.42812L12.8969 5.3625C13.0369 5.63563 13.1563 5.92313 13.2525 6.22125L14.4275 6.37062C14.8956 6.4275 15.25 6.82688 15.25 7.3V8.7C15.25 9.17313 14.8956 9.5725 14.425 9.62875L13.2525 9.77812C13.1556 10.0763 13.0363 10.3637 12.8969 10.6369L13.6225 11.5706C13.9163 11.9494 13.8819 12.4825 13.5431 12.8112L12.5588 13.7956C12.2331 14.1313 11.6994 14.1656 11.3219 13.8719L10.3875 13.1462C10.1144 13.2862 9.82687 13.4056 9.52875 13.5019L9.37938 14.6769C9.3225 15.1456 8.92313 15.5 8.45 15.5ZM5.08125 12.4625C5.13312 12.4625 5.18625 12.4756 5.23375 12.5019C5.57812 12.6944 5.95125 12.8494 6.3425 12.9619C6.4625 12.9962 6.55062 13.0988 6.56625 13.2225L6.74125 14.5975C6.76 14.7544 6.89563 14.875 7.05 14.875H8.45C8.60437 14.875 8.74 14.7544 8.75813 14.6006L8.93375 13.2231C8.94938 13.0994 9.0375 12.9969 9.1575 12.9625C9.54875 12.85 9.92187 12.695 10.2662 12.5025C10.3756 12.4412 10.5119 12.4519 10.61 12.5288L11.7038 13.3788C11.8294 13.4763 12.0056 13.4681 12.1131 13.3575L13.1038 12.3669C13.2169 12.2569 13.2256 12.0806 13.1281 11.9544L12.2781 10.8606C12.2013 10.7619 12.1906 10.6263 12.2519 10.5169C12.4444 10.1725 12.5994 9.79938 12.7119 9.40812C12.7462 9.28813 12.8488 9.2 12.9725 9.18438L14.3475 9.00937C14.5044 8.99 14.625 8.85437 14.625 8.7V7.3C14.625 7.14563 14.5044 7.01 14.3506 6.99188L12.9731 6.81625C12.8494 6.80062 12.7469 6.7125 12.7125 6.5925C12.6 6.20125 12.445 5.82812 12.2525 5.48375C12.1912 5.37437 12.2013 5.23875 12.2788 5.14L13.1288 4.04625C13.2269 3.92 13.2181 3.74375 13.1081 3.6375L12.1175 2.64687C12.0081 2.53312 11.8312 2.52437 11.705 2.6225L10.6112 3.4725C10.5119 3.54938 10.3763 3.56 10.2669 3.49875C9.92375 3.30625 9.55062 3.15187 9.15812 3.03875C9.03813 3.00437 8.95 2.90188 8.93438 2.77813L8.75937 1.40313C8.74 1.24563 8.60437 1.125 8.45 1.125H7.05C6.89563 1.125 6.76 1.24563 6.74188 1.39938L6.56625 2.77688C6.55062 2.90062 6.4625 3.00312 6.3425 3.03813C5.95 3.15062 5.57688 3.30562 5.23375 3.4975C5.12437 3.55938 4.98875 3.54813 4.88937 3.47188L3.79562 2.62188C3.66937 2.52375 3.49375 2.5325 3.38688 2.6425L2.39625 3.63375C2.28312 3.74375 2.27437 3.92 2.37188 4.04625L3.22188 5.14C3.29875 5.23875 3.30938 5.37437 3.24813 5.48375C3.055 5.82812 2.90062 6.20125 2.78813 6.5925C2.75375 6.7125 2.65125 6.80062 2.5275 6.81625L1.1525 6.99125C0.995625 7.01 0.875 7.14563 0.875 7.3V8.7C0.875 8.85437 0.995625 8.99 1.14938 9.00813L2.52688 9.18375C2.65062 9.19938 2.75312 9.2875 2.7875 9.4075C2.9 9.79875 3.055 10.1719 3.2475 10.5162C3.30875 10.6256 3.29875 10.7613 3.22125 10.86L2.37125 11.9538C2.27312 12.08 2.28188 12.2562 2.39188 12.3625L3.3825 13.3531C3.49187 13.4663 3.6675 13.475 3.795 13.3775L4.88875 12.5275C4.94562 12.485 5.01312 12.4625 5.08125 12.4625Z" fill="#8A92AB"/>
<path d="M7.75 11.125C6.02688 11.125 4.625 9.72313 4.625 8C4.625 6.27688 6.02688 4.875 7.75 4.875C9.47313 4.875 10.875 6.27688 10.875 8C10.875 9.72313 9.47313 11.125 7.75 11.125ZM7.75 5.5C6.37125 5.5 5.25 6.62125 5.25 8C5.25 9.37875 6.37125 10.5 7.75 10.5C9.12875 10.5 10.25 9.37875 10.25 8C10.25 6.62125 9.12875 5.5 7.75 5.5Z" fill="#8A92AB"/>
</svg>
