<svg width="18" height="13" viewBox="0 0 18 13" fill="none" xmlns="http://www.w3.org/2000/svg">
<path d="M1.88114 6.41212L2.13352 6.31751C2.53332 6.15334 2.83615 6.5936 3.22971 6.58116C3.07233 6.78851 1.98128 9.2062 2.83082 9.2579C2.91371 9.25789 2.99319 9.22496 3.0518 9.16636C3.11041 9.10775 3.14333 9.02826 3.14334 8.94538C3.14334 7.65694 4.13028 6.32255 4.1402 6.30927C4.17928 6.25493 4.19999 6.18953 4.19931 6.12259C4.19864 6.05566 4.17661 5.99069 4.13644 5.93714C4.09628 5.88359 4.04007 5.84427 3.976 5.82489C3.91192 5.80551 3.84334 5.80709 3.78023 5.8294L3.52832 5.92384C3.44265 5.956 3.35051 5.96716 3.25963 5.95638C3.16876 5.9456 3.08179 5.9132 3.00601 5.86189C2.84752 5.75482 2.66572 5.68719 2.47578 5.66463C2.28584 5.64207 2.09326 5.66524 1.9141 5.7322L1.66171 5.8268C1.58573 5.85709 1.52465 5.91594 1.49156 5.99075C1.45847 6.06555 1.45602 6.15034 1.48474 6.22693C1.51345 6.30352 1.57103 6.36581 1.64514 6.40043C1.71925 6.43505 1.80397 6.43924 1.88114 6.41212Z" fill="#88B6FF"/>
<path d="M13.6278 5.82941C13.5134 5.9033 13.3812 5.94527 13.2451 5.95098C13.109 5.95669 12.9738 5.92593 12.8536 5.86189C12.6951 5.75482 12.5133 5.68719 12.3234 5.66463C12.1334 5.64207 11.9408 5.66524 11.7617 5.7322L11.5094 5.82681C11.4334 5.85708 11.3723 5.91593 11.3392 5.99075C11.3061 6.06556 11.3037 6.15037 11.3324 6.22698C11.3611 6.30358 11.4187 6.36587 11.4928 6.40049C11.567 6.4351 11.6517 6.43928 11.7289 6.41212L11.9811 6.31753C12.3809 6.1534 12.6839 6.59358 13.0773 6.58117C12.9199 6.78852 11.8289 9.20621 12.6784 9.25791C12.7613 9.2579 12.8408 9.22498 12.8994 9.16637C12.958 9.10776 12.9909 9.02827 12.9909 8.94539C12.9909 7.65695 13.9779 6.32256 13.9878 6.30928C14.0269 6.25494 14.0476 6.18954 14.0469 6.12261C14.0462 6.05568 14.0242 5.99071 13.984 5.93716C13.9439 5.88362 13.8876 5.84429 13.8236 5.82491C13.7595 5.80553 13.6909 5.80711 13.6278 5.82941Z" fill="#88B6FF"/>
<path d="M8.70426 5.8294C8.58977 5.9032 8.45766 5.94512 8.32156 5.95083C8.18546 5.95654 8.0503 5.92583 7.93003 5.86188C7.77153 5.75482 7.58974 5.68719 7.3998 5.66463C7.20986 5.64207 7.01728 5.66523 6.83811 5.73219L6.58574 5.82679C6.5097 5.85704 6.44855 5.9159 6.41543 5.99072C6.3823 6.06555 6.37984 6.15038 6.40857 6.22701C6.43729 6.30363 6.49492 6.36593 6.56907 6.40054C6.64323 6.43515 6.72799 6.4393 6.80517 6.41211L7.05754 6.31751C7.45735 6.15337 7.76035 6.59358 8.15373 6.58116C7.99634 6.78851 6.90529 9.2062 7.75484 9.2579C7.83772 9.25789 7.91721 9.22496 7.97582 9.16636C8.03443 9.10775 8.06735 9.02826 8.06736 8.94538C8.06736 7.65694 9.0543 6.32255 9.06422 6.30927C9.10331 6.25493 9.12402 6.18953 9.12335 6.12259C9.12268 6.05565 9.10066 5.99068 9.06049 5.93713C9.02032 5.88358 8.96411 5.84425 8.90003 5.82488C8.83596 5.8055 8.76737 5.80708 8.70426 5.8294Z" fill="#88B6FF"/>
<path d="M16.4433 0C16.1921 0.00177327 15.9498 0.0930856 15.7599 0.257523C15.5701 0.42196 15.445 0.648738 15.4074 0.897091C15.3697 1.14544 15.4219 1.39909 15.5545 1.61242C15.6871 1.82575 15.8915 1.98479 16.1309 2.06094L16.1308 5.35857H15.5098V3.58719C15.5089 3.34588 15.4123 3.11477 15.2413 2.94457C15.0702 2.77437 14.8386 2.67896 14.5973 2.67929H0.912475C0.671164 2.67896 0.439577 2.77437 0.268515 2.94457C0.0974541 3.11477 0.000887732 3.34588 0 3.58719V11.3272C0.000887732 11.5685 0.0974541 11.7996 0.268515 11.9698C0.439577 12.14 0.671164 12.2354 0.912475 12.2351H14.5973C14.8386 12.2354 15.0702 12.14 15.2413 11.9698C15.4123 11.7996 15.5089 11.5685 15.5098 11.3272V9.55582H16.3585C16.607 9.55554 16.8453 9.45669 17.0211 9.28093C17.1969 9.10517 17.2957 8.86687 17.296 8.61832V6.29608C17.2955 6.11835 17.2445 5.94442 17.1488 5.79463C17.0532 5.64483 16.9169 5.52535 16.7558 5.45014V2.06093C16.995 1.98459 17.1991 1.8255 17.3316 1.61221C17.464 1.39893 17.5161 1.14542 17.4784 0.897202C17.4408 0.648982 17.3159 0.422307 17.1262 0.257871C16.9365 0.0934341 16.6944 0.0020059 16.4433 0ZM0.912475 3.30429H14.5973C14.6729 3.30378 14.7457 3.33327 14.7995 3.38631C14.8534 3.43934 14.8841 3.51158 14.8848 3.58719V4.16778H1.50085C1.41906 4.16942 1.34116 4.20307 1.28389 4.2615C1.22663 4.31993 1.19455 4.39848 1.19455 4.4803C1.19456 4.56211 1.22664 4.64066 1.28391 4.69909C1.34118 4.75751 1.41908 4.79115 1.50088 4.79278H4.98047V10.1216H0.625V3.58719C0.625701 3.51158 0.656359 3.43934 0.710251 3.38631C0.764142 3.33327 0.836867 3.30378 0.912475 3.30429ZM14.8848 11.3272C14.8841 11.4028 14.8534 11.4751 14.7995 11.5281C14.7457 11.5811 14.6729 11.6106 14.5973 11.6101H0.912475C0.836867 11.6106 0.764142 11.5811 0.710251 11.5281C0.656359 11.4751 0.625701 11.4028 0.625 11.3272V10.7466H13.9638C14.0456 10.745 14.1235 10.7113 14.1807 10.6529C14.238 10.5945 14.2701 10.5159 14.2701 10.4341C14.2701 10.3523 14.238 10.2737 14.1807 10.2153C14.1234 10.1569 14.0456 10.1232 13.9638 10.1216H5.60547V4.79278H9.90433V9.18823C9.90433 9.27111 9.93725 9.3506 9.99586 9.4092C10.0545 9.46781 10.1339 9.50073 10.2168 9.50073C10.2997 9.50073 10.3792 9.46781 10.4378 9.4092C10.4964 9.3506 10.5293 9.27111 10.5293 9.18823V4.79278H14.8848C14.8831 6.52721 14.886 9.60224 14.8848 11.3272ZM16.671 8.61832C16.6709 8.70116 16.6379 8.78059 16.5793 8.83917C16.5208 8.89775 16.4413 8.93071 16.3585 8.93082H15.5098V5.98358H16.3585C16.4413 5.98369 16.5208 6.01665 16.5793 6.07523C16.6379 6.13381 16.6709 6.21323 16.671 6.29608V8.61832ZM16.4433 1.48849C16.3299 1.48687 16.2216 1.44067 16.142 1.35988C16.0623 1.27908 16.0177 1.17019 16.0177 1.05673C16.0177 0.943281 16.0624 0.834387 16.142 0.753596C16.2217 0.672805 16.3299 0.626609 16.4433 0.624997C16.5568 0.626614 16.665 0.672815 16.7447 0.753609C16.8243 0.834404 16.869 0.9433 16.869 1.05675C16.869 1.17021 16.8243 1.2791 16.7447 1.35989C16.665 1.44068 16.5568 1.48688 16.4433 1.48849Z" fill="#88B6FF"/>
</svg>
