<svg width="20" height="20" viewBox="0 0 20 20" fill="none" xmlns="http://www.w3.org/2000/svg">
<path d="M4.58591 19.6664C4.37775 19.6664 4.17103 19.5981 3.99461 19.4638C3.66598 19.2131 3.51247 18.7822 3.60191 18.3664L4.82423 12.6986L0.678895 8.87195C0.374184 8.59194 0.25778 8.14851 0.382882 7.74277C0.507984 7.33779 0.848355 7.05107 1.25135 7.01185L6.73613 6.4877L8.90462 1.14592C9.06452 0.753455 9.42866 0.5 9.83325 0.5C10.2378 0.5 10.602 0.753455 10.7619 1.14501L12.9304 6.4877L18.4143 7.01185C18.8181 7.05016 19.1585 7.33779 19.2836 7.74277C19.4087 8.14775 19.293 8.59194 18.9883 8.87195L14.843 12.6979L16.0653 18.3654C16.1549 18.7822 16.0012 19.2131 15.6728 19.463C15.345 19.713 14.9079 19.7322 14.5628 19.5139L9.83325 16.5388L5.10372 19.5155C4.94382 19.6155 4.76567 19.6664 4.58591 19.6664ZM9.83325 15.2572C10.013 15.2572 10.191 15.308 10.3511 15.4079L14.8146 18.218L13.661 12.8686C13.5786 12.4879 13.7014 12.0904 13.9809 11.8328L17.895 8.21947L12.7165 7.72446C12.3437 7.6886 12.023 7.44186 11.8774 7.08022L9.83325 2.03919L7.78667 7.08098C7.64258 7.44018 7.32193 7.68692 6.94995 7.72278L1.77075 8.21779L5.68472 11.8312C5.96508 12.0895 6.08772 12.4862 6.00466 12.8679L4.85192 18.2171L9.31544 15.4079C9.47534 15.308 9.6535 15.2572 9.83325 15.2572ZM6.69424 6.59101C6.69424 6.59101 6.69424 6.59192 6.69337 6.59269L6.69424 6.59101ZM12.9707 6.58856L12.9715 6.59024C12.9715 6.58933 12.9715 6.58933 12.9707 6.58856Z" fill="#FA5500"/>
</svg>
