<svg width="18" height="18" viewBox="0 0 18 18" fill="none" xmlns="http://www.w3.org/2000/svg">
<path d="M16.875 5.01736H12.7656C12.9008 4.41528 12.8989 3.7905 12.76 3.18926C12.6211 2.58802 12.3488 2.02571 11.9632 1.54394C11.5776 1.06216 11.0887 0.673262 10.5325 0.406011C9.97625 0.13876 9.36707 0 8.75 0C8.13293 0 7.52375 0.13876 6.96755 0.406011C6.41135 0.673262 5.92237 1.06216 5.53678 1.54394C5.15119 2.02571 4.87888 2.58802 4.73999 3.18926C4.60109 3.7905 4.59917 4.41528 4.73438 5.01736H0.625C0.45924 5.01736 0.300268 5.08321 0.183058 5.20042C0.065848 5.31763 0 5.4766 0 5.64236V16.858C0 17.0237 0.065848 17.1827 0.183058 17.2999C0.300268 17.4171 0.45924 17.483 0.625 17.483H16.875C17.0408 17.483 17.1997 17.4171 17.3169 17.2999C17.4342 17.1827 17.5 17.0237 17.5 16.858V5.64236C17.5 5.4766 17.4342 5.31763 17.3169 5.20042C17.1997 5.08321 17.0408 5.01736 16.875 5.01736ZM11.8562 2.56736C12.1929 3.21713 12.3118 3.95793 12.1953 4.68041C12.0788 5.4029 11.7332 6.06881 11.2094 6.57986L9.8875 5.29548L10.5406 3.89861L11.8562 2.56736ZM9.0625 0.692359C9.5405 0.7351 10.0046 0.875597 10.4261 1.10514C10.8475 1.33468 11.2173 1.64836 11.5125 2.02673L10.2219 3.33611L9.0625 2.71111V0.692359ZM9.87187 3.85798L9.30938 5.05798H8.19062L7.62813 3.85798L8.75 3.25173L9.87187 3.85798ZM8.4375 0.692359V2.71111L7.2625 3.33611L5.90938 2.12673C6.20326 1.72034 6.58113 1.38191 7.01734 1.13442C7.45355 0.886933 7.93789 0.736168 8.4375 0.692359ZM5.5875 2.67986L6.9625 3.91111L7.61563 5.30173L6.30625 6.59861C5.97562 6.27861 5.71259 5.89549 5.53277 5.47196C5.35294 5.04843 5.25997 4.59311 5.25938 4.13298C5.25967 3.63027 5.37175 3.13392 5.5875 2.67986ZM0.625 8.33923H1.70625C1.78913 8.33923 1.86862 8.37216 1.92722 8.43076C1.98583 8.48937 2.01875 8.56885 2.01875 8.65173V13.883C2.01875 13.9659 1.98583 14.0454 1.92722 14.104C1.86862 14.1626 1.78913 14.1955 1.70625 14.1955H0.625V8.33923ZM8.4375 12.6642C8.1199 12.5933 7.83594 12.4163 7.63244 12.1624C7.42894 11.9085 7.31805 11.5928 7.31805 11.2674C7.31805 10.9419 7.42894 10.6262 7.63244 10.3723C7.83594 10.1184 8.1199 9.94137 8.4375 9.87048V12.6642ZM8.4375 9.22673C7.95351 9.3029 7.51262 9.54938 7.19424 9.92179C6.87586 10.2942 6.70092 10.768 6.70092 11.258C6.70092 11.7479 6.87586 12.2218 7.19424 12.5942C7.51262 12.9666 7.95351 13.2131 8.4375 13.2892V16.858H0.625V14.8205H1.70625C1.95489 14.8205 2.19335 14.7217 2.36916 14.5459C2.54498 14.3701 2.64375 14.1316 2.64375 13.883V13.5174C3.60938 13.3455 4.35313 12.3955 4.35313 11.2517C4.35313 10.108 3.60938 9.15486 2.64375 8.98611V8.65173C2.64375 8.40309 2.54498 8.16464 2.36916 7.98882C2.19335 7.81301 1.95489 7.71423 1.70625 7.71423H0.625V5.64236H4.93125C5.18082 6.2626 5.57895 6.81204 6.09062 7.24236C6.75194 7.79065 7.56815 8.11845 8.425 8.17986L8.4375 9.22673ZM2.64375 12.8767V9.62361C2.97803 9.74335 3.26445 9.96831 3.45998 10.2647C3.65551 10.5611 3.7496 10.9129 3.72813 11.2674C3.74254 11.6162 3.6451 11.9605 3.45003 12.25C3.25495 12.5395 2.97245 12.7591 2.64375 12.8767ZM6.79375 6.99548L8.125 5.68298H9.375L10.7156 6.98298C10.136 7.37595 9.45183 7.58601 8.75156 7.58601C8.05129 7.58601 7.36712 7.37595 6.7875 6.98298L6.79375 6.99548ZM9.0625 9.87048C9.3801 9.94137 9.66406 10.1184 9.86756 10.3723C10.0711 10.6262 10.182 10.9419 10.182 11.2674C10.182 11.5928 10.0711 11.9085 9.86756 12.1624C9.66406 12.4163 9.3801 12.5933 9.0625 12.6642V9.87048ZM16.875 14.1955H15.7938C15.7109 14.1955 15.6314 14.1626 15.5728 14.104C15.5142 14.0454 15.4813 13.9659 15.4813 13.883V8.65173C15.4813 8.56885 15.5142 8.48937 15.5728 8.43076C15.6314 8.37216 15.7109 8.33923 15.7938 8.33923H16.875V14.1955ZM16.875 7.71423H15.7938C15.5451 7.71423 15.3067 7.81301 15.1308 7.98882C14.955 8.16464 14.8563 8.40309 14.8563 8.65173V8.98611C13.8906 9.15486 13.1469 10.1049 13.1469 11.2517C13.1469 12.3986 13.8906 13.3455 14.8563 13.5174V13.883C14.8563 14.1316 14.955 14.3701 15.1308 14.5459C15.3067 14.7217 15.5451 14.8205 15.7938 14.8205H16.875V16.858H9.0625V13.2986C9.54649 13.2224 9.98738 12.976 10.3058 12.6036C10.6241 12.2312 10.7991 11.7573 10.7991 11.2674C10.7991 10.7774 10.6241 10.3036 10.3058 9.93116C9.98738 9.55876 9.54649 9.31228 9.0625 9.23611V8.20486C9.9273 8.14044 10.7497 7.8047 11.4125 7.24548C11.7179 6.98473 11.9833 6.68042 12.2 6.34236V6.32361C12.3457 6.10959 12.4692 5.88134 12.5688 5.64236H16.875V7.71423ZM14.8563 9.62361V12.8767C14.5276 12.7591 14.2451 12.5395 14.05 12.25C13.8549 11.9605 13.7575 11.6162 13.7719 11.2674C13.7504 10.9129 13.8445 10.5611 14.04 10.2647C14.2356 9.96831 14.522 9.74335 14.8563 9.62361Z" fill="#88B6FF"/>
</svg>
