<svg width="20" height="20" viewBox="0 0 20 20" fill="none" xmlns="http://www.w3.org/2000/svg">
<path d="M18.7851 5.23099C17.5344 2.92724 15.4761 1.23778 12.9788 0.459348C12.9687 0.455598 12.9585 0.452433 12.9482 0.449855C12.9121 0.438723 12.8763 0.427121 12.8401 0.416379C10.2802 -0.341941 7.57824 -0.0580744 5.23187 1.21575C2.8855 2.48962 1.17562 4.60087 0.417262 7.16079C-0.341097 9.72064 -0.0572297 12.4226 1.2166 14.769C2.49047 17.1153 4.60175 18.8252 7.16164 19.5836C8.10175 19.8621 9.06058 20 10.0144 20C11.6577 20 13.2852 19.5902 14.7698 18.7842C15.3341 18.4779 15.8694 18.1175 16.3611 17.713C16.4859 17.6102 16.5039 17.4256 16.4011 17.3007C16.2984 17.1758 16.1138 17.1579 15.9889 17.2606C15.526 17.6415 15.0219 17.9809 14.4903 18.2695C12.3816 19.4143 9.96789 19.7091 7.65656 19.1123C8.57816 16.8134 8.35761 14.0401 7.04394 11.6203C6.52187 10.6588 5.8591 9.80739 5.07394 9.08989C4.95453 8.98075 4.76925 8.98907 4.66015 9.10853C4.55105 9.22794 4.55937 9.41321 4.67879 9.52232C5.4157 10.1957 6.03824 10.9956 6.52914 11.8998C7.77027 14.186 7.97418 16.8001 7.09144 18.9484C6.65886 18.8081 6.24074 18.6384 5.83906 18.4414C6.28718 17.0187 6.70015 14.5068 5.21222 12.1195C3.92507 10.0547 1.903 9.16775 0.666403 8.80239C0.719567 8.39505 0.799294 7.9888 0.906559 7.58579C1.62527 7.71931 2.33328 7.97142 3.01468 8.33751C3.05879 8.36122 3.10621 8.37247 3.15304 8.37247C3.25738 8.37247 3.35843 8.3165 3.41129 8.21814C3.48781 8.07564 3.43437 7.89806 3.29187 7.82154C2.57652 7.43724 1.83254 7.16888 1.0757 7.0215C1.83187 4.74946 3.39672 2.87857 5.51136 1.73056C7.66246 0.562668 10.1311 0.279152 12.4844 0.924504C11.6121 3.20122 11.8482 5.93618 13.1378 8.31173C14.4238 10.6808 16.5833 12.3675 18.9616 12.8806C18.622 13.9369 18.0921 14.9433 17.3761 15.8473C17.2757 15.9741 17.2971 16.1583 17.4239 16.2588C17.5506 16.3592 17.7349 16.3378 17.8353 16.211C20.3262 13.0662 20.699 8.75626 18.7851 5.23099ZM4.71504 12.4293C6.0457 14.5643 5.71472 16.8259 5.31234 18.1615C3.81285 17.3038 2.57629 16.0456 1.7314 14.4895C0.871872 12.9062 0.491286 11.1511 0.607458 9.39642C1.7641 9.75474 3.56437 10.5834 4.71504 12.4293ZM19.1241 12.3166C16.8959 11.8497 14.8648 10.2652 13.6526 8.03224C12.4371 5.79329 12.2167 3.22232 13.0453 1.09704C13.4358 1.23017 13.8145 1.38685 14.1794 1.56665C13.8126 2.78825 13.45 4.94384 14.4495 7.13298C15.6118 9.6804 17.9203 10.7253 19.3441 11.1401C19.2959 11.5359 19.2225 11.9289 19.1241 12.3166ZM14.9824 6.88974C14.0909 4.937 14.3786 3.00103 14.7072 1.84864C16.1986 2.70611 17.4287 3.96048 18.2703 5.51048C19.1264 7.08739 19.4961 8.83107 19.3972 10.5446C18.0704 10.1389 16.02 9.16372 14.9824 6.88974Z" fill="#88B6FF"/>
</svg>
