<svg width="20" height="20" viewBox="0 0 20 20" fill="none" xmlns="http://www.w3.org/2000/svg">
<path d="M19.5625 16.2499H17.6875V9.99993H18.3125C18.3743 9.99992 18.4347 9.98159 18.4861 9.94725C18.5375 9.91291 18.5775 9.86411 18.6012 9.80701C18.6248 9.74992 18.631 9.6871 18.6189 9.62649C18.6069 9.56588 18.5771 9.5102 18.5334 9.4665L16.0334 6.9665C15.9748 6.90791 15.8954 6.875 15.8125 6.875C15.7296 6.875 15.6502 6.90791 15.5916 6.9665L13.0916 9.4665C13.0479 9.5102 13.0181 9.56588 13.0061 9.62649C12.994 9.6871 13.0002 9.74992 13.0239 9.80701C13.0475 9.86411 13.0875 9.91291 13.1389 9.94725C13.1903 9.98159 13.2507 9.99992 13.3125 9.99993H13.9375V16.2499H12.0625V11.8749H12.6875C12.7493 11.8749 12.8097 11.8566 12.8611 11.8222C12.9125 11.7879 12.9525 11.7391 12.9761 11.682C12.9998 11.6249 13.006 11.5621 12.9939 11.5015C12.9819 11.4409 12.9521 11.3852 12.9084 11.3415L10.4084 8.8415C10.3498 8.78291 10.2704 8.75 10.1875 8.75C10.1046 8.75 10.0252 8.78291 9.96656 8.8415L7.46656 11.3415C7.42287 11.3852 7.39312 11.4409 7.38107 11.5015C7.36902 11.5621 7.3752 11.6249 7.39885 11.682C7.4225 11.7391 7.46254 11.7879 7.51392 11.8222C7.5653 11.8566 7.6257 11.8749 7.6875 11.8749H8.3125V16.2499H6.4375V14.3749H7.0625C7.1243 14.3749 7.1847 14.3566 7.23608 14.3222C7.28746 14.2879 7.3275 14.2391 7.35115 14.182C7.3748 14.1249 7.38098 14.0621 7.36893 14.0015C7.35688 13.9409 7.32713 13.8852 7.28344 13.8415L4.78344 11.3415C4.72483 11.2829 4.64536 11.25 4.5625 11.25C4.47964 11.25 4.40017 11.2829 4.34156 11.3415L1.84156 13.8415C1.79787 13.8852 1.76812 13.9409 1.75607 14.0015C1.74402 14.0621 1.7502 14.1249 1.77385 14.182C1.7975 14.2391 1.83754 14.2879 1.88892 14.3222C1.9403 14.3566 2.0007 14.3749 2.0625 14.3749H2.6875V16.2499H0.8125C0.72962 16.2499 0.650134 16.2829 0.591529 16.3415C0.532924 16.4001 0.5 16.4796 0.5 16.5624V19.0624C0.5 19.1453 0.532924 19.2248 0.591529 19.2834C0.650134 19.342 0.72962 19.3749 0.8125 19.3749H19.5625C19.6454 19.3749 19.7249 19.342 19.7835 19.2834C19.8421 19.2248 19.875 19.1453 19.875 19.0624V16.5624C19.875 16.4796 19.8421 16.4001 19.7835 16.3415C19.7249 16.2829 19.6454 16.2499 19.5625 16.2499ZM14.25 9.37493H14.0669L15.8125 7.62931L17.5581 9.37493H17.375C17.2921 9.37493 17.2126 9.40786 17.154 9.46646C17.0954 9.52507 17.0625 9.60455 17.0625 9.68743V16.2499H14.5625V9.68743C14.5625 9.60455 14.5296 9.52507 14.471 9.46646C14.4124 9.40786 14.3329 9.37493 14.25 9.37493ZM8.625 11.2499H8.44187L10.1875 9.50431L11.9331 11.2499H11.75C11.6671 11.2499 11.5876 11.2829 11.529 11.3415C11.4704 11.4001 11.4375 11.4796 11.4375 11.5624V16.2499H8.9375V11.5624C8.9375 11.4796 8.90458 11.4001 8.84597 11.3415C8.78737 11.2829 8.70788 11.2499 8.625 11.2499ZM3 13.7499H2.81687L4.5625 12.0043L6.30813 13.7499H6.125C6.04212 13.7499 5.96263 13.7829 5.90403 13.8415C5.84542 13.9001 5.8125 13.9796 5.8125 14.0624V16.2499H3.3125V14.0624C3.3125 13.9796 3.27958 13.9001 3.22097 13.8415C3.16237 13.7829 3.08288 13.7499 3 13.7499ZM19.25 18.7499H1.125V16.8749H19.25V18.7499Z" fill="#88B6FF"/>
<path d="M13.2441 3.44668C13.1863 3.45966 13.1333 3.4888 13.0915 3.5307C13.0496 3.5726 13.0205 3.62554 13.0075 3.68335C12.9946 3.74116 12.9984 3.80145 13.0184 3.8572C13.0384 3.91296 13.0739 3.96187 13.1206 3.99825L14.2694 4.89356L13.9437 6.50168C13.9318 6.56095 13.9373 6.6224 13.9596 6.67859C13.9819 6.73477 14.0201 6.78329 14.0694 6.81825C14.1187 6.85321 14.1771 6.87312 14.2375 6.87556C14.2979 6.878 14.3577 6.86287 14.4097 6.832L15.8125 5.99981L17.2153 6.83262C17.2673 6.86356 17.3272 6.87872 17.3877 6.87626C17.4482 6.87381 17.5066 6.85385 17.556 6.8188C17.6053 6.78375 17.6434 6.73512 17.6657 6.67883C17.6879 6.62254 17.6933 6.56099 17.6812 6.50168L17.3556 4.89293L18.5044 3.99762C18.5511 3.96125 18.5866 3.91233 18.6066 3.85658C18.6266 3.80083 18.6304 3.74053 18.6174 3.68272C18.6045 3.62491 18.5754 3.57197 18.5335 3.53007C18.4916 3.48817 18.4387 3.45903 18.3809 3.44606L16.7659 3.08418L16.0937 1.737C16.0649 1.68857 16.0239 1.64846 15.9749 1.62062C15.9259 1.59277 15.8704 1.57813 15.8141 1.57812C15.7577 1.57812 15.7023 1.59277 15.6532 1.62062C15.6042 1.64846 15.5632 1.68857 15.5344 1.737L14.8606 3.08481L13.2441 3.44668ZM15.3516 3.49731L15.8125 2.57543L16.2734 3.49731C16.2942 3.53873 16.3238 3.57501 16.3603 3.60355C16.3968 3.63209 16.4392 3.65216 16.4844 3.66231L17.5984 3.91231L16.8172 4.51981C16.7713 4.5555 16.7363 4.60328 16.7161 4.65776C16.6959 4.71225 16.6913 4.77129 16.7028 4.82825L16.9272 5.93606L15.9706 5.36825C15.9223 5.33953 15.8671 5.32437 15.8109 5.32437C15.7547 5.32437 15.6996 5.33953 15.6512 5.36825L14.6947 5.93606L14.9191 4.82825C14.9306 4.77129 14.9259 4.71225 14.9057 4.65776C14.8855 4.60328 14.8505 4.5555 14.8047 4.51981L14.0234 3.91231L15.1375 3.66231C15.1832 3.65258 15.2262 3.63271 15.2633 3.60415C15.3003 3.57559 15.3305 3.53908 15.3516 3.49731Z" fill="#88B6FF"/>
<path d="M12.9929 5.55825C12.9799 5.50045 12.9508 5.44753 12.9089 5.40564C12.867 5.36376 12.8141 5.33464 12.7563 5.32168L11.1413 4.95981L10.4691 3.612C10.4403 3.56357 10.3993 3.52346 10.3503 3.49562C10.3012 3.46777 10.2458 3.45313 10.1894 3.45312C10.1331 3.45313 10.0776 3.46777 10.0286 3.49562C9.97959 3.52346 9.93863 3.56357 9.90976 3.612L9.23601 4.95981L7.62101 5.32168C7.56321 5.33466 7.51028 5.3638 7.46841 5.4057C7.42654 5.4476 7.39743 5.50054 7.3845 5.55835C7.37156 5.61616 7.37532 5.67645 7.39534 5.73221C7.41536 5.78796 7.45081 5.83687 7.49757 5.87325L8.64632 6.76856L8.31913 8.37668C8.30721 8.43595 8.31273 8.4974 8.33503 8.55359C8.35733 8.60977 8.39545 8.65829 8.44476 8.69325C8.49408 8.72821 8.55248 8.74812 8.61288 8.75056C8.67328 8.753 8.73309 8.73787 8.78507 8.707L10.1879 7.87481L11.5907 8.70762C11.6427 8.73856 11.7026 8.75372 11.7631 8.75126C11.8236 8.74881 11.882 8.72885 11.9314 8.6938C11.9807 8.65875 12.0188 8.61012 12.0411 8.55383C12.0633 8.49754 12.0687 8.43599 12.0566 8.37668L11.731 6.76793L12.8798 5.87262C12.9264 5.8363 12.9618 5.78747 12.9819 5.73182C13.0019 5.67617 13.0057 5.61598 12.9929 5.55825ZM11.1941 6.3945C11.1483 6.43019 11.1133 6.47796 11.0931 6.53245C11.0729 6.58693 11.0683 6.64597 11.0798 6.70293L11.3041 7.81075L10.3476 7.24293C10.2993 7.21421 10.2441 7.19905 10.1879 7.19905C10.1317 7.19905 10.0765 7.21421 10.0282 7.24293L9.07163 7.81075L9.29601 6.70293C9.3075 6.64597 9.30289 6.58693 9.28269 6.53245C9.26248 6.47796 9.22749 6.43019 9.18163 6.3945L8.40038 5.787L9.51444 5.537C9.55963 5.52684 9.602 5.50677 9.63848 5.47824C9.67496 5.4497 9.70465 5.41341 9.72538 5.372L10.1879 4.45043L10.6488 5.37231C10.6696 5.41373 10.6992 5.45001 10.7357 5.47855C10.7722 5.50709 10.8146 5.52716 10.8598 5.53731L11.9738 5.78731L11.1941 6.3945Z" fill="#88B6FF"/>
<path d="M7.36749 8.05825C7.35453 8.00045 7.32541 7.94753 7.28353 7.90564C7.24165 7.86376 7.18872 7.83464 7.13093 7.82168L5.51593 7.45981L4.84374 6.112C4.81487 6.06357 4.77391 6.02346 4.72488 5.99562C4.67586 5.96777 4.62044 5.95312 4.56405 5.95312C4.50767 5.95312 4.45225 5.96777 4.40322 5.99562C4.3542 6.02346 4.31324 6.06357 4.28437 6.112L3.61062 7.45981L1.99405 7.82168C1.93625 7.83466 1.88333 7.8638 1.84146 7.9057C1.79958 7.9476 1.77048 8.00054 1.75754 8.05835C1.74461 8.11616 1.74837 8.17645 1.76839 8.23221C1.78841 8.28796 1.82386 8.33687 1.87062 8.37325L3.01937 9.26856L2.69374 10.8767C2.68182 10.9359 2.68734 10.9974 2.70964 11.0536C2.73194 11.1098 2.77006 11.1583 2.81937 11.1932C2.86869 11.2282 2.92709 11.2481 2.98749 11.2506C3.04789 11.253 3.1077 11.2379 3.15968 11.207L4.56249 10.3748L5.9653 11.2076C6.01733 11.2386 6.07722 11.2537 6.13769 11.2513C6.19817 11.2488 6.25663 11.2288 6.30598 11.1938C6.35532 11.1587 6.39343 11.1101 6.41567 11.0538C6.4379 10.9975 6.44331 10.936 6.43124 10.8767L6.10562 9.26793L7.25437 8.37262C7.30104 8.3363 7.33644 8.28747 7.35647 8.23182C7.37649 8.17617 7.38032 8.11598 7.36749 8.05825ZM5.56874 8.8945C5.52288 8.93019 5.48789 8.97796 5.46768 9.03245C5.44748 9.08693 5.44287 9.14597 5.45437 9.20293L5.67874 10.3107L4.72218 9.74293C4.67386 9.71421 4.6187 9.69905 4.56249 9.69905C4.50628 9.69905 4.45112 9.71421 4.4028 9.74293L3.44624 10.3107L3.67062 9.20293C3.68211 9.14597 3.6775 9.08693 3.6573 9.03245C3.63709 8.97796 3.6021 8.93019 3.55624 8.8945L2.77655 8.287L3.89062 8.037C3.93581 8.02684 3.97817 8.00677 4.01465 7.97824C4.05114 7.9497 4.08082 7.91341 4.10155 7.872L4.56249 6.95043L5.02343 7.87231C5.04416 7.91373 5.07384 7.95001 5.11033 7.97855C5.14681 8.00709 5.18918 8.02716 5.23437 8.03731L6.34843 8.28731L5.56874 8.8945Z" fill="#88B6FF"/>
<path d="M15.5 0H16.125V0.9375H15.5V0Z" fill="#88B6FF"/>
<path d="M16.8398 1.03125L17.4648 0.406344L17.9067 0.848285L17.2818 1.47319L16.8398 1.03125Z" fill="#88B6FF"/>
<path d="M13.7148 0.847656L14.1568 0.405715L14.7817 1.03062L14.3397 1.47256L13.7148 0.847656Z" fill="#88B6FF"/>
<path d="M17.6875 2.1875H18.625V2.8125H17.6875V2.1875Z" fill="#88B6FF"/>
<path d="M13 2.1875H13.9375V2.8125H13V2.1875Z" fill="#88B6FF"/>
</svg>
