<svg width="13" height="16" viewBox="0 0 13 16" fill="none" xmlns="http://www.w3.org/2000/svg">
<path d="M8.41385 5.93457C8.21982 5.93457 8.06256 6.09183 8.06256 6.28586V12.9252C8.06256 13.1191 8.21982 13.2765 8.41385 13.2765C8.60788 13.2765 8.76514 13.1191 8.76514 12.9252V6.28586C8.76514 6.09183 8.60788 5.93457 8.41385 5.93457Z" fill="#8A92AB"/>
<path d="M4.26871 5.93457C4.07468 5.93457 3.91742 6.09183 3.91742 6.28586V12.9252C3.91742 13.1191 4.07468 13.2765 4.26871 13.2765C4.46274 13.2765 4.61999 13.1191 4.61999 12.9252V6.28586C4.61999 6.09183 4.46274 5.93457 4.26871 5.93457Z" fill="#8A92AB"/>
<path d="M1.24765 4.96564V13.6206C1.24765 14.1322 1.43523 14.6126 1.76292 14.9573C2.08909 15.3029 2.54302 15.4992 3.01808 15.5H9.66454C10.1397 15.4992 10.5937 15.3029 10.9197 14.9573C11.2474 14.6126 11.435 14.1322 11.435 13.6206V4.96564C12.0864 4.79275 12.5085 4.16345 12.4213 3.49504C12.3341 2.82677 11.7647 2.32688 11.0907 2.32674H9.29212V1.88763C9.29418 1.51837 9.14818 1.16379 8.88677 0.902928C8.62536 0.642208 8.27024 0.497027 7.90097 0.500046H4.78165C4.41239 0.497027 4.05726 0.642208 3.79585 0.902928C3.53445 1.16379 3.38844 1.51837 3.3905 1.88763V2.32674H1.59194C0.917908 2.32688 0.348576 2.82677 0.261303 3.49504C0.174168 4.16345 0.596261 4.79275 1.24765 4.96564ZM9.66454 14.7974H3.01808C2.41746 14.7974 1.95023 14.2815 1.95023 13.6206V4.99652H10.7324V13.6206C10.7324 14.2815 10.2652 14.7974 9.66454 14.7974ZM4.09308 1.88763C4.09074 1.70471 4.16265 1.52866 4.29246 1.39953C4.42213 1.27041 4.5986 1.19946 4.78165 1.20262H7.90097C8.08403 1.19946 8.26049 1.27041 8.39017 1.39953C8.51998 1.52852 8.59188 1.70471 8.58955 1.88763V2.32674H4.09308V1.88763ZM1.59194 3.02931H11.0907C11.4399 3.02931 11.723 3.3124 11.723 3.66163C11.723 4.01086 11.4399 4.29395 11.0907 4.29395H1.59194C1.24271 4.29395 0.959623 4.01086 0.959623 3.66163C0.959623 3.3124 1.24271 3.02931 1.59194 3.02931Z" fill="#8A92AB"/>
<path d="M6.34128 5.93457C6.14725 5.93457 5.98999 6.09183 5.98999 6.28586V12.9252C5.98999 13.1191 6.14725 13.2765 6.34128 13.2765C6.53531 13.2765 6.69256 13.1191 6.69256 12.9252V6.28586C6.69256 6.09183 6.53531 5.93457 6.34128 5.93457Z" fill="#8A92AB"/>
</svg>
