<svg width="14" height="15" viewBox="0 0 14 15" fill="none" xmlns="http://www.w3.org/2000/svg">
<path d="M1.49372 9.75797C1.76329 10.0257 2.0617 10.2628 2.3835 10.4649L1.03938 11.81C0.908008 11.9413 0.834206 12.1193 0.834206 12.305C0.834206 12.4908 0.908008 12.6689 1.03938 12.8002L1.69974 13.4604C1.83101 13.5918 2.00905 13.6656 2.19478 13.6656C2.38051 13.6656 2.55866 13.5918 2.68992 13.4604L4.90172 11.2486H4.9234C4.97648 11.248 5.02914 11.2382 5.0788 11.2197C5.09621 11.2184 5.1133 11.215 5.12996 11.2096C6.1446 10.7915 6.96303 10.6963 7.70575 10.9114C7.9405 10.9797 8.16522 11.0788 8.37391 11.2061C8.38374 11.3129 8.4303 11.413 8.50581 11.4892L11.3105 14.2936C11.5838 14.5668 12.0268 14.5668 12.3002 14.2936L12.9601 13.6338C13.0913 13.5025 13.165 13.3245 13.165 13.1388C13.165 12.9531 13.0913 12.7751 12.9601 12.6438L11.9696 11.655L10.4826 10.1681C10.6054 10.1283 10.7288 10.0836 10.8525 10.0328C12.0988 9.51018 13.0898 8.51894 13.6123 7.27264C13.8605 6.6801 13.9919 6.04526 13.9995 5.40283C14.0088 4.76596 13.893 4.13336 13.6588 3.54103C13.1684 2.30808 12.1919 1.33158 10.9591 0.841028C10.3664 0.607661 9.73395 0.491993 9.09697 0.50043C8.45476 0.507907 7.81992 0.639169 7.22748 0.88706C6.84042 1.04919 6.47494 1.25874 6.13947 1.5109C5.73629 1.40068 5.32082 1.34162 4.9029 1.335C4.26592 1.32602 3.63321 1.44148 3.04056 1.67517C1.80665 2.16422 0.82972 3.14137 0.340879 4.37538C0.107086 4.96793 -0.0085825 5.60042 0.000495818 6.2374C0.00829251 6.8795 0.139448 7.51402 0.386805 8.10657C0.643668 8.72443 1.01983 9.28558 1.49372 9.75797ZM2.85387 12.6357L2.35862 12.1403C2.2658 12.0625 2.12888 12.0686 2.04344 12.1543C1.95789 12.2401 1.95223 12.377 2.0303 12.4695L2.52566 12.9649L2.36043 13.1299C2.26794 13.2177 2.1229 13.2177 2.0303 13.1299L1.36929 12.4695C1.3255 12.4258 1.30094 12.3664 1.30094 12.3045C1.30094 12.2425 1.3255 12.1832 1.36929 12.1394L2.1936 11.3151L2.68896 11.8104C2.78049 11.8989 2.92606 11.8976 3.01599 11.8075C3.10603 11.7176 3.10731 11.572 3.01888 11.4805L2.52352 10.9851L2.80474 10.704C2.91667 10.7607 3.02892 10.8171 3.14533 10.8657C3.5168 11.0188 3.90535 11.1269 4.30255 11.1874L2.85387 12.6357ZM5.89585 10.47L9.13574 7.23014C8.96272 7.86434 8.96048 8.53304 9.12944 9.16831C9.20292 9.42239 9.30738 9.66654 9.44045 9.8951L8.56103 10.7745C8.33269 10.6412 8.08875 10.5366 7.83477 10.463C7.19918 10.294 6.53016 10.2964 5.89585 10.47ZM12.6301 13.3046L11.9696 13.9644C11.8785 14.0554 11.7308 14.0554 11.6397 13.9644L11.4754 13.7994L11.9696 13.3044C12.0302 13.2458 12.0546 13.159 12.0332 13.0774C12.0119 12.9958 11.9482 12.9322 11.8666 12.9108C11.785 12.8895 11.6983 12.9138 11.6397 12.9745L11.1448 13.4695L10.1549 12.4795L10.6497 11.9847C10.7381 11.8932 10.7368 11.7476 10.6469 11.6577C10.5569 11.5677 10.4114 11.5664 10.3198 11.6548L9.82495 12.1496L8.83498 11.1597L9.82495 10.1697L10.1549 10.4999L9.65972 10.9948C9.60077 11.0537 9.5777 11.1396 9.59927 11.2201C9.62085 11.3006 9.68375 11.3637 9.76428 11.3852C9.84471 11.4068 9.93068 11.3838 9.98964 11.3249L10.4846 10.8297L11.4745 11.8197L10.9796 12.3146C10.9189 12.3732 10.8947 12.46 10.9159 12.5415C10.9373 12.6231 11.0011 12.6868 11.0827 12.7081C11.1642 12.7295 11.251 12.7052 11.3095 12.6446L11.8063 12.1496L12.631 12.9745C12.6747 13.0184 12.6991 13.0778 12.699 13.1397C12.6988 13.2016 12.674 13.2609 12.6301 13.3046ZM7.4068 1.31705C7.94435 1.09255 8.52013 0.973678 9.10263 0.967056C9.67884 0.957978 10.2513 1.06265 10.7871 1.27497C11.9003 1.71799 12.7819 2.59977 13.2248 3.71298C13.4367 4.24882 13.5413 4.82107 13.5329 5.39728C13.5261 5.97978 13.4074 6.55546 13.1829 7.093C12.7077 8.22533 11.8069 9.12601 10.6745 9.60097C10.4864 9.67776 10.2933 9.74152 10.0965 9.79172C10.0305 9.74462 9.95333 9.71567 9.87258 9.70798C9.74527 9.49918 9.64627 9.27458 9.57791 9.03982C9.36324 8.29711 9.45818 7.47888 9.87632 6.46467C9.88113 6.44908 9.88422 6.43306 9.88561 6.41683C9.90644 6.36107 9.91648 6.3018 9.91498 6.24231C9.89458 5.63662 9.76471 5.0397 9.53145 4.48037C9.00982 3.23375 8.01868 2.24251 6.77228 1.72088C6.74676 1.71041 6.7207 1.70315 6.69496 1.69311C6.92095 1.54743 7.15913 1.42161 7.4068 1.31705ZM0.775037 4.5468C1.21635 3.43305 2.09855 2.55117 3.21251 2.11028C3.73083 1.90565 4.28311 1.80109 4.84042 1.80237H4.89756C5.47996 1.8092 6.05574 1.92797 6.59328 2.15226C7.72529 2.62668 8.62554 3.52714 9.09975 4.65926C9.31186 5.16701 9.42935 5.70914 9.44622 6.25908L5.99059 9.71642L5.98802 9.71802L5.98642 9.72037L4.92479 10.782L4.92362 10.7836C4.37411 10.7652 3.83251 10.6473 3.32498 10.4357C2.19222 9.96132 1.29133 9.06043 0.817011 7.92757C0.593043 7.38992 0.474171 6.81424 0.467122 6.23184C0.458684 5.65542 0.563352 5.08295 0.775037 4.5468Z" fill="#8A92AB"/>
<path d="M8.23881 5.01727C8.37114 5.33554 8.45754 5.67102 8.49545 6.01354C8.50848 6.13177 8.60824 6.22138 8.72722 6.22148C8.73587 6.22148 8.74452 6.22095 8.75307 6.22009C8.8808 6.20589 8.97297 6.09118 8.9593 5.96344C8.91648 5.57671 8.81875 5.19809 8.66933 4.8388C8.45893 4.33383 8.15101 3.87522 7.7631 3.48933C7.67157 3.4009 7.5261 3.40218 7.43607 3.49211C7.34603 3.58215 7.34475 3.72772 7.43318 3.81925C7.77784 4.16177 8.05168 4.56891 8.23881 5.01727Z" fill="#8A92AB"/>
<path d="M1.46403 7.89199C1.542 7.8922 1.61494 7.85343 1.65831 7.78871C1.70178 7.72399 1.71 7.64185 1.68031 7.56976C1.5735 7.31002 1.49714 7.03873 1.45282 6.76136L1.43861 5.68809C1.47514 5.41521 1.54403 5.14777 1.64389 4.89134C1.67518 4.81369 1.66247 4.72515 1.61057 4.65947C1.55866 4.59378 1.47557 4.56099 1.39279 4.57338C1.31002 4.58588 1.24028 4.64174 1.20994 4.71981C1.02047 5.19893 0.926701 5.71052 0.93375 6.22564C0.940051 6.74855 1.04686 7.26537 1.24829 7.74802C1.28439 7.83528 1.36962 7.8921 1.46403 7.89199Z" fill="#8A92AB"/>
<path d="M12.4464 7.03993C12.5655 7.08938 12.702 7.03288 12.7515 6.9139C12.9529 6.43136 13.0597 5.91464 13.0661 5.39173C13.0738 4.87587 12.9802 4.36353 12.7909 3.88366C12.7606 3.80559 12.6908 3.74962 12.608 3.73723C12.5253 3.72474 12.4422 3.75763 12.3903 3.82332C12.3384 3.889 12.3256 3.97743 12.3569 4.05508C12.4568 4.31162 12.5258 4.57917 12.5622 4.85216L12.548 5.92532C12.5037 6.2028 12.4273 6.47419 12.3205 6.73404C12.2965 6.79129 12.2963 6.8558 12.3199 6.91315C12.3436 6.97061 12.3891 7.01622 12.4464 7.03993Z" fill="#8A92AB"/>
<path d="M5.60001 13.0994C5.60001 13.8726 6.22684 14.4993 6.99999 14.4993C7.77314 14.4993 8.39987 13.8726 8.39987 13.0994C8.39987 12.3263 7.77314 11.6995 6.99999 11.6995C6.22716 11.7003 5.60086 12.3266 5.60001 13.0994ZM7.93324 13.0994C7.93324 13.6149 7.51543 14.0327 6.99999 14.0327C6.48456 14.0327 6.06663 13.6149 6.06663 13.0994C6.06663 12.584 6.48456 12.1661 6.99999 12.1661C7.51543 12.1661 7.93324 12.584 7.93324 13.0994Z" fill="#8A92AB"/>
<path d="M6.60097 12.7005C6.53368 12.7672 6.5135 12.8681 6.54981 12.9556C6.58613 13.0431 6.67189 13.1 6.76662 13.0995C6.78232 13.0991 6.79792 13.0975 6.8133 13.0948C6.82793 13.0922 6.84203 13.0875 6.85527 13.0808C6.87012 13.0757 6.88432 13.0686 6.89724 13.0598C6.90953 13.0512 6.92117 13.0418 6.93228 13.0318C7.02381 12.9403 7.02381 12.792 6.93228 12.7005C6.84085 12.609 6.6925 12.609 6.60097 12.7005Z" fill="#8A92AB"/>
</svg>
