<svg width="20" height="20" viewBox="0 0 20 20" fill="none" xmlns="http://www.w3.org/2000/svg">
<path d="M13.5032 7.17891L12.7495 6.42592L13.2355 5.93962L13.9892 6.69261L13.5032 7.17891ZM13.5036 3.45281L13.9895 3.93877L13.2365 4.69175L12.7506 4.2058L13.5036 3.45281ZM18.1201 6.82114L17.5809 6.28227L18.0668 5.79631L18.6061 6.33519L18.1201 6.82114ZM17.5864 5.31552L17.7077 5.1942L17.2217 4.70825L17.1004 4.82956L16.9788 4.70825L16.4928 5.1942L16.6145 5.31552L16.4928 5.43718L16.9788 5.92313L17.1004 5.80181L17.2217 5.92313L17.7077 5.43718L17.5864 5.31552ZM15.7233 7.17856L15.2374 6.69261L15.9904 5.93962L16.4763 6.42558L15.7233 7.17856ZM14.7353 7.19472L14.6136 7.31637L14.4923 7.19472L14.0064 7.68067L14.1277 7.80233L14.0064 7.92364L14.4923 8.4096L14.6136 8.28828L14.7353 8.4096L15.2212 7.92364L15.0999 7.80233L15.2212 7.68067L14.7353 7.19472ZM15.9904 9.66537L15.2374 8.91239L15.7233 8.42644L16.4763 9.17942L15.9904 9.66537ZM13.2372 9.66503L12.7513 9.17908L13.5042 8.42609L13.9902 8.91204L13.2372 9.66503ZM12.6131 10.2888L12.7348 10.1671L12.2488 9.68118L12.1272 9.80284L12.0058 9.68118L11.5199 10.1671L11.6412 10.2888L11.5199 10.4105L12.0058 10.8964L12.1272 10.7747L12.2488 10.8964L12.7348 10.4105L12.6131 10.2888ZM13.1465 11.7944L12.6079 11.2555L13.0939 10.7696L13.6324 11.3085L13.1465 11.7944ZM10.7511 8.42575L11.5048 9.17873L11.0188 9.66503L10.2651 8.91204L10.7511 8.42575ZM10.9532 11.9487L10.4672 11.4628L11.0989 10.8311L11.5848 11.3171L10.9532 11.9487ZM8.4667 9.46192L7.98075 8.97597L8.61242 8.3443L9.09837 8.83025L8.4667 9.46192ZM8.62066 6.29636L9.15989 6.83523L8.67393 7.32119L8.13471 6.78231L8.62066 6.29636ZM9.762 7.19472L9.64068 7.31637L9.51902 7.19472L9.03307 7.68067L9.15473 7.80233L9.03307 7.92364L9.51902 8.4096L9.64068 8.28828L9.762 8.4096L10.248 7.92364L10.1266 7.80233L10.248 7.68067L9.762 7.19472ZM11.0174 5.93928L11.5034 6.42523L10.7501 7.17856L10.2641 6.69261L11.0174 5.93928ZM12.0058 5.92313L12.1272 5.80181L12.2488 5.92313L12.7348 5.43718L12.6131 5.31552L12.7348 5.1942L12.2488 4.70825L12.1272 4.82956L12.0058 4.70825L11.5199 5.1942L11.6412 5.31552L11.5199 5.43718L12.0058 5.92313ZM10.7504 3.45281L11.5034 4.2058L11.0174 4.69175L10.2644 3.93877L10.7504 3.45281ZM13.108 1.80937L13.5939 1.32342L14.1328 1.8623L13.6469 2.34825L13.108 1.80937ZM15.7876 1.16911L16.2736 1.65506L15.6419 2.28673L15.1559 1.80078L15.7876 1.16911ZM14.7353 2.22144L14.6136 2.3431L14.4923 2.22144L14.0064 2.70739L14.1277 2.82905H14.128L14.0064 2.95071L14.4923 3.43666L14.6136 3.315L14.7353 3.43666L15.2212 2.95071L15.0999 2.82905L15.2212 2.70739L14.7353 2.22144ZM15.9904 4.69175L15.2374 3.93877L15.7233 3.45281L16.4763 4.2058L15.9904 4.69175ZM18.1287 4.7732L17.6427 4.28725L18.2744 3.65558L18.7604 4.14153L18.1287 4.7732ZM6.45244 3.61846C6.449 3.58032 6.44247 3.5432 6.43766 3.50574C6.4301 3.44869 6.42219 3.39198 6.41154 3.33562C6.40329 3.29094 6.39298 3.2473 6.38267 3.20331C6.37133 3.15451 6.35896 3.10605 6.34521 3.05793C6.3325 3.0136 6.31909 2.96995 6.30431 2.92665C6.28782 2.87785 6.26995 2.82974 6.25104 2.78162C6.23592 2.74279 6.2208 2.70395 6.20396 2.66615C6.17956 2.6091 6.15207 2.55342 6.12354 2.49775C6.1098 2.47129 6.09742 2.44414 6.08299 2.41836C5.99157 2.25202 5.88572 2.0929 5.76406 1.94478L5.57607 1.71658L5.56233 1.72483C5.00214 1.16396 4.22819 0.81616 3.37485 0.81616C2.52117 0.81616 1.74757 1.16361 1.18738 1.72449L1.17363 1.71692L0.985645 1.94478C0.92344 2.02039 0.866047 2.09874 0.811747 2.17951C0.808654 2.18432 0.805904 2.18913 0.802811 2.19394C0.754697 2.26611 0.709332 2.34035 0.667404 2.4163C0.651596 2.44517 0.637505 2.47507 0.622727 2.50428C0.595577 2.5572 0.569114 2.61013 0.545401 2.66443C0.527874 2.70395 0.512408 2.74416 0.496599 2.78437C0.478385 2.83111 0.460857 2.87751 0.445049 2.92493C0.429927 2.96927 0.41618 3.01429 0.403121 3.05965C0.389717 3.10639 0.377689 3.15382 0.366691 3.20124C0.356038 3.24592 0.345727 3.2906 0.337136 3.33596C0.326482 3.39164 0.318921 3.44766 0.31136 3.50402C0.306205 3.54217 0.300019 3.57963 0.296239 3.61812C0.286959 3.71469 0.281461 3.81161 0.281461 3.90921C0.281461 4.01506 0.286959 4.12022 0.29727 4.22401C0.298644 4.23364 0.300706 4.24291 0.301737 4.25254C0.374252 4.91136 0.656063 5.52138 1.11212 6.01145C1.13961 6.04135 1.16573 6.07228 1.1946 6.10115C1.19838 6.10493 1.20181 6.1094 1.2056 6.11318L1.41592 6.32076L1.42864 6.31113C1.96064 6.74313 2.63733 7.00295 3.37451 7.00295C4.11169 7.00295 4.78838 6.74279 5.32038 6.31113L5.33344 6.32076L5.54377 6.11318C5.54824 6.10871 5.55202 6.1039 5.55648 6.09943C5.5747 6.08122 5.59119 6.06128 5.60907 6.04238C6.08436 5.54543 6.37649 4.91961 6.44866 4.2436C6.44934 4.23707 6.45072 4.23123 6.45141 4.2247C6.46172 4.12057 6.46722 4.01575 6.46722 3.90955C6.46722 3.81195 6.46172 3.71503 6.45244 3.61846ZM1.45132 5.34851C1.38499 5.26053 1.32416 5.16946 1.27124 5.07426C1.2623 5.0581 1.25371 5.04161 1.24512 5.02511C1.19666 4.93335 1.15611 4.83815 1.12002 4.74124C1.1104 4.71478 1.10009 4.68866 1.09115 4.66151C1.05678 4.55703 1.02963 4.44981 1.01005 4.34086C1.00558 4.31577 1.00214 4.29034 0.998361 4.26491C0.981177 4.14806 0.969149 4.02984 0.969149 3.90921C0.968805 3.80748 0.977397 3.7061 0.990113 3.60575C0.993206 3.58066 0.997673 3.55591 1.00145 3.53117C1.01486 3.44834 1.03204 3.36621 1.05369 3.28544C1.0585 3.26757 1.06228 3.2497 1.06744 3.23217C1.09562 3.13595 1.12999 3.04109 1.16985 2.94899C1.17741 2.93181 1.18635 2.91565 1.19425 2.89881C1.22793 2.82595 1.26574 2.75481 1.30698 2.68574C1.31557 2.6713 1.32416 2.65687 1.3331 2.64243C1.75513 2.99848 1.99982 3.51708 1.99982 4.08105C1.99982 4.57387 1.81252 5.03405 1.47744 5.38322C1.4685 5.37188 1.46026 5.35985 1.45132 5.34851ZM3.37451 6.31491C2.84972 6.31491 2.36514 6.14411 1.96923 5.85749C2.42735 5.38116 2.68717 4.75464 2.68717 4.08105C2.68717 3.3229 2.34246 2.606 1.77197 2.12005C2.19812 1.73823 2.75865 1.5035 3.37451 1.5035C3.99037 1.5035 4.55124 1.73823 4.9774 2.1204C4.40656 2.60635 4.06185 3.32325 4.06185 4.08105C4.06185 4.75464 4.32167 5.38116 4.78013 5.85749C4.38422 6.14377 3.89964 6.31491 3.37451 6.31491ZM5.75135 4.26491C5.74757 4.29034 5.74413 4.31577 5.73966 4.34086C5.72007 4.44981 5.69292 4.55669 5.65855 4.66082C5.64928 4.68831 5.63862 4.71546 5.62865 4.74261C5.5936 4.83781 5.55339 4.93095 5.50631 5.02099C5.49634 5.04023 5.48603 5.05948 5.47572 5.07873C5.42417 5.17117 5.36506 5.2595 5.30079 5.34507C5.29117 5.35779 5.28223 5.3705 5.27227 5.38288C4.93719 5.0337 4.74954 4.57387 4.74954 4.08105C4.7492 3.51742 4.99389 2.99917 5.41592 2.64278C5.42555 2.65824 5.43517 2.67371 5.44445 2.68952C5.48363 2.75619 5.52005 2.82424 5.5527 2.89435C5.56164 2.91325 5.57161 2.93146 5.57985 2.95071C5.61938 3.04212 5.6534 3.13595 5.68158 3.23149C5.68708 3.2497 5.69086 3.2686 5.69601 3.28682C5.71767 3.36724 5.73485 3.44869 5.74791 3.53117C5.75203 3.55591 5.75616 3.58066 5.75925 3.60575C5.77197 3.7061 5.78056 3.80748 5.78056 3.90921C5.78056 4.02949 5.76853 4.14772 5.75135 4.26491ZM19.6969 2.9971C19.468 2.36028 19.1181 1.80387 18.6573 1.34301C18.1957 0.881801 17.6393 0.531943 17.0032 0.303401C15.6958 -0.166398 14.1222 -0.0887286 12.5719 0.523351C11.4474 0.967376 10.3737 1.6805 9.4685 2.58607C8.56258 3.49199 7.84912 4.56494 7.4051 5.68977C6.83494 7.13595 6.73494 8.59999 7.10473 9.85233L7.04115 9.91591L7.11469 10.1207C7.13394 10.174 7.1604 10.2242 7.18137 10.2771C6.77686 11.2336 5.52212 12.5306 4.70761 13.3482C4.32133 13.1791 3.83847 13.2454 3.53191 13.5523L0.59214 16.4917C-0.197275 17.2815 -0.197275 18.5661 0.592484 19.3562L0.644378 19.4081C1.03926 19.8027 1.55752 20.0003 2.07612 19.9999C2.59472 19.9999 3.11366 19.8027 3.5082 19.4078L6.44797 16.4684C6.76655 16.1498 6.83323 15.6769 6.6552 15.2896C7.41575 14.5335 8.81484 13.1846 9.77472 12.8004C9.7864 12.8045 9.79705 12.8107 9.80874 12.8148L10.0139 12.8887L10.0387 12.8639C10.5586 13.031 11.1154 13.1182 11.6958 13.1182C12.5396 13.1182 13.429 12.943 14.3102 12.5952C15.4347 12.1512 16.5083 11.4377 17.4135 10.5321C18.3194 9.62619 19.0329 8.55291 19.4769 7.42841C20.0883 5.87845 20.1667 4.30478 19.6969 2.9971ZM5.96236 15.9821L3.02259 18.9215C2.51705 19.427 1.63587 19.427 1.13033 18.9215L1.07844 18.8696C0.556742 18.3479 0.556742 17.499 1.07844 16.9773L4.01821 14.0379C4.08626 13.9699 4.17698 13.9324 4.27321 13.9324C4.3691 13.9324 4.45983 13.9699 4.52787 14.0379L4.98324 14.4929L5.96305 15.4727C6.10258 15.6137 6.10258 15.8418 5.96236 15.9821ZM6.21737 14.7552L5.93727 14.4754L5.24443 13.7826C6.15482 12.8636 7.08617 11.8663 7.59721 10.9765C7.66182 11.0816 7.73365 11.1813 7.80651 11.2799L7.75633 11.3177C7.87765 11.4786 8.01099 11.6326 8.15361 11.7752C8.29624 11.9181 8.44986 12.0518 8.61035 12.1725L8.63785 12.1357C8.76226 12.2319 8.89113 12.322 9.02585 12.4048C8.05258 12.9674 6.95729 14.02 6.21737 14.7552ZM18.9961 6.7256L18.9649 6.69433L18.4789 7.18028L18.7287 7.43013C18.3524 8.29 17.8063 9.11103 17.1303 9.83274L16.9788 9.68118L16.4928 10.1671L16.6427 10.317C15.911 10.9875 15.08 11.5243 14.2136 11.8889L13.9919 11.6673L13.5146 12.145C12.4265 12.4783 11.3566 12.5168 10.4232 12.2608L10.0462 11.8838L9.86819 12.0618C9.66234 11.9724 9.46713 11.8711 9.2867 11.7539C9.26642 11.7405 9.24718 11.7257 9.22725 11.7119C9.14648 11.657 9.06675 11.6006 8.99149 11.5401C8.89423 11.4611 8.79972 11.3782 8.71105 11.2896C8.6217 11.2002 8.53853 11.1054 8.45914 11.0074C8.40278 10.937 8.35019 10.8624 8.29864 10.7875C8.28077 10.762 8.26187 10.7376 8.24503 10.7115C8.18076 10.6122 8.11993 10.5094 8.06426 10.4026C8.06357 10.4012 8.06254 10.3998 8.06185 10.3981C8.00377 10.2867 7.94982 10.1709 7.90102 10.0513L7.89449 10.0352L8.04605 9.88361L7.73949 9.57705C7.46661 8.58281 7.53294 7.43254 7.9292 6.27058L8.26221 5.93756L8.111 5.78635C8.47563 4.91995 9.01245 4.08895 9.68295 3.35727L9.762 3.43666L10.248 2.95071L10.1668 2.8696C10.8886 2.1936 11.7096 1.64716 12.5698 1.27118L12.7489 1.45024L13.1489 1.0502C13.8414 0.813411 14.5308 0.686939 15.1855 0.686939C15.5604 0.686939 15.922 0.729555 16.2681 0.807912L16.6942 1.23407L16.9169 1.01137C17.3946 1.20451 17.818 1.47601 18.171 1.82862C18.4985 2.15648 18.7559 2.54586 18.9463 2.98301L18.6947 3.23458L19.1807 3.72053L19.1889 3.71229C19.402 4.63092 19.335 5.67225 18.9961 6.7256Z" fill="#8A92AB"/>
</svg>
