<svg width="20" height="21" viewBox="0 0 20 21" fill="none" xmlns="http://www.w3.org/2000/svg">
<path d="M10 0.5C4.486 0.5 0 4.986 0 10.5C0 12.915 0.860667 15.1327 2.29133 16.8627C2.295 16.8677 2.29533 16.874 2.29933 16.8787C3.33233 18.1243 4.62967 19.0793 6.07533 19.6963C6.092 19.7033 6.10833 19.711 6.125 19.718C6.242 19.7673 6.36033 19.813 6.479 19.8577C6.52567 19.8753 6.57233 19.8933 6.61967 19.9103C6.722 19.947 6.825 19.9817 6.92867 20.015C6.995 20.0363 7.06133 20.0573 7.12833 20.0773C7.22 20.1047 7.312 20.131 7.40467 20.156C7.486 20.178 7.568 20.1983 7.65 20.218C7.733 20.238 7.81633 20.258 7.9 20.2757C7.99333 20.2957 8.08767 20.3133 8.18233 20.3307C8.25833 20.3447 8.334 20.3593 8.41067 20.3717C8.51567 20.3887 8.62133 20.402 8.72733 20.4157C8.79567 20.4243 8.86367 20.4343 8.93233 20.4417C9.05233 20.4543 9.17333 20.4633 9.29467 20.4717C9.351 20.4757 9.407 20.4817 9.46367 20.4847C9.64067 20.4947 9.81967 20.5 10 20.5C10.1803 20.5 10.3593 20.4947 10.537 20.4853C10.5937 20.4823 10.6497 20.4763 10.706 20.4723C10.8273 20.4637 10.9483 20.455 11.0683 20.4423C11.137 20.435 11.205 20.425 11.2733 20.4163C11.3793 20.4027 11.485 20.3893 11.59 20.3723C11.6663 20.36 11.7423 20.3453 11.8183 20.3313C11.9127 20.314 12.007 20.2963 12.1007 20.2763C12.1843 20.2583 12.2673 20.2387 12.3507 20.2187C12.4327 20.1987 12.5147 20.1783 12.596 20.1567C12.6887 20.132 12.7807 20.1053 12.8723 20.078C12.9393 20.058 13.0057 20.037 13.072 20.0157C13.1757 19.9823 13.2787 19.9477 13.381 19.911C13.428 19.894 13.4747 19.876 13.5217 19.8583C13.6407 19.8137 13.7587 19.7677 13.8757 19.7187C13.8923 19.7117 13.9087 19.704 13.9253 19.697C15.3707 19.08 16.6683 18.125 17.7013 16.8793C17.7053 16.8747 17.7057 16.868 17.7093 16.8633C19.1393 15.1327 20 12.915 20 10.5C20 4.986 15.514 0.5 10 0.5ZM14.0523 18.9067C14.0473 18.909 14.0427 18.9117 14.0377 18.914C13.9187 18.9713 13.7977 19.0253 13.6757 19.078C13.648 19.0897 13.6207 19.1017 13.593 19.1133C13.4863 19.158 13.3783 19.2003 13.2697 19.241C13.2243 19.258 13.179 19.2747 13.1333 19.2907C13.037 19.325 12.9403 19.358 12.8427 19.3893C12.782 19.4087 12.721 19.427 12.66 19.445C12.5733 19.471 12.4863 19.496 12.3983 19.5193C12.3243 19.539 12.2497 19.557 12.175 19.5747C12.0967 19.5933 12.0187 19.6123 11.9397 19.629C11.8533 19.6473 11.7663 19.663 11.6797 19.6787C11.6093 19.6917 11.5393 19.7053 11.4683 19.7167C11.3707 19.732 11.272 19.7443 11.1737 19.7567C11.1113 19.7647 11.0493 19.774 10.9863 19.7807C10.874 19.7927 10.7607 19.8003 10.6477 19.8083C10.5973 19.8117 10.5473 19.8173 10.4963 19.82C10.3313 19.8287 10.166 19.8333 10 19.8333C9.834 19.8333 9.66867 19.8287 9.504 19.82C9.45333 19.8173 9.40333 19.812 9.35267 19.8083C9.23933 19.8007 9.12633 19.7927 9.014 19.7807C8.951 19.774 8.889 19.7647 8.82667 19.7567C8.72833 19.7443 8.62967 19.732 8.532 19.7167C8.461 19.7053 8.391 19.6917 8.32067 19.6787C8.23367 19.663 8.14667 19.647 8.06067 19.629C7.98167 19.6123 7.90333 19.5933 7.82533 19.5747C7.75067 19.5567 7.676 19.539 7.602 19.5193C7.51433 19.496 7.427 19.4707 7.34033 19.445C7.27933 19.427 7.21833 19.4087 7.15767 19.3893C7.06 19.358 6.963 19.325 6.867 19.2907C6.82133 19.2743 6.776 19.2577 6.73067 19.241C6.622 19.2003 6.514 19.158 6.40733 19.1133C6.37967 19.102 6.35267 19.09 6.325 19.0783C6.203 19.026 6.082 18.9717 5.96267 18.9143C5.95767 18.912 5.953 18.9097 5.948 18.907C4.785 18.3443 3.75767 17.5457 2.924 16.5757C3.56833 14.203 5.39233 12.2903 7.739 11.5293C7.78533 11.5577 7.83367 11.583 7.88133 11.6097C7.90933 11.6253 7.937 11.642 7.96533 11.657C8.06467 11.7097 8.16533 11.759 8.26833 11.8033C8.34733 11.838 8.429 11.8673 8.51033 11.8973C8.52633 11.903 8.54233 11.9093 8.55833 11.915C9.01033 12.075 9.494 12.1667 10 12.1667C10.506 12.1667 10.9897 12.075 11.4413 11.915C11.4573 11.9093 11.4733 11.903 11.4893 11.8973C11.5707 11.8673 11.6523 11.838 11.7313 11.8033C11.8343 11.759 11.935 11.7097 12.0343 11.657C12.0627 11.6417 12.0903 11.6253 12.1183 11.6097C12.166 11.583 12.2147 11.5577 12.2613 11.529C14.608 12.2903 16.4317 14.203 17.0763 16.5753C16.2427 17.545 15.2153 18.3437 14.0523 18.9067ZM6.33333 7.83333C6.33333 5.81167 7.97833 4.16667 10 4.16667C12.0217 4.16667 13.6667 5.81167 13.6667 7.83333C13.6667 9.11933 12.9997 10.251 11.9947 10.9057C11.8633 10.991 11.7267 11.0673 11.5863 11.134C11.5697 11.142 11.5533 11.1503 11.5367 11.158C10.5713 11.597 9.42867 11.597 8.46333 11.158C8.44667 11.1503 8.43 11.142 8.41367 11.134C8.273 11.0673 8.13667 10.991 8.00533 10.9057C7.00033 10.251 6.33333 9.11933 6.33333 7.83333ZM17.5763 15.941C16.8207 13.7097 15.0967 11.9063 12.894 11.0497C13.775 10.256 14.3333 9.11 14.3333 7.83333C14.3333 5.444 12.3893 3.5 10 3.5C7.61067 3.5 5.66667 5.444 5.66667 7.83333C5.66667 9.11 6.225 10.256 7.10633 11.0497C4.90367 11.9067 3.17967 13.7097 2.424 15.941C1.31967 14.408 0.666667 12.5293 0.666667 10.5C0.666667 5.35367 4.85367 1.16667 10 1.16667C15.1463 1.16667 19.3333 5.35367 19.3333 10.5C19.3333 12.5293 18.6803 14.408 17.5763 15.941Z" fill="white"/>
</svg>
