<svg width="18" height="12" viewBox="0 0 18 12" fill="none" xmlns="http://www.w3.org/2000/svg">
<path fill-rule="evenodd" clip-rule="evenodd" d="M1.94159 0C-0.267882 2.51597 1.87599 4.69133 3.36955 6.84845C3.88092 7.58844 4.30159 8.1703 4.77243 8.77851C5.44974 7.23365 5.83375 5.80639 7.03015 4.05879C9.13928 0.969083 11.6633 -0.0729853 15.183 1.17993C16.3099 1.58135 16.9892 2.01723 18.0003 2.64572C16.0803 2.18956 14.114 1.83882 12.2383 2.72478C9.99798 3.7851 8.64721 5.67663 7.63992 7.97567C7.07646 9.26305 6.42616 12.2331 4.73962 11.9858C3.57603 11.8135 1.30287 8.21085 0.878344 7.2519C-0.223499 4.76635 -0.69241 1.55094 1.94159 0Z" fill="white"/>
</svg>
