<svg width="17" height="19" viewBox="0 0 17 19" fill="none" xmlns="http://www.w3.org/2000/svg">
<g clip-path="url(#clip0_257_1477)">
<path d="M16.1631 8.92436C16.1776 8.88969 16.1841 8.85238 16.1833 8.81507C16.4326 7.42013 16.3751 5.97954 15.9313 4.57319C15.732 3.94156 15.2365 3.44556 14.6048 3.24672C13.2757 2.82798 11.7645 2.72483 10.2269 3.01409C10.2071 3.0154 10.1878 3.01935 10.169 3.02506C9.81517 3.09397 9.46051 3.18351 9.10585 3.29457C8.99831 3.32836 8.89077 3.36392 8.78411 3.40167C8.77577 3.4043 8.76699 3.40737 8.75909 3.41044C5.52018 4.55563 2.63812 7.37579 1.44027 10.7069C1.41657 10.7429 1.40208 10.7841 1.39813 10.8267C1.24845 11.2586 1.12731 11.6989 1.03776 12.1453C1.02679 12.1734 1.02108 12.2037 1.02021 12.2335C0.746749 13.6583 0.793276 15.1406 1.2524 16.5978C1.45168 17.2295 1.94724 17.7255 2.57887 17.9243C3.98917 18.3681 5.43108 18.4251 6.82558 18.1763C6.86069 18.1767 6.89581 18.1706 6.92873 18.1574C7.36635 18.0744 7.79914 17.9612 8.22491 17.8203C8.26836 17.8168 8.3105 17.8027 8.34781 17.779C11.7245 16.6163 14.6184 13.7193 15.7829 10.3461C15.8102 10.3061 15.8255 10.2596 15.8282 10.2118C15.9677 9.78907 16.0801 9.35891 16.1631 8.92436ZM9.47895 3.73614C9.71597 3.6681 9.953 3.61016 10.19 3.56188C12.2728 5.01563 14.1953 6.92457 15.6355 8.88574C15.5916 9.11486 15.5371 9.34969 15.4713 9.58891C13.9276 7.37975 11.7851 5.25705 9.47895 3.73614ZM14.4455 3.75238C14.9117 3.89942 15.2777 4.26549 15.4248 4.73164C15.6394 5.41419 15.9067 6.63092 15.7452 8.14876C14.4152 6.4255 12.7451 4.77378 10.9358 3.44293C12.1753 3.2972 13.382 3.41659 14.4455 3.75238ZM6.89186 17.6267C4.93069 16.1857 3.02219 14.2645 1.56975 12.1826C1.61848 11.9473 1.67642 11.7112 1.74489 11.475C3.26844 13.7847 5.38982 15.9228 7.5902 17.4608C7.35888 17.5249 7.12581 17.5806 6.89186 17.6267ZM2.73864 17.4173C2.27249 17.2703 1.90642 16.9042 1.75937 16.4381C1.41218 15.3368 1.30025 14.1459 1.44817 12.9253C2.78034 14.7372 4.43645 16.4104 6.15971 17.74C5.02199 17.8681 3.86759 17.7733 2.73864 17.4173ZM11.2522 15.6142C10.3125 16.3239 9.29371 16.8832 8.23456 17.2576C7.09816 16.4995 5.99555 15.5883 4.95439 14.5476C3.77453 13.3673 2.76629 12.115 1.95733 10.8236C2.34535 9.76317 2.93528 8.70665 3.74293 7.69183C5.04657 6.05372 6.8563 4.67414 8.828 3.94946C11.3488 5.52875 13.6861 7.8617 15.2685 10.2341C14.5329 12.3121 13.0554 14.2491 11.2522 15.6142ZM11.9941 8.81068C12.1617 8.97835 12.0415 9.2641 11.8062 9.2641C11.7381 9.2641 11.6701 9.2382 11.6183 9.18641L10.9924 8.56048L10.4077 9.14471L11.0341 9.77107C11.1377 9.87466 11.1377 10.0428 11.0341 10.1468C10.9292 10.2508 10.7611 10.2495 10.6584 10.1468L10.032 9.52044L9.44734 10.1051L10.0733 10.731C10.1769 10.8346 10.1769 11.0027 10.0733 11.1068C9.96968 11.2103 9.80112 11.2103 9.69754 11.1068L9.07161 10.4808L8.48739 11.0651L9.11331 11.691C9.28099 11.8587 9.16072 12.1444 8.92545 12.1444C8.85741 12.1444 8.78938 12.1185 8.73758 12.0667L8.11122 11.4408L7.52656 12.0254L8.15292 12.6518C8.25651 12.7554 8.25651 12.9235 8.15292 13.0275C8.04933 13.1311 7.88078 13.1311 7.77719 13.0275L7.15127 12.4016L6.56704 12.9858L7.19341 13.6118C7.29699 13.7154 7.29699 13.8835 7.19341 13.9875C7.08982 14.0911 6.92126 14.0911 6.81768 13.9875L6.19131 13.3611L5.7831 13.7698C5.67951 13.8734 5.51096 13.8734 5.40737 13.7698C5.30378 13.6662 5.30378 13.4981 5.40737 13.394L5.81558 12.9858L5.18966 12.3599C5.08607 12.2563 5.08607 12.0882 5.18966 11.9842C5.29325 11.8806 5.46136 11.8806 5.56539 11.9842L6.19131 12.6101L6.77554 12.0259L6.14961 11.3991C6.04603 11.2955 6.04603 11.1269 6.14961 11.0234C6.2532 10.9198 6.42132 10.9198 6.52534 11.0234L7.15127 11.6497L7.73593 11.0651L7.11001 10.4387C7.00642 10.3351 7.00642 10.167 7.11001 10.063C7.2136 9.95937 7.38171 9.95937 7.48574 10.063L8.1121 10.6889L8.69632 10.1047L8.06996 9.47874C7.96637 9.37515 7.96637 9.20704 8.06996 9.10301C8.17355 8.99942 8.34166 8.99942 8.44569 9.10301L9.07205 9.72893L9.65672 9.14471L9.03079 8.51878C8.9272 8.4152 8.9272 8.24708 9.03079 8.14305C9.13438 8.03947 9.30293 8.03947 9.40652 8.14305L10.0324 8.76898L10.6167 8.18475L9.99031 7.55839C9.88672 7.4548 9.88672 7.28669 9.99031 7.18266C10.0939 7.07907 10.262 7.07907 10.366 7.18266L10.992 7.80859L11.4002 7.40037C11.5038 7.29679 11.6723 7.29679 11.7759 7.40037C11.8795 7.50396 11.8795 7.67208 11.7759 7.7761L11.3672 8.18431L11.9941 8.81068Z" fill="#8A92AB"/>
</g>
<path fill-rule="evenodd" clip-rule="evenodd" d="M2.93302 0C1.87127 1.20903 2.90149 2.25438 3.61921 3.29097C3.86494 3.64656 4.06709 3.92617 4.29335 4.21844C4.61883 3.47607 4.80336 2.79021 5.37828 1.95042C6.3918 0.465684 7.60469 -0.0350724 9.29607 0.567005C9.8376 0.759903 10.164 0.969364 10.6499 1.27138C9.72726 1.05217 8.78235 0.883631 7.88103 1.30937C6.80444 1.8189 6.15534 2.72786 5.6713 3.83264C5.40053 4.45128 5.08803 5.87853 4.27758 5.75968C3.71843 5.67687 2.62608 3.94565 2.42208 3.48484C1.8926 2.29043 1.66727 0.74529 2.93302 0Z" fill="#8A92AB"/>
<defs>
<clipPath id="clip0_257_1477">
<rect width="17" height="17" fill="white" transform="translate(0 2)"/>
</clipPath>
</defs>
</svg>
