<svg width="18" height="19" viewBox="0 0 18 19" fill="none" xmlns="http://www.w3.org/2000/svg">
<path fill-rule="evenodd" clip-rule="evenodd" d="M1.00463 10.2167C1.00155 10.3107 1 10.4052 1 10.5C1 10.5948 1.00155 10.6893 1.00463 10.7833C1.00759 10.8736 1.01196 10.9636 1.01771 11.0531C1.15215 13.1462 2.04422 15.0332 3.42256 16.4426C3.55507 16.5781 3.69206 16.7092 3.83333 16.8356C5.27165 18.123 7.15094 18.9277 9.21667 18.9954C9.31073 18.9984 9.4052 19 9.5 19C9.5948 19 9.68927 18.9984 9.78333 18.9954C11.8491 18.9277 13.7284 18.123 15.1667 16.8356C15.3079 16.7092 15.4449 16.5781 15.5774 16.4426C17.0148 14.9729 17.9233 12.9839 17.9954 10.7833C17.9984 10.6893 18 10.5948 18 10.5C18 10.4052 17.9984 10.3107 17.9954 10.2167C17.9233 8.01607 17.0148 6.0271 15.5774 4.55737C15.4449 4.42188 15.3079 4.29081 15.1667 4.16437C13.7284 2.87704 11.8491 2.07229 9.78333 2.00463C9.68927 2.00155 9.5948 2 9.5 2C9.4052 2 9.31073 2.00155 9.21667 2.00463C7.15094 2.07229 5.27165 2.87704 3.83333 4.16437C3.69206 4.29081 3.55507 4.42188 3.42256 4.55737C2.01332 5.9984 1.1124 7.93858 1.00981 10.088C1.00777 10.1308 1.00604 10.1737 1.00463 10.2167ZM3.83333 16.0522C2.49271 14.6841 1.64356 12.8326 1.57163 10.7833H6.09504C6.0231 12.8326 5.17395 14.6841 3.83333 16.0522ZM3.83333 4.94783C2.49271 6.3159 1.64356 8.16743 1.57163 10.2167H6.09504C6.0231 8.16743 5.17395 6.3159 3.83333 4.94783ZM9.21667 10.7833H6.66202C6.58997 12.9839 5.68143 14.9729 4.24411 16.4426C5.57782 17.6231 7.31182 18.3615 9.21667 18.4284V10.7833ZM6.66202 10.2167H9.21667V2.57163C7.31182 2.6385 5.57782 3.37691 4.24411 4.55737C5.68143 6.0271 6.58997 8.01607 6.66202 10.2167ZM9.78333 18.4284V10.7833H12.338C12.41 12.9839 13.3186 14.9729 14.7559 16.4426C13.4222 17.6231 11.6882 18.3615 9.78333 18.4284ZM9.78333 10.2167H12.338C12.41 8.01607 13.3186 6.0271 14.7559 4.55737C13.4222 3.37691 11.6882 2.6385 9.78333 2.57163V10.2167ZM15.1667 16.0522C13.826 14.6841 12.9769 12.8326 12.905 10.7833H17.4284C17.3564 12.8326 16.5073 14.6841 15.1667 16.0522ZM15.1667 4.94783C13.826 6.3159 12.9769 8.16743 12.905 10.2167H17.4284C17.3564 8.16743 16.5073 6.3159 15.1667 4.94783Z" fill="#8A92AB"/>
<path fill-rule="evenodd" clip-rule="evenodd" d="M0.933017 0C-0.128728 1.20903 0.901489 2.25438 1.61921 3.29097C1.86494 3.64656 2.06709 3.92617 2.29335 4.21844C2.61883 3.47607 2.80336 2.79021 3.37828 1.95042C4.3918 0.465684 5.60469 -0.0350724 7.29607 0.567005C7.8376 0.759903 8.16401 0.969364 8.64991 1.27138C7.72726 1.05217 6.78235 0.883631 5.88103 1.30937C4.80444 1.8189 4.15534 2.72786 3.6713 3.83264C3.40053 4.45128 3.08803 5.87853 2.27758 5.75968C1.71843 5.67687 0.626084 3.94565 0.422081 3.48484C-0.107401 2.29043 -0.332732 0.74529 0.933017 0Z" fill="#8A92AB"/>
</svg>
