<svg width="26" height="28" viewBox="0 0 26 28" fill="none" xmlns="http://www.w3.org/2000/svg">
<path d="M12.7984 28H12.7562C12.7046 28 12.6542 27.9941 12.606 27.983C12.5872 27.9787 12.5677 27.9734 12.5476 27.9668C10.4661 27.3371 8.51243 26.2299 6.74083 24.6761C5.08363 23.2227 3.6545 21.4146 2.6079 19.4473C0.585099 15.6451 -0.327034 10.9269 0.105233 6.50238C0.136166 6.18558 0.386766 5.93485 0.703566 5.90378C0.719366 5.90218 2.37517 5.72972 4.62877 4.93718C6.69403 4.21092 9.70243 2.79865 12.3059 0.19525C12.5663 -0.0650833 12.9884 -0.0650833 13.2488 0.19525C15.8522 2.79872 18.8606 4.21092 20.9259 4.93718C23.1796 5.72972 24.8353 5.90218 24.8518 5.90385C25.168 5.93558 25.4186 6.18612 25.4494 6.50245C25.8818 10.927 24.9696 15.6452 22.9468 19.4473C21.9002 21.4147 20.4711 23.2227 18.8139 24.6762C17.0423 26.2301 15.0886 27.3371 13.0071 27.9669C12.987 27.9735 12.9675 27.9788 12.9487 27.9831C12.9004 27.9941 12.8502 28 12.7984 28ZM1.38797 7.15438C1.09803 11.1706 1.96157 15.3935 3.78503 18.8211C5.7823 22.5753 9.13417 25.4868 12.7774 26.6421C16.4206 25.4868 19.7724 22.5753 21.7698 18.8211C23.5932 15.3936 24.4568 11.1707 24.1668 7.15445C23.4638 7.04085 22.1474 6.77678 20.5249 6.20958C18.4404 5.48092 15.4554 4.09745 12.7774 1.59392C10.0993 4.09752 7.1143 5.48092 5.02983 6.20958C3.4073 6.77672 2.09097 7.04078 1.38797 7.15438Z" fill="#88B6FF"/>
<path d="M11.0947 17.6228C10.9241 17.6228 10.7534 17.5577 10.6233 17.4275L8.07806 14.8823C7.81773 14.622 7.81773 14.1999 8.07806 13.9395C8.3384 13.6791 8.76053 13.6791 9.02093 13.9395L11.0947 16.0132L16.5377 10.5702C16.7981 10.3099 17.2201 10.3099 17.4805 10.5702C17.7409 10.8305 17.7409 11.2527 17.4805 11.5131L11.5661 17.4275C11.4359 17.5577 11.2653 17.6228 11.0947 17.6228Z" fill="#88B6FF"/>
</svg>
