<svg width="18" height="20" viewBox="0 0 18 20" fill="none" xmlns="http://www.w3.org/2000/svg">
<path d="M4.45595 6.32677C4.31826 6.20575 4.10848 6.21923 3.98742 6.35695C3.59629 6.80191 3.25958 7.29414 2.98662 7.81995C2.90215 7.98271 2.9656 8.18312 3.12833 8.26759C3.17723 8.29296 3.2295 8.30498 3.28099 8.30498C3.40099 8.30498 3.51684 8.23973 3.57594 8.12588C3.82416 7.64769 4.13043 7.20001 4.48617 6.79533C4.60716 6.65757 4.59365 6.44783 4.45595 6.32677Z" fill="#00BF9E"/>
<path d="M3.03137 8.50073C2.85911 8.43917 2.66883 8.53001 2.60674 8.70217C2.60654 8.7027 2.60527 8.70622 2.60508 8.70675C2.54388 8.87921 2.63433 9.06724 2.80665 9.12886C2.84327 9.14198 2.88073 9.14819 2.91758 9.14819C3.05405 9.14819 3.18241 9.06299 3.23132 8.92742C3.23152 8.92689 3.23278 8.92337 3.23298 8.92284C3.29414 8.75038 3.20373 8.56235 3.03137 8.50073Z" fill="#00BF9E"/>
<path d="M10.3063 18.1627C10.2938 17.9798 10.1354 17.8412 9.95248 17.8541C9.41492 17.8908 8.87335 17.8621 8.34269 17.7687C8.1622 17.737 7.98998 17.8576 7.9582 18.0382C7.92643 18.2188 8.04709 18.3909 8.22765 18.4227C8.64717 18.4965 9.07286 18.5335 9.49873 18.5335C9.66511 18.5335 9.83162 18.5279 9.99767 18.5165C10.1807 18.504 10.3188 18.3456 10.3063 18.1627Z" fill="#00BF9E"/>
<path d="M11.2188 17.9984C11.1837 17.8185 11.0094 17.701 10.8293 17.7362L10.8182 17.7385C10.6388 17.7763 10.5241 17.9524 10.5619 18.1319C10.5949 18.2881 10.7328 18.3954 10.8864 18.3954C10.9091 18.3954 10.9321 18.393 10.9553 18.3882L10.9566 18.3879C11.1365 18.3528 11.2539 18.1784 11.2188 17.9984Z" fill="#00BF9E"/>
<path d="M17.6481 8.7947C17.6432 8.77787 17.6382 8.76104 17.6331 8.74424C17.6226 8.70964 17.612 8.67501 17.6011 8.64048C17.5888 8.60133 17.576 8.56235 17.5631 8.52344C17.5581 8.50843 17.5535 8.49335 17.5485 8.47835C17.5459 8.47084 17.5431 8.46347 17.5406 8.456C17.5229 8.40391 17.5046 8.35204 17.4858 8.30038C17.4793 8.28225 17.4726 8.26419 17.4658 8.24609C17.4494 8.20157 17.4325 8.15724 17.4153 8.11305C17.4091 8.09688 17.4029 8.08064 17.3965 8.06454C17.3743 8.00836 17.3515 7.95241 17.3281 7.8968C17.3201 7.8778 17.3118 7.85901 17.3037 7.84008C17.2883 7.80416 17.2727 7.76833 17.2569 7.73267C17.2442 7.70435 17.2315 7.67613 17.2186 7.64801C17.2082 7.62536 17.1977 7.60282 17.1871 7.58027C16.3742 5.84545 15.009 4.44624 13.2664 3.58439C12.1749 3.0446 11.0142 2.75079 9.81192 2.70816C9.81178 2.70816 9.81165 2.70816 9.81148 2.70816C9.76732 2.7066 9.72306 2.70544 9.6788 2.70457C9.65573 2.70411 9.63262 2.70387 9.60951 2.70361C9.57505 2.70318 9.54065 2.70215 9.50608 2.70215C7.94498 2.70215 6.41352 3.13173 5.07736 3.94447C4.56219 4.25784 4.08489 4.62344 3.65176 5.03443C3.65007 5.03599 3.64821 5.03735 3.64655 5.03894C3.61294 5.07085 3.57991 5.10329 3.54687 5.13573C3.54611 5.13646 3.54534 5.13719 3.54461 5.13792C3.51197 5.17 3.47967 5.2024 3.44759 5.23498C3.44308 5.23959 3.43853 5.24414 3.43401 5.24875C3.08668 5.60293 2.77204 5.98599 2.49221 6.39522C2.49214 6.39532 2.49204 6.39545 2.49198 6.39559C2.46462 6.43556 2.43759 6.47584 2.4109 6.51631C2.40844 6.52003 2.40605 6.52378 2.40359 6.5275C2.33164 6.63704 2.26221 6.74837 2.19521 6.86149C2.18541 6.87803 2.17549 6.8945 2.16576 6.91113C2.15065 6.937 2.13584 6.96306 2.121 6.98912C2.10672 7.01413 2.09254 7.03919 2.07853 7.06436C2.06585 7.08717 2.05327 7.11002 2.04078 7.13293C2.02398 7.16377 2.00745 7.19478 1.99101 7.22586C1.98112 7.24459 1.97112 7.26322 1.96136 7.28201C1.93629 7.33029 1.91155 7.3788 1.88735 7.4276C1.88629 7.4297 1.88519 7.43179 1.88416 7.43388C1.8829 7.43647 1.88174 7.43906 1.88048 7.44165C1.8481 7.50726 1.81669 7.5732 1.78608 7.63931C1.77858 7.65554 1.77147 7.67194 1.76407 7.68825C1.73916 7.74293 1.71473 7.79772 1.69105 7.85274C1.68514 7.86651 1.67947 7.88033 1.67366 7.89414C1.64819 7.9542 1.62339 8.01443 1.59938 8.07483C1.59629 8.08263 1.59324 8.09044 1.59018 8.09824C0.89624 9.85896 0.811041 11.7793 1.35162 13.6048C1.35677 13.6223 1.36195 13.6397 1.36719 13.6571C1.37752 13.6912 1.38794 13.7253 1.39873 13.7594C1.41148 13.7999 1.42467 13.8401 1.43801 13.8804C1.44263 13.8943 1.44688 13.9082 1.45156 13.9221C1.45375 13.9286 1.45618 13.935 1.4584 13.9415C1.47656 13.9949 1.49532 14.0481 1.51451 14.101C1.52082 14.1183 1.5272 14.1356 1.5336 14.1529C1.55047 14.1985 1.5677 14.244 1.58534 14.2892C1.59128 14.3045 1.59709 14.3198 1.60313 14.335C1.62558 14.3917 1.64855 14.4483 1.67219 14.5044C1.67963 14.5221 1.6874 14.5397 1.695 14.5574C1.71098 14.5946 1.72715 14.6318 1.74365 14.6688C1.7559 14.6963 1.76832 14.7238 1.78083 14.7511C1.79176 14.775 1.80291 14.7987 1.81404 14.8224C2.62698 16.5561 3.99176 17.9545 5.73352 18.816C6.86594 19.376 8.07294 19.6713 9.32353 19.6959C9.34372 19.6963 9.36394 19.6965 9.38416 19.6967C9.42072 19.6972 9.45717 19.6983 9.49383 19.6983C11.0549 19.6983 12.5864 19.2687 13.9225 18.4559C14.4378 18.1425 14.9151 17.7769 15.3484 17.3658C15.35 17.3643 15.3518 17.363 15.3534 17.3614C15.386 17.3304 15.418 17.299 15.4501 17.2675C15.452 17.2656 15.454 17.2638 15.4559 17.2619C15.488 17.2303 15.5198 17.1984 15.5515 17.1663C15.5565 17.1612 15.5615 17.1561 15.5665 17.151C15.9481 16.7622 16.29 16.3384 16.5897 15.8835C16.5916 15.8805 16.5935 15.8775 16.5955 15.8746C16.6683 15.7637 16.7386 15.6511 16.8064 15.5365C16.8156 15.521 16.8249 15.5055 16.834 15.4899C16.8494 15.4636 16.8645 15.437 16.8796 15.4105C16.8936 15.386 16.9075 15.3614 16.9212 15.3367C16.9341 15.3136 16.9468 15.2904 16.9595 15.2672C16.9761 15.2367 16.9925 15.2061 17.0087 15.1754C17.0188 15.1564 17.0289 15.1374 17.0389 15.1184C17.0639 15.0702 17.0886 15.0218 17.1127 14.973C17.1138 14.9709 17.1149 14.9688 17.1159 14.9667C17.1172 14.9642 17.1183 14.9616 17.1196 14.959C17.152 14.8933 17.1835 14.8273 17.2141 14.7611C17.2214 14.7452 17.2284 14.7291 17.2356 14.7132C17.2607 14.6581 17.2854 14.6029 17.3092 14.5475C17.3149 14.534 17.3205 14.5205 17.3262 14.5071C17.3518 14.4467 17.3767 14.3861 17.4009 14.3253C17.4039 14.3178 17.4068 14.3102 17.4098 14.3026C18.1038 12.5414 18.189 10.6206 17.6481 8.7947ZM16.5259 7.73719C16.5281 7.74164 16.5303 7.74602 16.5325 7.75047C16.5475 7.78118 16.5622 7.81206 16.5769 7.84297C16.5875 7.86555 16.598 7.8882 16.6085 7.91087C16.6199 7.93548 16.6313 7.96005 16.6424 7.98482C16.6632 8.0311 16.6835 8.07769 16.7034 8.12447C16.7109 8.14203 16.7181 8.1597 16.7255 8.17729C16.7417 8.21624 16.7577 8.25532 16.7733 8.2946C16.779 8.30908 16.7849 8.32352 16.7906 8.338C16.8107 8.38953 16.8304 8.44129 16.8495 8.49335C16.8549 8.50803 16.8601 8.52284 16.8654 8.53755C16.8795 8.57643 16.8932 8.61551 16.9066 8.65469C16.9135 8.67478 16.9205 8.69483 16.9272 8.71495C16.9407 8.75519 16.9537 8.79554 16.9665 8.83591C16.9792 8.87628 16.9916 8.91679 17.0038 8.95743C17.0078 8.97085 17.0119 8.98429 17.0158 8.99774C17.0396 9.07889 17.0622 9.16047 17.0834 9.24261L16.1448 10.8684L13.1099 10.8683L11.5925 8.24008L13.1099 5.61176L14.9905 5.6118C15.6215 6.2314 16.1389 6.94958 16.5259 7.73719ZM12.5348 11.2002L11.0174 13.8285H7.98253L6.46512 11.2002L7.98253 8.57198H11.0174L12.5348 11.2002ZM12.9721 4.17962C13.4157 4.39906 13.8325 4.65668 14.2197 4.9477L13.1098 4.94767L12.5558 3.98827C12.6958 4.0478 12.8345 4.11158 12.9721 4.17962ZM7.40357 3.65425C8.08964 3.46339 8.79643 3.36671 9.50648 3.36671C9.53856 3.36671 9.5706 3.36714 9.60264 3.3675C9.6208 3.36774 9.63899 3.36794 9.65719 3.36827C10.3129 3.38095 10.9636 3.47628 11.5953 3.65239L12.5349 5.2797L11.0174 7.90795L7.98256 7.90792L6.46512 5.2797L7.40357 3.65425ZM6.44978 3.97824L5.89007 4.94767H4.77007C5.28664 4.55591 5.85056 4.23015 6.44978 3.97824ZM1.97467 9.02623C1.97796 9.01494 1.98151 9.00375 1.98483 8.99246C1.99968 8.94206 2.01478 8.89166 2.03069 8.84145C2.04065 8.81004 2.05127 8.77883 2.06163 8.74752C2.07173 8.71698 2.08152 8.68636 2.09201 8.65585C2.11028 8.60289 2.12933 8.55016 2.14872 8.4976C2.15218 8.48831 2.1553 8.47891 2.15878 8.46961C2.25285 8.21744 2.35986 7.96978 2.47943 7.72812C2.50247 7.68154 2.52601 7.63529 2.54988 7.5893C2.55629 7.57698 2.56287 7.5648 2.56931 7.55251C2.58724 7.51841 2.6053 7.48441 2.62369 7.45061C2.6309 7.43737 2.6382 7.42418 2.64551 7.41097C2.66437 7.37677 2.68343 7.3427 2.70278 7.30884C2.70879 7.29828 2.71484 7.28772 2.72088 7.27719C2.74462 7.23606 2.76862 7.19512 2.7931 7.15448C2.79449 7.15212 2.79588 7.14973 2.79731 7.1474C3.13625 6.58518 3.54216 6.07076 4.00952 5.6117H5.89021L7.40758 8.23998L5.89017 10.8682L2.85528 10.8682L1.9161 9.24148C1.93456 9.1696 1.95392 9.09782 1.97467 9.02623ZM1.72897 12.1549C1.65055 11.5247 1.64819 10.8822 1.72661 10.2414L2.28017 11.2002L1.72897 12.1549ZM1.91903 13.1538L2.85528 11.5322L5.89017 11.5322L7.40758 14.1605L5.89007 16.7887L4.01228 16.7887C2.98677 15.7803 2.27121 14.5166 1.91903 13.1538ZM6.0278 18.2208C5.58168 18.0002 5.16615 17.742 4.78245 17.4527H5.89011L6.44403 18.4122C6.30415 18.3526 6.16539 18.2888 6.0278 18.2208ZM11.5964 18.7462C10.9103 18.9371 10.2035 19.0338 9.4934 19.0338C9.46043 19.0338 9.42746 19.0333 9.39449 19.0329C9.37769 19.0327 9.36085 19.0325 9.34405 19.0322C8.68786 19.0196 8.03675 18.9244 7.4046 18.7481L6.46505 17.1207L7.98246 14.4925H11.0174L12.5348 17.1208L11.5964 18.7462ZM12.5501 18.4222L13.1099 17.4527H14.2299C13.7133 17.8445 13.1494 18.1703 12.5501 18.4222ZM16.6146 14.4749C16.6122 14.4802 16.6099 14.4855 16.6074 14.4908C16.5793 14.5516 16.5503 14.6121 16.5206 14.6723C16.4976 14.7187 16.4742 14.7646 16.4505 14.8103C16.4435 14.8239 16.4362 14.8373 16.4291 14.8509C16.4118 14.8836 16.3945 14.9163 16.3769 14.9487C16.3691 14.9629 16.3613 14.977 16.3535 14.9911C16.3352 15.0243 16.3167 15.0574 16.298 15.0902C16.2915 15.1016 16.285 15.113 16.2784 15.1243C16.2554 15.1642 16.2321 15.2039 16.2084 15.2434C16.2063 15.2469 16.2042 15.2505 16.2021 15.254C15.8633 15.8158 15.4576 16.3299 14.9905 16.7887H13.1098L11.5924 14.1604L13.1098 11.5322L16.1447 11.5322L17.0844 13.1598C16.9677 13.6097 16.81 14.0506 16.6146 14.4749ZM17.2762 12.1641L16.7197 11.2002L17.275 10.2384C17.3558 10.8803 17.3558 11.5263 17.2762 12.1641Z" fill="#00BF9E"/>
<path fill-rule="evenodd" clip-rule="evenodd" d="M0.933017 0.333496C-0.128728 1.54252 0.901489 2.58788 1.61921 3.62446C1.86494 3.98006 2.06709 4.25966 2.29335 4.55193C2.61883 3.80957 2.80336 3.1237 3.37828 2.28391C4.3918 0.79918 5.60469 0.298424 7.29607 0.900501C7.8376 1.0934 8.16401 1.30286 8.64991 1.60487C7.72726 1.38567 6.78235 1.21713 5.88103 1.64287C4.80444 2.15239 4.15534 3.06135 3.6713 4.16614C3.40053 4.78478 3.08803 6.21203 2.27758 6.09317C1.71843 6.01036 0.626084 4.27915 0.422081 3.81833C-0.107401 2.62392 -0.332732 1.07879 0.933017 0.333496Z" fill="#00BF9E"/>
</svg>
