<svg width="18" height="19" viewBox="0 0 18 19" fill="none" xmlns="http://www.w3.org/2000/svg">
<path d="M13.1636 9.61804L10.6812 8.17998L8.21599 6.75903C7.97631 6.62207 7.70239 6.58783 7.46272 6.65631C7.22304 6.72479 7.00048 6.87887 6.86352 7.11855C6.81216 7.18702 6.79504 7.27262 6.7608 7.35822C6.74368 7.40958 6.74368 7.47806 6.72656 7.54654C6.72656 7.56366 6.72656 7.5979 6.72656 7.61502V10.5254V13.4358C6.72656 13.7097 6.8464 13.9665 7.0176 14.1377C7.20592 14.326 7.4456 14.4287 7.71951 14.4287C7.87359 14.4287 8.19887 14.2918 8.28447 14.2404L10.7155 12.8366H10.7326L10.7497 12.8195L13.2663 11.3643C13.506 11.2273 13.6601 11.0047 13.7286 10.748C13.7457 10.6966 13.7457 10.6281 13.7457 10.5596C13.7457 9.99468 13.1636 9.61804 13.1636 9.61804ZM12.8212 10.6281L10.3388 12.0662C10.3217 12.0662 10.3046 12.0833 10.3046 12.0833L7.87359 13.4871C7.85647 13.5042 7.77087 13.5385 7.73663 13.5385C7.70239 13.5385 7.66815 13.5214 7.63391 13.5042C7.61679 13.4871 7.59967 13.4358 7.59967 13.4015V10.5083V7.61502V7.5979C7.59967 7.58078 7.59967 7.58078 7.59967 7.56366C7.59967 7.56366 7.59967 7.54654 7.61679 7.54654C7.61679 7.54654 7.63391 7.52942 7.63391 7.5123C7.65103 7.49518 7.68527 7.47806 7.70239 7.46094C7.73663 7.46094 7.77087 7.46094 7.78799 7.46094C7.80511 7.47806 7.82223 7.47806 7.83935 7.49518L10.2704 8.89901C10.2875 8.91613 10.3046 8.91613 10.3046 8.91613H10.3217L12.8041 10.3542C12.8383 10.3713 12.9068 10.4227 12.9068 10.474C12.9068 10.5425 12.8555 10.611 12.8212 10.6281Z" fill="#8A92AB"/>
<path d="M15.5083 4.4995C13.8648 2.83887 11.6906 2 9.51637 2C7.34215 2 5.16793 2.82175 3.50731 4.48238C1.84668 6.16012 1.00781 8.33434 1.00781 10.5086C1.00781 12.6828 1.82956 14.857 3.49019 16.5176C5.15081 18.1782 7.32503 19 9.49925 19C11.6735 19 13.8477 18.1782 15.5083 16.5176C17.1689 14.857 17.9907 12.6828 17.9907 10.5086C17.9907 8.33434 17.1689 6.16012 15.5083 4.4995ZM14.9091 15.9013C13.4197 17.3907 11.468 18.144 9.51637 18.144C7.56471 18.144 5.61305 17.3907 4.12362 15.9013C2.61708 14.4119 1.88092 12.4602 1.88092 10.5086C1.88092 8.5569 2.6342 6.60524 4.12362 5.11581C5.61305 3.62638 7.56471 2.87311 9.51637 2.87311C11.468 2.87311 13.4197 3.62638 14.9091 5.11581C16.3985 6.60524 17.1518 8.5569 17.1518 10.5086C17.1518 12.4602 16.4157 14.4119 14.9091 15.9013Z" fill="#8A92AB"/>
<path fill-rule="evenodd" clip-rule="evenodd" d="M0.933017 0C-0.128728 1.20903 0.901489 2.25438 1.61921 3.29097C1.86494 3.64656 2.06709 3.92617 2.29335 4.21844C2.61883 3.47607 2.80336 2.79021 3.37828 1.95042C4.3918 0.465684 5.60469 -0.0350724 7.29607 0.567005C7.8376 0.759903 8.16401 0.969364 8.64991 1.27138C7.72726 1.05217 6.78235 0.883631 5.88103 1.30937C4.80444 1.8189 4.15534 2.72786 3.6713 3.83264C3.40053 4.45128 3.08803 5.87853 2.27758 5.75968C1.71843 5.67687 0.626084 3.94565 0.422081 3.48484C-0.107401 2.29043 -0.332732 0.74529 0.933017 0Z" fill="#8A92AB"/>
</svg>
