<svg width="14" height="15" viewBox="0 0 14 15" fill="none" xmlns="http://www.w3.org/2000/svg">
<path d="M11.9497 2.55026C10.6276 1.22814 8.86969 0.5 6.99996 0.5C5.13022 0.5 3.37238 1.22816 2.05026 2.55029C0.728135 3.87241 0 5.63025 0 7.49996C0 9.36969 0.728135 11.1276 2.05026 12.4497C3.37235 13.7718 5.13017 14.5 6.99996 14.5C8.86975 14.5 10.6276 13.7718 11.9497 12.4497C13.2718 11.1276 13.9999 9.36972 13.9999 7.49999C13.9999 5.6302 13.2718 3.87238 11.9497 2.55026ZM12.9009 4.73674C12.3497 6.27551 11.4546 7.60753 10.3076 8.59343C9.29098 9.46728 8.09527 10.0396 6.91749 10.2201C6.75594 9.32961 6.84 8.46144 7.16142 7.72754C8.18944 7.61527 9.20777 7.10274 10.0438 6.27313C10.8913 5.43206 11.4873 4.33487 11.7833 3.07917C12.2357 3.5684 12.6142 4.12684 12.9009 4.73674ZM6.99996 0.983245C8.68264 0.983245 10.2183 1.62432 11.3758 2.67503C11.3037 3.04999 11.2039 3.41079 11.0779 3.75467C9.80258 2.25289 7.79126 1.31394 5.55465 1.14507C6.01969 1.03933 6.50337 0.983245 6.99996 0.983245ZM4.187 1.62227C6.91465 1.43797 9.45542 2.44414 10.8671 4.26123C10.582 4.8716 10.2072 5.41768 9.7518 5.88105C8.94514 4.88309 7.81054 4.10863 6.45306 3.63274C5.10296 3.15945 3.60825 3.01721 2.09546 3.21381C2.67484 2.55168 3.38567 2.00735 4.187 1.62227ZM1.65889 3.7708C3.26626 3.47931 4.86652 3.58863 6.29315 4.08875C7.55824 4.53224 8.65171 5.28162 9.39699 6.21133C8.70653 6.79649 7.91264 7.15775 7.11636 7.24635C6.50509 6.4122 5.55208 5.78652 4.41565 5.4774C3.26205 5.1636 2.01217 5.1965 0.775221 5.56928C0.976799 4.92076 1.27742 4.31551 1.65889 3.7708ZM0.483273 7.49993C0.483273 7.02803 0.534186 6.56778 0.629917 6.12405C0.991838 5.99838 1.35543 5.90402 1.71751 5.8411C1.0559 7.69262 1.24611 9.89879 2.21312 11.9169C1.14001 10.7548 0.483273 9.20268 0.483273 7.49993ZM3.31335 12.8705C1.79224 10.6014 1.39436 7.90005 2.26165 5.77036C2.93278 5.71204 3.5931 5.76363 4.22209 5.9263C3.76121 7.12393 3.65779 8.49374 3.92439 9.90722C4.18985 11.3148 4.81517 12.6819 5.74363 13.8947C4.85616 13.7206 4.03279 13.3659 3.31335 12.8705ZM6.99996 14.0167C6.81241 14.0167 6.6268 14.0083 6.44319 13.9927C5.38589 12.7458 4.67963 11.3043 4.39925 9.81769C4.1508 8.50035 4.25301 7.17867 4.68545 6.06841C5.53745 6.37381 6.24727 6.88068 6.72215 7.52596C6.3054 8.47241 6.24005 9.61056 6.54053 10.7493C6.84552 11.9053 7.49898 12.9712 8.44026 13.856C7.97676 13.961 7.49477 14.0167 6.99996 14.0167ZM8.99337 13.7045C8.70361 13.4539 8.44015 13.1862 8.20464 12.9042C10.1428 12.5506 11.9617 11.2784 13.2261 9.42589C12.5986 11.4505 11.0085 13.0555 8.99337 13.7045ZM7.87132 12.4683C7.48528 11.9162 7.19976 11.3186 7.02613 10.6925C8.29373 10.4929 9.53174 9.89756 10.6226 8.95989C11.7088 8.02627 12.5801 6.80116 13.1662 5.39069C13.3933 6.05258 13.5168 6.76209 13.5168 7.49996C13.5168 7.66845 13.5103 7.83552 13.4977 8.00087C12.2937 10.4562 10.1514 12.1543 7.87132 12.4683Z" fill="#8A92AB"/>
</svg>
