<svg width="30" height="26" viewBox="0 0 30 26" fill="none" xmlns="http://www.w3.org/2000/svg">
<path d="M21.0113 19.4895C20.8159 19.2941 20.4992 19.2941 20.3038 19.4895L15.5008 24.293V10.5C15.5008 10.2239 15.2769 10 15.0008 10C14.7247 10 14.5008 10.2239 14.5008 10.5V24.293L9.69778 19.4895C9.50241 19.2941 9.18566 19.2941 8.99028 19.4895C8.79491 19.6849 8.79491 20.0016 8.99028 20.197L14.6468 25.853C14.8418 26.0485 15.1584 26.0489 15.3539 25.8539C15.3542 25.8536 15.3545 25.8533 15.3548 25.853L21.0113 20.197C21.2067 20.0016 21.2067 19.6849 21.0113 19.4895Z" fill="#88B6FF"/>
<path d="M28.5 0H1.5C0.671562 0 0 0.671563 0 1.5V19.5C0 20.3284 0.671562 21 1.5 21H6.5C6.77612 21 7 20.7761 7 20.5C7 20.2239 6.77612 20 6.5 20H1.5C1.22388 20 1 19.7761 1 19.5V6H29V19.5C29 19.7761 28.7761 20 28.5 20H23.5C23.2239 20 23 20.2239 23 20.5C23 20.7761 23.2239 21 23.5 21H28.5C29.3284 21 30 20.3284 30 19.5V1.5C30 0.671563 29.3284 0 28.5 0ZM29 4H1V1.5C1 1.22388 1.22388 1 1.5 1H28.5C28.7761 1 29 1.22388 29 1.5V4Z" fill="#88B6FF"/>
<path d="M14.5 7H3.5C3.22388 7 3 7.22387 3 7.5C3 7.77613 3.22388 8 3.5 8H14.5C14.7761 8 15 7.77613 15 7.5C15 7.22387 14.7761 7 14.5 7Z" fill="#88B6FF"/>
</svg>
